ISO-10303-21;
HEADER;
/* Generated by software containing ST-Developer
 * from STEP Tools, Inc. (www.steptools.com) 
 */

FILE_DESCRIPTION(
/* description */ (''),
/* implementation_level */ '2;1');

FILE_NAME(
/* name */ 'Input_Nozzle.step',
/* time_stamp */ '2026-08-06T10:01:11+01:00',
/* author */ (''),
/* organization */ (''),
/* preprocessor_version */ 'ST-DEVELOPER v20.1',
/* originating_system */ 'Autodesk Translation Framework v15.8.0.0',
/* authorisation */ '');

FILE_SCHEMA (('AUTOMOTIVE_DESIGN { 1 0 10303 214 3 1 1 }'));
ENDSEC;

DATA;
#10=MECHANICAL_DESIGN_GEOMETRIC_PRESENTATION_REPRESENTATION('',(#13),#1701);
#11=SHAPE_REPRESENTATION_RELATIONSHIP('SRR','None',#1707,#12);
#12=ADVANCED_BREP_SHAPE_REPRESENTATION('',(#14),#1700);
#13=STYLED_ITEM('',(#1717),#14);
#14=MANIFOLD_SOLID_BREP('Body1',#1005);
#15=CONICAL_SURFACE('',#1051,3.725,0.785398163397446);
#16=FACE_BOUND('',#126,.T.);
#17=FACE_BOUND('',#136,.T.);
#18=FACE_BOUND('',#140,.T.);
#19=FACE_BOUND('',#143,.T.);
#20=FACE_BOUND('',#147,.T.);
#21=FACE_BOUND('',#153,.T.);
#22=FACE_BOUND('',#155,.T.);
#23=FACE_BOUND('',#174,.T.);
#24=FACE_BOUND('',#178,.T.);
#25=FACE_BOUND('',#180,.T.);
#26=PLANE('',#1010);
#27=PLANE('',#1029);
#28=PLANE('',#1030);
#29=PLANE('',#1033);
#30=PLANE('',#1034);
#31=PLANE('',#1040);
#32=PLANE('',#1048);
#33=PLANE('',#1049);
#34=PLANE('',#1056);
#35=PLANE('',#1060);
#36=PLANE('',#1061);
#37=PLANE('',#1062);
#38=PLANE('',#1065);
#39=PLANE('',#1067);
#40=PLANE('',#1070);
#41=PLANE('',#1073);
#42=PLANE('',#1074);
#43=PLANE('',#1077);
#44=PLANE('',#1078);
#45=PLANE('',#1079);
#46=PLANE('',#1080);
#47=PLANE('',#1083);
#48=PLANE('',#1086);
#49=PLANE('',#1087);
#50=PLANE('',#1088);
#51=PLANE('',#1089);
#52=PLANE('',#1090);
#53=PLANE('',#1093);
#54=PLANE('',#1096);
#55=PLANE('',#1097);
#56=PLANE('',#1099);
#57=PLANE('',#1100);
#58=PLANE('',#1101);
#59=PLANE('',#1102);
#60=PLANE('',#1105);
#61=PLANE('',#1106);
#62=PLANE('',#1107);
#63=PLANE('',#1108);
#64=FACE_OUTER_BOUND('',#120,.T.);
#65=FACE_OUTER_BOUND('',#121,.T.);
#66=FACE_OUTER_BOUND('',#122,.T.);
#67=FACE_OUTER_BOUND('',#123,.T.);
#68=FACE_OUTER_BOUND('',#124,.T.);
#69=FACE_OUTER_BOUND('',#125,.T.);
#70=FACE_OUTER_BOUND('',#127,.T.);
#71=FACE_OUTER_BOUND('',#128,.T.);
#72=FACE_OUTER_BOUND('',#129,.T.);
#73=FACE_OUTER_BOUND('',#130,.T.);
#74=FACE_OUTER_BOUND('',#131,.T.);
#75=FACE_OUTER_BOUND('',#132,.T.);
#76=FACE_OUTER_BOUND('',#133,.T.);
#77=FACE_OUTER_BOUND('',#134,.T.);
#78=FACE_OUTER_BOUND('',#135,.T.);
#79=FACE_OUTER_BOUND('',#137,.T.);
#80=FACE_OUTER_BOUND('',#138,.T.);
#81=FACE_OUTER_BOUND('',#139,.T.);
#82=FACE_OUTER_BOUND('',#141,.T.);
#83=FACE_OUTER_BOUND('',#142,.T.);
#84=FACE_OUTER_BOUND('',#144,.T.);
#85=FACE_OUTER_BOUND('',#145,.T.);
#86=FACE_OUTER_BOUND('',#146,.T.);
#87=FACE_OUTER_BOUND('',#148,.T.);
#88=FACE_OUTER_BOUND('',#149,.T.);
#89=FACE_OUTER_BOUND('',#150,.T.);
#90=FACE_OUTER_BOUND('',#151,.T.);
#91=FACE_OUTER_BOUND('',#152,.T.);
#92=FACE_OUTER_BOUND('',#154,.T.);
#93=FACE_OUTER_BOUND('',#156,.T.);
#94=FACE_OUTER_BOUND('',#157,.T.);
#95=FACE_OUTER_BOUND('',#158,.T.);
#96=FACE_OUTER_BOUND('',#159,.T.);
#97=FACE_OUTER_BOUND('',#160,.T.);
#98=FACE_OUTER_BOUND('',#161,.T.);
#99=FACE_OUTER_BOUND('',#162,.T.);
#100=FACE_OUTER_BOUND('',#163,.T.);
#101=FACE_OUTER_BOUND('',#164,.T.);
#102=FACE_OUTER_BOUND('',#165,.T.);
#103=FACE_OUTER_BOUND('',#166,.T.);
#104=FACE_OUTER_BOUND('',#167,.T.);
#105=FACE_OUTER_BOUND('',#168,.T.);
#106=FACE_OUTER_BOUND('',#169,.T.);
#107=FACE_OUTER_BOUND('',#170,.T.);
#108=FACE_OUTER_BOUND('',#171,.T.);
#109=FACE_OUTER_BOUND('',#172,.T.);
#110=FACE_OUTER_BOUND('',#173,.T.);
#111=FACE_OUTER_BOUND('',#175,.T.);
#112=FACE_OUTER_BOUND('',#176,.T.);
#113=FACE_OUTER_BOUND('',#177,.T.);
#114=FACE_OUTER_BOUND('',#179,.T.);
#115=FACE_OUTER_BOUND('',#181,.T.);
#116=FACE_OUTER_BOUND('',#182,.T.);
#117=FACE_OUTER_BOUND('',#183,.T.);
#118=FACE_OUTER_BOUND('',#184,.T.);
#119=FACE_OUTER_BOUND('',#185,.T.);
#120=EDGE_LOOP('',(#652,#653,#654,#655));
#121=EDGE_LOOP('',(#656,#657,#658,#659));
#122=EDGE_LOOP('',(#660,#661,#662,#663));
#123=EDGE_LOOP('',(#664,#665,#666,#667));
#124=EDGE_LOOP('',(#668,#669,#670,#671,#672,#673,#674,#675));
#125=EDGE_LOOP('',(#676,#677,#678,#679));
#126=EDGE_LOOP('',(#680,#681,#682,#683,#684));
#127=EDGE_LOOP('',(#685,#686,#687,#688,#689,#690,#691,#692,#693,#694,#695,
#696));
#128=EDGE_LOOP('',(#697,#698,#699,#700,#701,#702));
#129=EDGE_LOOP('',(#703,#704,#705,#706,#707,#708,#709,#710,#711,#712,#713,
#714));
#130=EDGE_LOOP('',(#715,#716,#717,#718,#719,#720));
#131=EDGE_LOOP('',(#721,#722,#723,#724));
#132=EDGE_LOOP('',(#725,#726,#727));
#133=EDGE_LOOP('',(#728,#729,#730,#731,#732,#733,#734,#735));
#134=EDGE_LOOP('',(#736,#737));
#135=EDGE_LOOP('',(#738));
#136=EDGE_LOOP('',(#739));
#137=EDGE_LOOP('',(#740,#741,#742,#743,#744));
#138=EDGE_LOOP('',(#745,#746,#747,#748,#749));
#139=EDGE_LOOP('',(#750));
#140=EDGE_LOOP('',(#751));
#141=EDGE_LOOP('',(#752,#753,#754,#755));
#142=EDGE_LOOP('',(#756));
#143=EDGE_LOOP('',(#757));
#144=EDGE_LOOP('',(#758,#759,#760,#761));
#145=EDGE_LOOP('',(#762,#763,#764,#765,#766,#767));
#146=EDGE_LOOP('',(#768,#769,#770,#771));
#147=EDGE_LOOP('',(#772));
#148=EDGE_LOOP('',(#773,#774,#775,#776,#777,#778,#779,#780,#781,#782,#783,
#784,#785,#786,#787,#788));
#149=EDGE_LOOP('',(#789,#790,#791,#792));
#150=EDGE_LOOP('',(#793,#794,#795,#796));
#151=EDGE_LOOP('',(#797,#798,#799,#800));
#152=EDGE_LOOP('',(#801));
#153=EDGE_LOOP('',(#802));
#154=EDGE_LOOP('',(#803));
#155=EDGE_LOOP('',(#804));
#156=EDGE_LOOP('',(#805,#806,#807,#808));
#157=EDGE_LOOP('',(#809,#810,#811,#812));
#158=EDGE_LOOP('',(#813,#814,#815,#816));
#159=EDGE_LOOP('',(#817,#818,#819,#820));
#160=EDGE_LOOP('',(#821,#822,#823,#824));
#161=EDGE_LOOP('',(#825,#826,#827,#828));
#162=EDGE_LOOP('',(#829,#830,#831,#832));
#163=EDGE_LOOP('',(#833,#834,#835,#836));
#164=EDGE_LOOP('',(#837,#838,#839,#840,#841,#842,#843,#844,#845,#846,#847,
#848));
#165=EDGE_LOOP('',(#849,#850,#851,#852));
#166=EDGE_LOOP('',(#853,#854,#855,#856));
#167=EDGE_LOOP('',(#857,#858,#859,#860));
#168=EDGE_LOOP('',(#861,#862,#863,#864));
#169=EDGE_LOOP('',(#865,#866,#867,#868));
#170=EDGE_LOOP('',(#869,#870,#871,#872));
#171=EDGE_LOOP('',(#873,#874,#875,#876));
#172=EDGE_LOOP('',(#877,#878,#879,#880,#881,#882,#883,#884,#885,#886,#887,
#888));
#173=EDGE_LOOP('',(#889,#890,#891,#892,#893,#894,#895,#896,#897,#898));
#174=EDGE_LOOP('',(#899));
#175=EDGE_LOOP('',(#900,#901));
#176=EDGE_LOOP('',(#902,#903));
#177=EDGE_LOOP('',(#904));
#178=EDGE_LOOP('',(#905));
#179=EDGE_LOOP('',(#906));
#180=EDGE_LOOP('',(#907));
#181=EDGE_LOOP('',(#908,#909,#910,#911));
#182=EDGE_LOOP('',(#912,#913,#914,#915));
#183=EDGE_LOOP('',(#916,#917,#918,#919));
#184=EDGE_LOOP('',(#920,#921,#922,#923,#924,#925));
#185=EDGE_LOOP('',(#926,#927,#928,#929,#930,#931));
#186=ELLIPSE('',#1009,2.3094010767585,2.);
#187=ELLIPSE('',#1013,2.3094010767585,2.);
#188=ELLIPSE('',#1018,4.82962913144534,1.25);
#189=ELLIPSE('',#1020,4.82962913144534,1.25);
#190=ELLIPSE('',#1022,1.2940952255126,1.25);
#191=ELLIPSE('',#1027,1.44337567297406,1.25);
#192=ELLIPSE('',#1028,1.44337567297406,1.25);
#193=CIRCLE('',#1008,2.);
#194=CIRCLE('',#1012,2.);
#195=CIRCLE('',#1015,2.1);
#196=CIRCLE('',#1016,2.1);
#197=CIRCLE('',#1019,1.25);
#198=CIRCLE('',#1021,1.25);
#199=CIRCLE('',#1023,1.25);
#200=CIRCLE('',#1025,1.25);
#201=CIRCLE('',#1026,1.25);
#202=CIRCLE('',#1031,1.1);
#203=CIRCLE('',#1032,1.1);
#204=CIRCLE('',#1035,1.1);
#205=CIRCLE('',#1036,1.1);
#206=CIRCLE('',#1038,2.1);
#207=CIRCLE('',#1039,2.1);
#208=CIRCLE('',#1041,4.725);
#209=CIRCLE('',#1042,4.725);
#210=CIRCLE('',#1044,4.725);
#211=CIRCLE('',#1045,4.725);
#212=CIRCLE('',#1046,4.725);
#213=CIRCLE('',#1047,4.725);
#214=CIRCLE('',#1050,3.725);
#215=CIRCLE('',#1052,4.725);
#216=CIRCLE('',#1053,4.725);
#217=CIRCLE('',#1055,4.725);
#218=CIRCLE('',#1057,3.405);
#219=CIRCLE('',#1059,3.405);
#220=CIRCLE('',#1063,2.);
#221=CIRCLE('',#1064,2.);
#222=CIRCLE('',#1066,2.03327);
#223=CIRCLE('',#1069,2.);
#224=CIRCLE('',#1072,2.);
#225=CIRCLE('',#1075,2.03327);
#226=CIRCLE('',#1082,1.1);
#227=CIRCLE('',#1085,1.1);
#228=CIRCLE('',#1092,1.1);
#229=CIRCLE('',#1095,1.1);
#230=CIRCLE('',#1098,2.03327);
#231=CIRCLE('',#1103,2.03327);
#232=LINE('',#1413,#326);
#233=LINE('',#1417,#327);
#234=LINE('',#1421,#328);
#235=LINE('',#1423,#329);
#236=LINE('',#1424,#330);
#237=LINE('',#1429,#331);
#238=LINE('',#1435,#332);
#239=LINE('',#1442,#333);
#240=LINE('',#1455,#334);
#241=LINE('',#1462,#335);
#242=LINE('',#1463,#336);
#243=LINE('',#1465,#337);
#244=LINE('',#1467,#338);
#245=LINE('',#1469,#339);
#246=LINE('',#1471,#340);
#247=LINE('',#1473,#341);
#248=LINE('',#1475,#342);
#249=LINE('',#1477,#343);
#250=LINE('',#1479,#344);
#251=LINE('',#1480,#345);
#252=LINE('',#1484,#346);
#253=LINE('',#1488,#347);
#254=LINE('',#1492,#348);
#255=LINE('',#1493,#349);
#256=LINE('',#1496,#350);
#257=LINE('',#1498,#351);
#258=LINE('',#1500,#352);
#259=LINE('',#1502,#353);
#260=LINE('',#1504,#354);
#261=LINE('',#1506,#355);
#262=LINE('',#1508,#356);
#263=LINE('',#1510,#357);
#264=LINE('',#1512,#358);
#265=LINE('',#1514,#359);
#266=LINE('',#1515,#360);
#267=LINE('',#1519,#361);
#268=LINE('',#1523,#362);
#269=LINE('',#1527,#363);
#270=LINE('',#1528,#364);
#271=LINE('',#1533,#365);
#272=LINE('',#1542,#366);
#273=LINE('',#1555,#367);
#274=LINE('',#1558,#368);
#275=LINE('',#1565,#369);
#276=LINE('',#1569,#370);
#277=LINE('',#1574,#371);
#278=LINE('',#1579,#372);
#279=LINE('',#1581,#373);
#280=LINE('',#1583,#374);
#281=LINE('',#1584,#375);
#282=LINE('',#1590,#376);
#283=LINE('',#1592,#377);
#284=LINE('',#1594,#378);
#285=LINE('',#1595,#379);
#286=LINE('',#1597,#380);
#287=LINE('',#1599,#381);
#288=LINE('',#1600,#382);
#289=LINE('',#1602,#383);
#290=LINE('',#1604,#384);
#291=LINE('',#1605,#385);
#292=LINE('',#1606,#386);
#293=LINE('',#1609,#387);
#294=LINE('',#1613,#388);
#295=LINE('',#1614,#389);
#296=LINE('',#1622,#390);
#297=LINE('',#1625,#391);
#298=LINE('',#1626,#392);
#299=LINE('',#1630,#393);
#300=LINE('',#1631,#394);
#301=LINE('',#1632,#395);
#302=LINE('',#1634,#396);
#303=LINE('',#1637,#397);
#304=LINE('',#1638,#398);
#305=LINE('',#1641,#399);
#306=LINE('',#1645,#400);
#307=LINE('',#1646,#401);
#308=LINE('',#1650,#402);
#309=LINE('',#1651,#403);
#310=LINE('',#1654,#404);
#311=LINE('',#1655,#405);
#312=LINE('',#1658,#406);
#313=LINE('',#1659,#407);
#314=LINE('',#1662,#408);
#315=LINE('',#1663,#409);
#316=LINE('',#1666,#410);
#317=LINE('',#1667,#411);
#318=LINE('',#1670,#412);
#319=LINE('',#1674,#413);
#320=LINE('',#1675,#414);
#321=LINE('',#1679,#415);
#322=LINE('',#1680,#416);
#323=LINE('',#1691,#417);
#324=LINE('',#1694,#418);
#325=LINE('',#1695,#419);
#326=VECTOR('',#1113,10.3565729445429);
#327=VECTOR('',#1116,9.20187240616359);
#328=VECTOR('',#1121,4.79999999999999);
#329=VECTOR('',#1122,9.20187240616359);
#330=VECTOR('',#1123,4.79999999999997);
#331=VECTOR('',#1128,10.3565729445429);
#332=VECTOR('',#1135,2.1);
#333=VECTOR('',#1142,1.25);
#334=VECTOR('',#1157,1.25);
#335=VECTOR('',#1166,2.2);
#336=VECTOR('',#1167,5.69999999999999);
#337=VECTOR('',#1168,3.46410161513774);
#338=VECTOR('',#1169,11.7886237521117);
#339=VECTOR('',#1170,12.5);
#340=VECTOR('',#1171,4.4);
#341=VECTOR('',#1172,3.40290099007054);
#342=VECTOR('',#1173,3.44419801985891);
#343=VECTOR('',#1174,8.65290099007053);
#344=VECTOR('',#1175,1.9);
#345=VECTOR('',#1176,5.7);
#346=VECTOR('',#1179,9.4);
#347=VECTOR('',#1182,5.9);
#348=VECTOR('',#1185,9.4);
#349=VECTOR('',#1186,8.1);
#350=VECTOR('',#1189,5.7);
#351=VECTOR('',#1190,2.2);
#352=VECTOR('',#1191,5.69999999999999);
#353=VECTOR('',#1192,1.9);
#354=VECTOR('',#1193,8.65290099007054);
#355=VECTOR('',#1194,3.4441980198589);
#356=VECTOR('',#1195,3.40290099007055);
#357=VECTOR('',#1196,4.4);
#358=VECTOR('',#1197,12.5);
#359=VECTOR('',#1198,11.7886237521117);
#360=VECTOR('',#1199,3.46410161513774);
#361=VECTOR('',#1202,9.4);
#362=VECTOR('',#1205,5.9);
#363=VECTOR('',#1208,9.4);
#364=VECTOR('',#1209,8.1);
#365=VECTOR('',#1214,2.1);
#366=VECTOR('',#1227,4.725);
#367=VECTOR('',#1246,3.725);
#368=VECTOR('',#1249,4.725);
#369=VECTOR('',#1258,3.405);
#370=VECTOR('',#1265,8.8);
#371=VECTOR('',#1270,4.79999999999997);
#372=VECTOR('',#1275,10.1286297108185);
#373=VECTOR('',#1276,10.8);
#374=VECTOR('',#1277,10.1286297108185);
#375=VECTOR('',#1278,10.8);
#376=VECTOR('',#1283,2.9);
#377=VECTOR('',#1284,10.8);
#378=VECTOR('',#1285,2.9);
#379=VECTOR('',#1286,1.);
#380=VECTOR('',#1287,1.);
#381=VECTOR('',#1288,2.);
#382=VECTOR('',#1289,1.);
#383=VECTOR('',#1290,1.);
#384=VECTOR('',#1291,2.);
#385=VECTOR('',#1292,1.);
#386=VECTOR('',#1293,1.);
#387=VECTOR('',#1296,1.9);
#388=VECTOR('',#1301,1.9);
#389=VECTOR('',#1302,4.79999999999997);
#390=VECTOR('',#1315,2.447);
#391=VECTOR('',#1318,9.4);
#392=VECTOR('',#1319,1.);
#393=VECTOR('',#1322,11.7886237521117);
#394=VECTOR('',#1323,1.);
#395=VECTOR('',#1324,1.);
#396=VECTOR('',#1327,12.5);
#397=VECTOR('',#1330,1.);
#398=VECTOR('',#1331,9.4);
#399=VECTOR('',#1334,1.);
#400=VECTOR('',#1339,1.);
#401=VECTOR('',#1340,5.9);
#402=VECTOR('',#1347,0.141421356237311);
#403=VECTOR('',#1348,2.62275249577655);
#404=VECTOR('',#1351,9.4);
#405=VECTOR('',#1352,1.);
#406=VECTOR('',#1355,1.);
#407=VECTOR('',#1356,12.5);
#408=VECTOR('',#1359,1.);
#409=VECTOR('',#1360,11.7886237521117);
#410=VECTOR('',#1363,1.);
#411=VECTOR('',#1364,9.4);
#412=VECTOR('',#1367,1.);
#413=VECTOR('',#1372,1.);
#414=VECTOR('',#1373,5.89999999999999);
#415=VECTOR('',#1380,0.141421356237311);
#416=VECTOR('',#1381,2.62275249577655);
#417=VECTOR('',#1398,2.447);
#418=VECTOR('',#1403,8.8);
#419=VECTOR('',#1404,8.8);
#420=VERTEX_POINT('',#1411);
#421=VERTEX_POINT('',#1412);
#422=VERTEX_POINT('',#1414);
#423=VERTEX_POINT('',#1416);
#424=VERTEX_POINT('',#1420);
#425=VERTEX_POINT('',#1422);
#426=VERTEX_POINT('',#1426);
#427=VERTEX_POINT('',#1428);
#428=VERTEX_POINT('',#1432);
#429=VERTEX_POINT('',#1434);
#430=VERTEX_POINT('',#1438);
#431=VERTEX_POINT('',#1439);
#432=VERTEX_POINT('',#1441);
#433=VERTEX_POINT('',#1444);
#434=VERTEX_POINT('',#1446);
#435=VERTEX_POINT('',#1448);
#436=VERTEX_POINT('',#1452);
#437=VERTEX_POINT('',#1454);
#438=VERTEX_POINT('',#1460);
#439=VERTEX_POINT('',#1461);
#440=VERTEX_POINT('',#1464);
#441=VERTEX_POINT('',#1466);
#442=VERTEX_POINT('',#1468);
#443=VERTEX_POINT('',#1470);
#444=VERTEX_POINT('',#1472);
#445=VERTEX_POINT('',#1474);
#446=VERTEX_POINT('',#1476);
#447=VERTEX_POINT('',#1478);
#448=VERTEX_POINT('',#1482);
#449=VERTEX_POINT('',#1483);
#450=VERTEX_POINT('',#1485);
#451=VERTEX_POINT('',#1487);
#452=VERTEX_POINT('',#1489);
#453=VERTEX_POINT('',#1491);
#454=VERTEX_POINT('',#1495);
#455=VERTEX_POINT('',#1497);
#456=VERTEX_POINT('',#1499);
#457=VERTEX_POINT('',#1501);
#458=VERTEX_POINT('',#1503);
#459=VERTEX_POINT('',#1505);
#460=VERTEX_POINT('',#1507);
#461=VERTEX_POINT('',#1509);
#462=VERTEX_POINT('',#1511);
#463=VERTEX_POINT('',#1513);
#464=VERTEX_POINT('',#1517);
#465=VERTEX_POINT('',#1518);
#466=VERTEX_POINT('',#1520);
#467=VERTEX_POINT('',#1522);
#468=VERTEX_POINT('',#1524);
#469=VERTEX_POINT('',#1526);
#470=VERTEX_POINT('',#1530);
#471=VERTEX_POINT('',#1532);
#472=VERTEX_POINT('',#1536);
#473=VERTEX_POINT('',#1540);
#474=VERTEX_POINT('',#1548);
#475=VERTEX_POINT('',#1551);
#476=VERTEX_POINT('',#1552);
#477=VERTEX_POINT('',#1557);
#478=VERTEX_POINT('',#1561);
#479=VERTEX_POINT('',#1564);
#480=VERTEX_POINT('',#1571);
#481=VERTEX_POINT('',#1573);
#482=VERTEX_POINT('',#1577);
#483=VERTEX_POINT('',#1578);
#484=VERTEX_POINT('',#1580);
#485=VERTEX_POINT('',#1582);
#486=VERTEX_POINT('',#1585);
#487=VERTEX_POINT('',#1588);
#488=VERTEX_POINT('',#1589);
#489=VERTEX_POINT('',#1591);
#490=VERTEX_POINT('',#1593);
#491=VERTEX_POINT('',#1596);
#492=VERTEX_POINT('',#1598);
#493=VERTEX_POINT('',#1601);
#494=VERTEX_POINT('',#1603);
#495=VERTEX_POINT('',#1608);
#496=VERTEX_POINT('',#1612);
#497=VERTEX_POINT('',#1619);
#498=VERTEX_POINT('',#1624);
#499=VERTEX_POINT('',#1628);
#500=VERTEX_POINT('',#1629);
#501=VERTEX_POINT('',#1636);
#502=VERTEX_POINT('',#1640);
#503=VERTEX_POINT('',#1644);
#504=VERTEX_POINT('',#1653);
#505=VERTEX_POINT('',#1657);
#506=VERTEX_POINT('',#1661);
#507=VERTEX_POINT('',#1665);
#508=VERTEX_POINT('',#1669);
#509=VERTEX_POINT('',#1673);
#510=VERTEX_POINT('',#1682);
#511=VERTEX_POINT('',#1688);
#512=EDGE_CURVE('',#420,#421,#232,.T.);
#513=EDGE_CURVE('',#421,#422,#193,.T.);
#514=EDGE_CURVE('',#423,#422,#233,.T.);
#515=EDGE_CURVE('',#423,#420,#186,.T.);
#516=EDGE_CURVE('',#422,#424,#234,.T.);
#517=EDGE_CURVE('',#425,#424,#235,.T.);
#518=EDGE_CURVE('',#425,#423,#236,.T.);
#519=EDGE_CURVE('',#424,#426,#194,.T.);
#520=EDGE_CURVE('',#427,#426,#237,.T.);
#521=EDGE_CURVE('',#427,#425,#187,.T.);
#522=EDGE_CURVE('',#428,#428,#195,.T.);
#523=EDGE_CURVE('',#428,#429,#238,.T.);
#524=EDGE_CURVE('',#429,#429,#196,.F.);
#525=EDGE_CURVE('',#430,#431,#188,.F.);
#526=EDGE_CURVE('',#431,#432,#239,.T.);
#527=EDGE_CURVE('',#432,#432,#197,.F.);
#528=EDGE_CURVE('',#431,#433,#189,.F.);
#529=EDGE_CURVE('',#434,#433,#198,.T.);
#530=EDGE_CURVE('',#434,#435,#190,.T.);
#531=EDGE_CURVE('',#430,#435,#199,.T.);
#532=EDGE_CURVE('',#436,#436,#200,.T.);
#533=EDGE_CURVE('',#436,#437,#240,.T.);
#534=EDGE_CURVE('',#437,#437,#201,.T.);
#535=EDGE_CURVE('',#434,#433,#191,.T.);
#536=EDGE_CURVE('',#430,#435,#192,.T.);
#537=EDGE_CURVE('',#438,#439,#241,.T.);
#538=EDGE_CURVE('',#439,#421,#242,.T.);
#539=EDGE_CURVE('',#420,#440,#243,.T.);
#540=EDGE_CURVE('',#441,#440,#244,.T.);
#541=EDGE_CURVE('',#442,#441,#245,.T.);
#542=EDGE_CURVE('',#442,#443,#246,.T.);
#543=EDGE_CURVE('',#443,#444,#247,.T.);
#544=EDGE_CURVE('',#444,#445,#248,.T.);
#545=EDGE_CURVE('',#445,#446,#249,.T.);
#546=EDGE_CURVE('',#447,#446,#250,.T.);
#547=EDGE_CURVE('',#447,#438,#251,.T.);
#548=EDGE_CURVE('',#448,#449,#252,.T.);
#549=EDGE_CURVE('',#450,#448,#202,.T.);
#550=EDGE_CURVE('',#451,#450,#253,.T.);
#551=EDGE_CURVE('',#452,#451,#203,.T.);
#552=EDGE_CURVE('',#453,#452,#254,.T.);
#553=EDGE_CURVE('',#453,#449,#255,.T.);
#554=EDGE_CURVE('',#426,#454,#256,.T.);
#555=EDGE_CURVE('',#454,#455,#257,.T.);
#556=EDGE_CURVE('',#455,#456,#258,.T.);
#557=EDGE_CURVE('',#456,#457,#259,.T.);
#558=EDGE_CURVE('',#457,#458,#260,.T.);
#559=EDGE_CURVE('',#458,#459,#261,.T.);
#560=EDGE_CURVE('',#459,#460,#262,.T.);
#561=EDGE_CURVE('',#461,#460,#263,.T.);
#562=EDGE_CURVE('',#462,#461,#264,.T.);
#563=EDGE_CURVE('',#463,#462,#265,.T.);
#564=EDGE_CURVE('',#463,#427,#266,.T.);
#565=EDGE_CURVE('',#464,#465,#267,.T.);
#566=EDGE_CURVE('',#466,#464,#204,.T.);
#567=EDGE_CURVE('',#467,#466,#268,.T.);
#568=EDGE_CURVE('',#468,#467,#205,.T.);
#569=EDGE_CURVE('',#469,#468,#269,.T.);
#570=EDGE_CURVE('',#465,#469,#270,.T.);
#571=EDGE_CURVE('',#470,#470,#206,.T.);
#572=EDGE_CURVE('',#470,#471,#271,.T.);
#573=EDGE_CURVE('',#471,#471,#207,.F.);
#574=EDGE_CURVE('',#472,#458,#208,.T.);
#575=EDGE_CURVE('',#459,#472,#209,.T.);
#576=EDGE_CURVE('',#473,#473,#210,.T.);
#577=EDGE_CURVE('',#473,#472,#272,.T.);
#578=EDGE_CURVE('',#458,#445,#211,.T.);
#579=EDGE_CURVE('',#445,#444,#212,.T.);
#580=EDGE_CURVE('',#444,#459,#213,.T.);
#581=EDGE_CURVE('',#474,#474,#214,.T.);
#582=EDGE_CURVE('',#475,#476,#215,.T.);
#583=EDGE_CURVE('',#476,#475,#216,.T.);
#584=EDGE_CURVE('',#475,#474,#273,.T.);
#585=EDGE_CURVE('',#476,#477,#274,.T.);
#586=EDGE_CURVE('',#477,#477,#217,.T.);
#587=EDGE_CURVE('',#478,#478,#218,.T.);
#588=EDGE_CURVE('',#478,#479,#275,.T.);
#589=EDGE_CURVE('',#479,#479,#219,.T.);
#590=EDGE_CURVE('',#460,#443,#276,.T.);
#591=EDGE_CURVE('',#480,#457,#220,.T.);
#592=EDGE_CURVE('',#481,#480,#277,.T.);
#593=EDGE_CURVE('',#446,#481,#221,.T.);
#594=EDGE_CURVE('',#482,#483,#278,.T.);
#595=EDGE_CURVE('',#482,#484,#279,.T.);
#596=EDGE_CURVE('',#485,#484,#280,.T.);
#597=EDGE_CURVE('',#485,#483,#281,.T.);
#598=EDGE_CURVE('',#486,#486,#222,.T.);
#599=EDGE_CURVE('',#487,#488,#282,.T.);
#600=EDGE_CURVE('',#487,#489,#283,.T.);
#601=EDGE_CURVE('',#490,#489,#284,.T.);
#602=EDGE_CURVE('',#490,#465,#285,.T.);
#603=EDGE_CURVE('',#491,#469,#286,.T.);
#604=EDGE_CURVE('',#492,#491,#287,.T.);
#605=EDGE_CURVE('',#492,#461,#288,.T.);
#606=EDGE_CURVE('',#493,#442,#289,.T.);
#607=EDGE_CURVE('',#494,#493,#290,.T.);
#608=EDGE_CURVE('',#494,#449,#291,.T.);
#609=EDGE_CURVE('',#488,#453,#292,.T.);
#610=EDGE_CURVE('',#495,#481,#293,.T.);
#611=EDGE_CURVE('',#495,#447,#223,.T.);
#612=EDGE_CURVE('',#496,#480,#294,.T.);
#613=EDGE_CURVE('',#495,#496,#295,.T.);
#614=EDGE_CURVE('',#456,#496,#224,.T.);
#615=EDGE_CURVE('',#497,#497,#225,.F.);
#616=EDGE_CURVE('',#497,#486,#296,.T.);
#617=EDGE_CURVE('',#498,#490,#297,.T.);
#618=EDGE_CURVE('',#498,#464,#298,.T.);
#619=EDGE_CURVE('',#499,#500,#299,.T.);
#620=EDGE_CURVE('',#499,#463,#300,.T.);
#621=EDGE_CURVE('',#500,#462,#301,.T.);
#622=EDGE_CURVE('',#500,#492,#302,.T.);
#623=EDGE_CURVE('',#501,#468,#303,.T.);
#624=EDGE_CURVE('',#491,#501,#304,.T.);
#625=EDGE_CURVE('',#502,#467,#305,.T.);
#626=EDGE_CURVE('',#501,#502,#226,.T.);
#627=EDGE_CURVE('',#503,#466,#306,.T.);
#628=EDGE_CURVE('',#502,#503,#307,.T.);
#629=EDGE_CURVE('',#503,#498,#227,.T.);
#630=EDGE_CURVE('',#489,#482,#308,.F.);
#631=EDGE_CURVE('',#483,#499,#309,.T.);
#632=EDGE_CURVE('',#504,#494,#310,.T.);
#633=EDGE_CURVE('',#504,#448,#311,.T.);
#634=EDGE_CURVE('',#505,#441,#312,.T.);
#635=EDGE_CURVE('',#493,#505,#313,.T.);
#636=EDGE_CURVE('',#440,#506,#314,.T.);
#637=EDGE_CURVE('',#505,#506,#315,.T.);
#638=EDGE_CURVE('',#507,#452,#316,.T.);
#639=EDGE_CURVE('',#488,#507,#317,.T.);
#640=EDGE_CURVE('',#508,#451,#318,.T.);
#641=EDGE_CURVE('',#507,#508,#228,.T.);
#642=EDGE_CURVE('',#509,#450,#319,.T.);
#643=EDGE_CURVE('',#508,#509,#320,.T.);
#644=EDGE_CURVE('',#509,#504,#229,.T.);
#645=EDGE_CURVE('',#484,#487,#321,.F.);
#646=EDGE_CURVE('',#506,#485,#322,.T.);
#647=EDGE_CURVE('',#510,#510,#230,.T.);
#648=EDGE_CURVE('',#511,#511,#231,.F.);
#649=EDGE_CURVE('',#511,#510,#323,.T.);
#650=EDGE_CURVE('',#438,#455,#324,.T.);
#651=EDGE_CURVE('',#439,#454,#325,.T.);
#652=ORIENTED_EDGE('',*,*,#512,.T.);
#653=ORIENTED_EDGE('',*,*,#513,.T.);
#654=ORIENTED_EDGE('',*,*,#514,.F.);
#655=ORIENTED_EDGE('',*,*,#515,.T.);
#656=ORIENTED_EDGE('',*,*,#514,.T.);
#657=ORIENTED_EDGE('',*,*,#516,.T.);
#658=ORIENTED_EDGE('',*,*,#517,.F.);
#659=ORIENTED_EDGE('',*,*,#518,.T.);
#660=ORIENTED_EDGE('',*,*,#517,.T.);
#661=ORIENTED_EDGE('',*,*,#519,.T.);
#662=ORIENTED_EDGE('',*,*,#520,.F.);
#663=ORIENTED_EDGE('',*,*,#521,.T.);
#664=ORIENTED_EDGE('',*,*,#522,.F.);
#665=ORIENTED_EDGE('',*,*,#523,.T.);
#666=ORIENTED_EDGE('',*,*,#524,.F.);
#667=ORIENTED_EDGE('',*,*,#523,.F.);
#668=ORIENTED_EDGE('',*,*,#525,.T.);
#669=ORIENTED_EDGE('',*,*,#526,.T.);
#670=ORIENTED_EDGE('',*,*,#527,.F.);
#671=ORIENTED_EDGE('',*,*,#526,.F.);
#672=ORIENTED_EDGE('',*,*,#528,.T.);
#673=ORIENTED_EDGE('',*,*,#529,.F.);
#674=ORIENTED_EDGE('',*,*,#530,.T.);
#675=ORIENTED_EDGE('',*,*,#531,.F.);
#676=ORIENTED_EDGE('',*,*,#532,.T.);
#677=ORIENTED_EDGE('',*,*,#533,.T.);
#678=ORIENTED_EDGE('',*,*,#534,.T.);
#679=ORIENTED_EDGE('',*,*,#533,.F.);
#680=ORIENTED_EDGE('',*,*,#530,.F.);
#681=ORIENTED_EDGE('',*,*,#535,.T.);
#682=ORIENTED_EDGE('',*,*,#528,.F.);
#683=ORIENTED_EDGE('',*,*,#525,.F.);
#684=ORIENTED_EDGE('',*,*,#536,.T.);
#685=ORIENTED_EDGE('',*,*,#537,.T.);
#686=ORIENTED_EDGE('',*,*,#538,.T.);
#687=ORIENTED_EDGE('',*,*,#512,.F.);
#688=ORIENTED_EDGE('',*,*,#539,.T.);
#689=ORIENTED_EDGE('',*,*,#540,.F.);
#690=ORIENTED_EDGE('',*,*,#541,.F.);
#691=ORIENTED_EDGE('',*,*,#542,.T.);
#692=ORIENTED_EDGE('',*,*,#543,.T.);
#693=ORIENTED_EDGE('',*,*,#544,.T.);
#694=ORIENTED_EDGE('',*,*,#545,.T.);
#695=ORIENTED_EDGE('',*,*,#546,.F.);
#696=ORIENTED_EDGE('',*,*,#547,.T.);
#697=ORIENTED_EDGE('',*,*,#548,.F.);
#698=ORIENTED_EDGE('',*,*,#549,.F.);
#699=ORIENTED_EDGE('',*,*,#550,.F.);
#700=ORIENTED_EDGE('',*,*,#551,.F.);
#701=ORIENTED_EDGE('',*,*,#552,.F.);
#702=ORIENTED_EDGE('',*,*,#553,.T.);
#703=ORIENTED_EDGE('',*,*,#520,.T.);
#704=ORIENTED_EDGE('',*,*,#554,.T.);
#705=ORIENTED_EDGE('',*,*,#555,.T.);
#706=ORIENTED_EDGE('',*,*,#556,.T.);
#707=ORIENTED_EDGE('',*,*,#557,.T.);
#708=ORIENTED_EDGE('',*,*,#558,.T.);
#709=ORIENTED_EDGE('',*,*,#559,.T.);
#710=ORIENTED_EDGE('',*,*,#560,.T.);
#711=ORIENTED_EDGE('',*,*,#561,.F.);
#712=ORIENTED_EDGE('',*,*,#562,.F.);
#713=ORIENTED_EDGE('',*,*,#563,.F.);
#714=ORIENTED_EDGE('',*,*,#564,.T.);
#715=ORIENTED_EDGE('',*,*,#565,.F.);
#716=ORIENTED_EDGE('',*,*,#566,.F.);
#717=ORIENTED_EDGE('',*,*,#567,.F.);
#718=ORIENTED_EDGE('',*,*,#568,.F.);
#719=ORIENTED_EDGE('',*,*,#569,.F.);
#720=ORIENTED_EDGE('',*,*,#570,.F.);
#721=ORIENTED_EDGE('',*,*,#571,.F.);
#722=ORIENTED_EDGE('',*,*,#572,.T.);
#723=ORIENTED_EDGE('',*,*,#573,.F.);
#724=ORIENTED_EDGE('',*,*,#572,.F.);
#725=ORIENTED_EDGE('',*,*,#559,.F.);
#726=ORIENTED_EDGE('',*,*,#574,.F.);
#727=ORIENTED_EDGE('',*,*,#575,.F.);
#728=ORIENTED_EDGE('',*,*,#576,.F.);
#729=ORIENTED_EDGE('',*,*,#577,.T.);
#730=ORIENTED_EDGE('',*,*,#574,.T.);
#731=ORIENTED_EDGE('',*,*,#578,.T.);
#732=ORIENTED_EDGE('',*,*,#579,.T.);
#733=ORIENTED_EDGE('',*,*,#580,.T.);
#734=ORIENTED_EDGE('',*,*,#575,.T.);
#735=ORIENTED_EDGE('',*,*,#577,.F.);
#736=ORIENTED_EDGE('',*,*,#544,.F.);
#737=ORIENTED_EDGE('',*,*,#579,.F.);
#738=ORIENTED_EDGE('',*,*,#581,.T.);
#739=ORIENTED_EDGE('',*,*,#534,.F.);
#740=ORIENTED_EDGE('',*,*,#582,.T.);
#741=ORIENTED_EDGE('',*,*,#583,.T.);
#742=ORIENTED_EDGE('',*,*,#584,.T.);
#743=ORIENTED_EDGE('',*,*,#581,.F.);
#744=ORIENTED_EDGE('',*,*,#584,.F.);
#745=ORIENTED_EDGE('',*,*,#582,.F.);
#746=ORIENTED_EDGE('',*,*,#583,.F.);
#747=ORIENTED_EDGE('',*,*,#585,.T.);
#748=ORIENTED_EDGE('',*,*,#586,.T.);
#749=ORIENTED_EDGE('',*,*,#585,.F.);
#750=ORIENTED_EDGE('',*,*,#586,.F.);
#751=ORIENTED_EDGE('',*,*,#587,.T.);
#752=ORIENTED_EDGE('',*,*,#587,.F.);
#753=ORIENTED_EDGE('',*,*,#588,.T.);
#754=ORIENTED_EDGE('',*,*,#589,.T.);
#755=ORIENTED_EDGE('',*,*,#588,.F.);
#756=ORIENTED_EDGE('',*,*,#576,.T.);
#757=ORIENTED_EDGE('',*,*,#589,.F.);
#758=ORIENTED_EDGE('',*,*,#580,.F.);
#759=ORIENTED_EDGE('',*,*,#543,.F.);
#760=ORIENTED_EDGE('',*,*,#590,.F.);
#761=ORIENTED_EDGE('',*,*,#560,.F.);
#762=ORIENTED_EDGE('',*,*,#578,.F.);
#763=ORIENTED_EDGE('',*,*,#558,.F.);
#764=ORIENTED_EDGE('',*,*,#591,.F.);
#765=ORIENTED_EDGE('',*,*,#592,.F.);
#766=ORIENTED_EDGE('',*,*,#593,.F.);
#767=ORIENTED_EDGE('',*,*,#545,.F.);
#768=ORIENTED_EDGE('',*,*,#594,.F.);
#769=ORIENTED_EDGE('',*,*,#595,.T.);
#770=ORIENTED_EDGE('',*,*,#596,.F.);
#771=ORIENTED_EDGE('',*,*,#597,.T.);
#772=ORIENTED_EDGE('',*,*,#598,.F.);
#773=ORIENTED_EDGE('',*,*,#599,.F.);
#774=ORIENTED_EDGE('',*,*,#600,.T.);
#775=ORIENTED_EDGE('',*,*,#601,.F.);
#776=ORIENTED_EDGE('',*,*,#602,.T.);
#777=ORIENTED_EDGE('',*,*,#570,.T.);
#778=ORIENTED_EDGE('',*,*,#603,.F.);
#779=ORIENTED_EDGE('',*,*,#604,.F.);
#780=ORIENTED_EDGE('',*,*,#605,.T.);
#781=ORIENTED_EDGE('',*,*,#561,.T.);
#782=ORIENTED_EDGE('',*,*,#590,.T.);
#783=ORIENTED_EDGE('',*,*,#542,.F.);
#784=ORIENTED_EDGE('',*,*,#606,.F.);
#785=ORIENTED_EDGE('',*,*,#607,.F.);
#786=ORIENTED_EDGE('',*,*,#608,.T.);
#787=ORIENTED_EDGE('',*,*,#553,.F.);
#788=ORIENTED_EDGE('',*,*,#609,.F.);
#789=ORIENTED_EDGE('',*,*,#610,.F.);
#790=ORIENTED_EDGE('',*,*,#611,.T.);
#791=ORIENTED_EDGE('',*,*,#546,.T.);
#792=ORIENTED_EDGE('',*,*,#593,.T.);
#793=ORIENTED_EDGE('',*,*,#612,.F.);
#794=ORIENTED_EDGE('',*,*,#613,.F.);
#795=ORIENTED_EDGE('',*,*,#610,.T.);
#796=ORIENTED_EDGE('',*,*,#592,.T.);
#797=ORIENTED_EDGE('',*,*,#557,.F.);
#798=ORIENTED_EDGE('',*,*,#614,.T.);
#799=ORIENTED_EDGE('',*,*,#612,.T.);
#800=ORIENTED_EDGE('',*,*,#591,.T.);
#801=ORIENTED_EDGE('',*,*,#571,.T.);
#802=ORIENTED_EDGE('',*,*,#532,.F.);
#803=ORIENTED_EDGE('',*,*,#573,.T.);
#804=ORIENTED_EDGE('',*,*,#615,.T.);
#805=ORIENTED_EDGE('',*,*,#615,.F.);
#806=ORIENTED_EDGE('',*,*,#616,.T.);
#807=ORIENTED_EDGE('',*,*,#598,.T.);
#808=ORIENTED_EDGE('',*,*,#616,.F.);
#809=ORIENTED_EDGE('',*,*,#565,.T.);
#810=ORIENTED_EDGE('',*,*,#602,.F.);
#811=ORIENTED_EDGE('',*,*,#617,.F.);
#812=ORIENTED_EDGE('',*,*,#618,.T.);
#813=ORIENTED_EDGE('',*,*,#619,.F.);
#814=ORIENTED_EDGE('',*,*,#620,.T.);
#815=ORIENTED_EDGE('',*,*,#563,.T.);
#816=ORIENTED_EDGE('',*,*,#621,.F.);
#817=ORIENTED_EDGE('',*,*,#562,.T.);
#818=ORIENTED_EDGE('',*,*,#605,.F.);
#819=ORIENTED_EDGE('',*,*,#622,.F.);
#820=ORIENTED_EDGE('',*,*,#621,.T.);
#821=ORIENTED_EDGE('',*,*,#569,.T.);
#822=ORIENTED_EDGE('',*,*,#623,.F.);
#823=ORIENTED_EDGE('',*,*,#624,.F.);
#824=ORIENTED_EDGE('',*,*,#603,.T.);
#825=ORIENTED_EDGE('',*,*,#568,.T.);
#826=ORIENTED_EDGE('',*,*,#625,.F.);
#827=ORIENTED_EDGE('',*,*,#626,.F.);
#828=ORIENTED_EDGE('',*,*,#623,.T.);
#829=ORIENTED_EDGE('',*,*,#567,.T.);
#830=ORIENTED_EDGE('',*,*,#627,.F.);
#831=ORIENTED_EDGE('',*,*,#628,.F.);
#832=ORIENTED_EDGE('',*,*,#625,.T.);
#833=ORIENTED_EDGE('',*,*,#566,.T.);
#834=ORIENTED_EDGE('',*,*,#618,.F.);
#835=ORIENTED_EDGE('',*,*,#629,.F.);
#836=ORIENTED_EDGE('',*,*,#627,.T.);
#837=ORIENTED_EDGE('',*,*,#601,.T.);
#838=ORIENTED_EDGE('',*,*,#630,.T.);
#839=ORIENTED_EDGE('',*,*,#594,.T.);
#840=ORIENTED_EDGE('',*,*,#631,.T.);
#841=ORIENTED_EDGE('',*,*,#619,.T.);
#842=ORIENTED_EDGE('',*,*,#622,.T.);
#843=ORIENTED_EDGE('',*,*,#604,.T.);
#844=ORIENTED_EDGE('',*,*,#624,.T.);
#845=ORIENTED_EDGE('',*,*,#626,.T.);
#846=ORIENTED_EDGE('',*,*,#628,.T.);
#847=ORIENTED_EDGE('',*,*,#629,.T.);
#848=ORIENTED_EDGE('',*,*,#617,.T.);
#849=ORIENTED_EDGE('',*,*,#548,.T.);
#850=ORIENTED_EDGE('',*,*,#608,.F.);
#851=ORIENTED_EDGE('',*,*,#632,.F.);
#852=ORIENTED_EDGE('',*,*,#633,.T.);
#853=ORIENTED_EDGE('',*,*,#541,.T.);
#854=ORIENTED_EDGE('',*,*,#634,.F.);
#855=ORIENTED_EDGE('',*,*,#635,.F.);
#856=ORIENTED_EDGE('',*,*,#606,.T.);
#857=ORIENTED_EDGE('',*,*,#540,.T.);
#858=ORIENTED_EDGE('',*,*,#636,.T.);
#859=ORIENTED_EDGE('',*,*,#637,.F.);
#860=ORIENTED_EDGE('',*,*,#634,.T.);
#861=ORIENTED_EDGE('',*,*,#552,.T.);
#862=ORIENTED_EDGE('',*,*,#638,.F.);
#863=ORIENTED_EDGE('',*,*,#639,.F.);
#864=ORIENTED_EDGE('',*,*,#609,.T.);
#865=ORIENTED_EDGE('',*,*,#551,.T.);
#866=ORIENTED_EDGE('',*,*,#640,.F.);
#867=ORIENTED_EDGE('',*,*,#641,.F.);
#868=ORIENTED_EDGE('',*,*,#638,.T.);
#869=ORIENTED_EDGE('',*,*,#550,.T.);
#870=ORIENTED_EDGE('',*,*,#642,.F.);
#871=ORIENTED_EDGE('',*,*,#643,.F.);
#872=ORIENTED_EDGE('',*,*,#640,.T.);
#873=ORIENTED_EDGE('',*,*,#549,.T.);
#874=ORIENTED_EDGE('',*,*,#633,.F.);
#875=ORIENTED_EDGE('',*,*,#644,.F.);
#876=ORIENTED_EDGE('',*,*,#642,.T.);
#877=ORIENTED_EDGE('',*,*,#596,.T.);
#878=ORIENTED_EDGE('',*,*,#645,.T.);
#879=ORIENTED_EDGE('',*,*,#599,.T.);
#880=ORIENTED_EDGE('',*,*,#639,.T.);
#881=ORIENTED_EDGE('',*,*,#641,.T.);
#882=ORIENTED_EDGE('',*,*,#643,.T.);
#883=ORIENTED_EDGE('',*,*,#644,.T.);
#884=ORIENTED_EDGE('',*,*,#632,.T.);
#885=ORIENTED_EDGE('',*,*,#607,.T.);
#886=ORIENTED_EDGE('',*,*,#635,.T.);
#887=ORIENTED_EDGE('',*,*,#637,.T.);
#888=ORIENTED_EDGE('',*,*,#646,.T.);
#889=ORIENTED_EDGE('',*,*,#521,.F.);
#890=ORIENTED_EDGE('',*,*,#564,.F.);
#891=ORIENTED_EDGE('',*,*,#620,.F.);
#892=ORIENTED_EDGE('',*,*,#631,.F.);
#893=ORIENTED_EDGE('',*,*,#597,.F.);
#894=ORIENTED_EDGE('',*,*,#646,.F.);
#895=ORIENTED_EDGE('',*,*,#636,.F.);
#896=ORIENTED_EDGE('',*,*,#539,.F.);
#897=ORIENTED_EDGE('',*,*,#515,.F.);
#898=ORIENTED_EDGE('',*,*,#518,.F.);
#899=ORIENTED_EDGE('',*,*,#647,.F.);
#900=ORIENTED_EDGE('',*,*,#529,.T.);
#901=ORIENTED_EDGE('',*,*,#535,.F.);
#902=ORIENTED_EDGE('',*,*,#531,.T.);
#903=ORIENTED_EDGE('',*,*,#536,.F.);
#904=ORIENTED_EDGE('',*,*,#522,.T.);
#905=ORIENTED_EDGE('',*,*,#527,.T.);
#906=ORIENTED_EDGE('',*,*,#524,.T.);
#907=ORIENTED_EDGE('',*,*,#648,.T.);
#908=ORIENTED_EDGE('',*,*,#648,.F.);
#909=ORIENTED_EDGE('',*,*,#649,.T.);
#910=ORIENTED_EDGE('',*,*,#647,.T.);
#911=ORIENTED_EDGE('',*,*,#649,.F.);
#912=ORIENTED_EDGE('',*,*,#630,.F.);
#913=ORIENTED_EDGE('',*,*,#600,.F.);
#914=ORIENTED_EDGE('',*,*,#645,.F.);
#915=ORIENTED_EDGE('',*,*,#595,.F.);
#916=ORIENTED_EDGE('',*,*,#650,.T.);
#917=ORIENTED_EDGE('',*,*,#555,.F.);
#918=ORIENTED_EDGE('',*,*,#651,.F.);
#919=ORIENTED_EDGE('',*,*,#537,.F.);
#920=ORIENTED_EDGE('',*,*,#651,.T.);
#921=ORIENTED_EDGE('',*,*,#554,.F.);
#922=ORIENTED_EDGE('',*,*,#519,.F.);
#923=ORIENTED_EDGE('',*,*,#516,.F.);
#924=ORIENTED_EDGE('',*,*,#513,.F.);
#925=ORIENTED_EDGE('',*,*,#538,.F.);
#926=ORIENTED_EDGE('',*,*,#611,.F.);
#927=ORIENTED_EDGE('',*,*,#613,.T.);
#928=ORIENTED_EDGE('',*,*,#614,.F.);
#929=ORIENTED_EDGE('',*,*,#556,.F.);
#930=ORIENTED_EDGE('',*,*,#650,.F.);
#931=ORIENTED_EDGE('',*,*,#547,.F.);
#932=CYLINDRICAL_SURFACE('',#1007,2.);
#933=CYLINDRICAL_SURFACE('',#1011,2.);
#934=CYLINDRICAL_SURFACE('',#1014,2.1);
#935=CYLINDRICAL_SURFACE('',#1017,1.25);
#936=CYLINDRICAL_SURFACE('',#1024,1.25);
#937=CYLINDRICAL_SURFACE('',#1037,2.1);
#938=CYLINDRICAL_SURFACE('',#1043,4.725);
#939=CYLINDRICAL_SURFACE('',#1054,4.725);
#940=CYLINDRICAL_SURFACE('',#1058,3.405);
#941=CYLINDRICAL_SURFACE('',#1068,2.);
#942=CYLINDRICAL_SURFACE('',#1071,2.);
#943=CYLINDRICAL_SURFACE('',#1076,2.03327);
#944=CYLINDRICAL_SURFACE('',#1081,1.1);
#945=CYLINDRICAL_SURFACE('',#1084,1.1);
#946=CYLINDRICAL_SURFACE('',#1091,1.1);
#947=CYLINDRICAL_SURFACE('',#1094,1.1);
#948=CYLINDRICAL_SURFACE('',#1104,2.03327);
#949=ADVANCED_FACE('',(#64),#932,.T.);
#950=ADVANCED_FACE('',(#65),#26,.F.);
#951=ADVANCED_FACE('',(#66),#933,.T.);
#952=ADVANCED_FACE('',(#67),#934,.F.);
#953=ADVANCED_FACE('',(#68),#935,.F.);
#954=ADVANCED_FACE('',(#69,#16),#936,.F.);
#955=ADVANCED_FACE('',(#70),#27,.F.);
#956=ADVANCED_FACE('',(#71),#28,.F.);
#957=ADVANCED_FACE('',(#72),#29,.F.);
#958=ADVANCED_FACE('',(#73),#30,.F.);
#959=ADVANCED_FACE('',(#74),#937,.F.);
#960=ADVANCED_FACE('',(#75),#31,.T.);
#961=ADVANCED_FACE('',(#76),#938,.T.);
#962=ADVANCED_FACE('',(#77),#32,.T.);
#963=ADVANCED_FACE('',(#78,#17),#33,.T.);
#964=ADVANCED_FACE('',(#79),#15,.T.);
#965=ADVANCED_FACE('',(#80),#939,.T.);
#966=ADVANCED_FACE('',(#81,#18),#34,.T.);
#967=ADVANCED_FACE('',(#82),#940,.T.);
#968=ADVANCED_FACE('',(#83,#19),#35,.T.);
#969=ADVANCED_FACE('',(#84),#36,.T.);
#970=ADVANCED_FACE('',(#85),#37,.T.);
#971=ADVANCED_FACE('',(#86,#20),#38,.F.);
#972=ADVANCED_FACE('',(#87),#39,.F.);
#973=ADVANCED_FACE('',(#88),#941,.T.);
#974=ADVANCED_FACE('',(#89),#40,.F.);
#975=ADVANCED_FACE('',(#90),#942,.T.);
#976=ADVANCED_FACE('',(#91,#21),#41,.T.);
#977=ADVANCED_FACE('',(#92,#22),#42,.F.);
#978=ADVANCED_FACE('',(#93),#943,.F.);
#979=ADVANCED_FACE('',(#94),#43,.F.);
#980=ADVANCED_FACE('',(#95),#44,.F.);
#981=ADVANCED_FACE('',(#96),#45,.F.);
#982=ADVANCED_FACE('',(#97),#46,.F.);
#983=ADVANCED_FACE('',(#98),#944,.F.);
#984=ADVANCED_FACE('',(#99),#47,.F.);
#985=ADVANCED_FACE('',(#100),#945,.F.);
#986=ADVANCED_FACE('',(#101),#48,.F.);
#987=ADVANCED_FACE('',(#102),#49,.F.);
#988=ADVANCED_FACE('',(#103),#50,.F.);
#989=ADVANCED_FACE('',(#104),#51,.F.);
#990=ADVANCED_FACE('',(#105),#52,.F.);
#991=ADVANCED_FACE('',(#106),#946,.F.);
#992=ADVANCED_FACE('',(#107),#53,.F.);
#993=ADVANCED_FACE('',(#108),#947,.F.);
#994=ADVANCED_FACE('',(#109),#54,.F.);
#995=ADVANCED_FACE('',(#110,#23),#55,.F.);
#996=ADVANCED_FACE('',(#111),#56,.T.);
#997=ADVANCED_FACE('',(#112),#57,.T.);
#998=ADVANCED_FACE('',(#113,#24),#58,.T.);
#999=ADVANCED_FACE('',(#114,#25),#59,.F.);
#1000=ADVANCED_FACE('',(#115),#948,.F.);
#1001=ADVANCED_FACE('',(#116),#60,.F.);
#1002=ADVANCED_FACE('',(#117),#61,.F.);
#1003=ADVANCED_FACE('',(#118),#62,.F.);
#1004=ADVANCED_FACE('',(#119),#63,.F.);
#1005=CLOSED_SHELL('',(#949,#950,#951,#952,#953,#954,#955,#956,#957,#958,
#959,#960,#961,#962,#963,#964,#965,#966,#967,#968,#969,#970,#971,#972,#973,
#974,#975,#976,#977,#978,#979,#980,#981,#982,#983,#984,#985,#986,#987,#988,
#989,#990,#991,#992,#993,#994,#995,#996,#997,#998,#999,#1000,#1001,#1002,
#1003,#1004));
#1006=AXIS2_PLACEMENT_3D('',#1409,#1109,#1110);
#1007=AXIS2_PLACEMENT_3D('',#1410,#1111,#1112);
#1008=AXIS2_PLACEMENT_3D('',#1415,#1114,#1115);
#1009=AXIS2_PLACEMENT_3D('',#1418,#1117,#1118);
#1010=AXIS2_PLACEMENT_3D('',#1419,#1119,#1120);
#1011=AXIS2_PLACEMENT_3D('',#1425,#1124,#1125);
#1012=AXIS2_PLACEMENT_3D('',#1427,#1126,#1127);
#1013=AXIS2_PLACEMENT_3D('',#1430,#1129,#1130);
#1014=AXIS2_PLACEMENT_3D('',#1431,#1131,#1132);
#1015=AXIS2_PLACEMENT_3D('',#1433,#1133,#1134);
#1016=AXIS2_PLACEMENT_3D('',#1436,#1136,#1137);
#1017=AXIS2_PLACEMENT_3D('',#1437,#1138,#1139);
#1018=AXIS2_PLACEMENT_3D('',#1440,#1140,#1141);
#1019=AXIS2_PLACEMENT_3D('',#1443,#1143,#1144);
#1020=AXIS2_PLACEMENT_3D('',#1445,#1145,#1146);
#1021=AXIS2_PLACEMENT_3D('',#1447,#1147,#1148);
#1022=AXIS2_PLACEMENT_3D('',#1449,#1149,#1150);
#1023=AXIS2_PLACEMENT_3D('',#1450,#1151,#1152);
#1024=AXIS2_PLACEMENT_3D('',#1451,#1153,#1154);
#1025=AXIS2_PLACEMENT_3D('',#1453,#1155,#1156);
#1026=AXIS2_PLACEMENT_3D('',#1456,#1158,#1159);
#1027=AXIS2_PLACEMENT_3D('',#1457,#1160,#1161);
#1028=AXIS2_PLACEMENT_3D('',#1458,#1162,#1163);
#1029=AXIS2_PLACEMENT_3D('',#1459,#1164,#1165);
#1030=AXIS2_PLACEMENT_3D('',#1481,#1177,#1178);
#1031=AXIS2_PLACEMENT_3D('',#1486,#1180,#1181);
#1032=AXIS2_PLACEMENT_3D('',#1490,#1183,#1184);
#1033=AXIS2_PLACEMENT_3D('',#1494,#1187,#1188);
#1034=AXIS2_PLACEMENT_3D('',#1516,#1200,#1201);
#1035=AXIS2_PLACEMENT_3D('',#1521,#1203,#1204);
#1036=AXIS2_PLACEMENT_3D('',#1525,#1206,#1207);
#1037=AXIS2_PLACEMENT_3D('',#1529,#1210,#1211);
#1038=AXIS2_PLACEMENT_3D('',#1531,#1212,#1213);
#1039=AXIS2_PLACEMENT_3D('',#1534,#1215,#1216);
#1040=AXIS2_PLACEMENT_3D('',#1535,#1217,#1218);
#1041=AXIS2_PLACEMENT_3D('',#1537,#1219,#1220);
#1042=AXIS2_PLACEMENT_3D('',#1538,#1221,#1222);
#1043=AXIS2_PLACEMENT_3D('',#1539,#1223,#1224);
#1044=AXIS2_PLACEMENT_3D('',#1541,#1225,#1226);
#1045=AXIS2_PLACEMENT_3D('',#1543,#1228,#1229);
#1046=AXIS2_PLACEMENT_3D('',#1544,#1230,#1231);
#1047=AXIS2_PLACEMENT_3D('',#1545,#1232,#1233);
#1048=AXIS2_PLACEMENT_3D('',#1546,#1234,#1235);
#1049=AXIS2_PLACEMENT_3D('',#1547,#1236,#1237);
#1050=AXIS2_PLACEMENT_3D('',#1549,#1238,#1239);
#1051=AXIS2_PLACEMENT_3D('',#1550,#1240,#1241);
#1052=AXIS2_PLACEMENT_3D('',#1553,#1242,#1243);
#1053=AXIS2_PLACEMENT_3D('',#1554,#1244,#1245);
#1054=AXIS2_PLACEMENT_3D('',#1556,#1247,#1248);
#1055=AXIS2_PLACEMENT_3D('',#1559,#1250,#1251);
#1056=AXIS2_PLACEMENT_3D('',#1560,#1252,#1253);
#1057=AXIS2_PLACEMENT_3D('',#1562,#1254,#1255);
#1058=AXIS2_PLACEMENT_3D('',#1563,#1256,#1257);
#1059=AXIS2_PLACEMENT_3D('',#1566,#1259,#1260);
#1060=AXIS2_PLACEMENT_3D('',#1567,#1261,#1262);
#1061=AXIS2_PLACEMENT_3D('',#1568,#1263,#1264);
#1062=AXIS2_PLACEMENT_3D('',#1570,#1266,#1267);
#1063=AXIS2_PLACEMENT_3D('',#1572,#1268,#1269);
#1064=AXIS2_PLACEMENT_3D('',#1575,#1271,#1272);
#1065=AXIS2_PLACEMENT_3D('',#1576,#1273,#1274);
#1066=AXIS2_PLACEMENT_3D('',#1586,#1279,#1280);
#1067=AXIS2_PLACEMENT_3D('',#1587,#1281,#1282);
#1068=AXIS2_PLACEMENT_3D('',#1607,#1294,#1295);
#1069=AXIS2_PLACEMENT_3D('',#1610,#1297,#1298);
#1070=AXIS2_PLACEMENT_3D('',#1611,#1299,#1300);
#1071=AXIS2_PLACEMENT_3D('',#1615,#1303,#1304);
#1072=AXIS2_PLACEMENT_3D('',#1616,#1305,#1306);
#1073=AXIS2_PLACEMENT_3D('',#1617,#1307,#1308);
#1074=AXIS2_PLACEMENT_3D('',#1618,#1309,#1310);
#1075=AXIS2_PLACEMENT_3D('',#1620,#1311,#1312);
#1076=AXIS2_PLACEMENT_3D('',#1621,#1313,#1314);
#1077=AXIS2_PLACEMENT_3D('',#1623,#1316,#1317);
#1078=AXIS2_PLACEMENT_3D('',#1627,#1320,#1321);
#1079=AXIS2_PLACEMENT_3D('',#1633,#1325,#1326);
#1080=AXIS2_PLACEMENT_3D('',#1635,#1328,#1329);
#1081=AXIS2_PLACEMENT_3D('',#1639,#1332,#1333);
#1082=AXIS2_PLACEMENT_3D('',#1642,#1335,#1336);
#1083=AXIS2_PLACEMENT_3D('',#1643,#1337,#1338);
#1084=AXIS2_PLACEMENT_3D('',#1647,#1341,#1342);
#1085=AXIS2_PLACEMENT_3D('',#1648,#1343,#1344);
#1086=AXIS2_PLACEMENT_3D('',#1649,#1345,#1346);
#1087=AXIS2_PLACEMENT_3D('',#1652,#1349,#1350);
#1088=AXIS2_PLACEMENT_3D('',#1656,#1353,#1354);
#1089=AXIS2_PLACEMENT_3D('',#1660,#1357,#1358);
#1090=AXIS2_PLACEMENT_3D('',#1664,#1361,#1362);
#1091=AXIS2_PLACEMENT_3D('',#1668,#1365,#1366);
#1092=AXIS2_PLACEMENT_3D('',#1671,#1368,#1369);
#1093=AXIS2_PLACEMENT_3D('',#1672,#1370,#1371);
#1094=AXIS2_PLACEMENT_3D('',#1676,#1374,#1375);
#1095=AXIS2_PLACEMENT_3D('',#1677,#1376,#1377);
#1096=AXIS2_PLACEMENT_3D('',#1678,#1378,#1379);
#1097=AXIS2_PLACEMENT_3D('',#1681,#1382,#1383);
#1098=AXIS2_PLACEMENT_3D('',#1683,#1384,#1385);
#1099=AXIS2_PLACEMENT_3D('',#1684,#1386,#1387);
#1100=AXIS2_PLACEMENT_3D('',#1685,#1388,#1389);
#1101=AXIS2_PLACEMENT_3D('',#1686,#1390,#1391);
#1102=AXIS2_PLACEMENT_3D('',#1687,#1392,#1393);
#1103=AXIS2_PLACEMENT_3D('',#1689,#1394,#1395);
#1104=AXIS2_PLACEMENT_3D('',#1690,#1396,#1397);
#1105=AXIS2_PLACEMENT_3D('',#1692,#1399,#1400);
#1106=AXIS2_PLACEMENT_3D('',#1693,#1401,#1402);
#1107=AXIS2_PLACEMENT_3D('',#1696,#1405,#1406);
#1108=AXIS2_PLACEMENT_3D('',#1697,#1407,#1408);
#1109=DIRECTION('axis',(0.,0.,1.));
#1110=DIRECTION('refdir',(1.,0.,0.));
#1111=DIRECTION('center_axis',(0.,2.22044604925031E-16,-1.));
#1112=DIRECTION('ref_axis',(0.,1.,2.22044604925031E-16));
#1113=DIRECTION('',(0.,2.22044604925031E-16,-1.));
#1114=DIRECTION('center_axis',(0.,-2.22044604925031E-16,1.));
#1115=DIRECTION('ref_axis',(0.,-1.,-2.22044604925031E-16));
#1116=DIRECTION('',(0.,2.22044604925031E-16,-1.));
#1117=DIRECTION('center_axis',(0.5,1.92296268638356E-16,-0.866025403784439));
#1118=DIRECTION('ref_axis',(-0.866025403784439,1.11022302462516E-16,-0.5));
#1119=DIRECTION('center_axis',(1.,0.,0.));
#1120=DIRECTION('ref_axis',(0.,1.,2.22044604925031E-16));
#1121=DIRECTION('',(0.,-1.,-2.22044604925031E-16));
#1122=DIRECTION('',(0.,2.22044604925031E-16,-1.));
#1123=DIRECTION('',(0.,1.,2.22044604925031E-16));
#1124=DIRECTION('center_axis',(0.,2.22044604925031E-16,-1.));
#1125=DIRECTION('ref_axis',(0.,1.,2.22044604925031E-16));
#1126=DIRECTION('center_axis',(0.,-2.22044604925031E-16,1.));
#1127=DIRECTION('ref_axis',(0.,-1.,-2.22044604925031E-16));
#1128=DIRECTION('',(0.,2.22044604925031E-16,-1.));
#1129=DIRECTION('center_axis',(0.5,1.92296268638356E-16,-0.866025403784439));
#1130=DIRECTION('ref_axis',(-0.866025403784439,1.11022302462516E-16,-0.5));
#1131=DIRECTION('center_axis',(-0.5,-1.92296268638356E-16,0.866025403784439));
#1132=DIRECTION('ref_axis',(-0.866025403784438,1.11022302462516E-16,-0.5));
#1133=DIRECTION('center_axis',(-0.5,-1.92296268638356E-16,0.866025403784439));
#1134=DIRECTION('ref_axis',(-0.866025403784438,1.11022302462516E-16,-0.5));
#1135=DIRECTION('',(-0.5,-1.92296268638356E-16,0.866025403784438));
#1136=DIRECTION('center_axis',(-0.5,-1.92296268638356E-16,0.866025403784439));
#1137=DIRECTION('ref_axis',(-0.866025403784438,1.11022302462516E-16,-0.5));
#1138=DIRECTION('center_axis',(-0.5,-1.92296268638356E-16,0.866025403784439));
#1139=DIRECTION('ref_axis',(-0.866025403784439,1.11022302462516E-16,-0.5));
#1140=DIRECTION('center_axis',(-0.965925826289068,5.74693726168631E-17,
-0.258819045102521));
#1141=DIRECTION('ref_axis',(0.258819045102521,2.14478618485241E-16,-0.965925826289068));
#1142=DIRECTION('',(-0.5,-1.92296268638356E-16,0.866025403784439));
#1143=DIRECTION('center_axis',(-0.5,-1.92296268638356E-16,0.866025403784439));
#1144=DIRECTION('ref_axis',(-0.866025403784439,1.11022302462516E-16,-0.5));
#1145=DIRECTION('center_axis',(-0.965925826289068,5.74693726168631E-17,
-0.258819045102521));
#1146=DIRECTION('ref_axis',(0.258819045102521,2.14478618485241E-16,-0.965925826289068));
#1147=DIRECTION('center_axis',(-0.5,-1.92296268638356E-16,0.866025403784439));
#1148=DIRECTION('ref_axis',(-0.866025403784439,1.11022302462516E-16,-0.5));
#1149=DIRECTION('center_axis',(0.258819045102521,2.14478618485241E-16,-0.965925826289068));
#1150=DIRECTION('ref_axis',(-0.965925826289068,5.74693726168631E-17,-0.258819045102521));
#1151=DIRECTION('center_axis',(-0.5,-1.92296268638356E-16,0.866025403784439));
#1152=DIRECTION('ref_axis',(-0.866025403784439,1.11022302462516E-16,-0.5));
#1153=DIRECTION('center_axis',(0.,2.22044604925031E-16,-1.));
#1154=DIRECTION('ref_axis',(0.,1.,2.22044604925031E-16));
#1155=DIRECTION('center_axis',(0.,-2.22044604925031E-16,1.));
#1156=DIRECTION('ref_axis',(0.,-1.,-2.22044604925031E-16));
#1157=DIRECTION('',(0.,2.22044604925031E-16,-1.));
#1158=DIRECTION('center_axis',(0.,2.22044604925031E-16,-1.));
#1159=DIRECTION('ref_axis',(0.,1.,2.22044604925031E-16));
#1160=DIRECTION('center_axis',(-0.5,-1.92296268638356E-16,0.866025403784439));
#1161=DIRECTION('ref_axis',(-0.866025403784439,1.11022302462516E-16,-0.5));
#1162=DIRECTION('center_axis',(-0.5,-1.92296268638356E-16,0.866025403784439));
#1163=DIRECTION('ref_axis',(-0.866025403784439,1.11022302462516E-16,-0.5));
#1164=DIRECTION('center_axis',(0.,-1.,-2.22044604925031E-16));
#1165=DIRECTION('ref_axis',(1.,0.,0.));
#1166=DIRECTION('',(0.,-2.22044604925031E-16,1.));
#1167=DIRECTION('',(-1.,0.,0.));
#1168=DIRECTION('',(0.866025403784438,-1.11022302462516E-16,0.500000000000001));
#1169=DIRECTION('',(0.,-2.22044604925031E-16,1.));
#1170=DIRECTION('',(-1.,0.,0.));
#1171=DIRECTION('',(0.,2.22044604925031E-16,-1.));
#1172=DIRECTION('',(-1.,0.,0.));
#1173=DIRECTION('',(-1.,0.,0.));
#1174=DIRECTION('',(-1.,0.,0.));
#1175=DIRECTION('',(0.,2.22044604925031E-16,-1.));
#1176=DIRECTION('',(1.,0.,0.));
#1177=DIRECTION('center_axis',(0.,-1.,-2.22044604925031E-16));
#1178=DIRECTION('ref_axis',(1.,0.,0.));
#1179=DIRECTION('',(1.,0.,0.));
#1180=DIRECTION('center_axis',(0.,-1.,-2.22044604925031E-16));
#1181=DIRECTION('ref_axis',(1.,0.,0.));
#1182=DIRECTION('',(0.,2.22044604925031E-16,-1.));
#1183=DIRECTION('center_axis',(0.,-1.,-2.22044604925031E-16));
#1184=DIRECTION('ref_axis',(1.,0.,0.));
#1185=DIRECTION('',(-1.,0.,0.));
#1186=DIRECTION('',(0.,2.22044604925031E-16,-1.));
#1187=DIRECTION('center_axis',(0.,1.,2.22044604925031E-16));
#1188=DIRECTION('ref_axis',(-1.,0.,0.));
#1189=DIRECTION('',(1.,0.,0.));
#1190=DIRECTION('',(0.,2.22044604925031E-16,-1.));
#1191=DIRECTION('',(-1.,0.,0.));
#1192=DIRECTION('',(0.,2.22044604925031E-16,-1.));
#1193=DIRECTION('',(1.,0.,0.));
#1194=DIRECTION('',(1.,0.,0.));
#1195=DIRECTION('',(1.,0.,0.));
#1196=DIRECTION('',(0.,2.22044604925031E-16,-1.));
#1197=DIRECTION('',(1.,0.,0.));
#1198=DIRECTION('',(9.41774924682179E-17,2.22044604925031E-16,-1.));
#1199=DIRECTION('',(-0.866025403784438,1.11022302462516E-16,-0.5));
#1200=DIRECTION('center_axis',(0.,1.,2.22044604925031E-16));
#1201=DIRECTION('ref_axis',(-1.,0.,0.));
#1202=DIRECTION('',(1.,0.,0.));
#1203=DIRECTION('center_axis',(0.,1.,2.22044604925031E-16));
#1204=DIRECTION('ref_axis',(-1.,0.,0.));
#1205=DIRECTION('',(0.,-2.22044604925031E-16,1.));
#1206=DIRECTION('center_axis',(0.,1.,2.22044604925031E-16));
#1207=DIRECTION('ref_axis',(-1.,0.,0.));
#1208=DIRECTION('',(-1.,-5.24508580599077E-32,2.36217664813863E-16));
#1209=DIRECTION('',(0.,2.22044604925031E-16,-1.));
#1210=DIRECTION('center_axis',(0.,-2.22044604925031E-16,1.));
#1211=DIRECTION('ref_axis',(0.,-1.,-2.22044604925031E-16));
#1212=DIRECTION('center_axis',(0.,-2.22044604925031E-16,1.));
#1213=DIRECTION('ref_axis',(0.,-1.,-2.22044604925031E-16));
#1214=DIRECTION('',(0.,-2.22044604925031E-16,1.));
#1215=DIRECTION('center_axis',(0.,-2.22044604925031E-16,1.));
#1216=DIRECTION('ref_axis',(0.,-1.,-2.22044604925031E-16));
#1217=DIRECTION('center_axis',(0.,-2.22044604925031E-16,1.));
#1218=DIRECTION('ref_axis',(0.,-1.,-2.22044604925031E-16));
#1219=DIRECTION('center_axis',(0.,2.22044604925031E-16,-1.));
#1220=DIRECTION('ref_axis',(0.,1.,2.22044604925031E-16));
#1221=DIRECTION('center_axis',(0.,2.22044604925031E-16,-1.));
#1222=DIRECTION('ref_axis',(0.,1.,2.22044604925031E-16));
#1223=DIRECTION('center_axis',(0.,2.22044604925031E-16,-1.));
#1224=DIRECTION('ref_axis',(0.,1.,2.22044604925031E-16));
#1225=DIRECTION('center_axis',(0.,2.22044604925031E-16,-1.));
#1226=DIRECTION('ref_axis',(0.,1.,2.22044604925031E-16));
#1227=DIRECTION('',(0.,-2.22044604925031E-16,1.));
#1228=DIRECTION('center_axis',(0.,2.22044604925031E-16,-1.));
#1229=DIRECTION('ref_axis',(0.,1.,2.22044604925031E-16));
#1230=DIRECTION('center_axis',(0.,2.22044604925031E-16,-1.));
#1231=DIRECTION('ref_axis',(0.,1.,2.22044604925031E-16));
#1232=DIRECTION('center_axis',(0.,2.22044604925031E-16,-1.));
#1233=DIRECTION('ref_axis',(0.,1.,2.22044604925031E-16));
#1234=DIRECTION('center_axis',(0.,-2.22044604925031E-16,1.));
#1235=DIRECTION('ref_axis',(0.,-1.,-2.22044604925031E-16));
#1236=DIRECTION('center_axis',(0.,2.22044604925031E-16,-1.));
#1237=DIRECTION('ref_axis',(0.,1.,2.22044604925031E-16));
#1238=DIRECTION('center_axis',(0.,2.22044604925031E-16,-1.));
#1239=DIRECTION('ref_axis',(0.,1.,2.22044604925031E-16));
#1240=DIRECTION('center_axis',(0.,-2.22044604925031E-16,1.));
#1241=DIRECTION('ref_axis',(0.,-1.,-2.22044604925031E-16));
#1242=DIRECTION('center_axis',(0.,2.22044604925031E-16,-1.));
#1243=DIRECTION('ref_axis',(0.,1.,2.22044604925031E-16));
#1244=DIRECTION('center_axis',(0.,2.22044604925031E-16,-1.));
#1245=DIRECTION('ref_axis',(0.,1.,2.22044604925031E-16));
#1246=DIRECTION('',(8.65956056235491E-17,-0.707106781186546,-0.707106781186549));
#1247=DIRECTION('center_axis',(0.,2.22044604925031E-16,-1.));
#1248=DIRECTION('ref_axis',(0.,1.,2.22044604925031E-16));
#1249=DIRECTION('',(0.,-2.22044604925031E-16,1.));
#1250=DIRECTION('center_axis',(0.,2.22044604925031E-16,-1.));
#1251=DIRECTION('ref_axis',(0.,1.,2.22044604925031E-16));
#1252=DIRECTION('center_axis',(0.,-2.22044604925031E-16,1.));
#1253=DIRECTION('ref_axis',(0.,-1.,-2.22044604925031E-16));
#1254=DIRECTION('center_axis',(0.,2.22044604925031E-16,-1.));
#1255=DIRECTION('ref_axis',(0.,1.,2.22044604925031E-16));
#1256=DIRECTION('center_axis',(0.,2.22044604925031E-16,-1.));
#1257=DIRECTION('ref_axis',(0.,1.,2.22044604925031E-16));
#1258=DIRECTION('',(0.,-2.22044604925031E-16,1.));
#1259=DIRECTION('center_axis',(0.,2.22044604925031E-16,-1.));
#1260=DIRECTION('ref_axis',(0.,1.,2.22044604925031E-16));
#1261=DIRECTION('center_axis',(0.,2.22044604925031E-16,-1.));
#1262=DIRECTION('ref_axis',(0.,1.,2.22044604925031E-16));
#1263=DIRECTION('center_axis',(0.,2.22044604925031E-16,-1.));
#1264=DIRECTION('ref_axis',(0.,1.,2.22044604925031E-16));
#1265=DIRECTION('',(0.,1.,2.22044604925031E-16));
#1266=DIRECTION('center_axis',(0.,2.22044604925031E-16,-1.));
#1267=DIRECTION('ref_axis',(0.,1.,2.22044604925031E-16));
#1268=DIRECTION('center_axis',(0.,-2.22044604925031E-16,1.));
#1269=DIRECTION('ref_axis',(0.,1.,2.22044604925031E-16));
#1270=DIRECTION('',(0.,-1.,-2.22044604925031E-16));
#1271=DIRECTION('center_axis',(0.,-2.22044604925031E-16,1.));
#1272=DIRECTION('ref_axis',(0.,1.,2.22044604925031E-16));
#1273=DIRECTION('center_axis',(0.,2.22044604925031E-16,-1.));
#1274=DIRECTION('ref_axis',(0.,1.,2.22044604925031E-16));
#1275=DIRECTION('',(-1.,0.,0.));
#1276=DIRECTION('',(0.,1.,2.22044604925031E-16));
#1277=DIRECTION('',(1.,0.,0.));
#1278=DIRECTION('',(0.,-1.,-2.22044604925031E-16));
#1279=DIRECTION('center_axis',(0.,-2.22044604925031E-16,1.));
#1280=DIRECTION('ref_axis',(0.,-1.,-2.22044604925031E-16));
#1281=DIRECTION('center_axis',(-1.,0.,0.));
#1282=DIRECTION('ref_axis',(0.,-1.,-2.22044604925031E-16));
#1283=DIRECTION('',(0.,2.22044604925031E-16,-1.));
#1284=DIRECTION('',(0.,-1.,-2.22044604925031E-16));
#1285=DIRECTION('',(0.,-2.22044604925031E-16,1.));
#1286=DIRECTION('',(0.,1.,2.22044604925031E-16));
#1287=DIRECTION('',(0.,1.,2.22044604925031E-16));
#1288=DIRECTION('',(0.,-2.22044604925031E-16,1.));
#1289=DIRECTION('',(0.,1.,2.22044604925031E-16));
#1290=DIRECTION('',(0.,-1.,-2.22044604925031E-16));
#1291=DIRECTION('',(0.,2.22044604925031E-16,-1.));
#1292=DIRECTION('',(0.,-1.,-2.22044604925031E-16));
#1293=DIRECTION('',(0.,-1.,-2.22044604925031E-16));
#1294=DIRECTION('center_axis',(0.,2.22044604925031E-16,-1.));
#1295=DIRECTION('ref_axis',(0.,1.,2.22044604925031E-16));
#1296=DIRECTION('',(0.,2.22044604925031E-16,-1.));
#1297=DIRECTION('center_axis',(0.,2.22044604925031E-16,-1.));
#1298=DIRECTION('ref_axis',(0.,1.,2.22044604925031E-16));
#1299=DIRECTION('center_axis',(1.,0.,0.));
#1300=DIRECTION('ref_axis',(0.,1.,2.22044604925031E-16));
#1301=DIRECTION('',(0.,2.22044604925031E-16,-1.));
#1302=DIRECTION('',(0.,-1.,-2.22044604925031E-16));
#1303=DIRECTION('center_axis',(0.,2.22044604925031E-16,-1.));
#1304=DIRECTION('ref_axis',(0.,1.,2.22044604925031E-16));
#1305=DIRECTION('center_axis',(0.,2.22044604925031E-16,-1.));
#1306=DIRECTION('ref_axis',(0.,1.,2.22044604925031E-16));
#1307=DIRECTION('center_axis',(0.,-2.22044604925031E-16,1.));
#1308=DIRECTION('ref_axis',(0.,-1.,-2.22044604925031E-16));
#1309=DIRECTION('center_axis',(0.,-2.22044604925031E-16,1.));
#1310=DIRECTION('ref_axis',(0.,-1.,-2.22044604925031E-16));
#1311=DIRECTION('center_axis',(0.,2.22044604925031E-16,-1.));
#1312=DIRECTION('ref_axis',(0.,-1.,-2.22044604925031E-16));
#1313=DIRECTION('center_axis',(0.,-2.22044604925031E-16,1.));
#1314=DIRECTION('ref_axis',(0.,-1.,-2.22044604925031E-16));
#1315=DIRECTION('',(0.,-2.22044604925031E-16,1.));
#1316=DIRECTION('center_axis',(0.,-2.22044604925031E-16,1.));
#1317=DIRECTION('ref_axis',(0.,-1.,-2.22044604925031E-16));
#1318=DIRECTION('',(1.,0.,0.));
#1319=DIRECTION('',(0.,1.,2.22044604925031E-16));
#1320=DIRECTION('center_axis',(1.,-2.94035106013318E-32,1.32421639387542E-16));
#1321=DIRECTION('ref_axis',(0.,1.,2.22044604925031E-16));
#1322=DIRECTION('',(9.41774924682179E-17,2.22044604925031E-16,-1.));
#1323=DIRECTION('',(0.,1.,2.22044604925031E-16));
#1324=DIRECTION('',(0.,1.,2.22044604925031E-16));
#1325=DIRECTION('center_axis',(0.,-2.22044604925031E-16,1.));
#1326=DIRECTION('ref_axis',(0.,-1.,-2.22044604925031E-16));
#1327=DIRECTION('',(1.,0.,0.));
#1328=DIRECTION('center_axis',(-1.84545050635831E-16,2.22044604925031E-16,
-1.));
#1329=DIRECTION('ref_axis',(0.,1.,2.22044604925031E-16));
#1330=DIRECTION('',(0.,1.,2.22044604925031E-16));
#1331=DIRECTION('',(-1.,-5.24508580599077E-32,2.36217664813863E-16));
#1332=DIRECTION('center_axis',(0.,1.,2.22044604925031E-16));
#1333=DIRECTION('ref_axis',(-1.,0.,0.));
#1334=DIRECTION('',(0.,1.,2.22044604925031E-16));
#1335=DIRECTION('center_axis',(0.,1.,2.22044604925031E-16));
#1336=DIRECTION('ref_axis',(-1.,0.,0.));
#1337=DIRECTION('center_axis',(-1.,0.,0.));
#1338=DIRECTION('ref_axis',(0.,-1.,-2.22044604925031E-16));
#1339=DIRECTION('',(0.,1.,2.22044604925031E-16));
#1340=DIRECTION('',(0.,-2.22044604925031E-16,1.));
#1341=DIRECTION('center_axis',(0.,1.,2.22044604925031E-16));
#1342=DIRECTION('ref_axis',(-1.,0.,0.));
#1343=DIRECTION('center_axis',(0.,1.,2.22044604925031E-16));
#1344=DIRECTION('ref_axis',(-1.,0.,0.));
#1345=DIRECTION('center_axis',(0.,1.,2.22044604925031E-16));
#1346=DIRECTION('ref_axis',(-1.,0.,0.));
#1347=DIRECTION('',(0.70710678118654,1.57009245868379E-16,-0.707106781186555));
#1348=DIRECTION('',(-0.866025403784439,1.11022302462516E-16,-0.5));
#1349=DIRECTION('center_axis',(0.,2.22044604925031E-16,-1.));
#1350=DIRECTION('ref_axis',(0.,1.,2.22044604925031E-16));
#1351=DIRECTION('',(1.,0.,0.));
#1352=DIRECTION('',(0.,-1.,-2.22044604925031E-16));
#1353=DIRECTION('center_axis',(0.,-2.22044604925031E-16,1.));
#1354=DIRECTION('ref_axis',(0.,-1.,-2.22044604925031E-16));
#1355=DIRECTION('',(0.,-1.,-2.22044604925031E-16));
#1356=DIRECTION('',(-1.,0.,0.));
#1357=DIRECTION('center_axis',(1.,0.,0.));
#1358=DIRECTION('ref_axis',(0.,1.,2.22044604925031E-16));
#1359=DIRECTION('',(0.,1.,2.22044604925031E-16));
#1360=DIRECTION('',(0.,-2.22044604925031E-16,1.));
#1361=DIRECTION('center_axis',(0.,-2.22044604925031E-16,1.));
#1362=DIRECTION('ref_axis',(0.,-1.,-2.22044604925031E-16));
#1363=DIRECTION('',(0.,-1.,-2.22044604925031E-16));
#1364=DIRECTION('',(-1.,0.,0.));
#1365=DIRECTION('center_axis',(0.,-1.,-2.22044604925031E-16));
#1366=DIRECTION('ref_axis',(1.,0.,0.));
#1367=DIRECTION('',(0.,-1.,-2.22044604925031E-16));
#1368=DIRECTION('center_axis',(0.,-1.,-2.22044604925031E-16));
#1369=DIRECTION('ref_axis',(1.,0.,0.));
#1370=DIRECTION('center_axis',(-1.,0.,0.));
#1371=DIRECTION('ref_axis',(0.,-1.,-2.22044604925031E-16));
#1372=DIRECTION('',(0.,-1.,-2.22044604925031E-16));
#1373=DIRECTION('',(0.,2.22044604925031E-16,-1.));
#1374=DIRECTION('center_axis',(0.,-1.,-2.22044604925031E-16));
#1375=DIRECTION('ref_axis',(1.,0.,0.));
#1376=DIRECTION('center_axis',(0.,-1.,-2.22044604925031E-16));
#1377=DIRECTION('ref_axis',(1.,0.,0.));
#1378=DIRECTION('center_axis',(0.,-1.,-2.22044604925031E-16));
#1379=DIRECTION('ref_axis',(1.,0.,0.));
#1380=DIRECTION('',(-0.70710678118654,-1.57009245868379E-16,0.707106781186555));
#1381=DIRECTION('',(0.866025403784439,-1.11022302462516E-16,0.5));
#1382=DIRECTION('center_axis',(0.5,1.92296268638356E-16,-0.866025403784439));
#1383=DIRECTION('ref_axis',(0.,1.,2.22044604925031E-16));
#1384=DIRECTION('center_axis',(-0.5,-1.92296268638356E-16,0.866025403784439));
#1385=DIRECTION('ref_axis',(-0.866025403784439,1.11022302462516E-16,-0.5));
#1386=DIRECTION('center_axis',(-0.5,-1.92296268638356E-16,0.866025403784439));
#1387=DIRECTION('ref_axis',(0.,-1.,-2.22044604925031E-16));
#1388=DIRECTION('center_axis',(-0.5,-1.92296268638356E-16,0.866025403784439));
#1389=DIRECTION('ref_axis',(0.,-1.,-2.22044604925031E-16));
#1390=DIRECTION('center_axis',(-0.5,-1.92296268638356E-16,0.866025403784439));
#1391=DIRECTION('ref_axis',(0.,-1.,-2.22044604925031E-16));
#1392=DIRECTION('center_axis',(-0.5,-1.92296268638356E-16,0.866025403784439));
#1393=DIRECTION('ref_axis',(0.,-1.,-2.22044604925031E-16));
#1394=DIRECTION('center_axis',(0.5,1.92296268638356E-16,-0.866025403784439));
#1395=DIRECTION('ref_axis',(-0.866025403784439,1.11022302462516E-16,-0.5));
#1396=DIRECTION('center_axis',(-0.5,-1.92296268638356E-16,0.866025403784439));
#1397=DIRECTION('ref_axis',(-0.866025403784439,1.11022302462516E-16,-0.5));
#1398=DIRECTION('',(-0.5,-1.92296268638356E-16,0.866025403784439));
#1399=DIRECTION('center_axis',(-0.707106781186548,1.57009245868377E-16,
-0.707106781186548));
#1400=DIRECTION('ref_axis',(0.,-1.,-2.22044604925031E-16));
#1401=DIRECTION('center_axis',(1.,0.,0.));
#1402=DIRECTION('ref_axis',(0.,1.,2.22044604925031E-16));
#1403=DIRECTION('',(0.,-1.,-2.22044604925031E-16));
#1404=DIRECTION('',(0.,-1.,-2.22044604925031E-16));
#1405=DIRECTION('center_axis',(0.,-2.22044604925031E-16,1.));
#1406=DIRECTION('ref_axis',(0.,-1.,-2.22044604925031E-16));
#1407=DIRECTION('center_axis',(0.,2.22044604925031E-16,-1.));
#1408=DIRECTION('ref_axis',(0.,1.,2.22044604925031E-16));
#1409=CARTESIAN_POINT('',(0.,0.,0.));
#1410=CARTESIAN_POINT('Origin',(-10.375,2.39999999999999,23.5));
#1411=CARTESIAN_POINT('',(-10.375,4.4,20.4565729445429));
#1412=CARTESIAN_POINT('',(-10.375,4.4,10.1));
#1413=CARTESIAN_POINT('',(-10.375,4.4,20.4565729445429));
#1414=CARTESIAN_POINT('',(-12.375,2.39999999999998,10.1));
#1415=CARTESIAN_POINT('Origin',(-10.375,2.4,10.1));
#1416=CARTESIAN_POINT('',(-12.375,2.39999999999998,19.3018724061636));
#1417=CARTESIAN_POINT('',(-12.375,2.39999999999998,19.3018724061636));
#1418=CARTESIAN_POINT('Origin',(-10.375,2.4,20.4565729445428));
#1419=CARTESIAN_POINT('Origin',(-12.375,-2.39999999999999,23.5));
#1420=CARTESIAN_POINT('',(-12.375,-2.4,10.1));
#1421=CARTESIAN_POINT('',(-12.375,2.39999999999998,10.1));
#1422=CARTESIAN_POINT('',(-12.375,-2.39999999999999,19.3018724061636));
#1423=CARTESIAN_POINT('',(-12.375,-2.39999999999999,19.3018724061636));
#1424=CARTESIAN_POINT('',(-12.375,-2.39999999999999,19.3018724061636));
#1425=CARTESIAN_POINT('Origin',(-10.375,-2.40000000000001,23.5));
#1426=CARTESIAN_POINT('',(-10.375,-4.4,10.1));
#1427=CARTESIAN_POINT('Origin',(-10.375,-2.4,10.1));
#1428=CARTESIAN_POINT('',(-10.375,-4.40000000000001,20.4565729445429));
#1429=CARTESIAN_POINT('',(-10.375,-4.40000000000001,20.4565729445429));
#1430=CARTESIAN_POINT('Origin',(-10.375,-2.40000000000001,20.4565729445428));
#1431=CARTESIAN_POINT('Origin',(-5.55362971081845,-3.46815217112919E-15,
15.6191688255616));
#1432=CARTESIAN_POINT('',(-3.73497636287113,-3.44412317847953E-15,16.6691688255616));
#1433=CARTESIAN_POINT('Origin',(-5.55362971081845,-3.46815217112919E-15,
15.6191688255616));
#1434=CARTESIAN_POINT('',(-4.03497636287114,-3.55950093966254E-15,17.1887840678323));
#1435=CARTESIAN_POINT('',(-3.73497636287113,-3.44412317847953E-15,16.6691688255616));
#1436=CARTESIAN_POINT('Origin',(-5.85362971081845,-3.58352993231221E-15,
16.1387840678323));
#1437=CARTESIAN_POINT('Origin',(-0.103629710818452,-1.37212284297111E-15,
6.17949192431123));
#1438=CARTESIAN_POINT('',(-0.0555349946512747,1.24876573638496,6.20725942163695));
#1439=CARTESIAN_POINT('',(-1.25,-2.21503896356524E-15,10.6650635094611));
#1440=CARTESIAN_POINT('Origin',(-2.16840434497101E-16,-1.33226762955019E-15,
6.));
#1441=CARTESIAN_POINT('',(-4.47109795608791,-3.45384919931392E-15,16.2441688255616));
#1442=CARTESIAN_POINT('',(0.978902043912096,-1.35781987115583E-15,6.80449192431123));
#1443=CARTESIAN_POINT('Origin',(-5.55362971081845,-3.46815217112919E-15,
15.6191688255616));
#1444=CARTESIAN_POINT('',(-0.0555349946512754,-1.24876573638496,6.20725942163695));
#1445=CARTESIAN_POINT('Origin',(-2.16840434497101E-16,-1.33226762955019E-15,
6.));
#1446=CARTESIAN_POINT('',(-0.773502691896338,-0.981933595325628,5.79274057836306));
#1447=CARTESIAN_POINT('Origin',(-0.103629710818452,-1.37212284297111E-15,
6.17949192431123));
#1448=CARTESIAN_POINT('',(-0.773502691896339,0.981933595325625,5.79274057836306));
#1449=CARTESIAN_POINT('Origin',(-2.16840434497101E-16,-1.33226762955019E-15,
6.));
#1450=CARTESIAN_POINT('Origin',(-0.103629710818452,-1.37212284297111E-15,
6.17949192431123));
#1451=CARTESIAN_POINT('Origin',(0.,0.,0.));
#1452=CARTESIAN_POINT('',(0.,-1.25,16.9));
#1453=CARTESIAN_POINT('Origin',(0.,-3.75255382323303E-15,16.9));
#1454=CARTESIAN_POINT('',(-1.53080849893419E-16,-1.25,-2.77555756156289E-16));
#1455=CARTESIAN_POINT('',(-1.53080849893419E-16,-1.25,-2.77555756156289E-16));
#1456=CARTESIAN_POINT('Origin',(0.,0.,0.));
#1457=CARTESIAN_POINT('Origin',(0.,-1.38540791411142E-15,6.23932256574831));
#1458=CARTESIAN_POINT('Origin',(0.,-1.38540791411142E-15,6.23932256574831));
#1459=CARTESIAN_POINT('Origin',(-10.375,4.39999999999999,23.5));
#1460=CARTESIAN_POINT('',(-4.675,4.4,7.9));
#1461=CARTESIAN_POINT('',(-4.675,4.4,10.1));
#1462=CARTESIAN_POINT('',(-4.675,4.4,7.9));
#1463=CARTESIAN_POINT('',(-4.675,4.4,10.1));
#1464=CARTESIAN_POINT('',(-7.375,4.39999999999999,22.1886237521117));
#1465=CARTESIAN_POINT('',(-10.375,4.4,20.4565729445429));
#1466=CARTESIAN_POINT('',(-7.375,4.4,10.4));
#1467=CARTESIAN_POINT('',(-7.375,4.4,10.4));
#1468=CARTESIAN_POINT('',(5.125,4.4,10.4));
#1469=CARTESIAN_POINT('',(5.125,4.4,10.4));
#1470=CARTESIAN_POINT('',(5.125,4.4,6.));
#1471=CARTESIAN_POINT('',(5.125,4.4,10.4));
#1472=CARTESIAN_POINT('',(1.72209900992946,4.4,6.));
#1473=CARTESIAN_POINT('',(5.125,4.4,6.));
#1474=CARTESIAN_POINT('',(-1.72209900992946,4.4,6.));
#1475=CARTESIAN_POINT('',(1.72209900992946,4.4,6.));
#1476=CARTESIAN_POINT('',(-10.375,4.4,6.));
#1477=CARTESIAN_POINT('',(-1.72209900992946,4.4,6.));
#1478=CARTESIAN_POINT('',(-10.375,4.4,7.9));
#1479=CARTESIAN_POINT('',(-10.375,4.4,7.9));
#1480=CARTESIAN_POINT('',(-10.375,4.4,7.9));
#1481=CARTESIAN_POINT('Origin',(-10.375,4.39999999999999,23.5));
#1482=CARTESIAN_POINT('',(-4.275,4.4,12.4));
#1483=CARTESIAN_POINT('',(5.125,4.4,12.4));
#1484=CARTESIAN_POINT('',(-4.275,4.4,12.4));
#1485=CARTESIAN_POINT('',(-5.375,4.4,13.5));
#1486=CARTESIAN_POINT('Origin',(-4.275,4.4,13.5));
#1487=CARTESIAN_POINT('',(-5.375,4.4,19.4));
#1488=CARTESIAN_POINT('',(-5.375,4.4,19.4));
#1489=CARTESIAN_POINT('',(-4.275,4.4,20.5));
#1490=CARTESIAN_POINT('Origin',(-4.275,4.4,19.4));
#1491=CARTESIAN_POINT('',(5.125,4.4,20.5));
#1492=CARTESIAN_POINT('',(5.125,4.4,20.5));
#1493=CARTESIAN_POINT('',(5.125,4.4,20.5));
#1494=CARTESIAN_POINT('Origin',(-10.375,-4.40000000000001,23.5));
#1495=CARTESIAN_POINT('',(-4.675,-4.4,10.1));
#1496=CARTESIAN_POINT('',(-10.375,-4.4,10.1));
#1497=CARTESIAN_POINT('',(-4.675,-4.4,7.9));
#1498=CARTESIAN_POINT('',(-4.675,-4.4,10.1));
#1499=CARTESIAN_POINT('',(-10.375,-4.4,7.9));
#1500=CARTESIAN_POINT('',(-4.675,-4.4,7.9));
#1501=CARTESIAN_POINT('',(-10.375,-4.4,6.));
#1502=CARTESIAN_POINT('',(-10.375,-4.4,7.9));
#1503=CARTESIAN_POINT('',(-1.72209900992945,-4.4,6.));
#1504=CARTESIAN_POINT('',(-10.375,-4.4,6.));
#1505=CARTESIAN_POINT('',(1.72209900992945,-4.4,6.));
#1506=CARTESIAN_POINT('',(-1.72209900992945,-4.4,6.));
#1507=CARTESIAN_POINT('',(5.125,-4.4,6.));
#1508=CARTESIAN_POINT('',(1.72209900992945,-4.4,6.));
#1509=CARTESIAN_POINT('',(5.125,-4.4,10.4));
#1510=CARTESIAN_POINT('',(5.125,-4.4,10.4));
#1511=CARTESIAN_POINT('',(-7.375,-4.4,10.4));
#1512=CARTESIAN_POINT('',(-7.375,-4.4,10.4));
#1513=CARTESIAN_POINT('',(-7.375,-4.40000000000001,22.1886237521117));
#1514=CARTESIAN_POINT('',(-7.375,-4.40000000000001,22.1886237521117));
#1515=CARTESIAN_POINT('',(-7.375,-4.40000000000001,22.1886237521117));
#1516=CARTESIAN_POINT('Origin',(-10.375,-4.40000000000001,23.5));
#1517=CARTESIAN_POINT('',(-4.275,-4.40000000000001,20.5));
#1518=CARTESIAN_POINT('',(5.125,-4.40000000000001,20.5));
#1519=CARTESIAN_POINT('',(-4.275,-4.40000000000001,20.5));
#1520=CARTESIAN_POINT('',(-5.375,-4.40000000000001,19.4));
#1521=CARTESIAN_POINT('Origin',(-4.275,-4.40000000000001,19.4));
#1522=CARTESIAN_POINT('',(-5.375,-4.4,13.5));
#1523=CARTESIAN_POINT('',(-5.375,-4.4,13.5));
#1524=CARTESIAN_POINT('',(-4.275,-4.4,12.4));
#1525=CARTESIAN_POINT('Origin',(-4.275,-4.4,13.5));
#1526=CARTESIAN_POINT('',(5.125,-4.4,12.4));
#1527=CARTESIAN_POINT('',(5.125,-4.4,12.4));
#1528=CARTESIAN_POINT('',(5.125,-4.40000000000001,20.5));
#1529=CARTESIAN_POINT('Origin',(0.,-3.75255382323303E-15,16.9));
#1530=CARTESIAN_POINT('',(-2.57175827820944E-16,2.1,16.9));
#1531=CARTESIAN_POINT('Origin',(0.,-3.75255382323303E-15,16.9));
#1532=CARTESIAN_POINT('',(-2.57175827820944E-16,2.1,17.5));
#1533=CARTESIAN_POINT('',(-2.57175827820944E-16,2.1,16.9));
#1534=CARTESIAN_POINT('Origin',(0.,-3.88578058618805E-15,17.5));
#1535=CARTESIAN_POINT('Origin',(4.725,-1.33226762955019E-15,6.));
#1536=CARTESIAN_POINT('',(-5.78645612597125E-16,-4.725,6.));
#1537=CARTESIAN_POINT('Origin',(0.,-1.33226762955019E-15,6.));
#1538=CARTESIAN_POINT('Origin',(0.,-1.33226762955019E-15,6.));
#1539=CARTESIAN_POINT('Origin',(0.,0.,0.));
#1540=CARTESIAN_POINT('',(-5.78645612597125E-16,-4.725,4.2));
#1541=CARTESIAN_POINT('Origin',(0.,-9.32587340685132E-16,4.2));
#1542=CARTESIAN_POINT('',(-5.78645612597125E-16,-4.725,-1.04916075827077E-15));
#1543=CARTESIAN_POINT('Origin',(0.,-1.33226762955019E-15,6.));
#1544=CARTESIAN_POINT('Origin',(0.,-1.33226762955019E-15,6.));
#1545=CARTESIAN_POINT('Origin',(0.,-1.33226762955019E-15,6.));
#1546=CARTESIAN_POINT('Origin',(4.725,-1.33226762955019E-15,6.));
#1547=CARTESIAN_POINT('Origin',(1.25,-1.03518734511103E-33,4.66206934170069E-18));
#1548=CARTESIAN_POINT('',(0.,3.725,8.36440292029144E-16));
#1549=CARTESIAN_POINT('Origin',(0.,-2.07037469022206E-33,9.32413868340137E-18));
#1550=CARTESIAN_POINT('Origin',(0.,-2.07037469022206E-33,9.32413868340137E-18));
#1551=CARTESIAN_POINT('',(0.,4.725,1.));
#1552=CARTESIAN_POINT('',(-5.78645612597124E-16,-4.725,0.999999999999999));
#1553=CARTESIAN_POINT('Origin',(0.,-2.22044604925031E-16,1.));
#1554=CARTESIAN_POINT('Origin',(0.,-2.22044604925031E-16,1.));
#1555=CARTESIAN_POINT('',(-4.5618093268239E-16,3.725,8.36440292029144E-16));
#1556=CARTESIAN_POINT('Origin',(0.,0.,0.));
#1557=CARTESIAN_POINT('',(-5.78645612597124E-16,-4.725,2.3));
#1558=CARTESIAN_POINT('',(-5.78645612597124E-16,-4.725,-1.04916075827077E-15));
#1559=CARTESIAN_POINT('Origin',(0.,-5.10702591327572E-16,2.3));
#1560=CARTESIAN_POINT('Origin',(3.405,-5.10702591327572E-16,2.3));
#1561=CARTESIAN_POINT('',(-4.16992235109674E-16,-3.405,2.3));
#1562=CARTESIAN_POINT('Origin',(0.,-5.10702591327572E-16,2.3));
#1563=CARTESIAN_POINT('Origin',(0.,0.,0.));
#1564=CARTESIAN_POINT('',(-4.16992235109674E-16,-3.405,4.2));
#1565=CARTESIAN_POINT('',(-4.16992235109674E-16,-3.405,-7.56061879769732E-16));
#1566=CARTESIAN_POINT('Origin',(0.,-9.32587340685131E-16,4.2));
#1567=CARTESIAN_POINT('Origin',(3.405,-9.32587340685131E-16,4.2));
#1568=CARTESIAN_POINT('Origin',(-10.375,2.4,6.));
#1569=CARTESIAN_POINT('',(5.125,-4.4,6.));
#1570=CARTESIAN_POINT('Origin',(-10.375,2.4,6.));
#1571=CARTESIAN_POINT('',(-12.375,-2.39999999999999,6.));
#1572=CARTESIAN_POINT('Origin',(-10.375,-2.4,6.));
#1573=CARTESIAN_POINT('',(-12.375,2.39999999999998,6.));
#1574=CARTESIAN_POINT('',(-12.375,2.39999999999998,6.));
#1575=CARTESIAN_POINT('Origin',(-10.375,2.4,6.));
#1576=CARTESIAN_POINT('Origin',(-10.375,2.39999999999999,23.5));
#1577=CARTESIAN_POINT('',(5.025,-5.40000000000001,23.5));
#1578=CARTESIAN_POINT('',(-5.10362971081847,-5.40000000000001,23.5));
#1579=CARTESIAN_POINT('',(5.025,-5.40000000000001,23.5));
#1580=CARTESIAN_POINT('',(5.025,5.39999999999999,23.5));
#1581=CARTESIAN_POINT('',(5.025,-5.40000000000001,23.5));
#1582=CARTESIAN_POINT('',(-5.10362971081847,5.39999999999999,23.5));
#1583=CARTESIAN_POINT('',(-5.10362971081847,5.39999999999999,23.5));
#1584=CARTESIAN_POINT('',(-5.10362971081847,5.39999999999999,23.5));
#1585=CARTESIAN_POINT('',(-2.49003759730234E-16,2.03326999999999,23.5));
#1586=CARTESIAN_POINT('Origin',(0.,-5.21804821573823E-15,23.5));
#1587=CARTESIAN_POINT('Origin',(5.125,-4.40000000000001,23.5));
#1588=CARTESIAN_POINT('',(5.125,5.39999999999999,23.4));
#1589=CARTESIAN_POINT('',(5.125,5.4,20.5));
#1590=CARTESIAN_POINT('',(5.125,5.39999999999999,23.4));
#1591=CARTESIAN_POINT('',(5.125,-5.40000000000001,23.4));
#1592=CARTESIAN_POINT('',(5.125,5.39999999999999,23.4));
#1593=CARTESIAN_POINT('',(5.125,-5.40000000000001,20.5));
#1594=CARTESIAN_POINT('',(5.125,-5.40000000000001,20.5));
#1595=CARTESIAN_POINT('',(5.125,-5.40000000000001,20.5));
#1596=CARTESIAN_POINT('',(5.125,-5.4,12.4));
#1597=CARTESIAN_POINT('',(5.125,-5.4,12.4));
#1598=CARTESIAN_POINT('',(5.125,-5.4,10.4));
#1599=CARTESIAN_POINT('',(5.125,-5.4,10.4));
#1600=CARTESIAN_POINT('',(5.125,-5.4,10.4));
#1601=CARTESIAN_POINT('',(5.125,5.4,10.4));
#1602=CARTESIAN_POINT('',(5.125,5.4,10.4));
#1603=CARTESIAN_POINT('',(5.125,5.4,12.4));
#1604=CARTESIAN_POINT('',(5.125,5.4,12.4));
#1605=CARTESIAN_POINT('',(5.125,5.4,12.4));
#1606=CARTESIAN_POINT('',(5.125,5.4,20.5));
#1607=CARTESIAN_POINT('Origin',(-10.375,2.39999999999999,23.5));
#1608=CARTESIAN_POINT('',(-12.375,2.39999999999998,7.9));
#1609=CARTESIAN_POINT('',(-12.375,2.39999999999998,7.9));
#1610=CARTESIAN_POINT('Origin',(-10.375,2.4,7.9));
#1611=CARTESIAN_POINT('Origin',(-12.375,-2.39999999999999,23.5));
#1612=CARTESIAN_POINT('',(-12.375,-2.39999999999999,7.9));
#1613=CARTESIAN_POINT('',(-12.375,-2.39999999999999,7.9));
#1614=CARTESIAN_POINT('',(-12.375,2.39999999999998,7.9));
#1615=CARTESIAN_POINT('Origin',(-10.375,-2.40000000000001,23.5));
#1616=CARTESIAN_POINT('Origin',(-10.375,-2.4,7.9));
#1617=CARTESIAN_POINT('Origin',(0.,-3.75255382323303E-15,16.9));
#1618=CARTESIAN_POINT('Origin',(0.,-3.88578058618805E-15,17.5));
#1619=CARTESIAN_POINT('',(2.49003759730234E-16,2.03327,17.5));
#1620=CARTESIAN_POINT('Origin',(0.,-3.88578058618805E-15,17.5));
#1621=CARTESIAN_POINT('Origin',(0.,-3.88578058618805E-15,17.5));
#1622=CARTESIAN_POINT('',(-2.49003759730234E-16,2.03327,17.5));
#1623=CARTESIAN_POINT('Origin',(-4.275,-5.40000000000001,20.5));
#1624=CARTESIAN_POINT('',(-4.275,-5.40000000000001,20.5));
#1625=CARTESIAN_POINT('',(-4.275,-5.40000000000001,20.5));
#1626=CARTESIAN_POINT('',(-4.275,-5.40000000000001,20.5));
#1627=CARTESIAN_POINT('Origin',(-7.375,-5.40000000000001,23.5));
#1628=CARTESIAN_POINT('',(-7.375,-5.40000000000001,22.1886237521117));
#1629=CARTESIAN_POINT('',(-7.375,-5.4,10.4));
#1630=CARTESIAN_POINT('',(-7.375,-5.40000000000001,22.1886237521117));
#1631=CARTESIAN_POINT('',(-7.375,-5.40000000000001,22.1886237521117));
#1632=CARTESIAN_POINT('',(-7.375,-5.4,10.4));
#1633=CARTESIAN_POINT('Origin',(-7.375,-5.4,10.4));
#1634=CARTESIAN_POINT('',(-7.375,-5.4,10.4));
#1635=CARTESIAN_POINT('Origin',(-4.275,-5.4,12.4));
#1636=CARTESIAN_POINT('',(-4.275,-5.4,12.4));
#1637=CARTESIAN_POINT('',(-4.275,-5.4,12.4));
#1638=CARTESIAN_POINT('',(5.125,-5.4,12.4));
#1639=CARTESIAN_POINT('Origin',(-4.275,-5.4,13.5));
#1640=CARTESIAN_POINT('',(-5.375,-5.4,13.5));
#1641=CARTESIAN_POINT('',(-5.375,-5.4,13.5));
#1642=CARTESIAN_POINT('Origin',(-4.275,-5.4,13.5));
#1643=CARTESIAN_POINT('Origin',(-5.375,-5.4,13.5));
#1644=CARTESIAN_POINT('',(-5.375,-5.40000000000001,19.4));
#1645=CARTESIAN_POINT('',(-5.375,-5.40000000000001,19.4));
#1646=CARTESIAN_POINT('',(-5.375,-5.4,13.5));
#1647=CARTESIAN_POINT('Origin',(-4.275,-5.40000000000001,19.4));
#1648=CARTESIAN_POINT('Origin',(-4.275,-5.40000000000001,19.4));
#1649=CARTESIAN_POINT('Origin',(-4.275,-5.4,13.5));
#1650=CARTESIAN_POINT('',(5.025,-5.40000000000001,23.5));
#1651=CARTESIAN_POINT('',(-5.10362971081847,-5.40000000000001,23.5));
#1652=CARTESIAN_POINT('Origin',(5.125,5.4,12.4));
#1653=CARTESIAN_POINT('',(-4.275,5.4,12.4));
#1654=CARTESIAN_POINT('',(-4.275,5.4,12.4));
#1655=CARTESIAN_POINT('',(-4.275,5.4,12.4));
#1656=CARTESIAN_POINT('Origin',(5.125,5.4,10.4));
#1657=CARTESIAN_POINT('',(-7.375,5.4,10.4));
#1658=CARTESIAN_POINT('',(-7.375,5.4,10.4));
#1659=CARTESIAN_POINT('',(5.125,5.4,10.4));
#1660=CARTESIAN_POINT('Origin',(-7.375,5.4,10.4));
#1661=CARTESIAN_POINT('',(-7.375,5.4,22.1886237521117));
#1662=CARTESIAN_POINT('',(-7.375,4.39999999999999,22.1886237521117));
#1663=CARTESIAN_POINT('',(-7.375,5.4,10.4));
#1664=CARTESIAN_POINT('Origin',(5.125,5.4,20.5));
#1665=CARTESIAN_POINT('',(-4.275,5.4,20.5));
#1666=CARTESIAN_POINT('',(-4.275,5.4,20.5));
#1667=CARTESIAN_POINT('',(5.125,5.4,20.5));
#1668=CARTESIAN_POINT('Origin',(-4.275,5.4,19.4));
#1669=CARTESIAN_POINT('',(-5.375,5.4,19.4));
#1670=CARTESIAN_POINT('',(-5.375,5.4,19.4));
#1671=CARTESIAN_POINT('Origin',(-4.275,5.4,19.4));
#1672=CARTESIAN_POINT('Origin',(-5.375,5.4,13.5));
#1673=CARTESIAN_POINT('',(-5.375,5.4,13.5));
#1674=CARTESIAN_POINT('',(-5.375,5.4,13.5));
#1675=CARTESIAN_POINT('',(-5.375,5.4,19.4));
#1676=CARTESIAN_POINT('Origin',(-4.275,5.4,13.5));
#1677=CARTESIAN_POINT('Origin',(-4.275,5.4,13.5));
#1678=CARTESIAN_POINT('Origin',(-4.275,5.4,13.5));
#1679=CARTESIAN_POINT('',(5.125,5.39999999999999,23.4));
#1680=CARTESIAN_POINT('',(-7.375,5.4,22.1886237521117));
#1681=CARTESIAN_POINT('Origin',(-4.52350269189626,5.99999999999999,23.8349364905389));
#1682=CARTESIAN_POINT('',(-7.09276623806567,-4.71404210134007E-15,22.3515714905389));
#1683=CARTESIAN_POINT('Origin',(-8.85362971081845,-4.73730754414234E-15,
21.3349364905389));
#1684=CARTESIAN_POINT('Origin',(-0.103629710818452,-1.37212284297111E-15,
6.17949192431123));
#1685=CARTESIAN_POINT('Origin',(-0.103629710818452,-1.37212284297111E-15,
6.17949192431123));
#1686=CARTESIAN_POINT('Origin',(-5.55362971081845,-3.46815217112919E-15,
15.6191688255616));
#1687=CARTESIAN_POINT('Origin',(-5.85362971081845,-3.58352993231221E-15,
16.1387840678323));
#1688=CARTESIAN_POINT('',(-4.09276623806567,-4.0582720089704E-15,17.1554190678323));
#1689=CARTESIAN_POINT('Origin',(-5.85362971081845,-3.58352993231221E-15,
16.1387840678323));
#1690=CARTESIAN_POINT('Origin',(-5.85362971081845,-3.58352993231221E-15,
16.1387840678323));
#1691=CARTESIAN_POINT('',(-4.09276623806567,-3.56026448950993E-15,17.1554190678323));
#1692=CARTESIAN_POINT('Origin',(5.025,2.39999999999999,23.5));
#1693=CARTESIAN_POINT('Origin',(-4.675,5.,7.9));
#1694=CARTESIAN_POINT('',(-4.675,4.4,7.9));
#1695=CARTESIAN_POINT('',(-4.675,4.4,10.1));
#1696=CARTESIAN_POINT('Origin',(-12.375,5.,10.1));
#1697=CARTESIAN_POINT('Origin',(-12.375,5.,7.9));
#1698=UNCERTAINTY_MEASURE_WITH_UNIT(LENGTH_MEASURE(0.01),#1702,
'DISTANCE_ACCURACY_VALUE',
'Maximum model space distance between geometric entities at asserted c
onnectivities');
#1699=UNCERTAINTY_MEASURE_WITH_UNIT(LENGTH_MEASURE(0.01),#1702,
'DISTANCE_ACCURACY_VALUE',
'Maximum model space distance between geometric entities at asserted c
onnectivities');
#1700=(
GEOMETRIC_REPRESENTATION_CONTEXT(3)
GLOBAL_UNCERTAINTY_ASSIGNED_CONTEXT((#1698))
GLOBAL_UNIT_ASSIGNED_CONTEXT((#1702,#1703,#1704))
REPRESENTATION_CONTEXT('','3D')
);
#1701=(
GEOMETRIC_REPRESENTATION_CONTEXT(3)
GLOBAL_UNCERTAINTY_ASSIGNED_CONTEXT((#1699))
GLOBAL_UNIT_ASSIGNED_CONTEXT((#1702,#1703,#1704))
REPRESENTATION_CONTEXT('','3D')
);
#1702=(
LENGTH_UNIT()
NAMED_UNIT(*)
SI_UNIT(.MILLI.,.METRE.)
);
#1703=(
NAMED_UNIT(*)
PLANE_ANGLE_UNIT()
SI_UNIT($,.RADIAN.)
);
#1704=(
NAMED_UNIT(*)
SI_UNIT($,.STERADIAN.)
SOLID_ANGLE_UNIT()
);
#1705=SHAPE_DEFINITION_REPRESENTATION(#1706,#1707);
#1706=PRODUCT_DEFINITION_SHAPE('',$,#1709);
#1707=SHAPE_REPRESENTATION('',(#1006),#1700);
#1708=PRODUCT_DEFINITION_CONTEXT('part definition',#1713,'design');
#1709=PRODUCT_DEFINITION('Nozzle 10-32 UNF (3)','Nozzle 10-32 UNF (3)',
#1710,#1708);
#1710=PRODUCT_DEFINITION_FORMATION('',$,#1715);
#1711=PRODUCT_RELATED_PRODUCT_CATEGORY('Nozzle 10-32 UNF (3)',
'Nozzle 10-32 UNF (3)',(#1715));
#1712=APPLICATION_PROTOCOL_DEFINITION('international standard',
'automotive_design',2009,#1713);
#1713=APPLICATION_CONTEXT(
'Core Data for Automotive Mechanical Design Process');
#1714=PRODUCT_CONTEXT('part definition',#1713,'mechanical');
#1715=PRODUCT('Nozzle 10-32 UNF (3)','Nozzle 10-32 UNF (3)',$,(#1714));
#1716=PRESENTATION_STYLE_ASSIGNMENT((#1720));
#1717=PRESENTATION_STYLE_ASSIGNMENT((#1721));
#1718=PRESENTATION_STYLE_ASSIGNMENT((#1722));
#1719=PRESENTATION_STYLE_ASSIGNMENT((#1723));
#1720=SURFACE_STYLE_USAGE(.BOTH.,#1724);
#1721=SURFACE_STYLE_USAGE(.BOTH.,#1725);
#1722=SURFACE_STYLE_USAGE(.BOTH.,#1726);
#1723=SURFACE_STYLE_USAGE(.BOTH.,#1727);
#1724=SURFACE_SIDE_STYLE('',(#1728));
#1725=SURFACE_SIDE_STYLE('',(#1729));
#1726=SURFACE_SIDE_STYLE('',(#1730));
#1727=SURFACE_SIDE_STYLE('',(#1731));
#1728=SURFACE_STYLE_FILL_AREA(#1732);
#1729=SURFACE_STYLE_FILL_AREA(#1733);
#1730=SURFACE_STYLE_FILL_AREA(#1734);
#1731=SURFACE_STYLE_FILL_AREA(#1735);
#1732=FILL_AREA_STYLE('Steel - Satin',(#1736));
#1733=FILL_AREA_STYLE('Stainless Steel - Satin',(#1737));
#1734=FILL_AREA_STYLE('Plastic - Glossy (Black)',(#1738));
#1735=FILL_AREA_STYLE('Paek (Beige)',(#1739));
#1736=FILL_AREA_STYLE_COLOUR('Steel - Satin',#1740);
#1737=FILL_AREA_STYLE_COLOUR('Stainless Steel - Satin',#1741);
#1738=FILL_AREA_STYLE_COLOUR('Plastic - Glossy (Black)',#1742);
#1739=FILL_AREA_STYLE_COLOUR('Paek (Beige)',#1743);
#1740=COLOUR_RGB('Steel - Satin',0.627450980392157,0.627450980392157,0.627450980392157);
#1741=COLOUR_RGB('Stainless Steel - Satin',0.796078431372549,0.796078431372549,
0.796078431372549);
#1742=COLOUR_RGB('Plastic - Glossy (Black)',0.0980392156862745,0.0980392156862745,
0.0980392156862745);
#1743=COLOUR_RGB('Paek (Beige)',0.898039215686275,0.792156862745098,0.619607843137255);
ENDSEC;
END-ISO-10303-21;
