ISO-10303-21;
HEADER;
/* Generated by software containing ST-Developer
 * from STEP Tools, Inc. (www.steptools.com) 
 */

FILE_DESCRIPTION(
/* description */ (''),
/* implementation_level */ '2;1');

FILE_NAME(
/* name */ 'PinchValve_Single.step',
/* time_stamp */ '2026-08-06T09:53:55+01:00',
/* author */ (''),
/* organization */ (''),
/* preprocessor_version */ 'ST-DEVELOPER v20.1',
/* originating_system */ 'Autodesk Translation Framework v15.8.0.0',
/* authorisation */ '');

FILE_SCHEMA (('AUTOMOTIVE_DESIGN { 1 0 10303 214 3 1 1 }'));
ENDSEC;

DATA;
#10=MECHANICAL_DESIGN_GEOMETRIC_PRESENTATION_REPRESENTATION('',(#13),#1465);
#11=SHAPE_REPRESENTATION_RELATIONSHIP('SRR','None',#1471,#12);
#12=ADVANCED_BREP_SHAPE_REPRESENTATION('',(#14),#1464);
#13=STYLED_ITEM('',(#1481),#14);
#14=MANIFOLD_SOLID_BREP('Body1',#886);
#15=FACE_BOUND('',#94,.T.);
#16=FACE_BOUND('',#118,.T.);
#17=FACE_BOUND('',#124,.T.);
#18=B_SPLINE_CURVE_WITH_KNOTS('',3,(#1270,#1271,#1272,#1273,#1274,#1275,
#1276,#1277,#1278,#1279,#1280,#1281,#1282,#1283,#1284,#1285,#1286,#1287,
#1288,#1289,#1290,#1291,#1292,#1293,#1294,#1295,#1296,#1297,#1298,#1299,
#1300,#1301,#1302,#1303,#1304,#1305,#1306,#1307,#1308,#1309,#1310,#1311,
#1312,#1313,#1314,#1315),.UNSPECIFIED.,.F.,.F.,(4,3,3,3,3,3,3,3,3,3,3,3,
3,3,3,4),(0.,0.105785867045173,0.211568415657936,0.317347877399431,0.423124483759636,
0.5288984661626,0.634670055971793,0.74043948449541,0.846228354409135,0.952010425194683,
1.05778662310051,1.16355787382698,1.26934566443418,1.37512106066,1.48090675418569,
1.57080204150418),.UNSPECIFIED.);
#19=ELLIPSE('',#898,2.50008977144194,2.5);
#20=CIRCLE('',#892,1.25);
#21=CIRCLE('',#893,1.25);
#22=CIRCLE('',#896,2.5);
#23=CIRCLE('',#900,2.5);
#24=CIRCLE('',#902,2.5);
#25=CIRCLE('',#910,0.75);
#26=CIRCLE('',#928,0.75);
#27=CIRCLE('',#931,0.75);
#28=CIRCLE('',#937,0.75);
#29=CYLINDRICAL_SURFACE('',#891,1.25);
#30=CYLINDRICAL_SURFACE('',#901,2.5);
#31=CYLINDRICAL_SURFACE('',#904,2.5);
#32=CYLINDRICAL_SURFACE('',#905,2.5);
#33=CYLINDRICAL_SURFACE('',#930,0.75);
#34=CYLINDRICAL_SURFACE('',#936,0.75);
#35=FACE_OUTER_BOUND('',#80,.T.);
#36=FACE_OUTER_BOUND('',#81,.T.);
#37=FACE_OUTER_BOUND('',#82,.T.);
#38=FACE_OUTER_BOUND('',#83,.T.);
#39=FACE_OUTER_BOUND('',#84,.T.);
#40=FACE_OUTER_BOUND('',#85,.T.);
#41=FACE_OUTER_BOUND('',#86,.T.);
#42=FACE_OUTER_BOUND('',#87,.T.);
#43=FACE_OUTER_BOUND('',#88,.T.);
#44=FACE_OUTER_BOUND('',#89,.T.);
#45=FACE_OUTER_BOUND('',#90,.T.);
#46=FACE_OUTER_BOUND('',#91,.T.);
#47=FACE_OUTER_BOUND('',#92,.T.);
#48=FACE_OUTER_BOUND('',#93,.T.);
#49=FACE_OUTER_BOUND('',#95,.T.);
#50=FACE_OUTER_BOUND('',#96,.T.);
#51=FACE_OUTER_BOUND('',#97,.T.);
#52=FACE_OUTER_BOUND('',#98,.T.);
#53=FACE_OUTER_BOUND('',#99,.T.);
#54=FACE_OUTER_BOUND('',#100,.T.);
#55=FACE_OUTER_BOUND('',#101,.T.);
#56=FACE_OUTER_BOUND('',#102,.T.);
#57=FACE_OUTER_BOUND('',#103,.T.);
#58=FACE_OUTER_BOUND('',#104,.T.);
#59=FACE_OUTER_BOUND('',#105,.T.);
#60=FACE_OUTER_BOUND('',#106,.T.);
#61=FACE_OUTER_BOUND('',#107,.T.);
#62=FACE_OUTER_BOUND('',#108,.T.);
#63=FACE_OUTER_BOUND('',#109,.T.);
#64=FACE_OUTER_BOUND('',#110,.T.);
#65=FACE_OUTER_BOUND('',#111,.T.);
#66=FACE_OUTER_BOUND('',#112,.T.);
#67=FACE_OUTER_BOUND('',#113,.T.);
#68=FACE_OUTER_BOUND('',#114,.T.);
#69=FACE_OUTER_BOUND('',#115,.T.);
#70=FACE_OUTER_BOUND('',#116,.T.);
#71=FACE_OUTER_BOUND('',#117,.T.);
#72=FACE_OUTER_BOUND('',#119,.T.);
#73=FACE_OUTER_BOUND('',#120,.T.);
#74=FACE_OUTER_BOUND('',#121,.T.);
#75=FACE_OUTER_BOUND('',#122,.T.);
#76=FACE_OUTER_BOUND('',#123,.T.);
#77=FACE_OUTER_BOUND('',#125,.T.);
#78=FACE_OUTER_BOUND('',#126,.T.);
#79=FACE_OUTER_BOUND('',#127,.T.);
#80=EDGE_LOOP('',(#556,#557,#558,#559));
#81=EDGE_LOOP('',(#560,#561,#562,#563));
#82=EDGE_LOOP('',(#564,#565,#566,#567));
#83=EDGE_LOOP('',(#568,#569,#570,#571));
#84=EDGE_LOOP('',(#572,#573,#574,#575,#576,#577,#578,#579));
#85=EDGE_LOOP('',(#580,#581,#582,#583,#584,#585,#586,#587,#588,#589,#590));
#86=EDGE_LOOP('',(#591,#592,#593,#594,#595,#596,#597,#598,#599));
#87=EDGE_LOOP('',(#600,#601,#602,#603,#604,#605,#606,#607,#608));
#88=EDGE_LOOP('',(#609,#610,#611,#612));
#89=EDGE_LOOP('',(#613,#614,#615,#616));
#90=EDGE_LOOP('',(#617,#618,#619,#620));
#91=EDGE_LOOP('',(#621,#622,#623,#624));
#92=EDGE_LOOP('',(#625,#626,#627,#628,#629));
#93=EDGE_LOOP('',(#630,#631,#632,#633,#634,#635,#636,#637,#638,#639));
#94=EDGE_LOOP('',(#640,#641,#642,#643));
#95=EDGE_LOOP('',(#644,#645,#646,#647,#648));
#96=EDGE_LOOP('',(#649));
#97=EDGE_LOOP('',(#650,#651,#652,#653));
#98=EDGE_LOOP('',(#654,#655,#656,#657,#658,#659,#660,#661,#662,#663,#664,
#665));
#99=EDGE_LOOP('',(#666,#667,#668,#669));
#100=EDGE_LOOP('',(#670,#671,#672,#673,#674,#675,#676,#677,#678,#679));
#101=EDGE_LOOP('',(#680,#681,#682,#683));
#102=EDGE_LOOP('',(#684,#685,#686,#687,#688,#689,#690,#691,#692,#693,#694));
#103=EDGE_LOOP('',(#695,#696,#697,#698,#699,#700,#701,#702,#703,#704));
#104=EDGE_LOOP('',(#705,#706,#707,#708));
#105=EDGE_LOOP('',(#709,#710,#711,#712,#713));
#106=EDGE_LOOP('',(#714,#715,#716,#717,#718,#719,#720,#721,#722));
#107=EDGE_LOOP('',(#723,#724,#725,#726));
#108=EDGE_LOOP('',(#727,#728,#729,#730,#731));
#109=EDGE_LOOP('',(#732,#733,#734,#735));
#110=EDGE_LOOP('',(#736,#737,#738,#739));
#111=EDGE_LOOP('',(#740,#741,#742,#743));
#112=EDGE_LOOP('',(#744,#745,#746,#747,#748,#749));
#113=EDGE_LOOP('',(#750));
#114=EDGE_LOOP('',(#751,#752,#753,#754));
#115=EDGE_LOOP('',(#755,#756,#757,#758));
#116=EDGE_LOOP('',(#759,#760,#761,#762));
#117=EDGE_LOOP('',(#763,#764,#765,#766));
#118=EDGE_LOOP('',(#767));
#119=EDGE_LOOP('',(#768,#769,#770,#771));
#120=EDGE_LOOP('',(#772,#773,#774,#775));
#121=EDGE_LOOP('',(#776,#777,#778,#779));
#122=EDGE_LOOP('',(#780,#781,#782,#783));
#123=EDGE_LOOP('',(#784,#785,#786,#787));
#124=EDGE_LOOP('',(#788));
#125=EDGE_LOOP('',(#789,#790,#791,#792));
#126=EDGE_LOOP('',(#793,#794,#795,#796,#797));
#127=EDGE_LOOP('',(#798,#799,#800,#801));
#128=LINE('',#1171,#240);
#129=LINE('',#1173,#241);
#130=LINE('',#1175,#242);
#131=LINE('',#1176,#243);
#132=LINE('',#1180,#244);
#133=LINE('',#1182,#245);
#134=LINE('',#1184,#246);
#135=LINE('',#1185,#247);
#136=LINE('',#1188,#248);
#137=LINE('',#1190,#249);
#138=LINE('',#1191,#250);
#139=LINE('',#1196,#251);
#140=LINE('',#1199,#252);
#141=LINE('',#1201,#253);
#142=LINE('',#1203,#254);
#143=LINE('',#1205,#255);
#144=LINE('',#1206,#256);
#145=LINE('',#1209,#257);
#146=LINE('',#1211,#258);
#147=LINE('',#1213,#259);
#148=LINE('',#1215,#260);
#149=LINE('',#1217,#261);
#150=LINE('',#1219,#262);
#151=LINE('',#1221,#263);
#152=LINE('',#1223,#264);
#153=LINE('',#1226,#265);
#154=LINE('',#1229,#266);
#155=LINE('',#1233,#267);
#156=LINE('',#1235,#268);
#157=LINE('',#1237,#269);
#158=LINE('',#1239,#270);
#159=LINE('',#1240,#271);
#160=LINE('',#1243,#272);
#161=LINE('',#1245,#273);
#162=LINE('',#1247,#274);
#163=LINE('',#1249,#275);
#164=LINE('',#1251,#276);
#165=LINE('',#1255,#277);
#166=LINE('',#1256,#278);
#167=LINE('',#1261,#279);
#168=LINE('',#1262,#280);
#169=LINE('',#1265,#281);
#170=LINE('',#1266,#282);
#171=LINE('',#1316,#283);
#172=LINE('',#1317,#284);
#173=LINE('',#1319,#285);
#174=LINE('',#1320,#286);
#175=LINE('',#1324,#287);
#176=LINE('',#1326,#288);
#177=LINE('',#1328,#289);
#178=LINE('',#1330,#290);
#179=LINE('',#1332,#291);
#180=LINE('',#1333,#292);
#181=LINE('',#1334,#293);
#182=LINE('',#1337,#294);
#183=LINE('',#1339,#295);
#184=LINE('',#1341,#296);
#185=LINE('',#1342,#297);
#186=LINE('',#1344,#298);
#187=LINE('',#1346,#299);
#188=LINE('',#1347,#300);
#189=LINE('',#1353,#301);
#190=LINE('',#1355,#302);
#191=LINE('',#1356,#303);
#192=LINE('',#1359,#304);
#193=LINE('',#1361,#305);
#194=LINE('',#1363,#306);
#195=LINE('',#1365,#307);
#196=LINE('',#1367,#308);
#197=LINE('',#1368,#309);
#198=LINE('',#1370,#310);
#199=LINE('',#1371,#311);
#200=LINE('',#1374,#312);
#201=LINE('',#1375,#313);
#202=LINE('',#1378,#314);
#203=LINE('',#1380,#315);
#204=LINE('',#1382,#316);
#205=LINE('',#1383,#317);
#206=LINE('',#1385,#318);
#207=LINE('',#1387,#319);
#208=LINE('',#1389,#320);
#209=LINE('',#1390,#321);
#210=LINE('',#1393,#322);
#211=LINE('',#1394,#323);
#212=LINE('',#1396,#324);
#213=LINE('',#1398,#325);
#214=LINE('',#1399,#326);
#215=LINE('',#1402,#327);
#216=LINE('',#1404,#328);
#217=LINE('',#1406,#329);
#218=LINE('',#1408,#330);
#219=LINE('',#1409,#331);
#220=LINE('',#1410,#332);
#221=LINE('',#1412,#333);
#222=LINE('',#1415,#334);
#223=LINE('',#1416,#335);
#224=LINE('',#1419,#336);
#225=LINE('',#1421,#337);
#226=LINE('',#1423,#338);
#227=LINE('',#1424,#339);
#228=LINE('',#1425,#340);
#229=LINE('',#1427,#341);
#230=LINE('',#1430,#342);
#231=LINE('',#1432,#343);
#232=LINE('',#1434,#344);
#233=LINE('',#1443,#345);
#234=LINE('',#1445,#346);
#235=LINE('',#1448,#347);
#236=LINE('',#1449,#348);
#237=LINE('',#1454,#349);
#238=LINE('',#1456,#350);
#239=LINE('',#1459,#351);
#240=VECTOR('',#947,10.);
#241=VECTOR('',#948,10.);
#242=VECTOR('',#949,10.);
#243=VECTOR('',#950,10.);
#244=VECTOR('',#953,10.);
#245=VECTOR('',#954,10.);
#246=VECTOR('',#955,10.);
#247=VECTOR('',#956,10.);
#248=VECTOR('',#959,10.);
#249=VECTOR('',#960,10.);
#250=VECTOR('',#961,10.);
#251=VECTOR('',#966,10.);
#252=VECTOR('',#971,10.);
#253=VECTOR('',#972,10.);
#254=VECTOR('',#973,10.);
#255=VECTOR('',#974,10.);
#256=VECTOR('',#975,10.);
#257=VECTOR('',#978,10.);
#258=VECTOR('',#979,10.);
#259=VECTOR('',#980,10.);
#260=VECTOR('',#981,10.);
#261=VECTOR('',#982,10.);
#262=VECTOR('',#983,10.);
#263=VECTOR('',#984,10.);
#264=VECTOR('',#985,10.);
#265=VECTOR('',#988,10.);
#266=VECTOR('',#991,10.);
#267=VECTOR('',#994,10.);
#268=VECTOR('',#995,10.);
#269=VECTOR('',#996,10.);
#270=VECTOR('',#997,10.);
#271=VECTOR('',#998,10.);
#272=VECTOR('',#1001,10.);
#273=VECTOR('',#1002,10.);
#274=VECTOR('',#1003,10.);
#275=VECTOR('',#1004,10.);
#276=VECTOR('',#1005,10.);
#277=VECTOR('',#1008,10.);
#278=VECTOR('',#1009,10.);
#279=VECTOR('',#1014,10.);
#280=VECTOR('',#1015,10.);
#281=VECTOR('',#1018,10.);
#282=VECTOR('',#1019,10.);
#283=VECTOR('',#1022,10.);
#284=VECTOR('',#1023,10.);
#285=VECTOR('',#1026,10.);
#286=VECTOR('',#1027,10.);
#287=VECTOR('',#1032,10.);
#288=VECTOR('',#1033,10.);
#289=VECTOR('',#1034,10.);
#290=VECTOR('',#1035,10.);
#291=VECTOR('',#1036,10.);
#292=VECTOR('',#1037,10.);
#293=VECTOR('',#1038,10.);
#294=VECTOR('',#1039,10.);
#295=VECTOR('',#1040,10.);
#296=VECTOR('',#1041,10.);
#297=VECTOR('',#1042,10.);
#298=VECTOR('',#1045,10.);
#299=VECTOR('',#1046,10.);
#300=VECTOR('',#1047,10.);
#301=VECTOR('',#1054,10.);
#302=VECTOR('',#1055,10.);
#303=VECTOR('',#1056,10.);
#304=VECTOR('',#1059,10.);
#305=VECTOR('',#1060,10.);
#306=VECTOR('',#1061,10.);
#307=VECTOR('',#1062,10.);
#308=VECTOR('',#1063,10.);
#309=VECTOR('',#1064,10.);
#310=VECTOR('',#1065,10.);
#311=VECTOR('',#1066,10.);
#312=VECTOR('',#1069,10.);
#313=VECTOR('',#1070,10.);
#314=VECTOR('',#1073,10.);
#315=VECTOR('',#1074,10.);
#316=VECTOR('',#1075,10.);
#317=VECTOR('',#1076,10.);
#318=VECTOR('',#1077,10.);
#319=VECTOR('',#1078,10.);
#320=VECTOR('',#1079,10.);
#321=VECTOR('',#1080,10.);
#322=VECTOR('',#1083,10.);
#323=VECTOR('',#1084,10.);
#324=VECTOR('',#1087,10.);
#325=VECTOR('',#1088,10.);
#326=VECTOR('',#1089,10.);
#327=VECTOR('',#1092,10.);
#328=VECTOR('',#1093,10.);
#329=VECTOR('',#1094,10.);
#330=VECTOR('',#1095,10.);
#331=VECTOR('',#1096,10.);
#332=VECTOR('',#1097,10.);
#333=VECTOR('',#1100,10.);
#334=VECTOR('',#1103,10.);
#335=VECTOR('',#1104,10.);
#336=VECTOR('',#1107,10.);
#337=VECTOR('',#1108,10.);
#338=VECTOR('',#1109,10.);
#339=VECTOR('',#1110,10.);
#340=VECTOR('',#1111,10.);
#341=VECTOR('',#1114,10.);
#342=VECTOR('',#1119,10.);
#343=VECTOR('',#1122,10.);
#344=VECTOR('',#1125,10.);
#345=VECTOR('',#1138,0.75);
#346=VECTOR('',#1141,10.);
#347=VECTOR('',#1146,10.);
#348=VECTOR('',#1147,10.);
#349=VECTOR('',#1154,0.749999999999999);
#350=VECTOR('',#1157,10.);
#351=VECTOR('',#1162,10.);
#352=VERTEX_POINT('',#1169);
#353=VERTEX_POINT('',#1170);
#354=VERTEX_POINT('',#1172);
#355=VERTEX_POINT('',#1174);
#356=VERTEX_POINT('',#1178);
#357=VERTEX_POINT('',#1179);
#358=VERTEX_POINT('',#1181);
#359=VERTEX_POINT('',#1183);
#360=VERTEX_POINT('',#1187);
#361=VERTEX_POINT('',#1189);
#362=VERTEX_POINT('',#1193);
#363=VERTEX_POINT('',#1195);
#364=VERTEX_POINT('',#1200);
#365=VERTEX_POINT('',#1202);
#366=VERTEX_POINT('',#1204);
#367=VERTEX_POINT('',#1208);
#368=VERTEX_POINT('',#1210);
#369=VERTEX_POINT('',#1212);
#370=VERTEX_POINT('',#1214);
#371=VERTEX_POINT('',#1216);
#372=VERTEX_POINT('',#1218);
#373=VERTEX_POINT('',#1220);
#374=VERTEX_POINT('',#1222);
#375=VERTEX_POINT('',#1224);
#376=VERTEX_POINT('',#1228);
#377=VERTEX_POINT('',#1230);
#378=VERTEX_POINT('',#1232);
#379=VERTEX_POINT('',#1234);
#380=VERTEX_POINT('',#1236);
#381=VERTEX_POINT('',#1238);
#382=VERTEX_POINT('',#1242);
#383=VERTEX_POINT('',#1244);
#384=VERTEX_POINT('',#1246);
#385=VERTEX_POINT('',#1248);
#386=VERTEX_POINT('',#1250);
#387=VERTEX_POINT('',#1252);
#388=VERTEX_POINT('',#1254);
#389=VERTEX_POINT('',#1258);
#390=VERTEX_POINT('',#1259);
#391=VERTEX_POINT('',#1264);
#392=VERTEX_POINT('',#1268);
#393=VERTEX_POINT('',#1269);
#394=VERTEX_POINT('',#1323);
#395=VERTEX_POINT('',#1325);
#396=VERTEX_POINT('',#1327);
#397=VERTEX_POINT('',#1329);
#398=VERTEX_POINT('',#1331);
#399=VERTEX_POINT('',#1335);
#400=VERTEX_POINT('',#1336);
#401=VERTEX_POINT('',#1338);
#402=VERTEX_POINT('',#1340);
#403=VERTEX_POINT('',#1345);
#404=VERTEX_POINT('',#1349);
#405=VERTEX_POINT('',#1352);
#406=VERTEX_POINT('',#1354);
#407=VERTEX_POINT('',#1358);
#408=VERTEX_POINT('',#1360);
#409=VERTEX_POINT('',#1362);
#410=VERTEX_POINT('',#1364);
#411=VERTEX_POINT('',#1366);
#412=VERTEX_POINT('',#1369);
#413=VERTEX_POINT('',#1373);
#414=VERTEX_POINT('',#1377);
#415=VERTEX_POINT('',#1379);
#416=VERTEX_POINT('',#1381);
#417=VERTEX_POINT('',#1384);
#418=VERTEX_POINT('',#1386);
#419=VERTEX_POINT('',#1388);
#420=VERTEX_POINT('',#1392);
#421=VERTEX_POINT('',#1397);
#422=VERTEX_POINT('',#1401);
#423=VERTEX_POINT('',#1403);
#424=VERTEX_POINT('',#1405);
#425=VERTEX_POINT('',#1407);
#426=VERTEX_POINT('',#1414);
#427=VERTEX_POINT('',#1418);
#428=VERTEX_POINT('',#1420);
#429=VERTEX_POINT('',#1422);
#430=VERTEX_POINT('',#1437);
#431=VERTEX_POINT('',#1441);
#432=VERTEX_POINT('',#1452);
#433=EDGE_CURVE('',#352,#353,#128,.T.);
#434=EDGE_CURVE('',#352,#354,#129,.T.);
#435=EDGE_CURVE('',#354,#355,#130,.T.);
#436=EDGE_CURVE('',#355,#353,#131,.T.);
#437=EDGE_CURVE('',#356,#357,#132,.T.);
#438=EDGE_CURVE('',#358,#356,#133,.T.);
#439=EDGE_CURVE('',#358,#359,#134,.T.);
#440=EDGE_CURVE('',#357,#359,#135,.T.);
#441=EDGE_CURVE('',#360,#358,#136,.T.);
#442=EDGE_CURVE('',#360,#361,#137,.T.);
#443=EDGE_CURVE('',#359,#361,#138,.T.);
#444=EDGE_CURVE('',#360,#362,#20,.T.);
#445=EDGE_CURVE('',#362,#363,#139,.T.);
#446=EDGE_CURVE('',#361,#363,#21,.T.);
#447=EDGE_CURVE('',#357,#353,#140,.T.);
#448=EDGE_CURVE('',#363,#364,#141,.T.);
#449=EDGE_CURVE('',#365,#364,#142,.T.);
#450=EDGE_CURVE('',#365,#366,#143,.T.);
#451=EDGE_CURVE('',#353,#366,#144,.T.);
#452=EDGE_CURVE('',#352,#367,#145,.T.);
#453=EDGE_CURVE('',#367,#368,#146,.T.);
#454=EDGE_CURVE('',#368,#369,#147,.T.);
#455=EDGE_CURVE('',#370,#369,#148,.T.);
#456=EDGE_CURVE('',#370,#371,#149,.T.);
#457=EDGE_CURVE('',#371,#372,#150,.T.);
#458=EDGE_CURVE('',#372,#373,#151,.T.);
#459=EDGE_CURVE('',#373,#374,#152,.T.);
#460=EDGE_CURVE('',#375,#374,#22,.T.);
#461=EDGE_CURVE('',#375,#354,#153,.T.);
#462=EDGE_CURVE('',#376,#355,#154,.T.);
#463=EDGE_CURVE('',#377,#376,#19,.T.);
#464=EDGE_CURVE('',#378,#377,#155,.T.);
#465=EDGE_CURVE('',#379,#378,#156,.T.);
#466=EDGE_CURVE('',#380,#379,#157,.T.);
#467=EDGE_CURVE('',#381,#380,#158,.T.);
#468=EDGE_CURVE('',#357,#381,#159,.T.);
#469=EDGE_CURVE('',#364,#382,#160,.T.);
#470=EDGE_CURVE('',#382,#383,#161,.T.);
#471=EDGE_CURVE('',#383,#384,#162,.T.);
#472=EDGE_CURVE('',#384,#385,#163,.T.);
#473=EDGE_CURVE('',#385,#386,#164,.T.);
#474=EDGE_CURVE('',#386,#387,#23,.T.);
#475=EDGE_CURVE('',#387,#388,#165,.T.);
#476=EDGE_CURVE('',#388,#365,#166,.T.);
#477=EDGE_CURVE('',#389,#390,#24,.T.);
#478=EDGE_CURVE('',#390,#387,#167,.T.);
#479=EDGE_CURVE('',#389,#386,#168,.T.);
#480=EDGE_CURVE('',#385,#391,#169,.T.);
#481=EDGE_CURVE('',#391,#389,#170,.T.);
#482=EDGE_CURVE('',#392,#393,#18,.T.);
#483=EDGE_CURVE('',#393,#377,#171,.T.);
#484=EDGE_CURVE('',#376,#392,#172,.T.);
#485=EDGE_CURVE('',#392,#375,#173,.T.);
#486=EDGE_CURVE('',#374,#393,#174,.T.);
#487=EDGE_CURVE('',#369,#394,#175,.T.);
#488=EDGE_CURVE('',#395,#369,#176,.T.);
#489=EDGE_CURVE('',#395,#396,#177,.T.);
#490=EDGE_CURVE('',#397,#396,#178,.T.);
#491=EDGE_CURVE('',#398,#397,#179,.T.);
#492=EDGE_CURVE('',#398,#362,#180,.T.);
#493=EDGE_CURVE('',#356,#394,#181,.T.);
#494=EDGE_CURVE('',#399,#400,#182,.T.);
#495=EDGE_CURVE('',#400,#401,#183,.T.);
#496=EDGE_CURVE('',#401,#402,#184,.T.);
#497=EDGE_CURVE('',#402,#399,#185,.T.);
#498=EDGE_CURVE('',#380,#371,#186,.T.);
#499=EDGE_CURVE('',#370,#403,#187,.T.);
#500=EDGE_CURVE('',#403,#381,#188,.T.);
#501=EDGE_CURVE('',#404,#404,#25,.T.);
#502=EDGE_CURVE('',#405,#395,#189,.T.);
#503=EDGE_CURVE('',#406,#405,#190,.T.);
#504=EDGE_CURVE('',#396,#406,#191,.T.);
#505=EDGE_CURVE('',#407,#406,#192,.T.);
#506=EDGE_CURVE('',#407,#408,#193,.T.);
#507=EDGE_CURVE('',#408,#409,#194,.T.);
#508=EDGE_CURVE('',#409,#410,#195,.T.);
#509=EDGE_CURVE('',#410,#411,#196,.T.);
#510=EDGE_CURVE('',#411,#366,#197,.T.);
#511=EDGE_CURVE('',#388,#412,#198,.T.);
#512=EDGE_CURVE('',#397,#412,#199,.T.);
#513=EDGE_CURVE('',#405,#413,#200,.T.);
#514=EDGE_CURVE('',#413,#407,#201,.T.);
#515=EDGE_CURVE('',#414,#400,#202,.T.);
#516=EDGE_CURVE('',#415,#414,#203,.T.);
#517=EDGE_CURVE('',#416,#415,#204,.T.);
#518=EDGE_CURVE('',#410,#416,#205,.T.);
#519=EDGE_CURVE('',#417,#409,#206,.T.);
#520=EDGE_CURVE('',#418,#417,#207,.T.);
#521=EDGE_CURVE('',#419,#418,#208,.T.);
#522=EDGE_CURVE('',#401,#419,#209,.T.);
#523=EDGE_CURVE('',#416,#420,#210,.T.);
#524=EDGE_CURVE('',#420,#411,#211,.T.);
#525=EDGE_CURVE('',#420,#352,#212,.T.);
#526=EDGE_CURVE('',#415,#421,#213,.T.);
#527=EDGE_CURVE('',#421,#413,#214,.T.);
#528=EDGE_CURVE('',#399,#422,#215,.T.);
#529=EDGE_CURVE('',#423,#402,#216,.T.);
#530=EDGE_CURVE('',#424,#423,#217,.T.);
#531=EDGE_CURVE('',#425,#424,#218,.T.);
#532=EDGE_CURVE('',#408,#425,#219,.T.);
#533=EDGE_CURVE('',#422,#421,#220,.T.);
#534=EDGE_CURVE('',#379,#372,#221,.T.);
#535=EDGE_CURVE('',#426,#378,#222,.T.);
#536=EDGE_CURVE('',#373,#426,#223,.T.);
#537=EDGE_CURVE('',#391,#427,#224,.T.);
#538=EDGE_CURVE('',#427,#428,#225,.T.);
#539=EDGE_CURVE('',#428,#429,#226,.T.);
#540=EDGE_CURVE('',#398,#429,#227,.T.);
#541=EDGE_CURVE('',#390,#412,#228,.T.);
#542=EDGE_CURVE('',#426,#393,#229,.T.);
#543=EDGE_CURVE('',#427,#384,#230,.T.);
#544=EDGE_CURVE('',#383,#428,#231,.T.);
#545=EDGE_CURVE('',#429,#382,#232,.T.);
#546=EDGE_CURVE('',#430,#430,#26,.T.);
#547=EDGE_CURVE('',#431,#431,#27,.T.);
#548=EDGE_CURVE('',#431,#404,#233,.T.);
#549=EDGE_CURVE('',#422,#414,#234,.T.);
#550=EDGE_CURVE('',#424,#418,#235,.T.);
#551=EDGE_CURVE('',#423,#419,#236,.T.);
#552=EDGE_CURVE('',#432,#432,#28,.T.);
#553=EDGE_CURVE('',#432,#430,#237,.T.);
#554=EDGE_CURVE('',#417,#425,#238,.T.);
#555=EDGE_CURVE('',#394,#403,#239,.T.);
#556=ORIENTED_EDGE('',*,*,#433,.F.);
#557=ORIENTED_EDGE('',*,*,#434,.T.);
#558=ORIENTED_EDGE('',*,*,#435,.T.);
#559=ORIENTED_EDGE('',*,*,#436,.T.);
#560=ORIENTED_EDGE('',*,*,#437,.F.);
#561=ORIENTED_EDGE('',*,*,#438,.F.);
#562=ORIENTED_EDGE('',*,*,#439,.T.);
#563=ORIENTED_EDGE('',*,*,#440,.F.);
#564=ORIENTED_EDGE('',*,*,#441,.F.);
#565=ORIENTED_EDGE('',*,*,#442,.T.);
#566=ORIENTED_EDGE('',*,*,#443,.F.);
#567=ORIENTED_EDGE('',*,*,#439,.F.);
#568=ORIENTED_EDGE('',*,*,#444,.T.);
#569=ORIENTED_EDGE('',*,*,#445,.T.);
#570=ORIENTED_EDGE('',*,*,#446,.F.);
#571=ORIENTED_EDGE('',*,*,#442,.F.);
#572=ORIENTED_EDGE('',*,*,#447,.F.);
#573=ORIENTED_EDGE('',*,*,#440,.T.);
#574=ORIENTED_EDGE('',*,*,#443,.T.);
#575=ORIENTED_EDGE('',*,*,#446,.T.);
#576=ORIENTED_EDGE('',*,*,#448,.T.);
#577=ORIENTED_EDGE('',*,*,#449,.F.);
#578=ORIENTED_EDGE('',*,*,#450,.T.);
#579=ORIENTED_EDGE('',*,*,#451,.F.);
#580=ORIENTED_EDGE('',*,*,#452,.T.);
#581=ORIENTED_EDGE('',*,*,#453,.T.);
#582=ORIENTED_EDGE('',*,*,#454,.T.);
#583=ORIENTED_EDGE('',*,*,#455,.F.);
#584=ORIENTED_EDGE('',*,*,#456,.T.);
#585=ORIENTED_EDGE('',*,*,#457,.T.);
#586=ORIENTED_EDGE('',*,*,#458,.T.);
#587=ORIENTED_EDGE('',*,*,#459,.T.);
#588=ORIENTED_EDGE('',*,*,#460,.F.);
#589=ORIENTED_EDGE('',*,*,#461,.T.);
#590=ORIENTED_EDGE('',*,*,#434,.F.);
#591=ORIENTED_EDGE('',*,*,#436,.F.);
#592=ORIENTED_EDGE('',*,*,#462,.F.);
#593=ORIENTED_EDGE('',*,*,#463,.F.);
#594=ORIENTED_EDGE('',*,*,#464,.F.);
#595=ORIENTED_EDGE('',*,*,#465,.F.);
#596=ORIENTED_EDGE('',*,*,#466,.F.);
#597=ORIENTED_EDGE('',*,*,#467,.F.);
#598=ORIENTED_EDGE('',*,*,#468,.F.);
#599=ORIENTED_EDGE('',*,*,#447,.T.);
#600=ORIENTED_EDGE('',*,*,#449,.T.);
#601=ORIENTED_EDGE('',*,*,#469,.T.);
#602=ORIENTED_EDGE('',*,*,#470,.T.);
#603=ORIENTED_EDGE('',*,*,#471,.T.);
#604=ORIENTED_EDGE('',*,*,#472,.T.);
#605=ORIENTED_EDGE('',*,*,#473,.T.);
#606=ORIENTED_EDGE('',*,*,#474,.T.);
#607=ORIENTED_EDGE('',*,*,#475,.T.);
#608=ORIENTED_EDGE('',*,*,#476,.T.);
#609=ORIENTED_EDGE('',*,*,#477,.T.);
#610=ORIENTED_EDGE('',*,*,#478,.T.);
#611=ORIENTED_EDGE('',*,*,#474,.F.);
#612=ORIENTED_EDGE('',*,*,#479,.F.);
#613=ORIENTED_EDGE('',*,*,#479,.T.);
#614=ORIENTED_EDGE('',*,*,#473,.F.);
#615=ORIENTED_EDGE('',*,*,#480,.T.);
#616=ORIENTED_EDGE('',*,*,#481,.T.);
#617=ORIENTED_EDGE('',*,*,#482,.T.);
#618=ORIENTED_EDGE('',*,*,#483,.T.);
#619=ORIENTED_EDGE('',*,*,#463,.T.);
#620=ORIENTED_EDGE('',*,*,#484,.T.);
#621=ORIENTED_EDGE('',*,*,#482,.F.);
#622=ORIENTED_EDGE('',*,*,#485,.T.);
#623=ORIENTED_EDGE('',*,*,#460,.T.);
#624=ORIENTED_EDGE('',*,*,#486,.T.);
#625=ORIENTED_EDGE('',*,*,#485,.F.);
#626=ORIENTED_EDGE('',*,*,#484,.F.);
#627=ORIENTED_EDGE('',*,*,#462,.T.);
#628=ORIENTED_EDGE('',*,*,#435,.F.);
#629=ORIENTED_EDGE('',*,*,#461,.F.);
#630=ORIENTED_EDGE('',*,*,#487,.F.);
#631=ORIENTED_EDGE('',*,*,#488,.F.);
#632=ORIENTED_EDGE('',*,*,#489,.T.);
#633=ORIENTED_EDGE('',*,*,#490,.F.);
#634=ORIENTED_EDGE('',*,*,#491,.F.);
#635=ORIENTED_EDGE('',*,*,#492,.T.);
#636=ORIENTED_EDGE('',*,*,#444,.F.);
#637=ORIENTED_EDGE('',*,*,#441,.T.);
#638=ORIENTED_EDGE('',*,*,#438,.T.);
#639=ORIENTED_EDGE('',*,*,#493,.T.);
#640=ORIENTED_EDGE('',*,*,#494,.T.);
#641=ORIENTED_EDGE('',*,*,#495,.T.);
#642=ORIENTED_EDGE('',*,*,#496,.T.);
#643=ORIENTED_EDGE('',*,*,#497,.T.);
#644=ORIENTED_EDGE('',*,*,#467,.T.);
#645=ORIENTED_EDGE('',*,*,#498,.T.);
#646=ORIENTED_EDGE('',*,*,#456,.F.);
#647=ORIENTED_EDGE('',*,*,#499,.T.);
#648=ORIENTED_EDGE('',*,*,#500,.T.);
#649=ORIENTED_EDGE('',*,*,#501,.F.);
#650=ORIENTED_EDGE('',*,*,#502,.F.);
#651=ORIENTED_EDGE('',*,*,#503,.F.);
#652=ORIENTED_EDGE('',*,*,#504,.F.);
#653=ORIENTED_EDGE('',*,*,#489,.F.);
#654=ORIENTED_EDGE('',*,*,#504,.T.);
#655=ORIENTED_EDGE('',*,*,#505,.F.);
#656=ORIENTED_EDGE('',*,*,#506,.T.);
#657=ORIENTED_EDGE('',*,*,#507,.T.);
#658=ORIENTED_EDGE('',*,*,#508,.T.);
#659=ORIENTED_EDGE('',*,*,#509,.T.);
#660=ORIENTED_EDGE('',*,*,#510,.T.);
#661=ORIENTED_EDGE('',*,*,#450,.F.);
#662=ORIENTED_EDGE('',*,*,#476,.F.);
#663=ORIENTED_EDGE('',*,*,#511,.T.);
#664=ORIENTED_EDGE('',*,*,#512,.F.);
#665=ORIENTED_EDGE('',*,*,#490,.T.);
#666=ORIENTED_EDGE('',*,*,#503,.T.);
#667=ORIENTED_EDGE('',*,*,#513,.T.);
#668=ORIENTED_EDGE('',*,*,#514,.T.);
#669=ORIENTED_EDGE('',*,*,#505,.T.);
#670=ORIENTED_EDGE('',*,*,#515,.F.);
#671=ORIENTED_EDGE('',*,*,#516,.F.);
#672=ORIENTED_EDGE('',*,*,#517,.F.);
#673=ORIENTED_EDGE('',*,*,#518,.F.);
#674=ORIENTED_EDGE('',*,*,#508,.F.);
#675=ORIENTED_EDGE('',*,*,#519,.F.);
#676=ORIENTED_EDGE('',*,*,#520,.F.);
#677=ORIENTED_EDGE('',*,*,#521,.F.);
#678=ORIENTED_EDGE('',*,*,#522,.F.);
#679=ORIENTED_EDGE('',*,*,#495,.F.);
#680=ORIENTED_EDGE('',*,*,#518,.T.);
#681=ORIENTED_EDGE('',*,*,#523,.T.);
#682=ORIENTED_EDGE('',*,*,#524,.T.);
#683=ORIENTED_EDGE('',*,*,#509,.F.);
#684=ORIENTED_EDGE('',*,*,#502,.T.);
#685=ORIENTED_EDGE('',*,*,#488,.T.);
#686=ORIENTED_EDGE('',*,*,#454,.F.);
#687=ORIENTED_EDGE('',*,*,#453,.F.);
#688=ORIENTED_EDGE('',*,*,#452,.F.);
#689=ORIENTED_EDGE('',*,*,#525,.F.);
#690=ORIENTED_EDGE('',*,*,#523,.F.);
#691=ORIENTED_EDGE('',*,*,#517,.T.);
#692=ORIENTED_EDGE('',*,*,#526,.T.);
#693=ORIENTED_EDGE('',*,*,#527,.T.);
#694=ORIENTED_EDGE('',*,*,#513,.F.);
#695=ORIENTED_EDGE('',*,*,#528,.F.);
#696=ORIENTED_EDGE('',*,*,#497,.F.);
#697=ORIENTED_EDGE('',*,*,#529,.F.);
#698=ORIENTED_EDGE('',*,*,#530,.F.);
#699=ORIENTED_EDGE('',*,*,#531,.F.);
#700=ORIENTED_EDGE('',*,*,#532,.F.);
#701=ORIENTED_EDGE('',*,*,#506,.F.);
#702=ORIENTED_EDGE('',*,*,#514,.F.);
#703=ORIENTED_EDGE('',*,*,#527,.F.);
#704=ORIENTED_EDGE('',*,*,#533,.F.);
#705=ORIENTED_EDGE('',*,*,#466,.T.);
#706=ORIENTED_EDGE('',*,*,#534,.T.);
#707=ORIENTED_EDGE('',*,*,#457,.F.);
#708=ORIENTED_EDGE('',*,*,#498,.F.);
#709=ORIENTED_EDGE('',*,*,#465,.T.);
#710=ORIENTED_EDGE('',*,*,#535,.F.);
#711=ORIENTED_EDGE('',*,*,#536,.F.);
#712=ORIENTED_EDGE('',*,*,#458,.F.);
#713=ORIENTED_EDGE('',*,*,#534,.F.);
#714=ORIENTED_EDGE('',*,*,#477,.F.);
#715=ORIENTED_EDGE('',*,*,#481,.F.);
#716=ORIENTED_EDGE('',*,*,#537,.T.);
#717=ORIENTED_EDGE('',*,*,#538,.T.);
#718=ORIENTED_EDGE('',*,*,#539,.T.);
#719=ORIENTED_EDGE('',*,*,#540,.F.);
#720=ORIENTED_EDGE('',*,*,#491,.T.);
#721=ORIENTED_EDGE('',*,*,#512,.T.);
#722=ORIENTED_EDGE('',*,*,#541,.F.);
#723=ORIENTED_EDGE('',*,*,#486,.F.);
#724=ORIENTED_EDGE('',*,*,#459,.F.);
#725=ORIENTED_EDGE('',*,*,#536,.T.);
#726=ORIENTED_EDGE('',*,*,#542,.T.);
#727=ORIENTED_EDGE('',*,*,#433,.T.);
#728=ORIENTED_EDGE('',*,*,#451,.T.);
#729=ORIENTED_EDGE('',*,*,#510,.F.);
#730=ORIENTED_EDGE('',*,*,#524,.F.);
#731=ORIENTED_EDGE('',*,*,#525,.T.);
#732=ORIENTED_EDGE('',*,*,#543,.F.);
#733=ORIENTED_EDGE('',*,*,#537,.F.);
#734=ORIENTED_EDGE('',*,*,#480,.F.);
#735=ORIENTED_EDGE('',*,*,#472,.F.);
#736=ORIENTED_EDGE('',*,*,#544,.T.);
#737=ORIENTED_EDGE('',*,*,#538,.F.);
#738=ORIENTED_EDGE('',*,*,#543,.T.);
#739=ORIENTED_EDGE('',*,*,#471,.F.);
#740=ORIENTED_EDGE('',*,*,#545,.F.);
#741=ORIENTED_EDGE('',*,*,#539,.F.);
#742=ORIENTED_EDGE('',*,*,#544,.F.);
#743=ORIENTED_EDGE('',*,*,#470,.F.);
#744=ORIENTED_EDGE('',*,*,#492,.F.);
#745=ORIENTED_EDGE('',*,*,#540,.T.);
#746=ORIENTED_EDGE('',*,*,#545,.T.);
#747=ORIENTED_EDGE('',*,*,#469,.F.);
#748=ORIENTED_EDGE('',*,*,#448,.F.);
#749=ORIENTED_EDGE('',*,*,#445,.F.);
#750=ORIENTED_EDGE('',*,*,#546,.F.);
#751=ORIENTED_EDGE('',*,*,#478,.F.);
#752=ORIENTED_EDGE('',*,*,#541,.T.);
#753=ORIENTED_EDGE('',*,*,#511,.F.);
#754=ORIENTED_EDGE('',*,*,#475,.F.);
#755=ORIENTED_EDGE('',*,*,#547,.F.);
#756=ORIENTED_EDGE('',*,*,#548,.T.);
#757=ORIENTED_EDGE('',*,*,#501,.T.);
#758=ORIENTED_EDGE('',*,*,#548,.F.);
#759=ORIENTED_EDGE('',*,*,#549,.T.);
#760=ORIENTED_EDGE('',*,*,#515,.T.);
#761=ORIENTED_EDGE('',*,*,#494,.F.);
#762=ORIENTED_EDGE('',*,*,#528,.T.);
#763=ORIENTED_EDGE('',*,*,#526,.F.);
#764=ORIENTED_EDGE('',*,*,#516,.T.);
#765=ORIENTED_EDGE('',*,*,#549,.F.);
#766=ORIENTED_EDGE('',*,*,#533,.T.);
#767=ORIENTED_EDGE('',*,*,#547,.T.);
#768=ORIENTED_EDGE('',*,*,#550,.F.);
#769=ORIENTED_EDGE('',*,*,#530,.T.);
#770=ORIENTED_EDGE('',*,*,#551,.T.);
#771=ORIENTED_EDGE('',*,*,#521,.T.);
#772=ORIENTED_EDGE('',*,*,#551,.F.);
#773=ORIENTED_EDGE('',*,*,#529,.T.);
#774=ORIENTED_EDGE('',*,*,#496,.F.);
#775=ORIENTED_EDGE('',*,*,#522,.T.);
#776=ORIENTED_EDGE('',*,*,#552,.F.);
#777=ORIENTED_EDGE('',*,*,#553,.T.);
#778=ORIENTED_EDGE('',*,*,#546,.T.);
#779=ORIENTED_EDGE('',*,*,#553,.F.);
#780=ORIENTED_EDGE('',*,*,#550,.T.);
#781=ORIENTED_EDGE('',*,*,#520,.T.);
#782=ORIENTED_EDGE('',*,*,#554,.T.);
#783=ORIENTED_EDGE('',*,*,#531,.T.);
#784=ORIENTED_EDGE('',*,*,#554,.F.);
#785=ORIENTED_EDGE('',*,*,#519,.T.);
#786=ORIENTED_EDGE('',*,*,#507,.F.);
#787=ORIENTED_EDGE('',*,*,#532,.T.);
#788=ORIENTED_EDGE('',*,*,#552,.T.);
#789=ORIENTED_EDGE('',*,*,#499,.F.);
#790=ORIENTED_EDGE('',*,*,#455,.T.);
#791=ORIENTED_EDGE('',*,*,#487,.T.);
#792=ORIENTED_EDGE('',*,*,#555,.T.);
#793=ORIENTED_EDGE('',*,*,#437,.T.);
#794=ORIENTED_EDGE('',*,*,#468,.T.);
#795=ORIENTED_EDGE('',*,*,#500,.F.);
#796=ORIENTED_EDGE('',*,*,#555,.F.);
#797=ORIENTED_EDGE('',*,*,#493,.F.);
#798=ORIENTED_EDGE('',*,*,#483,.F.);
#799=ORIENTED_EDGE('',*,*,#542,.F.);
#800=ORIENTED_EDGE('',*,*,#535,.T.);
#801=ORIENTED_EDGE('',*,*,#464,.T.);
#802=PLANE('',#888);
#803=PLANE('',#889);
#804=PLANE('',#890);
#805=PLANE('',#894);
#806=PLANE('',#895);
#807=PLANE('',#897);
#808=PLANE('',#899);
#809=PLANE('',#903);
#810=PLANE('',#906);
#811=PLANE('',#907);
#812=PLANE('',#908);
#813=PLANE('',#909);
#814=PLANE('',#911);
#815=PLANE('',#912);
#816=PLANE('',#913);
#817=PLANE('',#914);
#818=PLANE('',#915);
#819=PLANE('',#916);
#820=PLANE('',#917);
#821=PLANE('',#918);
#822=PLANE('',#919);
#823=PLANE('',#920);
#824=PLANE('',#921);
#825=PLANE('',#922);
#826=PLANE('',#923);
#827=PLANE('',#924);
#828=PLANE('',#925);
#829=PLANE('',#926);
#830=PLANE('',#927);
#831=PLANE('',#929);
#832=PLANE('',#932);
#833=PLANE('',#933);
#834=PLANE('',#934);
#835=PLANE('',#935);
#836=PLANE('',#938);
#837=PLANE('',#939);
#838=PLANE('',#940);
#839=PLANE('',#941);
#840=PLANE('',#942);
#841=ADVANCED_FACE('',(#35),#802,.T.);
#842=ADVANCED_FACE('',(#36),#803,.T.);
#843=ADVANCED_FACE('',(#37),#804,.T.);
#844=ADVANCED_FACE('',(#38),#29,.F.);
#845=ADVANCED_FACE('',(#39),#805,.T.);
#846=ADVANCED_FACE('',(#40),#806,.T.);
#847=ADVANCED_FACE('',(#41),#807,.F.);
#848=ADVANCED_FACE('',(#42),#808,.F.);
#849=ADVANCED_FACE('',(#43),#30,.T.);
#850=ADVANCED_FACE('',(#44),#809,.T.);
#851=ADVANCED_FACE('',(#45),#31,.T.);
#852=ADVANCED_FACE('',(#46),#32,.T.);
#853=ADVANCED_FACE('',(#47),#810,.T.);
#854=ADVANCED_FACE('',(#48,#15),#811,.T.);
#855=ADVANCED_FACE('',(#49),#812,.T.);
#856=ADVANCED_FACE('',(#50),#813,.F.);
#857=ADVANCED_FACE('',(#51),#814,.F.);
#858=ADVANCED_FACE('',(#52),#815,.T.);
#859=ADVANCED_FACE('',(#53),#816,.T.);
#860=ADVANCED_FACE('',(#54),#817,.F.);
#861=ADVANCED_FACE('',(#55),#818,.T.);
#862=ADVANCED_FACE('',(#56),#819,.T.);
#863=ADVANCED_FACE('',(#57),#820,.F.);
#864=ADVANCED_FACE('',(#58),#821,.T.);
#865=ADVANCED_FACE('',(#59),#822,.F.);
#866=ADVANCED_FACE('',(#60),#823,.T.);
#867=ADVANCED_FACE('',(#61),#824,.T.);
#868=ADVANCED_FACE('',(#62),#825,.T.);
#869=ADVANCED_FACE('',(#63),#826,.T.);
#870=ADVANCED_FACE('',(#64),#827,.T.);
#871=ADVANCED_FACE('',(#65),#828,.T.);
#872=ADVANCED_FACE('',(#66),#829,.T.);
#873=ADVANCED_FACE('',(#67),#830,.F.);
#874=ADVANCED_FACE('',(#68),#831,.T.);
#875=ADVANCED_FACE('',(#69),#33,.F.);
#876=ADVANCED_FACE('',(#70),#832,.T.);
#877=ADVANCED_FACE('',(#71,#16),#833,.F.);
#878=ADVANCED_FACE('',(#72),#834,.F.);
#879=ADVANCED_FACE('',(#73),#835,.T.);
#880=ADVANCED_FACE('',(#74),#34,.F.);
#881=ADVANCED_FACE('',(#75),#836,.T.);
#882=ADVANCED_FACE('',(#76,#17),#837,.F.);
#883=ADVANCED_FACE('',(#77),#838,.T.);
#884=ADVANCED_FACE('',(#78),#839,.T.);
#885=ADVANCED_FACE('',(#79),#840,.T.);
#886=CLOSED_SHELL('',(#841,#842,#843,#844,#845,#846,#847,#848,#849,#850,
#851,#852,#853,#854,#855,#856,#857,#858,#859,#860,#861,#862,#863,#864,#865,
#866,#867,#868,#869,#870,#871,#872,#873,#874,#875,#876,#877,#878,#879,#880,
#881,#882,#883,#884,#885));
#887=AXIS2_PLACEMENT_3D('',#1167,#943,#944);
#888=AXIS2_PLACEMENT_3D('',#1168,#945,#946);
#889=AXIS2_PLACEMENT_3D('',#1177,#951,#952);
#890=AXIS2_PLACEMENT_3D('',#1186,#957,#958);
#891=AXIS2_PLACEMENT_3D('',#1192,#962,#963);
#892=AXIS2_PLACEMENT_3D('',#1194,#964,#965);
#893=AXIS2_PLACEMENT_3D('',#1197,#967,#968);
#894=AXIS2_PLACEMENT_3D('',#1198,#969,#970);
#895=AXIS2_PLACEMENT_3D('',#1207,#976,#977);
#896=AXIS2_PLACEMENT_3D('',#1225,#986,#987);
#897=AXIS2_PLACEMENT_3D('',#1227,#989,#990);
#898=AXIS2_PLACEMENT_3D('',#1231,#992,#993);
#899=AXIS2_PLACEMENT_3D('',#1241,#999,#1000);
#900=AXIS2_PLACEMENT_3D('',#1253,#1006,#1007);
#901=AXIS2_PLACEMENT_3D('',#1257,#1010,#1011);
#902=AXIS2_PLACEMENT_3D('',#1260,#1012,#1013);
#903=AXIS2_PLACEMENT_3D('',#1263,#1016,#1017);
#904=AXIS2_PLACEMENT_3D('',#1267,#1020,#1021);
#905=AXIS2_PLACEMENT_3D('',#1318,#1024,#1025);
#906=AXIS2_PLACEMENT_3D('',#1321,#1028,#1029);
#907=AXIS2_PLACEMENT_3D('',#1322,#1030,#1031);
#908=AXIS2_PLACEMENT_3D('',#1343,#1043,#1044);
#909=AXIS2_PLACEMENT_3D('',#1348,#1048,#1049);
#910=AXIS2_PLACEMENT_3D('',#1350,#1050,#1051);
#911=AXIS2_PLACEMENT_3D('',#1351,#1052,#1053);
#912=AXIS2_PLACEMENT_3D('',#1357,#1057,#1058);
#913=AXIS2_PLACEMENT_3D('',#1372,#1067,#1068);
#914=AXIS2_PLACEMENT_3D('',#1376,#1071,#1072);
#915=AXIS2_PLACEMENT_3D('',#1391,#1081,#1082);
#916=AXIS2_PLACEMENT_3D('',#1395,#1085,#1086);
#917=AXIS2_PLACEMENT_3D('',#1400,#1090,#1091);
#918=AXIS2_PLACEMENT_3D('',#1411,#1098,#1099);
#919=AXIS2_PLACEMENT_3D('',#1413,#1101,#1102);
#920=AXIS2_PLACEMENT_3D('',#1417,#1105,#1106);
#921=AXIS2_PLACEMENT_3D('',#1426,#1112,#1113);
#922=AXIS2_PLACEMENT_3D('',#1428,#1115,#1116);
#923=AXIS2_PLACEMENT_3D('',#1429,#1117,#1118);
#924=AXIS2_PLACEMENT_3D('',#1431,#1120,#1121);
#925=AXIS2_PLACEMENT_3D('',#1433,#1123,#1124);
#926=AXIS2_PLACEMENT_3D('',#1435,#1126,#1127);
#927=AXIS2_PLACEMENT_3D('',#1436,#1128,#1129);
#928=AXIS2_PLACEMENT_3D('',#1438,#1130,#1131);
#929=AXIS2_PLACEMENT_3D('',#1439,#1132,#1133);
#930=AXIS2_PLACEMENT_3D('',#1440,#1134,#1135);
#931=AXIS2_PLACEMENT_3D('',#1442,#1136,#1137);
#932=AXIS2_PLACEMENT_3D('',#1444,#1139,#1140);
#933=AXIS2_PLACEMENT_3D('',#1446,#1142,#1143);
#934=AXIS2_PLACEMENT_3D('',#1447,#1144,#1145);
#935=AXIS2_PLACEMENT_3D('',#1450,#1148,#1149);
#936=AXIS2_PLACEMENT_3D('',#1451,#1150,#1151);
#937=AXIS2_PLACEMENT_3D('',#1453,#1152,#1153);
#938=AXIS2_PLACEMENT_3D('',#1455,#1155,#1156);
#939=AXIS2_PLACEMENT_3D('',#1457,#1158,#1159);
#940=AXIS2_PLACEMENT_3D('',#1458,#1160,#1161);
#941=AXIS2_PLACEMENT_3D('',#1460,#1163,#1164);
#942=AXIS2_PLACEMENT_3D('',#1461,#1165,#1166);
#943=DIRECTION('axis',(0.,0.,1.));
#944=DIRECTION('refdir',(1.,0.,0.));
#945=DIRECTION('center_axis',(0.,-1.,0.));
#946=DIRECTION('ref_axis',(0.,0.,-1.));
#947=DIRECTION('',(-1.,0.,0.));
#948=DIRECTION('',(0.,0.,1.));
#949=DIRECTION('',(-1.,0.,0.));
#950=DIRECTION('',(0.,0.,-1.));
#951=DIRECTION('center_axis',(1.,0.,0.));
#952=DIRECTION('ref_axis',(0.,1.,0.));
#953=DIRECTION('',(0.,0.,1.));
#954=DIRECTION('',(0.,-1.,0.));
#955=DIRECTION('',(0.,0.,1.));
#956=DIRECTION('',(0.,1.,0.));
#957=DIRECTION('center_axis',(0.,1.,0.));
#958=DIRECTION('ref_axis',(-1.,0.,0.));
#959=DIRECTION('',(1.,0.,0.));
#960=DIRECTION('',(0.,0.,1.));
#961=DIRECTION('',(-1.,0.,0.));
#962=DIRECTION('center_axis',(0.,0.,1.));
#963=DIRECTION('ref_axis',(-0.707106781186547,-0.707106781186547,0.));
#964=DIRECTION('center_axis',(0.,0.,-1.));
#965=DIRECTION('ref_axis',(-0.707106781186547,-0.707106781186547,0.));
#966=DIRECTION('',(0.,0.,1.));
#967=DIRECTION('center_axis',(0.,0.,-1.));
#968=DIRECTION('ref_axis',(-0.707106781186547,-0.707106781186547,0.));
#969=DIRECTION('center_axis',(0.,0.,1.));
#970=DIRECTION('ref_axis',(-1.,0.,0.));
#971=DIRECTION('',(0.,-1.,0.));
#972=DIRECTION('',(0.,1.,0.));
#973=DIRECTION('',(1.,0.,0.));
#974=DIRECTION('',(0.,-1.,0.));
#975=DIRECTION('',(-1.,0.,0.));
#976=DIRECTION('center_axis',(1.,1.88173394004264E-16,0.));
#977=DIRECTION('ref_axis',(1.88173394004264E-16,-1.,0.));
#978=DIRECTION('',(-1.88173394004264E-16,1.,0.));
#979=DIRECTION('',(0.,0.,-1.));
#980=DIRECTION('',(-1.88173394004264E-16,1.,0.));
#981=DIRECTION('',(0.,0.,-1.));
#982=DIRECTION('',(1.88173394004264E-16,-1.,0.));
#983=DIRECTION('',(0.,0.,1.));
#984=DIRECTION('',(-1.88173394004264E-16,1.,0.));
#985=DIRECTION('',(0.,0.,1.));
#986=DIRECTION('center_axis',(-1.,-1.88173394004264E-16,0.));
#987=DIRECTION('ref_axis',(0.,0.707106781186547,0.707106781186547));
#988=DIRECTION('',(0.,-1.,0.));
#989=DIRECTION('center_axis',(1.,0.,0.));
#990=DIRECTION('ref_axis',(0.,0.,-1.));
#991=DIRECTION('',(0.,-1.,0.));
#992=DIRECTION('center_axis',(1.,0.,0.));
#993=DIRECTION('ref_axis',(0.,1.,2.22036631905588E-16));
#994=DIRECTION('',(0.,0.,1.));
#995=DIRECTION('',(0.,1.,0.));
#996=DIRECTION('',(0.,0.,1.));
#997=DIRECTION('',(0.,-1.,0.));
#998=DIRECTION('',(0.,0.,1.));
#999=DIRECTION('center_axis',(0.,1.,0.));
#1000=DIRECTION('ref_axis',(0.,0.,1.));
#1001=DIRECTION('',(0.,0.,1.));
#1002=DIRECTION('',(-1.,0.,0.));
#1003=DIRECTION('',(0.,0.,1.));
#1004=DIRECTION('',(1.,0.,0.));
#1005=DIRECTION('',(0.,0.,1.));
#1006=DIRECTION('center_axis',(0.,-1.,0.));
#1007=DIRECTION('ref_axis',(0.707106781186547,0.,0.707106781186547));
#1008=DIRECTION('',(-1.,0.,0.));
#1009=DIRECTION('',(0.,0.,-1.));
#1010=DIRECTION('center_axis',(0.,1.,0.));
#1011=DIRECTION('ref_axis',(0.707106781186547,0.,0.707106781186547));
#1012=DIRECTION('center_axis',(0.,-1.,0.));
#1013=DIRECTION('ref_axis',(0.707106781186547,0.,0.707106781186547));
#1014=DIRECTION('',(0.,-1.,0.));
#1015=DIRECTION('',(0.,-1.,0.));
#1016=DIRECTION('center_axis',(1.,0.,0.));
#1017=DIRECTION('ref_axis',(0.,0.,-1.));
#1018=DIRECTION('',(0.,1.,0.));
#1019=DIRECTION('',(0.,0.,1.));
#1020=DIRECTION('center_axis',(0.999964092712604,0.00847427197214091,0.));
#1021=DIRECTION('ref_axis',(-0.00599221517712024,0.707081390900136,0.707106781186548));
#1022=DIRECTION('',(-0.999964092712604,-0.00847427197214091,0.));
#1023=DIRECTION('',(0.999964092712604,0.00847427197214091,0.));
#1024=DIRECTION('center_axis',(1.,0.,0.));
#1025=DIRECTION('ref_axis',(0.,0.707106781186547,0.707106781186547));
#1026=DIRECTION('',(1.,0.,0.));
#1027=DIRECTION('',(-1.,0.,0.));
#1028=DIRECTION('center_axis',(0.,0.,1.));
#1029=DIRECTION('ref_axis',(1.,0.,0.));
#1030=DIRECTION('center_axis',(0.,0.,1.));
#1031=DIRECTION('ref_axis',(1.,0.,0.));
#1032=DIRECTION('',(-1.,0.,0.));
#1033=DIRECTION('',(0.,-1.,0.));
#1034=DIRECTION('',(-1.,0.,0.));
#1035=DIRECTION('',(0.,1.,0.));
#1036=DIRECTION('',(-1.,0.,0.));
#1037=DIRECTION('',(0.,-1.,0.));
#1038=DIRECTION('',(0.999964092712604,0.00847427197214091,0.));
#1039=DIRECTION('',(0.,-1.,0.));
#1040=DIRECTION('',(-1.,0.,0.));
#1041=DIRECTION('',(0.,1.,0.));
#1042=DIRECTION('',(1.,0.,0.));
#1043=DIRECTION('center_axis',(0.,0.,1.));
#1044=DIRECTION('ref_axis',(1.,0.,0.));
#1045=DIRECTION('',(1.,0.,0.));
#1046=DIRECTION('',(-1.,0.,0.));
#1047=DIRECTION('',(-0.999964092712604,-0.00847427197214091,0.));
#1048=DIRECTION('center_axis',(0.,0.,1.));
#1049=DIRECTION('ref_axis',(-1.,0.,0.));
#1050=DIRECTION('center_axis',(0.,0.,1.));
#1051=DIRECTION('ref_axis',(1.,0.,0.));
#1052=DIRECTION('center_axis',(0.,-1.,0.));
#1053=DIRECTION('ref_axis',(0.,0.,-1.));
#1054=DIRECTION('',(0.,0.,1.));
#1055=DIRECTION('',(1.,0.,0.));
#1056=DIRECTION('',(0.,0.,-1.));
#1057=DIRECTION('center_axis',(-1.,0.,0.));
#1058=DIRECTION('ref_axis',(0.,1.,0.));
#1059=DIRECTION('',(0.,1.,0.));
#1060=DIRECTION('',(0.,0.,1.));
#1061=DIRECTION('',(0.,-1.,0.));
#1062=DIRECTION('',(0.,0.,-1.));
#1063=DIRECTION('',(2.44005053964283E-16,-1.,0.));
#1064=DIRECTION('',(0.,0.,1.));
#1065=DIRECTION('',(0.,1.,0.));
#1066=DIRECTION('',(0.,0.,1.));
#1067=DIRECTION('center_axis',(0.,0.,-1.));
#1068=DIRECTION('ref_axis',(-1.,0.,0.));
#1069=DIRECTION('',(0.,-1.,0.));
#1070=DIRECTION('',(-1.,0.,0.));
#1071=DIRECTION('center_axis',(0.,-1.,0.));
#1072=DIRECTION('ref_axis',(0.,0.,-1.));
#1073=DIRECTION('',(0.,0.,1.));
#1074=DIRECTION('',(-1.,0.,0.));
#1075=DIRECTION('',(0.,0.,1.));
#1076=DIRECTION('',(1.,0.,0.));
#1077=DIRECTION('',(-1.,0.,0.));
#1078=DIRECTION('',(0.,0.,-1.));
#1079=DIRECTION('',(-1.,0.,0.));
#1080=DIRECTION('',(0.,0.,-1.));
#1081=DIRECTION('center_axis',(0.,0.,-1.));
#1082=DIRECTION('ref_axis',(-1.,0.,0.));
#1083=DIRECTION('',(0.,-1.,0.));
#1084=DIRECTION('',(-1.,0.,0.));
#1085=DIRECTION('center_axis',(1.,1.88173394004264E-16,0.));
#1086=DIRECTION('ref_axis',(1.88173394004264E-16,-1.,0.));
#1087=DIRECTION('',(0.,0.,1.));
#1088=DIRECTION('',(-1.88173394004264E-16,1.,0.));
#1089=DIRECTION('',(0.,0.,-1.));
#1090=DIRECTION('center_axis',(0.,1.,0.));
#1091=DIRECTION('ref_axis',(0.,0.,1.));
#1092=DIRECTION('',(0.,0.,-1.));
#1093=DIRECTION('',(0.,0.,1.));
#1094=DIRECTION('',(1.,0.,0.));
#1095=DIRECTION('',(0.,0.,1.));
#1096=DIRECTION('',(1.,0.,0.));
#1097=DIRECTION('',(1.,0.,0.));
#1098=DIRECTION('center_axis',(0.,1.,0.));
#1099=DIRECTION('ref_axis',(-1.,0.,0.));
#1100=DIRECTION('',(1.,0.,0.));
#1101=DIRECTION('center_axis',(0.,0.,1.));
#1102=DIRECTION('ref_axis',(1.,0.,0.));
#1103=DIRECTION('',(-0.999964092712604,-0.00847427197214091,0.));
#1104=DIRECTION('',(-1.,0.,0.));
#1105=DIRECTION('center_axis',(0.,1.,0.));
#1106=DIRECTION('ref_axis',(0.,0.,1.));
#1107=DIRECTION('',(-1.,0.,0.));
#1108=DIRECTION('',(0.,0.,-1.));
#1109=DIRECTION('',(1.,0.,0.));
#1110=DIRECTION('',(0.,0.,1.));
#1111=DIRECTION('',(-1.,0.,0.));
#1112=DIRECTION('center_axis',(0.,1.,0.));
#1113=DIRECTION('ref_axis',(-1.,0.,0.));
#1114=DIRECTION('',(0.,0.,1.));
#1115=DIRECTION('center_axis',(0.,-1.,0.));
#1116=DIRECTION('ref_axis',(-1.,0.,0.));
#1117=DIRECTION('center_axis',(0.,0.,-1.));
#1118=DIRECTION('ref_axis',(0.,1.,0.));
#1119=DIRECTION('',(0.,-1.,0.));
#1120=DIRECTION('center_axis',(1.,0.,0.));
#1121=DIRECTION('ref_axis',(0.,0.,-1.));
#1122=DIRECTION('',(0.,1.,0.));
#1123=DIRECTION('center_axis',(0.,0.,1.));
#1124=DIRECTION('ref_axis',(0.,-1.,0.));
#1125=DIRECTION('',(0.,-1.,0.));
#1126=DIRECTION('center_axis',(1.,0.,0.));
#1127=DIRECTION('ref_axis',(0.,0.,-1.));
#1128=DIRECTION('center_axis',(0.,0.,1.));
#1129=DIRECTION('ref_axis',(1.,0.,0.));
#1130=DIRECTION('center_axis',(0.,0.,1.));
#1131=DIRECTION('ref_axis',(1.,0.,0.));
#1132=DIRECTION('center_axis',(0.,0.,1.));
#1133=DIRECTION('ref_axis',(1.,0.,0.));
#1134=DIRECTION('center_axis',(0.,0.,-1.));
#1135=DIRECTION('ref_axis',(1.,0.,0.));
#1136=DIRECTION('center_axis',(0.,0.,1.));
#1137=DIRECTION('ref_axis',(1.,0.,0.));
#1138=DIRECTION('',(0.,0.,1.));
#1139=DIRECTION('center_axis',(-1.,0.,0.));
#1140=DIRECTION('ref_axis',(0.,1.,0.));
#1141=DIRECTION('',(0.,-1.,0.));
#1142=DIRECTION('center_axis',(0.,0.,1.));
#1143=DIRECTION('ref_axis',(1.,0.,0.));
#1144=DIRECTION('center_axis',(0.,0.,1.));
#1145=DIRECTION('ref_axis',(1.,0.,0.));
#1146=DIRECTION('',(0.,-1.,0.));
#1147=DIRECTION('',(0.,-1.,0.));
#1148=DIRECTION('center_axis',(1.,-9.40866970021319E-17,0.));
#1149=DIRECTION('ref_axis',(9.40866970021319E-17,1.,0.));
#1150=DIRECTION('center_axis',(0.,0.,-1.));
#1151=DIRECTION('ref_axis',(1.,0.,0.));
#1152=DIRECTION('center_axis',(0.,0.,1.));
#1153=DIRECTION('ref_axis',(1.,0.,0.));
#1154=DIRECTION('',(0.,0.,1.));
#1155=DIRECTION('center_axis',(1.,0.,0.));
#1156=DIRECTION('ref_axis',(0.,-1.,0.));
#1157=DIRECTION('',(0.,1.,0.));
#1158=DIRECTION('center_axis',(0.,0.,1.));
#1159=DIRECTION('ref_axis',(1.,0.,0.));
#1160=DIRECTION('center_axis',(0.,1.,0.));
#1161=DIRECTION('ref_axis',(-1.,0.,0.));
#1162=DIRECTION('',(0.,0.,1.));
#1163=DIRECTION('center_axis',(-0.00847427197214091,0.999964092712604,0.));
#1164=DIRECTION('ref_axis',(-0.999964092712604,-0.00847427197214091,0.));
#1165=DIRECTION('center_axis',(-0.00847427197214091,0.999964092712604,0.));
#1166=DIRECTION('ref_axis',(-0.999964092712604,-0.00847427197214091,0.));
#1167=CARTESIAN_POINT('',(0.,0.,0.));
#1168=CARTESIAN_POINT('Origin',(-5.95423713598607,-16.0000179536437,0.));
#1169=CARTESIAN_POINT('',(16.0457628640139,-16.0000002384186,5.15));
#1170=CARTESIAN_POINT('',(2.04576286401393,-16.0000179536437,5.15));
#1171=CARTESIAN_POINT('',(-16.0000002384186,-16.0000002384186,5.15));
#1172=CARTESIAN_POINT('',(16.0457628640139,-16.0000179536437,12.));
#1173=CARTESIAN_POINT('',(16.0457628640139,-16.0000179536437,0.));
#1174=CARTESIAN_POINT('',(2.04576286401393,-16.0000179536437,12.));
#1175=CARTESIAN_POINT('',(-5.95423713598607,-16.0000179536437,12.));
#1176=CARTESIAN_POINT('',(2.04576286401393,-16.0000179536437,0.));
#1177=CARTESIAN_POINT('Origin',(2.04576286401393,-15.9000179536437,2.15));
#1178=CARTESIAN_POINT('',(2.04576286401393,-10.9788315129657,4.3));
#1179=CARTESIAN_POINT('',(2.04576286401393,-10.9788315129657,5.15));
#1180=CARTESIAN_POINT('',(2.04576286401393,-10.9788315129657,3.15));
#1181=CARTESIAN_POINT('',(2.04576286401393,-10.9000179536437,4.3));
#1182=CARTESIAN_POINT('',(2.04576286401393,-2.4500179536437,4.3));
#1183=CARTESIAN_POINT('',(2.04576286401393,-10.9000179536437,5.15));
#1184=CARTESIAN_POINT('',(2.04576286401393,-10.9000179536437,2.15));
#1185=CARTESIAN_POINT('',(2.04576286401393,-8.42500903642649,5.15));
#1186=CARTESIAN_POINT('Origin',(2.04576286401393,-10.9000179536437,2.15));
#1187=CARTESIAN_POINT('',(-4.7,-10.9000179536437,4.3));
#1188=CARTESIAN_POINT('',(-7.87923713598607,-10.9000179536437,4.3));
#1189=CARTESIAN_POINT('',(-4.7,-10.9000179536437,5.15));
#1190=CARTESIAN_POINT('',(-4.7,-10.9000179536437,2.15));
#1191=CARTESIAN_POINT('',(-2.96461862759768,-10.9000179536437,5.15));
#1192=CARTESIAN_POINT('Origin',(-4.7,-9.65001795364369,2.15));
#1193=CARTESIAN_POINT('',(-5.95,-9.65001795364369,4.3));
#1194=CARTESIAN_POINT('Origin',(-4.7,-9.65001795364369,4.3));
#1195=CARTESIAN_POINT('',(-5.95,-9.65001795364369,5.15));
#1196=CARTESIAN_POINT('',(-5.95,-9.65001795364369,2.15));
#1197=CARTESIAN_POINT('Origin',(-4.7,-9.65001795364369,5.15));
#1198=CARTESIAN_POINT('Origin',(-5.95,-1.9,5.15));
#1199=CARTESIAN_POINT('',(2.04576286401393,-3.65000897682185,5.15));
#1200=CARTESIAN_POINT('',(-5.95,-4.9,5.15));
#1201=CARTESIAN_POINT('',(-5.95,-3.9,5.15));
#1202=CARTESIAN_POINT('',(-16.05,-4.9,5.15));
#1203=CARTESIAN_POINT('',(-8.475,-4.9,5.15));
#1204=CARTESIAN_POINT('',(-16.0500002384186,-16.0000002384186,5.15));
#1205=CARTESIAN_POINT('',(-16.05,-1.9,5.15));
#1206=CARTESIAN_POINT('',(-16.0000002384186,-16.0000002384186,5.15));
#1207=CARTESIAN_POINT('Origin',(16.0457628640139,6.3999820463563,0.));
#1208=CARTESIAN_POINT('',(16.0457628640139,-11.4,5.15));
#1209=CARTESIAN_POINT('',(16.0457628640139,2.24999102317815,5.15));
#1210=CARTESIAN_POINT('',(16.0457628640139,-11.4,4.3));
#1211=CARTESIAN_POINT('',(16.0457628640139,-11.4,1.075));
#1212=CARTESIAN_POINT('',(16.0457628640139,-10.9000179536437,4.3));
#1213=CARTESIAN_POINT('',(16.0457628640139,3.19999102317815,4.3));
#1214=CARTESIAN_POINT('',(16.0457628640139,-10.9000179536437,6.3));
#1215=CARTESIAN_POINT('',(16.0457628640139,-10.9000179536437,1.54999991925433));
#1216=CARTESIAN_POINT('',(16.0457628640139,-13.9000179536437,6.3));
#1217=CARTESIAN_POINT('',(16.0457628640139,-3.7500179536437,6.3));
#1218=CARTESIAN_POINT('',(16.0457628640139,-13.9000179536437,8.8));
#1219=CARTESIAN_POINT('',(16.0457628640139,-13.9000179536437,4.4));
#1220=CARTESIAN_POINT('',(16.0457628640139,-10.9000179536437,8.8));
#1221=CARTESIAN_POINT('',(16.0457628640139,-2.2500179536437,8.8));
#1222=CARTESIAN_POINT('',(16.0457628640139,-10.9000179536437,9.5));
#1223=CARTESIAN_POINT('',(16.0457628640139,-10.9000179536437,8.8));
#1224=CARTESIAN_POINT('',(16.0457628640139,-13.4000179536437,12.));
#1225=CARTESIAN_POINT('Origin',(16.0457628640139,-13.4000179536437,9.5));
#1226=CARTESIAN_POINT('',(16.0457628640139,-15.9000179536437,12.));
#1227=CARTESIAN_POINT('Origin',(2.04576286401393,-5.4000179536437,0.));
#1228=CARTESIAN_POINT('',(2.04576286401393,-13.4789212844077,12.));
#1229=CARTESIAN_POINT('',(2.04576286401393,-15.9000179536437,12.));
#1230=CARTESIAN_POINT('',(2.04576286401393,-10.9788315129657,9.5));
#1231=CARTESIAN_POINT('Origin',(2.04576286401393,-13.4789212844077,9.5));
#1232=CARTESIAN_POINT('',(2.04576286401393,-10.9788315129657,8.8));
#1233=CARTESIAN_POINT('',(2.04576286401393,-10.9788315129657,10.4));
#1234=CARTESIAN_POINT('',(2.04576286401393,-13.9000179536437,8.8));
#1235=CARTESIAN_POINT('',(2.04576286401393,-11.6978993095759,8.8));
#1236=CARTESIAN_POINT('',(2.04576286401393,-13.9000179536437,6.3));
#1237=CARTESIAN_POINT('',(2.04576286401393,-13.9000179536437,0.));
#1238=CARTESIAN_POINT('',(2.04576286401393,-10.9788315129657,6.3));
#1239=CARTESIAN_POINT('',(2.04576286401393,-11.6978993095759,6.3));
#1240=CARTESIAN_POINT('',(2.04576286401393,-10.9788315129657,3.15));
#1241=CARTESIAN_POINT('Origin',(-11.,-4.9,6.5));
#1242=CARTESIAN_POINT('',(-5.95,-4.9,6.3));
#1243=CARTESIAN_POINT('',(-5.95,-4.9,13.));
#1244=CARTESIAN_POINT('',(-8.95,-4.9,6.3));
#1245=CARTESIAN_POINT('',(-9.975,-4.9,6.3));
#1246=CARTESIAN_POINT('',(-8.95,-4.9,8.8));
#1247=CARTESIAN_POINT('',(-8.95,-4.9,3.25));
#1248=CARTESIAN_POINT('',(-5.95,-4.9,8.8));
#1249=CARTESIAN_POINT('',(-9.975,-4.9,8.8));
#1250=CARTESIAN_POINT('',(-5.95,-4.9,10.5));
#1251=CARTESIAN_POINT('',(-5.95,-4.9,8.7));
#1252=CARTESIAN_POINT('',(-8.45,-4.9,13.));
#1253=CARTESIAN_POINT('Origin',(-8.45,-4.9,10.5));
#1254=CARTESIAN_POINT('',(-16.05,-4.9,13.));
#1255=CARTESIAN_POINT('',(-12.375,-4.9,13.));
#1256=CARTESIAN_POINT('',(-16.05,-4.9,3.25));
#1257=CARTESIAN_POINT('Origin',(-8.45,0.,10.5));
#1258=CARTESIAN_POINT('',(-5.95,6.9,10.5));
#1259=CARTESIAN_POINT('',(-8.45,6.9,13.));
#1260=CARTESIAN_POINT('Origin',(-8.45,6.9,10.5));
#1261=CARTESIAN_POINT('',(-8.45,-1.9,13.));
#1262=CARTESIAN_POINT('',(-5.95,-1.9,10.5));
#1263=CARTESIAN_POINT('Origin',(-5.95,0.,10.9));
#1264=CARTESIAN_POINT('',(-5.95,6.9,8.8));
#1265=CARTESIAN_POINT('',(-5.95,-3.45,8.8));
#1266=CARTESIAN_POINT('',(-5.95,6.9,10.825));
#1267=CARTESIAN_POINT('Origin',(8.20022682042543,-13.4267648102008,9.5));
#1268=CARTESIAN_POINT('',(11.3563560843393,-13.400017952032,12.));
#1269=CARTESIAN_POINT('',(11.3457628640139,-10.9000179536437,9.5));
#1270=CARTESIAN_POINT('Ctrl Pts',(11.3563560843393,-13.400017952032,12.));
#1271=CARTESIAN_POINT('Ctrl Pts',(11.3558468220719,-13.3118645338194,12.));
#1272=CARTESIAN_POINT('Ctrl Pts',(11.3553375613629,-13.2237112994937,11.9953329198741));
#1273=CARTESIAN_POINT('Ctrl Pts',(11.3548324751324,-13.1360506536363,11.9860248295016));
#1274=CARTESIAN_POINT('Ctrl Pts',(11.3543274047462,-13.0483927576351,11.9767170311176));
#1275=CARTESIAN_POINT('Ctrl Pts',(11.3538265116753,-12.9612277848474,11.9627685527536));
#1276=CARTESIAN_POINT('Ctrl Pts',(11.353333921799,-12.8750425890223,11.9442573044434));
#1277=CARTESIAN_POINT('Ctrl Pts',(11.3528413462971,-12.7888599081924,11.9257465963153));
#1278=CARTESIAN_POINT('Ctrl Pts',(11.3523570765513,-12.7036573065709,11.9026734619923));
#1279=CARTESIAN_POINT('Ctrl Pts',(11.3518851453163,-12.619910649242,11.8751667702937));
#1280=CARTESIAN_POINT('Ctrl Pts',(11.3514132268206,-12.536166252547,11.8476608211031));
#1281=CARTESIAN_POINT('Ctrl Pts',(11.350953649129,-12.4538780707408,11.8157216688338));
#1282=CARTESIAN_POINT('Ctrl Pts',(11.3505103068399,-12.3735056664257,11.7795276914623));
#1283=CARTESIAN_POINT('Ctrl Pts',(11.3500669755486,-12.2931352558761,11.74333461194));
#1284=CARTESIAN_POINT('Ctrl Pts',(11.3496398816939,-12.2146808628471,11.7028870695422));
#1285=CARTESIAN_POINT('Ctrl Pts',(11.3492327382373,-12.1385806167921,11.6584109498326));
#1286=CARTESIAN_POINT('Ctrl Pts',(11.3488256039902,-12.0624820921148,11.6139358361671));
#1287=CARTESIAN_POINT('Ctrl Pts',(11.348438421927,-11.9887379251322,11.5654325130682));
#1288=CARTESIAN_POINT('Ctrl Pts',(11.3480746819278,-11.9177599217121,11.5131718426207));
#1289=CARTESIAN_POINT('Ctrl Pts',(11.3477109493612,-11.8467833686222,11.4609122400424));
#1290=CARTESIAN_POINT('Ctrl Pts',(11.3473706604077,-11.7785731618818,11.4048956617102));
#1291=CARTESIAN_POINT('Ctrl Pts',(11.3470570429187,-11.7135101879567,11.3454349139885));
#1292=CARTESIAN_POINT('Ctrl Pts',(11.3467433677839,-11.6484352548608,11.2859632368366));
#1293=CARTESIAN_POINT('Ctrl Pts',(11.346456376229,-11.5865089841875,11.2230463709416));
#1294=CARTESIAN_POINT('Ctrl Pts',(11.346198999803,-11.5280772987226,11.1570357840339));
#1295=CARTESIAN_POINT('Ctrl Pts',(11.3459416399188,-11.4696493687049,11.091029439675));
#1296=CARTESIAN_POINT('Ctrl Pts',(11.3457138934189,-11.414715818039,11.0219300477017));
#1297=CARTESIAN_POINT('Ctrl Pts',(11.3455183604771,-11.3635834672315,10.9501235632893));
#1298=CARTESIAN_POINT('Ctrl Pts',(11.345322838391,-11.3124539552241,10.8783210654774));
#1299=CARTESIAN_POINT('Ctrl Pts',(11.3451595280901,-11.2651254338668,10.8038120755662));
#1300=CARTESIAN_POINT('Ctrl Pts',(11.3450306695173,-11.2218622164164,10.7270127179495));
#1301=CARTESIAN_POINT('Ctrl Pts',(11.3449018169712,-11.1786010223976,10.6502169522579));
#1302=CARTESIAN_POINT('Ctrl Pts',(11.3448074144563,-11.139404932064,10.5711313535398));
#1303=CARTESIAN_POINT('Ctrl Pts',(11.3447493168379,-11.1044928195125,10.490197564793));
#1304=CARTESIAN_POINT('Ctrl Pts',(11.3446912101345,-11.0695752476119,10.4092511201004));
#1305=CARTESIAN_POINT('Ctrl Pts',(11.3446694209276,-11.0389431402965,10.3264562444382));
#1306=CARTESIAN_POINT('Ctrl Pts',(11.3446853992433,-11.0127676006484,10.2422754391379));
#1307=CARTESIAN_POINT('Ctrl Pts',(11.3447013756869,-10.9865951277968,10.1581044966866));
#1308=CARTESIAN_POINT('Ctrl Pts',(11.3447551117207,-10.9648782865771,10.0725483007281));
#1309=CARTESIAN_POINT('Ctrl Pts',(11.3448476350822,-10.9477383500359,9.98608466583833));
#1310=CARTESIAN_POINT('Ctrl Pts',(11.3449401674509,-10.9305967449113,9.89961261366052));
#1311=CARTESIAN_POINT('Ctrl Pts',(11.3450714953127,-10.9180330079626,9.81223330641157));
#1312=CARTESIAN_POINT('Ctrl Pts',(11.3452422133148,-10.9101173075797,9.72443483524527));
#1313=CARTESIAN_POINT('Ctrl Pts',(11.3453872872217,-10.9033906497819,9.64982485228286));
#1314=CARTESIAN_POINT('Ctrl Pts',(11.3455607990445,-10.9000196660587,9.57491246689326));
#1315=CARTESIAN_POINT('Ctrl Pts',(11.3457628640139,-10.9000179536437,9.5));
#1316=CARTESIAN_POINT('',(8.17904114049508,-10.9268545784193,9.5));
#1317=CARTESIAN_POINT('',(8.20022682042543,-13.4267648102008,12.));
#1318=CARTESIAN_POINT('Origin',(10.5457628640139,-13.4000179536437,9.5));
#1319=CARTESIAN_POINT('',(10.5457628640139,-13.4000179536437,12.));
#1320=CARTESIAN_POINT('',(10.5457628640139,-10.9000179536437,9.5));
#1321=CARTESIAN_POINT('Origin',(5.04576286401393,-14.9000179536437,12.));
#1322=CARTESIAN_POINT('Origin',(-9.80423713598607,0.499982046356302,4.3));
#1323=CARTESIAN_POINT('',(11.3457628640139,-10.9000179536437,4.3));
#1324=CARTESIAN_POINT('',(3.12288143200697,-10.9000179536437,4.3));
#1325=CARTESIAN_POINT('',(16.0499996412545,12.9,4.3));
#1326=CARTESIAN_POINT('',(16.0499996412545,-5.9,4.3));
#1327=CARTESIAN_POINT('',(-16.05,12.9,4.3));
#1328=CARTESIAN_POINT('',(-6.39996532547425,12.9,4.3));
#1329=CARTESIAN_POINT('',(-16.05,6.9,4.3));
#1330=CARTESIAN_POINT('',(-16.05,6.9,4.3));
#1331=CARTESIAN_POINT('',(-5.95,6.9,4.3));
#1332=CARTESIAN_POINT('',(-8.02499980941648,6.9,4.30000000000001));
#1333=CARTESIAN_POINT('',(-5.95,2.95,4.3));
#1334=CARTESIAN_POINT('',(11.3457628640139,-10.9000179536437,4.3));
#1335=CARTESIAN_POINT('',(11.45,6.05,4.3));
#1336=CARTESIAN_POINT('',(11.45,-6.05,4.3));
#1337=CARTESIAN_POINT('',(11.45,3.19999102317815,4.3));
#1338=CARTESIAN_POINT('',(-3.55,-6.05,4.3));
#1339=CARTESIAN_POINT('',(-1.7564299479944,-6.05,4.3));
#1340=CARTESIAN_POINT('',(-3.55,6.05,4.3));
#1341=CARTESIAN_POINT('',(-3.55,-2.70000897682185,4.3));
#1342=CARTESIAN_POINT('',(-4.90211837740951,6.05,4.3));
#1343=CARTESIAN_POINT('Origin',(5.04576286401393,-12.4000179536437,6.3));
#1344=CARTESIAN_POINT('',(16.0457628640139,-13.9000179536437,6.3));
#1345=CARTESIAN_POINT('',(11.3457628640139,-10.9000179536437,6.3));
#1346=CARTESIAN_POINT('',(11.3457628640139,-10.9000179536437,6.3));
#1347=CARTESIAN_POINT('',(11.3457628640139,-10.9000179536437,6.3));
#1348=CARTESIAN_POINT('Origin',(13.7,1.38777878078145E-16,1.8));
#1349=CARTESIAN_POINT('',(12.95,2.34307308652832E-16,1.8));
#1350=CARTESIAN_POINT('Origin',(13.7,1.42458798716781E-16,1.8));
#1351=CARTESIAN_POINT('Origin',(-2.99569351496242,12.9,-5.19253542593488));
#1352=CARTESIAN_POINT('',(16.0499996412545,12.9,-22.2999998480082));
#1353=CARTESIAN_POINT('',(16.05,12.9,-2.59626771296744));
#1354=CARTESIAN_POINT('',(-16.05,12.9,-22.2999998480082));
#1355=CARTESIAN_POINT('',(6.52715362368584,12.9,-22.3000003229827));
#1356=CARTESIAN_POINT('',(-16.05,12.9,-2.59626771296744));
#1357=CARTESIAN_POINT('Origin',(-16.05,-5.9,0.));
#1358=CARTESIAN_POINT('',(-16.05,6.05,-22.3000003229827));
#1359=CARTESIAN_POINT('',(-16.05,25.1,-22.2999998480082));
#1360=CARTESIAN_POINT('',(-16.05,6.05,-4.2));
#1361=CARTESIAN_POINT('',(-16.05,6.05,-0.625000080745666));
#1362=CARTESIAN_POINT('',(-16.05,-6.05,-4.2));
#1363=CARTESIAN_POINT('',(-16.05,-5.9,-4.2));
#1364=CARTESIAN_POINT('',(-16.05,-6.05,-22.2999998480082));
#1365=CARTESIAN_POINT('',(-16.05,-6.05,1.075));
#1366=CARTESIAN_POINT('',(-16.0500002384186,-16.0000002384186,-22.2999998480082));
#1367=CARTESIAN_POINT('',(-16.0500002384186,-13.7250001788139,-22.2999998480082));
#1368=CARTESIAN_POINT('',(-16.0500002384186,-16.0000002384186,0.));
#1369=CARTESIAN_POINT('',(-16.05,6.9,13.));
#1370=CARTESIAN_POINT('',(-16.05,5.9,13.));
#1371=CARTESIAN_POINT('',(-16.05,6.9,-6.80000032298267));
#1372=CARTESIAN_POINT('Origin',(16.0500007623341,5.9,-22.3000003229827));
#1373=CARTESIAN_POINT('',(16.0500007623341,6.05,-22.3000003229827));
#1374=CARTESIAN_POINT('',(16.0499996412545,25.1,-22.2999998480082));
#1375=CARTESIAN_POINT('',(8.02500057175057,6.05,-22.3000003229827));
#1376=CARTESIAN_POINT('Origin',(6.29137723999727,-6.05,2.15));
#1377=CARTESIAN_POINT('',(11.45,-6.05,-4.2));
#1378=CARTESIAN_POINT('',(11.45,-6.05,0.));
#1379=CARTESIAN_POINT('',(16.05,-6.05,-4.2));
#1380=CARTESIAN_POINT('',(16.05,-6.05,-4.2));
#1381=CARTESIAN_POINT('',(16.0499996412545,-6.05,-22.2999998480082));
#1382=CARTESIAN_POINT('',(16.05,-6.05,1.075));
#1383=CARTESIAN_POINT('',(-4.87931138000136,-6.05,-22.2999998480082));
#1384=CARTESIAN_POINT('',(-11.45,-6.05,-4.2));
#1385=CARTESIAN_POINT('',(16.05,-6.05,-4.2));
#1386=CARTESIAN_POINT('',(-11.45,-6.05,0.));
#1387=CARTESIAN_POINT('',(-11.45,-6.05,0.));
#1388=CARTESIAN_POINT('',(-3.55,-6.05,0.));
#1389=CARTESIAN_POINT('',(16.05,-6.05,0.));
#1390=CARTESIAN_POINT('',(-3.55,-6.05,0.));
#1391=CARTESIAN_POINT('Origin',(-16.05,-5.9,-22.2999998480082));
#1392=CARTESIAN_POINT('',(16.05,-16.0000002384186,-22.2999998480082));
#1393=CARTESIAN_POINT('',(16.0499996412545,-5.9,-22.2999998480082));
#1394=CARTESIAN_POINT('',(8.03749994039536,-16.0000002384186,-22.2999998480082));
#1395=CARTESIAN_POINT('Origin',(16.05,5.9,0.));
#1396=CARTESIAN_POINT('',(16.05,-16.0000002384186,0.));
#1397=CARTESIAN_POINT('',(16.05,6.05,-4.2));
#1398=CARTESIAN_POINT('',(16.05,5.9,-4.2));
#1399=CARTESIAN_POINT('',(16.05,6.05,-0.625000080745666));
#1400=CARTESIAN_POINT('Origin',(3.81167046814568E-7,6.05,-1.25000016149133));
#1401=CARTESIAN_POINT('',(11.45,6.05,-4.2));
#1402=CARTESIAN_POINT('',(11.45,6.05,0.));
#1403=CARTESIAN_POINT('',(-3.55,6.05,0.));
#1404=CARTESIAN_POINT('',(-3.55,6.05,0.));
#1405=CARTESIAN_POINT('',(-11.45,6.05,0.));
#1406=CARTESIAN_POINT('',(-11.35,6.05,0.));
#1407=CARTESIAN_POINT('',(-11.45,6.05,-4.2));
#1408=CARTESIAN_POINT('',(-11.45,6.05,0.));
#1409=CARTESIAN_POINT('',(-16.05,6.05,-4.2));
#1410=CARTESIAN_POINT('',(16.05,6.05,-4.2));
#1411=CARTESIAN_POINT('Origin',(16.0457628640139,-13.9000179536437,0.));
#1412=CARTESIAN_POINT('',(10.5457628640139,-13.9000179536437,8.8));
#1413=CARTESIAN_POINT('Origin',(5.04576286401393,-12.4000179536437,8.8));
#1414=CARTESIAN_POINT('',(11.3457628640139,-10.9000179536437,8.8));
#1415=CARTESIAN_POINT('',(11.3457628640139,-10.9000179536437,8.8));
#1416=CARTESIAN_POINT('',(11.3457628640139,-10.9000179536437,8.8));
#1417=CARTESIAN_POINT('Origin',(3.81167046814568E-7,6.9,-1.25000016149133));
#1418=CARTESIAN_POINT('',(-8.95,6.9,8.8));
#1419=CARTESIAN_POINT('',(-2.97499980941647,6.9,8.8));
#1420=CARTESIAN_POINT('',(-8.95,6.9,6.3));
#1421=CARTESIAN_POINT('',(-8.95,6.9,2.52499991925433));
#1422=CARTESIAN_POINT('',(-5.95,6.9,6.3));
#1423=CARTESIAN_POINT('',(-2.97499980941647,6.9,6.3));
#1424=CARTESIAN_POINT('',(-5.95,6.9,7.75));
#1425=CARTESIAN_POINT('',(-13.525,6.9,13.));
#1426=CARTESIAN_POINT('Origin',(16.0457628640139,-10.9000179536437,8.8));
#1427=CARTESIAN_POINT('',(11.3457628640139,-10.9000179536437,8.8));
#1428=CARTESIAN_POINT('Origin',(16.05,-16.0000002384186,0.));
#1429=CARTESIAN_POINT('Origin',(-8.95,-5.9,8.8));
#1430=CARTESIAN_POINT('',(-8.95,-1.9,8.8));
#1431=CARTESIAN_POINT('Origin',(-8.95,-5.9,0.));
#1432=CARTESIAN_POINT('',(-8.95,5.9,6.3));
#1433=CARTESIAN_POINT('Origin',(-8.95,5.9,6.3));
#1434=CARTESIAN_POINT('',(-5.95,-1.9,6.3));
#1435=CARTESIAN_POINT('Origin',(-5.95,0.,5.3));
#1436=CARTESIAN_POINT('Origin',(-13.7,-1.66533453693773E-15,4.3));
#1437=CARTESIAN_POINT('',(-14.45,-1.52194001484035E-15,4.3));
#1438=CARTESIAN_POINT('Origin',(-13.7,-1.61378852477641E-15,4.3));
#1439=CARTESIAN_POINT('Origin',(-13.75,0.,13.));
#1440=CARTESIAN_POINT('Origin',(13.7,1.42458798716781E-16,0.));
#1441=CARTESIAN_POINT('',(12.95,5.06102887807296E-17,-4.2));
#1442=CARTESIAN_POINT('Origin',(13.7,1.42458798716781E-16,-4.2));
#1443=CARTESIAN_POINT('',(12.95,2.34307308652832E-16,0.));
#1444=CARTESIAN_POINT('Origin',(11.45,-5.9,0.));
#1445=CARTESIAN_POINT('',(11.45,-5.9,-4.2));
#1446=CARTESIAN_POINT('Origin',(13.75,-1.11022302462516E-15,-4.2));
#1447=CARTESIAN_POINT('Origin',(-9.8,0.,0.));
#1448=CARTESIAN_POINT('',(-11.45,5.9,0.));
#1449=CARTESIAN_POINT('',(-3.55,-5.9,0.));
#1450=CARTESIAN_POINT('Origin',(-3.55,-5.9,0.));
#1451=CARTESIAN_POINT('Origin',(-13.7,-1.61378852477641E-15,0.));
#1452=CARTESIAN_POINT('',(-14.45,-1.70563703471246E-15,-4.2));
#1453=CARTESIAN_POINT('Origin',(-13.7,-1.61378852477641E-15,-4.2));
#1454=CARTESIAN_POINT('',(-14.45,-1.52194001484035E-15,0.));
#1455=CARTESIAN_POINT('Origin',(-11.45,5.9,0.));
#1456=CARTESIAN_POINT('',(-11.45,5.9,-4.2));
#1457=CARTESIAN_POINT('Origin',(-13.75,0.,-4.2));
#1458=CARTESIAN_POINT('Origin',(16.0457628640139,-10.9000179536437,0.));
#1459=CARTESIAN_POINT('',(11.3457628640139,-10.9000179536437,0.));
#1460=CARTESIAN_POINT('Origin',(11.3457628640139,-10.9000179536437,0.));
#1461=CARTESIAN_POINT('Origin',(11.3457628640139,-10.9000179536437,8.8));
#1462=UNCERTAINTY_MEASURE_WITH_UNIT(LENGTH_MEASURE(0.01),#1466,
'DISTANCE_ACCURACY_VALUE',
'Maximum model space distance between geometric entities at asserted c
onnectivities');
#1463=UNCERTAINTY_MEASURE_WITH_UNIT(LENGTH_MEASURE(0.01),#1466,
'DISTANCE_ACCURACY_VALUE',
'Maximum model space distance between geometric entities at asserted c
onnectivities');
#1464=(
GEOMETRIC_REPRESENTATION_CONTEXT(3)
GLOBAL_UNCERTAINTY_ASSIGNED_CONTEXT((#1462))
GLOBAL_UNIT_ASSIGNED_CONTEXT((#1466,#1467,#1468))
REPRESENTATION_CONTEXT('','3D')
);
#1465=(
GEOMETRIC_REPRESENTATION_CONTEXT(3)
GLOBAL_UNCERTAINTY_ASSIGNED_CONTEXT((#1463))
GLOBAL_UNIT_ASSIGNED_CONTEXT((#1466,#1467,#1468))
REPRESENTATION_CONTEXT('','3D')
);
#1466=(
LENGTH_UNIT()
NAMED_UNIT(*)
SI_UNIT(.MILLI.,.METRE.)
);
#1467=(
NAMED_UNIT(*)
PLANE_ANGLE_UNIT()
SI_UNIT($,.RADIAN.)
);
#1468=(
NAMED_UNIT(*)
SI_UNIT($,.STERADIAN.)
SOLID_ANGLE_UNIT()
);
#1469=SHAPE_DEFINITION_REPRESENTATION(#1470,#1471);
#1470=PRODUCT_DEFINITION_SHAPE('',$,#1473);
#1471=SHAPE_REPRESENTATION('',(#887),#1464);
#1472=PRODUCT_DEFINITION_CONTEXT('part definition',#1477,'design');
#1473=PRODUCT_DEFINITION('2026-07-12-16-59-35-702',
'Servo_Dual_PinchValve_Single_Model',#1474,#1472);
#1474=PRODUCT_DEFINITION_FORMATION('',$,#1479);
#1475=PRODUCT_RELATED_PRODUCT_CATEGORY(
'Servo_Dual_PinchValve_Single_Model',
'Servo_Dual_PinchValve_Single_Model',(#1479));
#1476=APPLICATION_PROTOCOL_DEFINITION('international standard',
'automotive_design',2009,#1477);
#1477=APPLICATION_CONTEXT(
'Core Data for Automotive Mechanical Design Process');
#1478=PRODUCT_CONTEXT('part definition',#1477,'mechanical');
#1479=PRODUCT('2026-07-12-16-59-35-702',
'Servo_Dual_PinchValve_Single_Model',$,(#1478));
#1480=PRESENTATION_STYLE_ASSIGNMENT((#1484));
#1481=PRESENTATION_STYLE_ASSIGNMENT((#1485));
#1482=PRESENTATION_STYLE_ASSIGNMENT((#1486));
#1483=PRESENTATION_STYLE_ASSIGNMENT((#1487));
#1484=SURFACE_STYLE_USAGE(.BOTH.,#1488);
#1485=SURFACE_STYLE_USAGE(.BOTH.,#1489);
#1486=SURFACE_STYLE_USAGE(.BOTH.,#1490);
#1487=SURFACE_STYLE_USAGE(.BOTH.,#1491);
#1488=SURFACE_SIDE_STYLE('',(#1492));
#1489=SURFACE_SIDE_STYLE('',(#1493));
#1490=SURFACE_SIDE_STYLE('',(#1494));
#1491=SURFACE_SIDE_STYLE('',(#1495));
#1492=SURFACE_STYLE_FILL_AREA(#1496);
#1493=SURFACE_STYLE_FILL_AREA(#1497);
#1494=SURFACE_STYLE_FILL_AREA(#1498);
#1495=SURFACE_STYLE_FILL_AREA(#1499);
#1496=FILL_AREA_STYLE('Steel - Satin',(#1500));
#1497=FILL_AREA_STYLE(
'PEKK - Polyetherketoneketone Reinforced With Carbon Fibers - HT-23 (w
ith EOS P 810 3D Printer)',(#1501));
#1498=FILL_AREA_STYLE('Acrylic (Clear)',(#1502));
#1499=FILL_AREA_STYLE(
'HP 3D HR CB PA 12 (with HP Jet Fusion 580 Color 3D Printer)',(#1503));
#1500=FILL_AREA_STYLE_COLOUR('Steel - Satin',#1504);
#1501=FILL_AREA_STYLE_COLOUR(
'PEKK - Polyetherketoneketone Reinforced With Carbon Fibers - HT-23 (w
ith EOS P 810 3D Printer)',#1505);
#1502=FILL_AREA_STYLE_COLOUR('Acrylic (Clear)',#1506);
#1503=FILL_AREA_STYLE_COLOUR(
'HP 3D HR CB PA 12 (with HP Jet Fusion 580 Color 3D Printer)',#1507);
#1504=COLOUR_RGB('Steel - Satin',0.627450980392157,0.627450980392157,0.627450980392157);
#1505=COLOUR_RGB(
'PEKK - Polyetherketoneketone Reinforced With Carbon Fibers - HT-23 (w
ith EOS P 810 3D Printer)',0.352941176470588,0.352941176470588,0.352941176470588);
#1506=COLOUR_RGB('Acrylic (Clear)',0.964705882352941,0.964705882352941,
0.952941176470588);
#1507=COLOUR_RGB(
'HP 3D HR CB PA 12 (with HP Jet Fusion 580 Color 3D Printer)',0.964705882352941,
0.964705882352941,0.952941176470588);
ENDSEC;
END-ISO-10303-21;
