ISO-10303-21;
HEADER;
/* Generated by software containing ST-Developer
 * from STEP Tools, Inc. (www.steptools.com) 
 */

FILE_DESCRIPTION(
/* description */ (''),
/* implementation_level */ '2;1');

FILE_NAME(
/* name */ 'Stopper.step',
/* time_stamp */ '2026-08-06T09:50:23+01:00',
/* author */ (''),
/* organization */ (''),
/* preprocessor_version */ 'ST-DEVELOPER v20.1',
/* originating_system */ 'Autodesk Translation Framework v15.8.0.0',
/* authorisation */ '');

FILE_SCHEMA (('AUTOMOTIVE_DESIGN { 1 0 10303 214 3 1 1 }'));
ENDSEC;

DATA;
#10=MECHANICAL_DESIGN_GEOMETRIC_PRESENTATION_REPRESENTATION('',(#13,#14),
#1047);
#11=SHAPE_REPRESENTATION_RELATIONSHIP('SRR','None',#1054,#12);
#12=ADVANCED_BREP_SHAPE_REPRESENTATION('',(#15,#16),#1046);
#13=STYLED_ITEM('',(#1064),#15);
#14=STYLED_ITEM('',(#1064),#16);
#15=MANIFOLD_SOLID_BREP('Body1',#375);
#16=MANIFOLD_SOLID_BREP('Body3',#376);
#17=B_SPLINE_SURFACE_WITH_KNOTS('',3,3,((#623,#624,#625,#626,#627),(#628,
#629,#630,#631,#632),(#633,#634,#635,#636,#637),(#638,#639,#640,#641,#642),
(#643,#644,#645,#646,#647),(#648,#649,#650,#651,#652),(#653,#654,#655,#656,
#657),(#658,#659,#660,#661,#662),(#663,#664,#665,#666,#667),(#668,#669,
#670,#671,#672),(#673,#674,#675,#676,#677),(#678,#679,#680,#681,#682),(#683,
#684,#685,#686,#687),(#688,#689,#690,#691,#692),(#693,#694,#695,#696,#697),
(#698,#699,#700,#701,#702),(#703,#704,#705,#706,#707)),.UNSPECIFIED.,.T.,
 .F.,.F.,(4,1,1,1,1,1,1,1,1,1,1,1,1,1,4),(4,1,4),(0.,0.0714285714285714,
0.142857142857143,0.214285714285714,0.285714285714286,0.357142857142857,
0.428571428571429,0.523809523809524,0.571428571428571,0.642857142857143,
0.714285714285714,0.785714285714286,0.857142857142857,0.928571428571429,
1.),(0.557324804362484,0.599342714021801,0.655366593567558),
 .UNSPECIFIED.);
#18=B_SPLINE_SURFACE_WITH_KNOTS('',3,3,((#802,#803,#804,#805,#806,#807,
#808,#809,#810),(#811,#812,#813,#814,#815,#816,#817,#818,#819),(#820,#821,
#822,#823,#824,#825,#826,#827,#828),(#829,#830,#831,#832,#833,#834,#835,
#836,#837),(#838,#839,#840,#841,#842,#843,#844,#845,#846),(#847,#848,#849,
#850,#851,#852,#853,#854,#855),(#856,#857,#858,#859,#860,#861,#862,#863,
#864),(#865,#866,#867,#868,#869,#870,#871,#872,#873),(#874,#875,#876,#877,
#878,#879,#880,#881,#882),(#883,#884,#885,#886,#887,#888,#889,#890,#891),
(#892,#893,#894,#895,#896,#897,#898,#899,#900),(#901,#902,#903,#904,#905,
#906,#907,#908,#909),(#910,#911,#912,#913,#914,#915,#916,#917,#918),(#919,
#920,#921,#922,#923,#924,#925,#926,#927),(#928,#929,#930,#931,#932,#933,
#934,#935,#936),(#937,#938,#939,#940,#941,#942,#943,#944,#945),(#946,#947,
#948,#949,#950,#951,#952,#953,#954)),.UNSPECIFIED.,.T.,.F.,.F.,(4,1,1,1,
1,1,1,1,1,1,1,1,1,1,4),(4,1,1,1,1,1,4),(0.,0.0714285714285714,0.142857142857143,
0.214285714285714,0.285714285714286,0.357142857142857,0.428571428571429,
0.476190476190476,0.571428571428571,0.619047619047619,0.714285714285714,
0.785714285714286,0.857142857142857,0.928571428571429,1.),(0.674916792159082,
0.680542108411642,0.686167424664202,0.697418057169321,0.71991932217956,
0.742420587189799,0.832425647230755),.UNSPECIFIED.);
#19=LINE('',#573,#50);
#20=LINE('',#578,#51);
#21=LINE('',#969,#52);
#22=LINE('',#973,#53);
#23=LINE('',#975,#54);
#24=LINE('',#976,#55);
#25=LINE('',#980,#56);
#26=LINE('',#982,#57);
#27=LINE('',#984,#58);
#28=LINE('',#985,#59);
#29=LINE('',#988,#60);
#30=LINE('',#990,#61);
#31=LINE('',#991,#62);
#32=LINE('',#993,#63);
#33=LINE('',#994,#64);
#34=LINE('',#999,#65);
#35=LINE('',#1001,#66);
#36=LINE('',#1004,#67);
#37=LINE('',#1008,#68);
#38=LINE('',#1009,#69);
#39=LINE('',#1010,#70);
#40=LINE('',#1014,#71);
#41=LINE('',#1015,#72);
#42=LINE('',#1016,#73);
#43=LINE('',#1020,#74);
#44=LINE('',#1021,#75);
#45=LINE('',#1022,#76);
#46=LINE('',#1026,#77);
#47=LINE('',#1027,#78);
#48=LINE('',#1028,#79);
#49=LINE('',#1042,#80);
#50=VECTOR('',#433,6.);
#51=VECTOR('',#438,6.5);
#52=VECTOR('',#447,10.);
#53=VECTOR('',#450,10.);
#54=VECTOR('',#451,10.);
#55=VECTOR('',#452,10.);
#56=VECTOR('',#455,10.);
#57=VECTOR('',#456,10.);
#58=VECTOR('',#457,10.);
#59=VECTOR('',#458,10.);
#60=VECTOR('',#461,10.);
#61=VECTOR('',#462,10.);
#62=VECTOR('',#463,10.);
#63=VECTOR('',#466,10.);
#64=VECTOR('',#467,10.);
#65=VECTOR('',#472,10.);
#66=VECTOR('',#473,10.);
#67=VECTOR('',#476,10.);
#68=VECTOR('',#479,10.);
#69=VECTOR('',#480,10.);
#70=VECTOR('',#481,10.);
#71=VECTOR('',#484,10.);
#72=VECTOR('',#485,10.);
#73=VECTOR('',#486,10.);
#74=VECTOR('',#489,10.);
#75=VECTOR('',#490,10.);
#76=VECTOR('',#491,10.);
#77=VECTOR('',#494,10.);
#78=VECTOR('',#495,10.);
#79=VECTOR('',#496,10.);
#80=VECTOR('',#519,5.88000008940697);
#81=CYLINDRICAL_SURFACE('',#392,6.);
#82=CYLINDRICAL_SURFACE('',#394,7.);
#83=CYLINDRICAL_SURFACE('',#420,5.88000008940697);
#84=FACE_BOUND('',#123,.T.);
#85=FACE_BOUND('',#127,.T.);
#86=FACE_BOUND('',#130,.T.);
#87=CIRCLE('',#391,6.);
#88=CIRCLE('',#393,6.);
#89=CIRCLE('',#395,7.);
#90=CIRCLE('',#399,5.88000008940697);
#91=CIRCLE('',#400,5.88000008940697);
#92=CIRCLE('',#405,5.88000008940697);
#93=CIRCLE('',#406,5.88000008940697);
#94=CIRCLE('',#412,5.88000008940697);
#95=CIRCLE('',#414,5.88000008940697);
#96=CIRCLE('',#416,5.88000008940697);
#97=CIRCLE('',#417,5.88000008940697);
#98=CIRCLE('',#419,5.88000008940697);
#99=CIRCLE('',#421,5.88000008940697);
#100=FACE_OUTER_BOUND('',#122,.T.);
#101=FACE_OUTER_BOUND('',#124,.T.);
#102=FACE_OUTER_BOUND('',#125,.T.);
#103=FACE_OUTER_BOUND('',#126,.T.);
#104=FACE_OUTER_BOUND('',#128,.T.);
#105=FACE_OUTER_BOUND('',#129,.T.);
#106=FACE_OUTER_BOUND('',#131,.T.);
#107=FACE_OUTER_BOUND('',#132,.T.);
#108=FACE_OUTER_BOUND('',#133,.T.);
#109=FACE_OUTER_BOUND('',#134,.T.);
#110=FACE_OUTER_BOUND('',#135,.T.);
#111=FACE_OUTER_BOUND('',#136,.T.);
#112=FACE_OUTER_BOUND('',#137,.T.);
#113=FACE_OUTER_BOUND('',#138,.T.);
#114=FACE_OUTER_BOUND('',#139,.T.);
#115=FACE_OUTER_BOUND('',#140,.T.);
#116=FACE_OUTER_BOUND('',#141,.T.);
#117=FACE_OUTER_BOUND('',#142,.T.);
#118=FACE_OUTER_BOUND('',#143,.T.);
#119=FACE_OUTER_BOUND('',#144,.T.);
#120=FACE_OUTER_BOUND('',#145,.T.);
#121=FACE_OUTER_BOUND('',#146,.T.);
#122=EDGE_LOOP('',(#236));
#123=EDGE_LOOP('',(#237));
#124=EDGE_LOOP('',(#238,#239,#240,#241));
#125=EDGE_LOOP('',(#242,#243,#244,#245));
#126=EDGE_LOOP('',(#246));
#127=EDGE_LOOP('',(#247));
#128=EDGE_LOOP('',(#248,#249,#250,#251));
#129=EDGE_LOOP('',(#252));
#130=EDGE_LOOP('',(#253));
#131=EDGE_LOOP('',(#254,#255,#256,#257));
#132=EDGE_LOOP('',(#258,#259,#260,#261,#262,#263));
#133=EDGE_LOOP('',(#264,#265,#266,#267));
#134=EDGE_LOOP('',(#268,#269,#270,#271));
#135=EDGE_LOOP('',(#272,#273,#274,#275));
#136=EDGE_LOOP('',(#276,#277,#278,#279,#280,#281));
#137=EDGE_LOOP('',(#282,#283,#284,#285,#286,#287,#288,#289));
#138=EDGE_LOOP('',(#290,#291,#292,#293));
#139=EDGE_LOOP('',(#294,#295,#296,#297,#298,#299,#300,#301));
#140=EDGE_LOOP('',(#302,#303,#304,#305));
#141=EDGE_LOOP('',(#306,#307));
#142=EDGE_LOOP('',(#308,#309));
#143=EDGE_LOOP('',(#310,#311,#312));
#144=EDGE_LOOP('',(#313,#314));
#145=EDGE_LOOP('',(#315,#316,#317,#318,#319,#320,#321,#322,#323,#324,#325,
#326,#327,#328,#329,#330,#331,#332,#333,#334));
#146=EDGE_LOOP('',(#335));
#147=B_SPLINE_CURVE_WITH_KNOTS('',3,(#525,#526,#527,#528,#529,#530,#531,
#532,#533,#534,#535,#536,#537,#538,#539,#540,#541,#542,#543,#544,#545,#546,
#547,#548,#549,#550,#551,#552,#553,#554,#555,#556,#557,#558,#559,#560,#561,
#562,#563,#564,#565,#566,#567),.UNSPECIFIED.,.T.,.F.,(4,3,3,3,3,3,3,3,3,
3,3,3,3,3,4),(3.4978907596909,3.77200809610504,4.04612543251917,4.32024276893331,
4.59436010534744,4.86847744176158,5.14259477817571,5.32533966911847,5.69082945100398,
5.96494678741812,6.23906412383225,6.51318146024639,6.78729879666052,7.06141613307466,
7.33553346948879),.UNSPECIFIED.);
#148=B_SPLINE_CURVE_WITH_KNOTS('',3,(#579,#580,#581,#582,#583,#584,#585,
#586,#587,#588,#589,#590,#591,#592,#593,#594,#595,#596,#597,#598,#599,#600,
#601,#602,#603,#604,#605,#606,#607,#608,#609,#610,#611,#612,#613,#614,#615,
#616,#617,#618,#619,#620,#621),.UNSPECIFIED.,.T.,.F.,(4,3,3,3,3,3,3,3,3,
3,3,3,3,3,4),(4.13926503219734,4.45436634521783,4.76946765823832,5.08456897125881,
5.3996702842793,5.81980536830662,6.02987291032028,6.45000799434759,6.66007553636125,
6.97517684938174,7.29027816240223,7.60537947542272,7.92048078844321,8.2355821014637,
8.55068341448419),.UNSPECIFIED.);
#149=B_SPLINE_CURVE_WITH_KNOTS('',3,(#709,#710,#711,#712,#713),
 .UNSPECIFIED.,.F.,.F.,(4,1,4),(0.557324804362484,0.599342714021801,0.655366593567558),
 .UNSPECIFIED.);
#150=B_SPLINE_CURVE_WITH_KNOTS('',3,(#714,#715,#716,#717,#718,#719,#720,
#721,#722,#723,#724,#725,#726,#727,#728,#729,#730,#731,#732,#733,#734,#735,
#736,#737,#738,#739,#740,#741,#742,#743,#744,#745,#746,#747,#748,#749,#750,
#751,#752,#753,#754,#755,#756),.UNSPECIFIED.,.T.,.F.,(4,3,3,3,3,3,3,3,3,
3,3,3,3,3,4),(3.12646326066628,3.37192186899566,3.61738047732505,3.86283908565444,
4.10829769398382,4.35375630231321,4.59921491064259,4.76285398286219,5.09013212730137,
5.33559073563075,5.58104934396014,5.82650795228953,6.07196656061891,6.3174251689483,
6.56288377727769),.UNSPECIFIED.);
#151=B_SPLINE_CURVE_WITH_KNOTS('',3,(#759,#760,#761,#762,#763,#764,#765,
#766,#767,#768,#769,#770,#771,#772,#773,#774,#775,#776,#777,#778,#779,#780,
#781,#782,#783,#784,#785,#786,#787,#788,#789,#790,#791,#792,#793,#794,#795,
#796,#797,#798,#799,#800,#801),.UNSPECIFIED.,.T.,.F.,(4,3,3,3,3,3,3,3,3,
3,3,3,3,3,4),(0.371122768099945,0.666630694999296,0.962138621898647,1.257646548798,
1.55315447569735,1.8486624025967,2.14417032949605,2.34117561409562,2.73518618329475,
2.93219146789432,3.32620203709346,3.62170996399281,3.91721789089216,4.21272581779151,
4.50823374469086),.UNSPECIFIED.);
#152=B_SPLINE_CURVE_WITH_KNOTS('',3,(#955,#956,#957,#958,#959,#960,#961,
#962,#963),.UNSPECIFIED.,.F.,.F.,(4,1,1,1,1,1,4),(0.674916792159082,0.680542108411642,
0.686167424664202,0.697418057169321,0.71991932217956,0.742420587189799,
0.832425647230755),.UNSPECIFIED.);
#153=VERTEX_POINT('',#524);
#154=VERTEX_POINT('',#568);
#155=VERTEX_POINT('',#571);
#156=VERTEX_POINT('',#575);
#157=VERTEX_POINT('',#577);
#158=VERTEX_POINT('',#708);
#159=VERTEX_POINT('',#758);
#160=VERTEX_POINT('',#965);
#161=VERTEX_POINT('',#966);
#162=VERTEX_POINT('',#968);
#163=VERTEX_POINT('',#970);
#164=VERTEX_POINT('',#972);
#165=VERTEX_POINT('',#974);
#166=VERTEX_POINT('',#978);
#167=VERTEX_POINT('',#979);
#168=VERTEX_POINT('',#981);
#169=VERTEX_POINT('',#983);
#170=VERTEX_POINT('',#987);
#171=VERTEX_POINT('',#989);
#172=VERTEX_POINT('',#996);
#173=VERTEX_POINT('',#997);
#174=VERTEX_POINT('',#1000);
#175=VERTEX_POINT('',#1002);
#176=VERTEX_POINT('',#1006);
#177=VERTEX_POINT('',#1007);
#178=VERTEX_POINT('',#1012);
#179=VERTEX_POINT('',#1013);
#180=VERTEX_POINT('',#1018);
#181=VERTEX_POINT('',#1019);
#182=VERTEX_POINT('',#1024);
#183=VERTEX_POINT('',#1025);
#184=VERTEX_POINT('',#1034);
#185=VERTEX_POINT('',#1040);
#186=EDGE_CURVE('',#153,#153,#147,.F.);
#187=EDGE_CURVE('',#154,#154,#87,.T.);
#188=EDGE_CURVE('',#155,#155,#88,.T.);
#189=EDGE_CURVE('',#155,#154,#19,.T.);
#190=EDGE_CURVE('',#156,#156,#89,.F.);
#191=EDGE_CURVE('',#156,#157,#20,.T.);
#192=EDGE_CURVE('',#157,#157,#148,.T.);
#193=EDGE_CURVE('',#158,#153,#149,.T.);
#194=EDGE_CURVE('',#158,#158,#150,.T.);
#195=EDGE_CURVE('',#159,#159,#151,.T.);
#196=EDGE_CURVE('',#157,#159,#152,.T.);
#197=EDGE_CURVE('',#160,#161,#90,.T.);
#198=EDGE_CURVE('',#161,#162,#21,.T.);
#199=EDGE_CURVE('',#162,#163,#91,.T.);
#200=EDGE_CURVE('',#163,#164,#22,.T.);
#201=EDGE_CURVE('',#164,#165,#23,.T.);
#202=EDGE_CURVE('',#165,#160,#24,.T.);
#203=EDGE_CURVE('',#166,#167,#25,.T.);
#204=EDGE_CURVE('',#166,#168,#26,.T.);
#205=EDGE_CURVE('',#169,#168,#27,.T.);
#206=EDGE_CURVE('',#167,#169,#28,.T.);
#207=EDGE_CURVE('',#164,#170,#29,.T.);
#208=EDGE_CURVE('',#171,#170,#30,.T.);
#209=EDGE_CURVE('',#165,#171,#31,.T.);
#210=EDGE_CURVE('',#168,#171,#32,.T.);
#211=EDGE_CURVE('',#170,#169,#33,.T.);
#212=EDGE_CURVE('',#172,#173,#92,.T.);
#213=EDGE_CURVE('',#173,#166,#34,.T.);
#214=EDGE_CURVE('',#167,#174,#35,.T.);
#215=EDGE_CURVE('',#174,#175,#93,.T.);
#216=EDGE_CURVE('',#175,#172,#36,.T.);
#217=EDGE_CURVE('',#176,#177,#37,.T.);
#218=EDGE_CURVE('',#176,#160,#38,.T.);
#219=EDGE_CURVE('',#177,#173,#39,.T.);
#220=EDGE_CURVE('',#178,#179,#40,.T.);
#221=EDGE_CURVE('',#178,#172,#41,.T.);
#222=EDGE_CURVE('',#179,#175,#42,.T.);
#223=EDGE_CURVE('',#180,#181,#43,.T.);
#224=EDGE_CURVE('',#180,#174,#44,.T.);
#225=EDGE_CURVE('',#181,#163,#45,.T.);
#226=EDGE_CURVE('',#182,#183,#46,.T.);
#227=EDGE_CURVE('',#182,#162,#47,.T.);
#228=EDGE_CURVE('',#183,#161,#48,.T.);
#229=EDGE_CURVE('',#183,#182,#94,.T.);
#230=EDGE_CURVE('',#177,#176,#95,.T.);
#231=EDGE_CURVE('',#179,#184,#96,.T.);
#232=EDGE_CURVE('',#184,#178,#97,.T.);
#233=EDGE_CURVE('',#181,#180,#98,.T.);
#234=EDGE_CURVE('',#185,#185,#99,.T.);
#235=EDGE_CURVE('',#185,#184,#49,.T.);
#236=ORIENTED_EDGE('',*,*,#186,.F.);
#237=ORIENTED_EDGE('',*,*,#187,.F.);
#238=ORIENTED_EDGE('',*,*,#188,.F.);
#239=ORIENTED_EDGE('',*,*,#189,.T.);
#240=ORIENTED_EDGE('',*,*,#187,.T.);
#241=ORIENTED_EDGE('',*,*,#189,.F.);
#242=ORIENTED_EDGE('',*,*,#190,.F.);
#243=ORIENTED_EDGE('',*,*,#191,.T.);
#244=ORIENTED_EDGE('',*,*,#192,.F.);
#245=ORIENTED_EDGE('',*,*,#191,.F.);
#246=ORIENTED_EDGE('',*,*,#190,.T.);
#247=ORIENTED_EDGE('',*,*,#188,.T.);
#248=ORIENTED_EDGE('',*,*,#186,.T.);
#249=ORIENTED_EDGE('',*,*,#193,.F.);
#250=ORIENTED_EDGE('',*,*,#194,.T.);
#251=ORIENTED_EDGE('',*,*,#193,.T.);
#252=ORIENTED_EDGE('',*,*,#195,.F.);
#253=ORIENTED_EDGE('',*,*,#194,.F.);
#254=ORIENTED_EDGE('',*,*,#192,.T.);
#255=ORIENTED_EDGE('',*,*,#196,.T.);
#256=ORIENTED_EDGE('',*,*,#195,.T.);
#257=ORIENTED_EDGE('',*,*,#196,.F.);
#258=ORIENTED_EDGE('',*,*,#197,.T.);
#259=ORIENTED_EDGE('',*,*,#198,.T.);
#260=ORIENTED_EDGE('',*,*,#199,.T.);
#261=ORIENTED_EDGE('',*,*,#200,.T.);
#262=ORIENTED_EDGE('',*,*,#201,.T.);
#263=ORIENTED_EDGE('',*,*,#202,.T.);
#264=ORIENTED_EDGE('',*,*,#203,.F.);
#265=ORIENTED_EDGE('',*,*,#204,.T.);
#266=ORIENTED_EDGE('',*,*,#205,.F.);
#267=ORIENTED_EDGE('',*,*,#206,.F.);
#268=ORIENTED_EDGE('',*,*,#201,.F.);
#269=ORIENTED_EDGE('',*,*,#207,.T.);
#270=ORIENTED_EDGE('',*,*,#208,.F.);
#271=ORIENTED_EDGE('',*,*,#209,.F.);
#272=ORIENTED_EDGE('',*,*,#210,.T.);
#273=ORIENTED_EDGE('',*,*,#208,.T.);
#274=ORIENTED_EDGE('',*,*,#211,.T.);
#275=ORIENTED_EDGE('',*,*,#205,.T.);
#276=ORIENTED_EDGE('',*,*,#212,.T.);
#277=ORIENTED_EDGE('',*,*,#213,.T.);
#278=ORIENTED_EDGE('',*,*,#203,.T.);
#279=ORIENTED_EDGE('',*,*,#214,.T.);
#280=ORIENTED_EDGE('',*,*,#215,.T.);
#281=ORIENTED_EDGE('',*,*,#216,.T.);
#282=ORIENTED_EDGE('',*,*,#217,.F.);
#283=ORIENTED_EDGE('',*,*,#218,.T.);
#284=ORIENTED_EDGE('',*,*,#202,.F.);
#285=ORIENTED_EDGE('',*,*,#209,.T.);
#286=ORIENTED_EDGE('',*,*,#210,.F.);
#287=ORIENTED_EDGE('',*,*,#204,.F.);
#288=ORIENTED_EDGE('',*,*,#213,.F.);
#289=ORIENTED_EDGE('',*,*,#219,.F.);
#290=ORIENTED_EDGE('',*,*,#220,.F.);
#291=ORIENTED_EDGE('',*,*,#221,.T.);
#292=ORIENTED_EDGE('',*,*,#216,.F.);
#293=ORIENTED_EDGE('',*,*,#222,.F.);
#294=ORIENTED_EDGE('',*,*,#223,.F.);
#295=ORIENTED_EDGE('',*,*,#224,.T.);
#296=ORIENTED_EDGE('',*,*,#214,.F.);
#297=ORIENTED_EDGE('',*,*,#206,.T.);
#298=ORIENTED_EDGE('',*,*,#211,.F.);
#299=ORIENTED_EDGE('',*,*,#207,.F.);
#300=ORIENTED_EDGE('',*,*,#200,.F.);
#301=ORIENTED_EDGE('',*,*,#225,.F.);
#302=ORIENTED_EDGE('',*,*,#226,.F.);
#303=ORIENTED_EDGE('',*,*,#227,.T.);
#304=ORIENTED_EDGE('',*,*,#198,.F.);
#305=ORIENTED_EDGE('',*,*,#228,.F.);
#306=ORIENTED_EDGE('',*,*,#226,.T.);
#307=ORIENTED_EDGE('',*,*,#229,.T.);
#308=ORIENTED_EDGE('',*,*,#217,.T.);
#309=ORIENTED_EDGE('',*,*,#230,.T.);
#310=ORIENTED_EDGE('',*,*,#220,.T.);
#311=ORIENTED_EDGE('',*,*,#231,.T.);
#312=ORIENTED_EDGE('',*,*,#232,.T.);
#313=ORIENTED_EDGE('',*,*,#223,.T.);
#314=ORIENTED_EDGE('',*,*,#233,.T.);
#315=ORIENTED_EDGE('',*,*,#234,.F.);
#316=ORIENTED_EDGE('',*,*,#235,.T.);
#317=ORIENTED_EDGE('',*,*,#231,.F.);
#318=ORIENTED_EDGE('',*,*,#222,.T.);
#319=ORIENTED_EDGE('',*,*,#215,.F.);
#320=ORIENTED_EDGE('',*,*,#224,.F.);
#321=ORIENTED_EDGE('',*,*,#233,.F.);
#322=ORIENTED_EDGE('',*,*,#225,.T.);
#323=ORIENTED_EDGE('',*,*,#199,.F.);
#324=ORIENTED_EDGE('',*,*,#227,.F.);
#325=ORIENTED_EDGE('',*,*,#229,.F.);
#326=ORIENTED_EDGE('',*,*,#228,.T.);
#327=ORIENTED_EDGE('',*,*,#197,.F.);
#328=ORIENTED_EDGE('',*,*,#218,.F.);
#329=ORIENTED_EDGE('',*,*,#230,.F.);
#330=ORIENTED_EDGE('',*,*,#219,.T.);
#331=ORIENTED_EDGE('',*,*,#212,.F.);
#332=ORIENTED_EDGE('',*,*,#221,.F.);
#333=ORIENTED_EDGE('',*,*,#232,.F.);
#334=ORIENTED_EDGE('',*,*,#235,.F.);
#335=ORIENTED_EDGE('',*,*,#234,.T.);
#336=PLANE('',#390);
#337=PLANE('',#396);
#338=PLANE('',#397);
#339=PLANE('',#398);
#340=PLANE('',#401);
#341=PLANE('',#402);
#342=PLANE('',#403);
#343=PLANE('',#404);
#344=PLANE('',#407);
#345=PLANE('',#408);
#346=PLANE('',#409);
#347=PLANE('',#410);
#348=PLANE('',#411);
#349=PLANE('',#413);
#350=PLANE('',#415);
#351=PLANE('',#418);
#352=PLANE('',#422);
#353=ADVANCED_FACE('',(#100,#84),#336,.F.);
#354=ADVANCED_FACE('',(#101),#81,.F.);
#355=ADVANCED_FACE('',(#102),#82,.T.);
#356=ADVANCED_FACE('',(#103,#85),#337,.T.);
#357=ADVANCED_FACE('',(#104),#17,.F.);
#358=ADVANCED_FACE('',(#105,#86),#338,.F.);
#359=ADVANCED_FACE('',(#106),#18,.F.);
#360=ADVANCED_FACE('',(#107),#339,.F.);
#361=ADVANCED_FACE('',(#108),#340,.T.);
#362=ADVANCED_FACE('',(#109),#341,.T.);
#363=ADVANCED_FACE('',(#110),#342,.T.);
#364=ADVANCED_FACE('',(#111),#343,.F.);
#365=ADVANCED_FACE('',(#112),#344,.T.);
#366=ADVANCED_FACE('',(#113),#345,.T.);
#367=ADVANCED_FACE('',(#114),#346,.T.);
#368=ADVANCED_FACE('',(#115),#347,.T.);
#369=ADVANCED_FACE('',(#116),#348,.T.);
#370=ADVANCED_FACE('',(#117),#349,.T.);
#371=ADVANCED_FACE('',(#118),#350,.T.);
#372=ADVANCED_FACE('',(#119),#351,.T.);
#373=ADVANCED_FACE('',(#120),#83,.T.);
#374=ADVANCED_FACE('',(#121),#352,.F.);
#375=CLOSED_SHELL('',(#353,#354,#355,#356,#357,#358,#359));
#376=CLOSED_SHELL('',(#360,#361,#362,#363,#364,#365,#366,#367,#368,#369,
#370,#371,#372,#373,#374));
#377=DERIVED_UNIT_ELEMENT(#379,1.);
#378=DERIVED_UNIT_ELEMENT(#1049,-3.);
#379=(
MASS_UNIT()
NAMED_UNIT(*)
SI_UNIT(.KILO.,.GRAM.)
);
#380=DERIVED_UNIT((#377,#378));
#381=MEASURE_REPRESENTATION_ITEM('density measure',
POSITIVE_RATIO_MEASURE(7850.),#380);
#382=PROPERTY_DEFINITION_REPRESENTATION(#387,#384);
#383=PROPERTY_DEFINITION_REPRESENTATION(#388,#385);
#384=REPRESENTATION('material name',(#386),#1046);
#385=REPRESENTATION('density',(#381),#1046);
#386=DESCRIPTIVE_REPRESENTATION_ITEM('Steel','Steel');
#387=PROPERTY_DEFINITION('material property','material name',#1056);
#388=PROPERTY_DEFINITION('material property','density of part',#1056);
#389=AXIS2_PLACEMENT_3D('',#522,#423,#424);
#390=AXIS2_PLACEMENT_3D('',#523,#425,#426);
#391=AXIS2_PLACEMENT_3D('',#569,#427,#428);
#392=AXIS2_PLACEMENT_3D('',#570,#429,#430);
#393=AXIS2_PLACEMENT_3D('',#572,#431,#432);
#394=AXIS2_PLACEMENT_3D('',#574,#434,#435);
#395=AXIS2_PLACEMENT_3D('',#576,#436,#437);
#396=AXIS2_PLACEMENT_3D('',#622,#439,#440);
#397=AXIS2_PLACEMENT_3D('',#757,#441,#442);
#398=AXIS2_PLACEMENT_3D('',#964,#443,#444);
#399=AXIS2_PLACEMENT_3D('',#967,#445,#446);
#400=AXIS2_PLACEMENT_3D('',#971,#448,#449);
#401=AXIS2_PLACEMENT_3D('',#977,#453,#454);
#402=AXIS2_PLACEMENT_3D('',#986,#459,#460);
#403=AXIS2_PLACEMENT_3D('',#992,#464,#465);
#404=AXIS2_PLACEMENT_3D('',#995,#468,#469);
#405=AXIS2_PLACEMENT_3D('',#998,#470,#471);
#406=AXIS2_PLACEMENT_3D('',#1003,#474,#475);
#407=AXIS2_PLACEMENT_3D('',#1005,#477,#478);
#408=AXIS2_PLACEMENT_3D('',#1011,#482,#483);
#409=AXIS2_PLACEMENT_3D('',#1017,#487,#488);
#410=AXIS2_PLACEMENT_3D('',#1023,#492,#493);
#411=AXIS2_PLACEMENT_3D('',#1029,#497,#498);
#412=AXIS2_PLACEMENT_3D('',#1030,#499,#500);
#413=AXIS2_PLACEMENT_3D('',#1031,#501,#502);
#414=AXIS2_PLACEMENT_3D('',#1032,#503,#504);
#415=AXIS2_PLACEMENT_3D('',#1033,#505,#506);
#416=AXIS2_PLACEMENT_3D('',#1035,#507,#508);
#417=AXIS2_PLACEMENT_3D('',#1036,#509,#510);
#418=AXIS2_PLACEMENT_3D('',#1037,#511,#512);
#419=AXIS2_PLACEMENT_3D('',#1038,#513,#514);
#420=AXIS2_PLACEMENT_3D('',#1039,#515,#516);
#421=AXIS2_PLACEMENT_3D('',#1041,#517,#518);
#422=AXIS2_PLACEMENT_3D('',#1043,#520,#521);
#423=DIRECTION('axis',(0.,0.,1.));
#424=DIRECTION('refdir',(1.,0.,0.));
#425=DIRECTION('center_axis',(0.,0.,1.));
#426=DIRECTION('ref_axis',(1.,0.,0.));
#427=DIRECTION('center_axis',(0.,0.,-1.));
#428=DIRECTION('ref_axis',(1.,0.,0.));
#429=DIRECTION('center_axis',(0.,0.,1.));
#430=DIRECTION('ref_axis',(1.,0.,0.));
#431=DIRECTION('center_axis',(0.,0.,-1.));
#432=DIRECTION('ref_axis',(1.,0.,0.));
#433=DIRECTION('',(0.,0.,-1.));
#434=DIRECTION('center_axis',(0.,0.,1.));
#435=DIRECTION('ref_axis',(1.,0.,0.));
#436=DIRECTION('center_axis',(0.,0.,-1.));
#437=DIRECTION('ref_axis',(1.,0.,0.));
#438=DIRECTION('',(0.,0.,-1.));
#439=DIRECTION('center_axis',(0.,0.,1.));
#440=DIRECTION('ref_axis',(1.,0.,0.));
#441=DIRECTION('center_axis',(0.,0.,1.));
#442=DIRECTION('ref_axis',(1.,0.,0.));
#443=DIRECTION('center_axis',(0.,0.,1.));
#444=DIRECTION('ref_axis',(-1.,0.,0.));
#445=DIRECTION('center_axis',(0.,0.,1.));
#446=DIRECTION('ref_axis',(-1.,0.,0.));
#447=DIRECTION('',(0.,-1.,0.));
#448=DIRECTION('center_axis',(0.,0.,1.));
#449=DIRECTION('ref_axis',(-1.,0.,0.));
#450=DIRECTION('',(-1.,0.,0.));
#451=DIRECTION('',(0.,1.,0.));
#452=DIRECTION('',(1.,0.,0.));
#453=DIRECTION('center_axis',(1.,0.,0.));
#454=DIRECTION('ref_axis',(0.,1.,0.));
#455=DIRECTION('',(0.,-1.,0.));
#456=DIRECTION('',(0.,0.,1.));
#457=DIRECTION('',(0.,1.,0.));
#458=DIRECTION('',(0.,0.,1.));
#459=DIRECTION('center_axis',(-1.,0.,0.));
#460=DIRECTION('ref_axis',(0.,-1.,0.));
#461=DIRECTION('',(0.,0.,1.));
#462=DIRECTION('',(0.,-1.,0.));
#463=DIRECTION('',(0.,0.,1.));
#464=DIRECTION('center_axis',(0.,0.,1.));
#465=DIRECTION('ref_axis',(1.,0.,0.));
#466=DIRECTION('',(-1.,0.,0.));
#467=DIRECTION('',(1.,0.,0.));
#468=DIRECTION('center_axis',(0.,0.,1.));
#469=DIRECTION('ref_axis',(-1.,0.,0.));
#470=DIRECTION('center_axis',(0.,0.,1.));
#471=DIRECTION('ref_axis',(-1.,0.,0.));
#472=DIRECTION('',(1.,0.,0.));
#473=DIRECTION('',(-1.,0.,0.));
#474=DIRECTION('center_axis',(0.,0.,1.));
#475=DIRECTION('ref_axis',(-1.,0.,0.));
#476=DIRECTION('',(0.,1.,0.));
#477=DIRECTION('center_axis',(0.,1.,0.));
#478=DIRECTION('ref_axis',(-1.,0.,0.));
#479=DIRECTION('',(1.,0.,0.));
#480=DIRECTION('',(0.,0.,1.));
#481=DIRECTION('',(0.,0.,1.));
#482=DIRECTION('center_axis',(1.,0.,0.));
#483=DIRECTION('ref_axis',(0.,1.,0.));
#484=DIRECTION('',(0.,-1.,0.));
#485=DIRECTION('',(0.,0.,1.));
#486=DIRECTION('',(0.,0.,1.));
#487=DIRECTION('center_axis',(0.,-1.,0.));
#488=DIRECTION('ref_axis',(1.,0.,0.));
#489=DIRECTION('',(-1.,0.,0.));
#490=DIRECTION('',(0.,0.,1.));
#491=DIRECTION('',(0.,0.,1.));
#492=DIRECTION('center_axis',(-1.,0.,0.));
#493=DIRECTION('ref_axis',(0.,-1.,0.));
#494=DIRECTION('',(0.,1.,0.));
#495=DIRECTION('',(0.,0.,1.));
#496=DIRECTION('',(0.,0.,1.));
#497=DIRECTION('center_axis',(0.,0.,1.));
#498=DIRECTION('ref_axis',(-1.,0.,0.));
#499=DIRECTION('center_axis',(0.,0.,1.));
#500=DIRECTION('ref_axis',(-1.,0.,0.));
#501=DIRECTION('center_axis',(0.,0.,1.));
#502=DIRECTION('ref_axis',(-1.,0.,0.));
#503=DIRECTION('center_axis',(0.,0.,1.));
#504=DIRECTION('ref_axis',(-1.,0.,0.));
#505=DIRECTION('center_axis',(0.,0.,1.));
#506=DIRECTION('ref_axis',(-1.,0.,0.));
#507=DIRECTION('center_axis',(0.,0.,1.));
#508=DIRECTION('ref_axis',(-1.,0.,0.));
#509=DIRECTION('center_axis',(0.,0.,1.));
#510=DIRECTION('ref_axis',(-1.,0.,0.));
#511=DIRECTION('center_axis',(0.,0.,1.));
#512=DIRECTION('ref_axis',(-1.,0.,0.));
#513=DIRECTION('center_axis',(0.,0.,1.));
#514=DIRECTION('ref_axis',(-1.,0.,0.));
#515=DIRECTION('center_axis',(0.,0.,-1.));
#516=DIRECTION('ref_axis',(-1.,0.,0.));
#517=DIRECTION('center_axis',(0.,0.,-1.));
#518=DIRECTION('ref_axis',(-1.,0.,0.));
#519=DIRECTION('',(0.,0.,1.));
#520=DIRECTION('center_axis',(0.,0.,1.));
#521=DIRECTION('ref_axis',(-1.,0.,0.));
#522=CARTESIAN_POINT('',(0.,0.,0.));
#523=CARTESIAN_POINT('Origin',(0.,0.,20.));
#524=CARTESIAN_POINT('',(-6.08953779501802,-7.45753296895565E-16,19.9999999999862));
#525=CARTESIAN_POINT('Ctrl Pts',(-6.089537795022,5.55111512312578E-16,20.));
#526=CARTESIAN_POINT('Ctrl Pts',(-6.089537795022,0.910992723838025,20.));
#527=CARTESIAN_POINT('Ctrl Pts',(-5.88171624098516,1.82157262153257,20.));
#528=CARTESIAN_POINT('Ctrl Pts',(-5.48663295132002,2.64218488328847,20.));
#529=CARTESIAN_POINT('Ctrl Pts',(-5.09154966165488,3.46279714504438,20.));
#530=CARTESIAN_POINT('Ctrl Pts',(-4.50920463636143,4.19344177086165,20.));
#531=CARTESIAN_POINT('Ctrl Pts',(-3.79708183206682,4.761212609078,20.));
#532=CARTESIAN_POINT('Ctrl Pts',(-3.08495902777221,5.32898344729436,20.));
#533=CARTESIAN_POINT('Ctrl Pts',(-2.24305844447644,5.7338804979098,20.));
#534=CARTESIAN_POINT('Ctrl Pts',(-1.35509273658448,5.93660006012514,20.));
#535=CARTESIAN_POINT('Ctrl Pts',(-0.467127028692519,6.13931962234049,20.));
#536=CARTESIAN_POINT('Ctrl Pts',(0.466903803795639,6.13986169615575,20.));
#537=CARTESIAN_POINT('Ctrl Pts',(1.35496905087003,5.93736870338397,20.));
#538=CARTESIAN_POINT('Ctrl Pts',(2.24303429794443,5.73487571061219,20.));
#539=CARTESIAN_POINT('Ctrl Pts',(3.08513395960506,5.32934765125338,20.));
#540=CARTESIAN_POINT('Ctrl Pts',(3.79694198408794,4.76137308099532,20.));
#541=CARTESIAN_POINT('Ctrl Pts',(4.50875000857083,4.19339851073725,20.));
#542=CARTESIAN_POINT('Ctrl Pts',(5.09026639587598,3.46297742957994,20.));
#543=CARTESIAN_POINT('Ctrl Pts',(5.48649915677353,2.64238735041461,20.));
#544=CARTESIAN_POINT('Ctrl Pts',(5.75065433070523,2.09532729763773,20.));
#545=CARTESIAN_POINT('Ctrl Pts',(5.93246122623356,1.50819213463506,20.));
#546=CARTESIAN_POINT('Ctrl Pts',(6.02233842808521,0.907637970487195,20.));
#547=CARTESIAN_POINT('Ctrl Pts',(6.20209283178852,-0.293470357808539,20.));
#548=CARTESIAN_POINT('Ctrl Pts',(6.01412846078514,-1.54825469068507,20.));
#549=CARTESIAN_POINT('Ctrl Pts',(5.48821268250824,-2.64237309787464,20.));
#550=CARTESIAN_POINT('Ctrl Pts',(5.09377584880056,-3.46296190326682,20.));
#551=CARTESIAN_POINT('Ctrl Pts',(4.50924134850153,-4.19317612546008,20.));
#552=CARTESIAN_POINT('Ctrl Pts',(3.79662395539665,-4.76099581438881,20.));
#553=CARTESIAN_POINT('Ctrl Pts',(3.08400656229177,-5.32881550331755,20.));
#554=CARTESIAN_POINT('Ctrl Pts',(2.24330627638106,-5.73424065898176,20.));
#555=CARTESIAN_POINT('Ctrl Pts',(1.35558402528582,-5.93692008644144,20.));
#556=CARTESIAN_POINT('Ctrl Pts',(0.467861774190582,-6.13959951390113,20.));
#557=CARTESIAN_POINT('Ctrl Pts',(-0.466882442089176,-6.1395332131563,20.));
#558=CARTESIAN_POINT('Ctrl Pts',(-1.35505732081767,-5.93697642121419,20.));
#559=CARTESIAN_POINT('Ctrl Pts',(-2.24323219954615,-5.73441962927208,20.));
#560=CARTESIAN_POINT('Ctrl Pts',(-3.08483774072337,-5.32937234613269,20.));
#561=CARTESIAN_POINT('Ctrl Pts',(-3.7969046902462,-4.76150868693354,20.));
#562=CARTESIAN_POINT('Ctrl Pts',(-4.50897163976904,-4.19364502773439,20.));
#563=CARTESIAN_POINT('Ctrl Pts',(-5.09149999763749,-3.46296499247547,20.));
#564=CARTESIAN_POINT('Ctrl Pts',(-5.48664153645073,-2.64230191650138,20.));
#565=CARTESIAN_POINT('Ctrl Pts',(-5.88178307526397,-1.82163884052729,20.));
#566=CARTESIAN_POINT('Ctrl Pts',(-6.089537795022,-0.910992723838023,20.));
#567=CARTESIAN_POINT('Ctrl Pts',(-6.089537795022,-7.45753296896052E-16,
20.));
#568=CARTESIAN_POINT('',(-6.,-7.34788079488412E-16,20.));
#569=CARTESIAN_POINT('Origin',(0.,0.,20.));
#570=CARTESIAN_POINT('Origin',(0.,0.,20.));
#571=CARTESIAN_POINT('',(-6.,-7.34788079488412E-16,23.));
#572=CARTESIAN_POINT('Origin',(0.,0.,23.));
#573=CARTESIAN_POINT('',(-6.,-7.34788079488412E-16,20.));
#574=CARTESIAN_POINT('Origin',(0.,0.,20.));
#575=CARTESIAN_POINT('',(-7.,8.57252759403147E-16,23.));
#576=CARTESIAN_POINT('Origin',(0.,0.,23.));
#577=CARTESIAN_POINT('',(-7.,1.55431223447522E-15,20.054480048846));
#578=CARTESIAN_POINT('',(-7.,-8.57252759403147E-16,20.));
#579=CARTESIAN_POINT('Ctrl Pts',(-7.,9.99200722162641E-15,20.054480048846));
#580=CARTESIAN_POINT('Ctrl Pts',(-7.,1.0471975511966,20.054480048846));
#581=CARTESIAN_POINT('Ctrl Pts',(-6.76130964196041,2.09380791908861,20.054480048846));
#582=CARTESIAN_POINT('Ctrl Pts',(-6.3069578085556,3.03716573592299,20.054480048846));
#583=CARTESIAN_POINT('Ctrl Pts',(-5.85260597515079,3.98052355275738,20.054480048846));
#584=CARTESIAN_POINT('Ctrl Pts',(-5.18259266638075,4.82062881853414,20.054480048846));
#585=CARTESIAN_POINT('Ctrl Pts',(-4.36416274853921,5.47320302810647,20.054480048846));
#586=CARTESIAN_POINT('Ctrl Pts',(-3.54573283069766,6.1257772376788,20.054480048846));
#587=CARTESIAN_POINT('Ctrl Pts',(-2.5788863037846,6.59082039104669,20.054480048846));
#588=CARTESIAN_POINT('Ctrl Pts',(-1.55781429030961,6.8242016009774,20.054480048846));
#589=CARTESIAN_POINT('Ctrl Pts',(-0.536742276834628,7.05758281090812,20.054480048846));
#590=CARTESIAN_POINT('Ctrl Pts',(0.538555223202278,7.05930207740165,20.054480048846));
#591=CARTESIAN_POINT('Ctrl Pts',(1.55867793459629,6.82565155254113,20.054480048846));
#592=CARTESIAN_POINT('Ctrl Pts',(2.91884154978832,6.51411751939377,20.054480048846));
#593=CARTESIAN_POINT('Ctrl Pts',(4.18091665183742,5.78414830161697,20.054480048846));
#594=CARTESIAN_POINT('Ctrl Pts',(5.13257402104189,4.76206581875442,20.054480048846));
#595=CARTESIAN_POINT('Ctrl Pts',(5.60840270564413,4.25102457732315,20.054480048846));
#596=CARTESIAN_POINT('Ctrl Pts',(6.00662695703522,3.66695501962044,20.054480048846));
#597=CARTESIAN_POINT('Ctrl Pts',(6.30825766530985,3.03741480863086,20.054480048846));
#598=CARTESIAN_POINT('Ctrl Pts',(6.91151908185911,1.77833438665171,20.054480048846));
#599=CARTESIAN_POINT('Ctrl Pts',(7.12840632594254,0.337371351525092,20.054480048846));
#600=CARTESIAN_POINT('Ctrl Pts',(6.92216338856249,-1.04315378880697,20.054480048846));
#601=CARTESIAN_POINT('Ctrl Pts',(6.81904191987246,-1.733416358973,20.054480048846));
#602=CARTESIAN_POINT('Ctrl Pts',(6.61013790581656,-2.4085694554404,20.054480048846));
#603=CARTESIAN_POINT('Ctrl Pts',(6.30651507396174,-3.03747636736226,20.054480048846));
#604=CARTESIAN_POINT('Ctrl Pts',(5.85108082617951,-3.98083673524506,20.054480048846));
#605=CARTESIAN_POINT('Ctrl Pts',(5.1825292383497,-4.82014318790041,20.054480048846));
#606=CARTESIAN_POINT('Ctrl Pts',(4.36423847904403,-5.47283373221432,20.054480048846));
#607=CARTESIAN_POINT('Ctrl Pts',(3.54594771973836,-6.12552427652824,20.054480048846));
#608=CARTESIAN_POINT('Ctrl Pts',(2.57791778895682,-6.59159891250072,20.054480048846));
#609=CARTESIAN_POINT('Ctrl Pts',(1.55713893838647,-6.82458726335256,20.054480048846));
#610=CARTESIAN_POINT('Ctrl Pts',(0.536360087816125,-7.0575756142044,20.054480048846));
#611=CARTESIAN_POINT('Ctrl Pts',(-0.537167682543043,-7.0574776799356,20.054480048846));
#612=CARTESIAN_POINT('Ctrl Pts',(-1.55782594321278,-6.82463007563218,20.054480048846));
#613=CARTESIAN_POINT('Ctrl Pts',(-2.57848420388253,-6.59178247132875,20.054480048846));
#614=CARTESIAN_POINT('Ctrl Pts',(-3.54627295486285,-6.1261851969907,20.054480048846));
#615=CARTESIAN_POINT('Ctrl Pts',(-4.36486049733525,-5.47342100832922,20.054480048846));
#616=CARTESIAN_POINT('Ctrl Pts',(-5.18344803980764,-4.82065681966772,20.054480048846));
#617=CARTESIAN_POINT('Ctrl Pts',(-5.85283437377212,-3.98072571668279,20.054480048846));
#618=CARTESIAN_POINT('Ctrl Pts',(-6.30697236382021,-3.03736089956501,20.054480048846));
#619=CARTESIAN_POINT('Ctrl Pts',(-6.7611103538683,-2.09399608244723,20.054480048846));
#620=CARTESIAN_POINT('Ctrl Pts',(-7.,-1.0471975511966,20.054480048846));
#621=CARTESIAN_POINT('Ctrl Pts',(-7.,-8.57252759403148E-16,20.054480048846));
#622=CARTESIAN_POINT('Origin',(0.,0.,23.));
#623=CARTESIAN_POINT('Ctrl Pts',(-5.45288193767065,-6.67785441109678E-16,
15.0000002235144));
#624=CARTESIAN_POINT('Ctrl Pts',(-5.58834145735002,-6.84374447828616E-16,
16.1109059744845));
#625=CARTESIAN_POINT('Ctrl Pts',(-5.87727416700723,-7.19758499633684E-16,
18.4566459262424));
#626=CARTESIAN_POINT('Ctrl Pts',(-6.04386536899759,-7.40160037862044E-16,
19.7395390428718));
#627=CARTESIAN_POINT('Ctrl Pts',(-6.089537795022,-7.45753296896052E-16,
20.));
#628=CARTESIAN_POINT('Ctrl Pts',(-5.45288193767065,-0.815749230298982,15.0000002235144));
#629=CARTESIAN_POINT('Ctrl Pts',(-5.58836032491217,-0.836012272104243,16.1109059744845));
#630=CARTESIAN_POINT('Ctrl Pts',(-5.87730096724574,-0.879235808584397,18.4566459262424));
#631=CARTESIAN_POINT('Ctrl Pts',(-6.04385900748576,-0.904160702876552,19.7395390428718));
#632=CARTESIAN_POINT('Ctrl Pts',(-6.089537795022,-0.910992723838025,20.));
#633=CARTESIAN_POINT('Ctrl Pts',(-5.08081364711484,-2.44662695154872,15.0000002235144));
#634=CARTESIAN_POINT('Ctrl Pts',(-5.20702829238185,-2.50740870043461,16.1109059744845));
#635=CARTESIAN_POINT('Ctrl Pts',(-5.47624531178798,-2.63704980058239,18.4566459262424));
#636=CARTESIAN_POINT('Ctrl Pts',(-5.63147299237753,-2.71179138145167,19.7395390428718));
#637=CARTESIAN_POINT('Ctrl Pts',(-5.67402835550593,-2.73228495721656,20.));
#638=CARTESIAN_POINT('Ctrl Pts',(-3.51593706646609,-4.40949117898004,15.0000002235144));
#639=CARTESIAN_POINT('Ctrl Pts',(-3.60327926218982,-4.51902008062178,16.1109059744845));
#640=CARTESIAN_POINT('Ctrl Pts',(-3.78957873461465,-4.75266190161603,18.4566459262424));
#641=CARTESIAN_POINT('Ctrl Pts',(-3.89699441051492,-4.88739557535295,19.7395390428718));
#642=CARTESIAN_POINT('Ctrl Pts',(-3.92644328190059,-4.9243250629933,20.));
#643=CARTESIAN_POINT('Ctrl Pts',(-1.25508781553592,-5.49759100944938,15.0000002235144));
#644=CARTESIAN_POINT('Ctrl Pts',(-1.28627120029777,-5.63416958490178,16.1109059744845));
#645=CARTESIAN_POINT('Ctrl Pts',(-1.35277671838335,-5.9254748332638,18.4566459262424));
#646=CARTESIAN_POINT('Ctrl Pts',(-1.39111266247483,-6.09341717815408,19.7395390428718));
#647=CARTESIAN_POINT('Ctrl Pts',(-1.40162665836893,-6.13946691241147,20.));
#648=CARTESIAN_POINT('Ctrl Pts',(1.25596475932156,-5.49776911662899,15.0000002235144));
#649=CARTESIAN_POINT('Ctrl Pts',(1.28716084625723,-5.63434892494547,16.1109059744845));
#650=CARTESIAN_POINT('Ctrl Pts',(1.3537090123679,-5.92566226880652,18.4566459262425));
#651=CARTESIAN_POINT('Ctrl Pts',(1.39208771182745,-6.09361566470798,19.7395390428718));
#652=CARTESIAN_POINT('Ctrl Pts',(1.40260599047034,-6.13966581464596,20.));
#653=CARTESIAN_POINT('Ctrl Pts',(3.51438217539438,-4.40865418731241,15.0000002235144));
#654=CARTESIAN_POINT('Ctrl Pts',(3.60168335902929,-4.51818108337679,16.1109059744845));
#655=CARTESIAN_POINT('Ctrl Pts',(3.7878994391275,-4.75178645329161,18.4566459262425));
#656=CARTESIAN_POINT('Ctrl Pts',(3.89527180472348,-4.88646153622669,19.7395390428718));
#657=CARTESIAN_POINT('Ctrl Pts',(3.92470684820249,-4.92339034765334,20.));
#658=CARTESIAN_POINT('Ctrl Pts',(5.25912193831012,-2.22908431033268,15.0000002235145));
#659=CARTESIAN_POINT('Ctrl Pts',(5.38975636949689,-2.28445280363009,16.1109059744846));
#660=CARTESIAN_POINT('Ctrl Pts',(5.66841735292932,-2.40256311170258,18.4566459262425));
#661=CARTESIAN_POINT('Ctrl Pts',(5.82910961520192,-2.47067453357272,19.7395390428718));
#662=CARTESIAN_POINT('Ctrl Pts',(5.8731551825326,-2.48934294034247,20.));
#663=CARTESIAN_POINT('Ctrl Pts',(5.63782587375784,0.299010575213081,15.0000002235145));
#664=CARTESIAN_POINT('Ctrl Pts',(5.77788769984506,0.306435073653056,16.1109059744845));
#665=CARTESIAN_POINT('Ctrl Pts',(6.07662341043411,0.32227733539397,18.4566459262425));
#666=CARTESIAN_POINT('Ctrl Pts',(6.24885084725068,0.331418515715569,19.7395390428718));
#667=CARTESIAN_POINT('Ctrl Pts',(6.29607501729021,0.333921808629723,20.));
#668=CARTESIAN_POINT('Ctrl Pts',(4.9052297284291,2.66488870075257,15.0000002235144));
#669=CARTESIAN_POINT('Ctrl Pts',(5.02707155017993,2.73108635652096,16.1109059744845));
#670=CARTESIAN_POINT('Ctrl Pts',(5.28698025249121,2.87228995622281,18.4566459262425));
#671=CARTESIAN_POINT('Ctrl Pts',(5.43686299433254,2.9537104034539,19.7395390428718));
#672=CARTESIAN_POINT('Ctrl Pts',(5.47794398741274,2.97603004214173,20.));
#673=CARTESIAN_POINT('Ctrl Pts',(3.51664477654091,4.40903855444316,15.0000002235145));
#674=CARTESIAN_POINT('Ctrl Pts',(3.60401839519154,4.51856682582306,16.1109059744846));
#675=CARTESIAN_POINT('Ctrl Pts',(3.79036118694065,4.75218912597683,18.4566459262425));
#676=CARTESIAN_POINT('Ctrl Pts',(3.89777415511852,4.88689031675746,19.7395390428718));
#677=CARTESIAN_POINT('Ctrl Pts',(3.92723362126569,4.92381959189457,20.));
#678=CARTESIAN_POINT('Ctrl Pts',(1.25446814375533,5.49842991936939,15.0000002235144));
#679=CARTESIAN_POINT('Ctrl Pts',(1.28562517599258,5.63500991701469,16.1109059744845));
#680=CARTESIAN_POINT('Ctrl Pts',(1.35209325193691,5.92635145278557,18.4566459262424));
#681=CARTESIAN_POINT('Ctrl Pts',(1.39042952558088,6.09435355619766,19.7395390428718));
#682=CARTESIAN_POINT('Ctrl Pts',(1.4009346362838,6.140403769971,20.));
#683=CARTESIAN_POINT('Ctrl Pts',(-1.25466803068422,5.4969737179553,15.0000002235145));
#684=CARTESIAN_POINT('Ctrl Pts',(-1.28583081504209,5.6335507879984,16.1109059744846));
#685=CARTESIAN_POINT('Ctrl Pts',(-1.35230981312986,5.92482914220211,18.4566459262425));
#686=CARTESIAN_POINT('Ctrl Pts',(-1.3906508110548,6.09272832184158,19.7395390428718));
#687=CARTESIAN_POINT('Ctrl Pts',(-1.40115786118068,6.13877754852523,20.));
#688=CARTESIAN_POINT('Ctrl Pts',(-3.51630986878268,4.40927746502036,15.0000002235144));
#689=CARTESIAN_POINT('Ctrl Pts',(-3.60366683910486,4.51880737129598,16.1109059744845));
#690=CARTESIAN_POINT('Ctrl Pts',(-3.78998838336409,4.75244052271741,18.4566459262425));
#691=CARTESIAN_POINT('Ctrl Pts',(-3.89740575818115,4.88715657030957,19.7395390428718));
#692=CARTESIAN_POINT('Ctrl Pts',(-3.92685961106797,4.92408639667892,20.));
#693=CARTESIAN_POINT('Ctrl Pts',(-5.08069395348818,2.44650835983539,15.0000002235144));
#694=CARTESIAN_POINT('Ctrl Pts',(-5.20689689109255,2.50728932846855,16.1109059744845));
#695=CARTESIAN_POINT('Ctrl Pts',(-5.47610389604428,2.63692505535961,18.4566459262424));
#696=CARTESIAN_POINT('Ctrl Pts',(-5.63134327125276,2.71165920653738,19.7395390428718));
#697=CARTESIAN_POINT('Ctrl Pts',(-5.67389468694833,2.73215251922711,20.));
#698=CARTESIAN_POINT('Ctrl Pts',(-5.45288193767065,0.815749230298981,15.0000002235144));
#699=CARTESIAN_POINT('Ctrl Pts',(-5.58836677405408,0.836012698796788,16.1109059744845));
#700=CARTESIAN_POINT('Ctrl Pts',(-5.87731012786437,0.879236414675522,18.4566459262424));
#701=CARTESIAN_POINT('Ctrl Pts',(-6.04385683305049,0.904160559010076,19.7395390428718));
#702=CARTESIAN_POINT('Ctrl Pts',(-6.089537795022,0.910992723838024,20.));
#703=CARTESIAN_POINT('Ctrl Pts',(-5.45288193767065,6.67785441109678E-16,
15.0000002235144));
#704=CARTESIAN_POINT('Ctrl Pts',(-5.58834145735002,6.84374447828616E-16,
16.1109059744845));
#705=CARTESIAN_POINT('Ctrl Pts',(-5.87727416700723,7.19758499633684E-16,
18.4566459262424));
#706=CARTESIAN_POINT('Ctrl Pts',(-6.04386536899759,7.40160037862044E-16,
19.7395390428718));
#707=CARTESIAN_POINT('Ctrl Pts',(-6.089537795022,7.45753296896052E-16,20.));
#708=CARTESIAN_POINT('',(-5.45288193767101,6.67785441109723E-16,15.0000002235174));
#709=CARTESIAN_POINT('Ctrl Pts',(-5.45288193767065,6.67785441109678E-16,
15.0000002235144));
#710=CARTESIAN_POINT('Ctrl Pts',(-5.58834145735002,6.84374447828616E-16,
16.1109059744845));
#711=CARTESIAN_POINT('Ctrl Pts',(-5.87727416700723,7.19758499633684E-16,
18.4566459262424));
#712=CARTESIAN_POINT('Ctrl Pts',(-6.04386536899759,7.40160037862044E-16,
19.7395390428718));
#713=CARTESIAN_POINT('Ctrl Pts',(-6.089537795022,7.45753296896052E-16,20.));
#714=CARTESIAN_POINT('Ctrl Pts',(-5.45288193767101,4.16333634234434E-15,
15.0000002235174));
#715=CARTESIAN_POINT('Ctrl Pts',(-5.45288193767101,0.815749230299037,15.0000002235174));
#716=CARTESIAN_POINT('Ctrl Pts',(-5.26678794557977,1.63112879506729,15.0000002235174));
#717=CARTESIAN_POINT('Ctrl Pts',(-4.91301026874988,2.36594676164894,15.0000002235174));
#718=CARTESIAN_POINT('Ctrl Pts',(-4.55923259191998,3.10076472823058,15.0000002235174));
#719=CARTESIAN_POINT('Ctrl Pts',(-4.03777123035145,3.75502109662562,15.0000002235174));
#720=CARTESIAN_POINT('Ctrl Pts',(-3.40010024321741,4.26343198964564,15.0000002235174));
#721=CARTESIAN_POINT('Ctrl Pts',(-2.76242925608337,4.77184288266565,15.0000002235174));
#722=CARTESIAN_POINT('Ctrl Pts',(-2.00854864338384,5.13440830031066,15.0000002235174));
#723=CARTESIAN_POINT('Ctrl Pts',(-1.21341897462745,5.31593370936884,15.0000002235174));
#724=CARTESIAN_POINT('Ctrl Pts',(-0.418289305871063,5.49745911842703,15.0000002235174));
#725=CARTESIAN_POINT('Ctrl Pts',(0.418089418942176,5.49794451889839,15.0000002235174));
#726=CARTESIAN_POINT('Ctrl Pts',(1.21330822014642,5.31662199164635,15.0000002235174));
#727=CARTESIAN_POINT('Ctrl Pts',(2.00852702135066,5.13529946439432,15.0000002235174));
#728=CARTESIAN_POINT('Ctrl Pts',(2.7625858989459,4.77216900941889,15.0000002235174));
#729=CARTESIAN_POINT('Ctrl Pts',(3.39997501622257,4.26357568436416,15.0000002235174));
#730=CARTESIAN_POINT('Ctrl Pts',(4.03736413349925,3.75498235930944,15.0000002235174));
#731=CARTESIAN_POINT('Ctrl Pts',(4.55808349045735,3.10092616417543,15.0000002235174));
#732=CARTESIAN_POINT('Ctrl Pts',(4.91289046230635,2.3661280610139,15.0000002235174));
#733=CARTESIAN_POINT('Ctrl Pts',(5.14942844353902,1.8762626589062,15.0000002235174));
#734=CARTESIAN_POINT('Ctrl Pts',(5.31222758694541,1.35051196434184,15.0000002235174));
#735=CARTESIAN_POINT('Ctrl Pts',(5.39270820584985,0.812745213480709,15.0000002235174));
#736=CARTESIAN_POINT('Ctrl Pts',(5.55366944365871,-0.262788288241548,15.0000002235174));
#737=CARTESIAN_POINT('Ctrl Pts',(5.38535658345971,-1.38638601515085,15.0000002235174));
#738=CARTESIAN_POINT('Ctrl Pts',(4.91442484042223,-2.36611529856452,15.0000002235174));
#739=CARTESIAN_POINT('Ctrl Pts',(4.56122603314412,-3.10091226112478,15.0000002235174));
#740=CARTESIAN_POINT('Ctrl Pts',(4.03780410426937,-3.75478322421874,15.0000002235174));
#741=CARTESIAN_POINT('Ctrl Pts',(3.39969023715317,-4.26323786065183,15.0000002235174));
#742=CARTESIAN_POINT('Ctrl Pts',(2.76157637003696,-4.77169249708492,15.0000002235174));
#743=CARTESIAN_POINT('Ctrl Pts',(2.0087705646793,-5.13473080685714,15.0000002235174));
#744=CARTESIAN_POINT('Ctrl Pts',(1.2138588995242,-5.31622027721331,15.0000002235174));
#745=CARTESIAN_POINT('Ctrl Pts',(0.418947234369093,-5.49770974756949,15.0000002235174));
#746=CARTESIAN_POINT('Ctrl Pts',(-0.418070290583457,-5.49765037850961,15.0000002235174));
#747=CARTESIAN_POINT('Ctrl Pts',(-1.21338726154812,-5.31627072223478,15.0000002235174));
#748=CARTESIAN_POINT('Ctrl Pts',(-2.00870423251278,-5.13489106595994,15.0000002235174));
#749=CARTESIAN_POINT('Ctrl Pts',(-2.76232064948955,-4.77219112247014,15.0000002235174));
#750=CARTESIAN_POINT('Ctrl Pts',(-3.39994162141941,-4.26369711282,15.0000002235174));
#751=CARTESIAN_POINT('Ctrl Pts',(-4.03756259334927,-3.75520310316985,15.0000002235174));
#752=CARTESIAN_POINT('Ctrl Pts',(-4.55918812023223,-3.10091502735937,15.0000002235174));
#753=CARTESIAN_POINT('Ctrl Pts',(-4.91301795631266,-2.36605155914166,15.0000002235174));
#754=CARTESIAN_POINT('Ctrl Pts',(-5.2668477923931,-1.63118809092396,15.0000002235174));
#755=CARTESIAN_POINT('Ctrl Pts',(-5.45288193767101,-0.815749230299034,15.0000002235174));
#756=CARTESIAN_POINT('Ctrl Pts',(-5.45288193767101,-6.67785441109723E-16,
15.0000002235174));
#757=CARTESIAN_POINT('Origin',(-10.0000001490116,0.,15.0000002235174));
#758=CARTESIAN_POINT('',(-6.5647314143725,-8.03947731387336E-16,15.0000002235174));
#759=CARTESIAN_POINT('Ctrl Pts',(-6.5647314143725,-8.03947731387336E-16,
15.0000002235174));
#760=CARTESIAN_POINT('Ctrl Pts',(-6.5647314143725,-0.982081523056324,15.0000002235174));
#761=CARTESIAN_POINT('Ctrl Pts',(-6.34069621943977,-1.96378883771633,15.0000002235174));
#762=CARTESIAN_POINT('Ctrl Pts',(-5.91479708662139,-2.84849407345159,15.0000002235174));
#763=CARTESIAN_POINT('Ctrl Pts',(-5.48889795380301,-3.73319930918686,15.0000002235174));
#764=CARTESIAN_POINT('Ctrl Pts',(-4.86113488309897,-4.52090246599739,15.0000002235174));
#765=CARTESIAN_POINT('Ctrl Pts',(-4.09344811803004,-5.13307697678075,15.0000002235174));
#766=CARTESIAN_POINT('Ctrl Pts',(-3.32576135296111,-5.7452514875641,15.0000002235174));
#767=CARTESIAN_POINT('Ctrl Pts',(-2.41815089352728,-6.18189735232026,15.0000002235174));
#768=CARTESIAN_POINT('Ctrl Pts',(-1.46095841536192,-6.40026620699628,15.0000002235174));
#769=CARTESIAN_POINT('Ctrl Pts',(-0.503765937196571,-6.61863506167229,15.0000002235174));
#770=CARTESIAN_POINT('Ctrl Pts',(0.503008559700302,-6.61872690626813,15.0000002235174));
#771=CARTESIAN_POINT('Ctrl Pts',(1.46031412933834,-6.40022605683672,15.0000002235174));
#772=CARTESIAN_POINT('Ctrl Pts',(2.41761969897637,-6.1817252074053,15.0000002235174));
#773=CARTESIAN_POINT('Ctrl Pts',(3.32545634135556,-5.74463166394662,15.0000002235174));
#774=CARTESIAN_POINT('Ctrl Pts',(4.09286477759909,-5.13252621821498,15.0000002235174));
#775=CARTESIAN_POINT('Ctrl Pts',(4.86027321384261,-4.52042077248335,15.0000002235174));
#776=CARTESIAN_POINT('Ctrl Pts',(5.48725344395046,-3.73330342447875,15.0000002235174));
#777=CARTESIAN_POINT('Ctrl Pts',(5.9143682316072,-2.84860236131958,15.0000002235174));
#778=CARTESIAN_POINT('Ctrl Pts',(6.19911142337835,-2.2588016525468,15.0000002235174));
#779=CARTESIAN_POINT('Ctrl Pts',(6.39502552961568,-1.62563040370532,15.0000002235174));
#780=CARTESIAN_POINT('Ctrl Pts',(6.4917347789022,-0.97828920677183,15.0000002235174));
#781=CARTESIAN_POINT('Ctrl Pts',(6.68515327747524,0.31639318709516,15.0000002235174));
#782=CARTESIAN_POINT('Ctrl Pts',(6.48175234824507,1.66775537333019,15.0000002235174));
#783=CARTESIAN_POINT('Ctrl Pts',(5.91600246648795,2.84854463038561,15.0000002235174));
#784=CARTESIAN_POINT('Ctrl Pts',(5.6331275256094,3.43893925891332,15.0000002235174));
#785=CARTESIAN_POINT('Ctrl Pts',(5.25966534659911,3.98669065514612,15.0000002235174));
#786=CARTESIAN_POINT('Ctrl Pts',(4.81342427321799,4.46595472538381,15.0000002235174));
#787=CARTESIAN_POINT('Ctrl Pts',(3.92094212645574,5.42448286585918,15.0000002235174));
#788=CARTESIAN_POINT('Ctrl Pts',(2.73734440221015,6.10906170235408,15.0000002235174));
#789=CARTESIAN_POINT('Ctrl Pts',(1.46175742887622,6.40122416721817,15.0000002235174));
#790=CARTESIAN_POINT('Ctrl Pts',(0.50506719887577,6.62034601586624,15.0000002235174));
#791=CARTESIAN_POINT('Ctrl Pts',(-0.503366983736872,6.61873365547199,15.0000002235174));
#792=CARTESIAN_POINT('Ctrl Pts',(-1.46094748705056,6.39986437542107,15.0000002235174));
#793=CARTESIAN_POINT('Ctrl Pts',(-2.41852799036424,6.18099509537015,15.0000002235174));
#794=CARTESIAN_POINT('Ctrl Pts',(-3.32525481437898,5.74486889566257,15.0000002235174));
#795=CARTESIAN_POINT('Ctrl Pts',(-4.09279375610993,5.13287255083561,15.0000002235174));
#796=CARTESIAN_POINT('Ctrl Pts',(-4.86033269784089,4.52087620600865,15.0000002235174));
#797=CARTESIAN_POINT('Ctrl Pts',(-5.48868375728808,3.73300971606229,15.0000002235174));
#798=CARTESIAN_POINT('Ctrl Pts',(-5.91478343642098,2.84831104532421,15.0000002235174));
#799=CARTESIAN_POINT('Ctrl Pts',(-6.34088311555389,1.96361237458613,15.0000002235174));
#800=CARTESIAN_POINT('Ctrl Pts',(-6.5647314143725,0.982081523056323,15.0000002235174));
#801=CARTESIAN_POINT('Ctrl Pts',(-6.5647314143725,5.55111512312578E-16,
15.0000002235174));
#802=CARTESIAN_POINT('Ctrl Pts',(-6.99999999999987,-8.57252759403132E-16,
20.0544800488469));
#803=CARTESIAN_POINT('Ctrl Pts',(-7.00441622942042,-8.57793591525548E-16,
20.0218917022612));
#804=CARTESIAN_POINT('Ctrl Pts',(-7.00656209104023,-8.5805638378196E-16,
19.9806405356231));
#805=CARTESIAN_POINT('Ctrl Pts',(-7.00728803047591,-8.58145285722589E-16,
19.909586132222));
#806=CARTESIAN_POINT('Ctrl Pts',(-7.00278224509718,-8.57593486158418E-16,
19.7725421359508));
#807=CARTESIAN_POINT('Ctrl Pts',(-6.98424754984012,-8.55323640636445E-16,
19.4791351188562));
#808=CARTESIAN_POINT('Ctrl Pts',(-6.89938222834478,-8.44930636203657E-16,
18.4226389881667));
#809=CARTESIAN_POINT('Ctrl Pts',(-6.74373115444851,-8.25868877260566E-16,
16.7914290280407));
#810=CARTESIAN_POINT('Ctrl Pts',(-6.56473141437221,-8.039477313873E-16,
15.0000002235145));
#811=CARTESIAN_POINT('Ctrl Pts',(-6.99999999999987,-1.04719755119658,20.0544800488469));
#812=CARTESIAN_POINT('Ctrl Pts',(-7.0044170799755,-1.04785818668941,20.0218917022612));
#813=CARTESIAN_POINT('Ctrl Pts',(-7.00656365587203,-1.04817918090175,19.9806405356231));
#814=CARTESIAN_POINT('Ctrl Pts',(-7.00729051316005,-1.04828774786027,19.909586132222));
#815=CARTESIAN_POINT('Ctrl Pts',(-7.00278515680666,-1.047613668366,19.7725421359508));
#816=CARTESIAN_POINT('Ctrl Pts',(-6.98425491198837,-1.04484072284462,19.4791351188562));
#817=CARTESIAN_POINT('Ctrl Pts',(-6.89936714527098,-1.03214571542061,18.4226389881667));
#818=CARTESIAN_POINT('Ctrl Pts',(-6.7437656293648,-1.00885856977228,16.7914290280407));
#819=CARTESIAN_POINT('Ctrl Pts',(-6.56473141437221,-0.98208152305628,15.0000002235145));
#820=CARTESIAN_POINT('Ctrl Pts',(-6.52222070773648,-3.14079461369781,20.0544800488469));
#821=CARTESIAN_POINT('Ctrl Pts',(-6.52633510949527,-3.14277616855562,20.0218917022612));
#822=CARTESIAN_POINT('Ctrl Pts',(-6.5283341698896,-3.14373903407623,19.9806405356231));
#823=CARTESIAN_POINT('Ctrl Pts',(-6.52901012762825,-3.14406481606016,19.909586132222));
#824=CARTESIAN_POINT('Ctrl Pts',(-6.52481167842553,-3.14204316785901,19.7725421359508));
#825=CARTESIAN_POINT('Ctrl Pts',(-6.50753995275079,-3.13372723891894,19.4791351188562));
#826=CARTESIAN_POINT('Ctrl Pts',(-6.42847764034611,-3.0956478844988,18.4226389881667));
#827=CARTESIAN_POINT('Ctrl Pts',(-6.28342700862158,-3.02581304054467,16.7914290280407));
#828=CARTESIAN_POINT('Ctrl Pts',(-6.11666102450676,-2.9454961523762,15.0000002235145));
#829=CARTESIAN_POINT('Ctrl Pts',(-4.51406170584308,-5.66058792265255,20.0544800488469));
#830=CARTESIAN_POINT('Ctrl Pts',(-4.51690976310951,-5.66415881928118,20.0218917022612));
#831=CARTESIAN_POINT('Ctrl Pts',(-4.51829370842869,-5.66589382055212,19.9806405356231));
#832=CARTESIAN_POINT('Ctrl Pts',(-4.51876203764964,-5.66648051956828,19.909586132222));
#833=CARTESIAN_POINT('Ctrl Pts',(-4.51585650146884,-5.6628367348316,19.7725421359508));
#834=CARTESIAN_POINT('Ctrl Pts',(-4.50390505582999,-5.6478469246885,19.4791351188562));
#835=CARTESIAN_POINT('Ctrl Pts',(-4.44917351598154,-5.57922833538721,18.4226389881667));
#836=CARTESIAN_POINT('Ctrl Pts',(-4.34880999774851,-5.45334211801593,16.7914290280407));
#837=CARTESIAN_POINT('Ctrl Pts',(-4.23337181239475,-5.30860562280768,15.0000002235145));
#838=CARTESIAN_POINT('Ctrl Pts',(-1.61069545290218,-7.05737974566667,20.0544800488469));
#839=CARTESIAN_POINT('Ctrl Pts',(-1.61171132317232,-7.06183238325216,20.0218917022612));
#840=CARTESIAN_POINT('Ctrl Pts',(-1.61220483155358,-7.06399600928598,19.9806405356231));
#841=CARTESIAN_POINT('Ctrl Pts',(-1.61237154465993,-7.06472812363286,19.909586132222));
#842=CARTESIAN_POINT('Ctrl Pts',(-1.61133461441837,-7.06018550869829,19.7725421359508));
#843=CARTESIAN_POINT('Ctrl Pts',(-1.60706821681688,-7.04149997018533,19.4791351188562));
#844=CARTESIAN_POINT('Ctrl Pts',(-1.58754871114866,-6.95593351335897,18.4226389881667));
#845=CARTESIAN_POINT('Ctrl Pts',(-1.55171594763456,-6.79901866220354,16.7914290280407));
#846=CARTESIAN_POINT('Ctrl Pts',(-1.51054043409338,-6.61854321707614,15.0000002235145));
#847=CARTESIAN_POINT('Ctrl Pts',(1.60988785817526,-7.05767354847307,20.054480048847));
#848=CARTESIAN_POINT('Ctrl Pts',(1.61090329470137,-7.06212646030218,20.0218917022612));
#849=CARTESIAN_POINT('Ctrl Pts',(1.61139661913409,-7.06429025104649,19.9806405356231));
#850=CARTESIAN_POINT('Ctrl Pts',(1.61156333024185,-7.0650224917816,19.9095861322221));
#851=CARTESIAN_POINT('Ctrl Pts',(1.61052695804928,-7.06047973256582,19.7725421359508));
#852=CARTESIAN_POINT('Ctrl Pts',(1.60626309521074,-7.04179388120634,19.4791351188562));
#853=CARTESIAN_POINT('Ctrl Pts',(1.5867513813056,-6.95622151681226,18.4226389881667));
#854=CARTESIAN_POINT('Ctrl Pts',(1.55094098951424,-6.79930531170343,16.7914290280407));
#855=CARTESIAN_POINT('Ctrl Pts',(1.50978305659711,-6.61881875086369,15.0000002235145));
#856=CARTESIAN_POINT('Ctrl Pts',(4.51397765051981,-5.65944964055566,20.0544800488469));
#857=CARTESIAN_POINT('Ctrl Pts',(4.51682697989184,-5.66302010330215,20.0218917022611));
#858=CARTESIAN_POINT('Ctrl Pts',(4.518212012262,-5.66475499433627,19.9806405356231));
#859=CARTESIAN_POINT('Ctrl Pts',(4.51868176274798,-5.66534188204491,19.909586132222));
#860=CARTESIAN_POINT('Ctrl Pts',(4.51577694907878,-5.66169897337855,19.7725421359508));
#861=CARTESIAN_POINT('Ctrl Pts',(4.50383265963165,-5.64671366449456,19.4791351188562));
#862=CARTESIAN_POINT('Ctrl Pts',(4.44906716996212,-5.57810137427999,18.4226389881667));
#863=CARTESIAN_POINT('Ctrl Pts',(4.34878273039783,-5.45225702947429,16.7914290280407));
#864=CARTESIAN_POINT('Ctrl Pts',(4.23329298373457,-5.3075381204877,15.0000002235145));
#865=CARTESIAN_POINT('Ctrl Pts',(6.2967818847326,-3.42129910014142,20.0544800488469));
#866=CARTESIAN_POINT('Ctrl Pts',(6.3007532585789,-3.42345787180146,20.0218917022612));
#867=CARTESIAN_POINT('Ctrl Pts',(6.30268253780733,-3.42450693583643,19.9806405356231));
#868=CARTESIAN_POINT('Ctrl Pts',(6.30333425207478,-3.42486207679482,19.909586132222));
#869=CARTESIAN_POINT('Ctrl Pts',(6.29928051020623,-3.42265999822257,19.7725421359508));
#870=CARTESIAN_POINT('Ctrl Pts',(6.28260151424627,-3.41360265038334,19.4791351188562));
#871=CARTESIAN_POINT('Ctrl Pts',(6.20629346895579,-3.37211598682832,18.4226389881667));
#872=CARTESIAN_POINT('Ctrl Pts',(6.06620900421642,-3.29605841071816,16.7914290280407));
#873=CARTESIAN_POINT('Ctrl Pts',(5.9052402640221,-3.20855852580888,15.0000002235145));
#874=CARTESIAN_POINT('Ctrl Pts',(7.23684994798413,-0.383110166038209,20.0544800488469));
#875=CARTESIAN_POINT('Ctrl Pts',(7.24141736727684,-0.383351261473341,20.0218917022611));
#876=CARTESIAN_POINT('Ctrl Pts',(7.24363731669592,-0.383468196544631,19.9806405356231));
#877=CARTESIAN_POINT('Ctrl Pts',(7.24438972197465,-0.383507274460264,19.909586132222));
#878=CARTESIAN_POINT('Ctrl Pts',(7.23973236974781,-0.383260367601311,19.7725421359508));
#879=CARTESIAN_POINT('Ctrl Pts',(7.22057976797126,-0.382242798185151,19.4791351188562));
#880=CARTESIAN_POINT('Ctrl Pts',(7.13279642811184,-0.377614079931871,18.4226389881667));
#881=CARTESIAN_POINT('Ctrl Pts',(6.97198154872345,-0.369060047845761,16.7914290280407));
#882=CARTESIAN_POINT('Ctrl Pts',(6.78685374209002,-0.359287906022347,15.0000002235145));
#883=CARTESIAN_POINT('Ctrl Pts',(6.80307545981726,2.49881590421498,20.054480048847));
#884=CARTESIAN_POINT('Ctrl Pts',(6.80736636051624,2.50039147346629,20.0218917022612));
#885=CARTESIAN_POINT('Ctrl Pts',(6.80945093838216,2.50115672668575,19.9806405356231));
#886=CARTESIAN_POINT('Ctrl Pts',(6.81015527829612,2.50141488758232,19.9095861322221));
#887=CARTESIAN_POINT('Ctrl Pts',(6.80577569970467,2.49980598244458,19.7725421359508));
#888=CARTESIAN_POINT('Ctrl Pts',(6.78775671530677,2.49318483001978,19.4791351188562));
#889=CARTESIAN_POINT('Ctrl Pts',(6.7053076222743,2.46291411667974,18.4226389881667));
#890=CARTESIAN_POINT('Ctrl Pts',(6.55397176791761,2.40729784220523,16.7914290280407));
#891=CARTESIAN_POINT('Ctrl Pts',(6.38005188362969,2.34343646644761,15.0000002235145));
#892=CARTESIAN_POINT('Ctrl Pts',(4.81195420286187,5.41916369272847,20.0544800488469));
#893=CARTESIAN_POINT('Ctrl Pts',(4.81498950123117,5.4225829275022,20.0218917022612));
#894=CARTESIAN_POINT('Ctrl Pts',(4.81646418127825,5.4242444658461,19.9806405356231));
#895=CARTESIAN_POINT('Ctrl Pts',(4.81696265226948,5.42480682951642,19.909586132222));
#896=CARTESIAN_POINT('Ctrl Pts',(4.81386501636325,5.42131877359735,19.7725421359508));
#897=CARTESIAN_POINT('Ctrl Pts',(4.80112116375895,5.40697161221873,19.4791351188562));
#898=CARTESIAN_POINT('Ctrl Pts',(4.74279646306781,5.34126279831395,18.4226389881667));
#899=CARTESIAN_POINT('Ctrl Pts',(4.63576847818987,5.22078274573776,16.7914290280407));
#900=CARTESIAN_POINT('Ctrl Pts',(4.51274098857833,5.0821934476115,15.0000002235145));
#901=CARTESIAN_POINT('Ctrl Pts',(1.97228522325145,7.06159443272623,20.0544800488469));
#902=CARTESIAN_POINT('Ctrl Pts',(1.97352996070449,7.06604963718496,20.0218917022612));
#903=CARTESIAN_POINT('Ctrl Pts',(1.97413493969209,7.06821447786913,19.9806405356231));
#904=CARTESIAN_POINT('Ctrl Pts',(1.97433995439131,7.06894692988297,19.909586132222));
#905=CARTESIAN_POINT('Ctrl Pts',(1.97307064993431,7.06440155555222,19.7725421359508));
#906=CARTESIAN_POINT('Ctrl Pts',(1.96785072209542,7.04570437527132,19.4791351188562));
#907=CARTESIAN_POINT('Ctrl Pts',(1.94392781121545,6.96008925241114,18.4226389881667));
#908=CARTESIAN_POINT('Ctrl Pts',(1.90009812574403,6.80307531601434,16.7914290280407));
#909=CARTESIAN_POINT('Ctrl Pts',(1.84964610902588,6.62249582972495,15.0000002235145));
#910=CARTESIAN_POINT('Ctrl Pts',(-1.61203977687151,7.05586354441445,20.0544800488469));
#911=CARTESIAN_POINT('Ctrl Pts',(-1.6130572791479,7.0603150881834,20.0218917022612));
#912=CARTESIAN_POINT('Ctrl Pts',(-1.61355185792328,7.06247813415501,19.9806405356231));
#913=CARTESIAN_POINT('Ctrl Pts',(-1.61371955635169,7.06320994314256,19.909586132222));
#914=CARTESIAN_POINT('Ctrl Pts',(-1.61268215618774,7.05866823492686,19.7725421359508));
#915=CARTESIAN_POINT('Ctrl Pts',(-1.60841630066584,7.03998599283148,19.4791351188562));
#916=CARTESIAN_POINT('Ctrl Pts',(-1.5888598110357,6.95444154000299,18.4226389881667));
#917=CARTESIAN_POINT('Ctrl Pts',(-1.55304282878525,6.79755240535295,16.7914290280407));
#918=CARTESIAN_POINT('Ctrl Pts',(-1.51180116634945,6.61712129507743,15.0000002235145));
#919=CARTESIAN_POINT('Ctrl Pts',(-4.51257935761063,5.6607340843108,20.0544800488469));
#920=CARTESIAN_POINT('Ctrl Pts',(-4.515426361119,5.66430563359095,20.0218917022612));
#921=CARTESIAN_POINT('Ctrl Pts',(-4.5168097524583,5.66604115031236,19.9806405356231));
#922=CARTESIAN_POINT('Ctrl Pts',(-4.51727780001127,5.66662846926876,19.909586132222));
#923=CARTESIAN_POINT('Ctrl Pts',(-4.51437315819158,5.66298487313948,19.7725421359508));
#924=CARTESIAN_POINT('Ctrl Pts',(-4.50242501718458,5.64799760842801,19.4791351188562));
#925=CARTESIAN_POINT('Ctrl Pts',(-4.44771457741514,5.57936245772816,18.4226389881667));
#926=CARTESIAN_POINT('Ctrl Pts',(-4.34737711255605,5.45350564460132,16.7914290280407));
#927=CARTESIAN_POINT('Ctrl Pts',(-4.23198163839351,5.30874269595476,15.0000002235145));
#928=CARTESIAN_POINT('Ctrl Pts',(-6.5226192839207,3.14041828698057,20.0544800488469));
#929=CARTESIAN_POINT('Ctrl Pts',(-6.52673450408449,3.14239934357856,20.0218917022612));
#930=CARTESIAN_POINT('Ctrl Pts',(-6.5287341627724,3.14336187468889,19.9806405356231));
#931=CARTESIAN_POINT('Ctrl Pts',(-6.5294107736507,3.14368733616852,19.9095861322221));
#932=CARTESIAN_POINT('Ctrl Pts',(-6.52521235386281,3.14166579863385,19.7725421359508));
#933=CARTESIAN_POINT('Ctrl Pts',(-6.50794253932393,3.13334950132405,19.4791351188562));
#934=CARTESIAN_POINT('Ctrl Pts',(-6.42886043361244,3.09528159260445,18.4226389881667));
#935=CARTESIAN_POINT('Ctrl Pts',(-6.28383397265057,3.02543991868976,16.7914290280407));
#936=CARTESIAN_POINT('Ctrl Pts',(-6.11703481673499,2.94514322611581,15.0000002235145));
#937=CARTESIAN_POINT('Ctrl Pts',(-6.99999999999987,1.04719755119658,20.0544800488469));
#938=CARTESIAN_POINT('Ctrl Pts',(-7.00441663233595,1.04785845753528,20.0218917022612));
#939=CARTESIAN_POINT('Ctrl Pts',(-7.00656283231502,1.04817967919778,19.9806405356231));
#940=CARTESIAN_POINT('Ctrl Pts',(-7.00728920654556,1.04828853843191,19.909586132222));
#941=CARTESIAN_POINT('Ctrl Pts',(-7.00278362439995,1.04761459555401,19.7725421359508));
#942=CARTESIAN_POINT('Ctrl Pts',(-6.98425103735547,1.04484306720474,19.4791351188562));
#943=CARTESIAN_POINT('Ctrl Pts',(-6.89937508335808,1.03214091245339,18.4226389881667));
#944=CARTESIAN_POINT('Ctrl Pts',(-6.74374748552412,1.00886954776624,16.7914290280407));
#945=CARTESIAN_POINT('Ctrl Pts',(-6.56473141437221,0.982081523056279,15.0000002235145));
#946=CARTESIAN_POINT('Ctrl Pts',(-6.99999999999987,8.57252759403132E-16,
20.0544800488469));
#947=CARTESIAN_POINT('Ctrl Pts',(-7.00441622942042,8.57793591525548E-16,
20.0218917022612));
#948=CARTESIAN_POINT('Ctrl Pts',(-7.00656209104023,8.5805638378196E-16,
19.9806405356231));
#949=CARTESIAN_POINT('Ctrl Pts',(-7.00728803047591,8.58145285722589E-16,
19.909586132222));
#950=CARTESIAN_POINT('Ctrl Pts',(-7.00278224509718,8.57593486158418E-16,
19.7725421359508));
#951=CARTESIAN_POINT('Ctrl Pts',(-6.98424754984012,8.55323640636445E-16,
19.4791351188562));
#952=CARTESIAN_POINT('Ctrl Pts',(-6.89938222834478,8.44930636203657E-16,
18.4226389881667));
#953=CARTESIAN_POINT('Ctrl Pts',(-6.74373115444851,8.25868877260566E-16,
16.7914290280407));
#954=CARTESIAN_POINT('Ctrl Pts',(-6.56473141437221,8.039477313873E-16,15.0000002235145));
#955=CARTESIAN_POINT('Ctrl Pts',(-6.99999999999987,8.57252759403132E-16,
20.0544800488469));
#956=CARTESIAN_POINT('Ctrl Pts',(-7.00441622942042,8.57793591525548E-16,
20.0218917022612));
#957=CARTESIAN_POINT('Ctrl Pts',(-7.00656209104023,8.5805638378196E-16,
19.9806405356231));
#958=CARTESIAN_POINT('Ctrl Pts',(-7.00728803047591,8.58145285722589E-16,
19.909586132222));
#959=CARTESIAN_POINT('Ctrl Pts',(-7.00278224509718,8.57593486158418E-16,
19.7725421359508));
#960=CARTESIAN_POINT('Ctrl Pts',(-6.98424754984012,8.55323640636445E-16,
19.4791351188562));
#961=CARTESIAN_POINT('Ctrl Pts',(-6.89938222834478,8.44930636203657E-16,
18.4226389881667));
#962=CARTESIAN_POINT('Ctrl Pts',(-6.74373115444851,8.25868877260566E-16,
16.7914290280407));
#963=CARTESIAN_POINT('Ctrl Pts',(-6.56473141437221,8.039477313873E-16,15.0000002235145));
#964=CARTESIAN_POINT('Origin',(0.,0.,33.5));
#965=CARTESIAN_POINT('',(-3.09425290683001,5.,33.5));
#966=CARTESIAN_POINT('',(-4.3,4.01053625484497,33.5));
#967=CARTESIAN_POINT('Origin',(0.,0.,33.5));
#968=CARTESIAN_POINT('',(-4.3,-4.01053625484497,33.5));
#969=CARTESIAN_POINT('',(-4.3,5.,33.5));
#970=CARTESIAN_POINT('',(-3.09425290683001,-5.,33.5));
#971=CARTESIAN_POINT('Origin',(0.,0.,33.5));
#972=CARTESIAN_POINT('',(-5.00000007450581,-5.00000007450581,33.5));
#973=CARTESIAN_POINT('',(5.00000007450581,-5.00000007450581,33.5));
#974=CARTESIAN_POINT('',(-5.00000007450581,5.00000007450581,33.5));
#975=CARTESIAN_POINT('',(-5.00000007450581,-5.00000007450581,33.5));
#976=CARTESIAN_POINT('',(-5.00000007450581,5.00000007450581,33.5));
#977=CARTESIAN_POINT('Origin',(5.00000007450581,-5.00000007450581,33.5));
#978=CARTESIAN_POINT('',(5.00000007450581,5.00000007450581,33.5));
#979=CARTESIAN_POINT('',(5.00000007450581,-5.00000007450581,33.5));
#980=CARTESIAN_POINT('',(5.00000007450581,5.00000007450581,33.5));
#981=CARTESIAN_POINT('',(5.00000007450581,5.00000007450581,34.5));
#982=CARTESIAN_POINT('',(5.00000007450581,5.00000007450581,33.5));
#983=CARTESIAN_POINT('',(5.00000007450581,-5.00000007450581,34.5));
#984=CARTESIAN_POINT('',(5.00000007450581,5.00000007450581,34.5));
#985=CARTESIAN_POINT('',(5.00000007450581,-5.00000007450581,33.5));
#986=CARTESIAN_POINT('Origin',(-5.00000007450581,5.00000007450581,33.5));
#987=CARTESIAN_POINT('',(-5.00000007450581,-5.00000007450581,34.5));
#988=CARTESIAN_POINT('',(-5.00000007450581,-5.00000007450581,33.5));
#989=CARTESIAN_POINT('',(-5.00000007450581,5.00000007450581,34.5));
#990=CARTESIAN_POINT('',(-5.00000007450581,-5.00000007450581,34.5));
#991=CARTESIAN_POINT('',(-5.00000007450581,5.00000007450581,33.5));
#992=CARTESIAN_POINT('Origin',(0.,0.,34.5));
#993=CARTESIAN_POINT('',(-5.00000007450581,5.00000007450581,34.5));
#994=CARTESIAN_POINT('',(5.00000007450581,-5.00000007450581,34.5));
#995=CARTESIAN_POINT('Origin',(0.,0.,33.5));
#996=CARTESIAN_POINT('',(4.3,4.01053625484497,33.5));
#997=CARTESIAN_POINT('',(3.09425290683001,5.,33.5));
#998=CARTESIAN_POINT('Origin',(0.,0.,33.5));
#999=CARTESIAN_POINT('',(-5.00000007450581,5.00000007450581,33.5));
#1000=CARTESIAN_POINT('',(3.09425290683001,-5.,33.5));
#1001=CARTESIAN_POINT('',(5.00000007450581,-5.00000007450581,33.5));
#1002=CARTESIAN_POINT('',(4.3,-4.01053625484497,33.5));
#1003=CARTESIAN_POINT('Origin',(0.,0.,33.5));
#1004=CARTESIAN_POINT('',(4.3,-5.,33.5));
#1005=CARTESIAN_POINT('Origin',(3.09425290683001,5.,23.));
#1006=CARTESIAN_POINT('',(-3.09425290683001,5.,23.));
#1007=CARTESIAN_POINT('',(3.09425290683001,5.,23.));
#1008=CARTESIAN_POINT('',(1.547126453415,5.,23.));
#1009=CARTESIAN_POINT('',(-3.09425290683001,5.,23.));
#1010=CARTESIAN_POINT('',(3.09425290683001,5.,23.));
#1011=CARTESIAN_POINT('Origin',(4.3,-4.01053625484497,23.));
#1012=CARTESIAN_POINT('',(4.3,4.01053625484497,23.));
#1013=CARTESIAN_POINT('',(4.3,-4.01053625484497,23.));
#1014=CARTESIAN_POINT('',(4.3,-2.00526812742249,23.));
#1015=CARTESIAN_POINT('',(4.3,4.01053625484497,23.));
#1016=CARTESIAN_POINT('',(4.3,-4.01053625484497,23.));
#1017=CARTESIAN_POINT('Origin',(-3.09425290683001,-5.,23.));
#1018=CARTESIAN_POINT('',(3.09425290683001,-5.,23.));
#1019=CARTESIAN_POINT('',(-3.09425290683001,-5.,23.));
#1020=CARTESIAN_POINT('',(-1.547126453415,-5.,23.));
#1021=CARTESIAN_POINT('',(3.09425290683001,-5.,23.));
#1022=CARTESIAN_POINT('',(-3.09425290683001,-5.,23.));
#1023=CARTESIAN_POINT('Origin',(-4.3,4.01053625484497,23.));
#1024=CARTESIAN_POINT('',(-4.3,-4.01053625484497,23.));
#1025=CARTESIAN_POINT('',(-4.3,4.01053625484497,23.));
#1026=CARTESIAN_POINT('',(-4.3,2.00526812742249,23.));
#1027=CARTESIAN_POINT('',(-4.3,-4.01053625484497,23.));
#1028=CARTESIAN_POINT('',(-4.3,4.01053625484497,23.));
#1029=CARTESIAN_POINT('Origin',(0.,0.,23.));
#1030=CARTESIAN_POINT('Origin',(0.,0.,23.));
#1031=CARTESIAN_POINT('Origin',(0.,0.,23.));
#1032=CARTESIAN_POINT('Origin',(0.,0.,23.));
#1033=CARTESIAN_POINT('Origin',(0.,0.,23.));
#1034=CARTESIAN_POINT('',(5.88000008940697,-7.20092328847839E-16,23.));
#1035=CARTESIAN_POINT('Origin',(0.,0.,23.));
#1036=CARTESIAN_POINT('Origin',(0.,0.,23.));
#1037=CARTESIAN_POINT('Origin',(0.,0.,23.));
#1038=CARTESIAN_POINT('Origin',(0.,0.,23.));
#1039=CARTESIAN_POINT('Origin',(0.,0.,23.));
#1040=CARTESIAN_POINT('',(5.88000008940697,7.20092328847839E-16,20.));
#1041=CARTESIAN_POINT('Origin',(0.,0.,20.));
#1042=CARTESIAN_POINT('',(5.88000008940697,-7.20092328847839E-16,23.));
#1043=CARTESIAN_POINT('Origin',(0.,0.,20.));
#1044=UNCERTAINTY_MEASURE_WITH_UNIT(LENGTH_MEASURE(0.01),#1048,
'DISTANCE_ACCURACY_VALUE',
'Maximum model space distance between geometric entities at asserted c
onnectivities');
#1045=UNCERTAINTY_MEASURE_WITH_UNIT(LENGTH_MEASURE(0.01),#1048,
'DISTANCE_ACCURACY_VALUE',
'Maximum model space distance between geometric entities at asserted c
onnectivities');
#1046=(
GEOMETRIC_REPRESENTATION_CONTEXT(3)
GLOBAL_UNCERTAINTY_ASSIGNED_CONTEXT((#1044))
GLOBAL_UNIT_ASSIGNED_CONTEXT((#1048,#1050,#1051))
REPRESENTATION_CONTEXT('','3D')
);
#1047=(
GEOMETRIC_REPRESENTATION_CONTEXT(3)
GLOBAL_UNCERTAINTY_ASSIGNED_CONTEXT((#1045))
GLOBAL_UNIT_ASSIGNED_CONTEXT((#1048,#1050,#1051))
REPRESENTATION_CONTEXT('','3D')
);
#1048=(
LENGTH_UNIT()
NAMED_UNIT(*)
SI_UNIT(.MILLI.,.METRE.)
);
#1049=(
LENGTH_UNIT()
NAMED_UNIT(*)
SI_UNIT($,.METRE.)
);
#1050=(
NAMED_UNIT(*)
PLANE_ANGLE_UNIT()
SI_UNIT($,.RADIAN.)
);
#1051=(
NAMED_UNIT(*)
SI_UNIT($,.STERADIAN.)
SOLID_ANGLE_UNIT()
);
#1052=SHAPE_DEFINITION_REPRESENTATION(#1053,#1054);
#1053=PRODUCT_DEFINITION_SHAPE('',$,#1056);
#1054=SHAPE_REPRESENTATION('',(#389),#1046);
#1055=PRODUCT_DEFINITION_CONTEXT('part definition',#1060,'design');
#1056=PRODUCT_DEFINITION('StopperTopper2','StopperTopper2',#1057,#1055);
#1057=PRODUCT_DEFINITION_FORMATION('',$,#1062);
#1058=PRODUCT_RELATED_PRODUCT_CATEGORY('StopperTopper2',
'StopperTopper2',(#1062));
#1059=APPLICATION_PROTOCOL_DEFINITION('international standard',
'automotive_design',2009,#1060);
#1060=APPLICATION_CONTEXT(
'Core Data for Automotive Mechanical Design Process');
#1061=PRODUCT_CONTEXT('part definition',#1060,'mechanical');
#1062=PRODUCT('StopperTopper2','StopperTopper2',$,(#1061));
#1063=PRESENTATION_STYLE_ASSIGNMENT((#1066));
#1064=PRESENTATION_STYLE_ASSIGNMENT((#1067));
#1065=PRESENTATION_STYLE_ASSIGNMENT((#1068));
#1066=SURFACE_STYLE_USAGE(.BOTH.,#1069);
#1067=SURFACE_STYLE_USAGE(.BOTH.,#1070);
#1068=SURFACE_STYLE_USAGE(.BOTH.,#1071);
#1069=SURFACE_SIDE_STYLE('',(#1072));
#1070=SURFACE_SIDE_STYLE('',(#1073));
#1071=SURFACE_SIDE_STYLE('',(#1074));
#1072=SURFACE_STYLE_FILL_AREA(#1075);
#1073=SURFACE_STYLE_FILL_AREA(#1076);
#1074=SURFACE_STYLE_FILL_AREA(#1077);
#1075=FILL_AREA_STYLE('Steel - Satin',(#1078));
#1076=FILL_AREA_STYLE('Plastic - Glossy (Black)',(#1079));
#1077=FILL_AREA_STYLE('Plastic - Glossy (Grey)',(#1080));
#1078=FILL_AREA_STYLE_COLOUR('Steel - Satin',#1081);
#1079=FILL_AREA_STYLE_COLOUR('Plastic - Glossy (Black)',#1082);
#1080=FILL_AREA_STYLE_COLOUR('Plastic - Glossy (Grey)',#1083);
#1081=COLOUR_RGB('Steel - Satin',0.627450980392157,0.627450980392157,0.627450980392157);
#1082=COLOUR_RGB('Plastic - Glossy (Black)',0.0980392156862745,0.0980392156862745,
0.0980392156862745);
#1083=COLOUR_RGB('Plastic - Glossy (Grey)',0.701960784313725,0.701960784313725,
0.701960784313725);
ENDSEC;
END-ISO-10303-21;
