ISO-10303-21;
HEADER;
/* Generated by software containing ST-Developer
 * from STEP Tools, Inc. (www.steptools.com) 
 */

FILE_DESCRIPTION(
/* description */ (''),
/* implementation_level */ '2;1');

FILE_NAME(
/* name */ 'Electromagentic_Gripper_Pincer.step',
/* time_stamp */ '2026-08-06T10:09:37+01:00',
/* author */ (''),
/* organization */ (''),
/* preprocessor_version */ 'ST-DEVELOPER v20.1',
/* originating_system */ 'Autodesk Translation Framework v15.8.0.0',
/* authorisation */ '');

FILE_SCHEMA (('AUTOMOTIVE_DESIGN { 1 0 10303 214 3 1 1 }'));
ENDSEC;

DATA;
#10=MECHANICAL_DESIGN_GEOMETRIC_PRESENTATION_REPRESENTATION('',(#13),#1134);
#11=SHAPE_REPRESENTATION_RELATIONSHIP('SRR','None',#1141,#12);
#12=ADVANCED_BREP_SHAPE_REPRESENTATION('',(#14),#1133);
#13=STYLED_ITEM('',(#1151),#14);
#14=MANIFOLD_SOLID_BREP('Body1',#662);
#15=FACE_BOUND('',#78,.T.);
#16=FACE_BOUND('',#81,.T.);
#17=FACE_BOUND('',#95,.T.);
#18=FACE_BOUND('',#100,.T.);
#19=FACE_BOUND('',#103,.T.);
#20=FACE_BOUND('',#104,.T.);
#21=PLANE('',#682);
#22=PLANE('',#693);
#23=PLANE('',#694);
#24=PLANE('',#703);
#25=PLANE('',#704);
#26=PLANE('',#705);
#27=PLANE('',#708);
#28=PLANE('',#711);
#29=PLANE('',#714);
#30=PLANE('',#717);
#31=PLANE('',#718);
#32=PLANE('',#719);
#33=PLANE('',#724);
#34=PLANE('',#725);
#35=PLANE('',#726);
#36=PLANE('',#729);
#37=PLANE('',#732);
#38=PLANE('',#733);
#39=PLANE('',#734);
#40=FACE_OUTER_BOUND('',#75,.T.);
#41=FACE_OUTER_BOUND('',#76,.T.);
#42=FACE_OUTER_BOUND('',#77,.T.);
#43=FACE_OUTER_BOUND('',#79,.T.);
#44=FACE_OUTER_BOUND('',#80,.T.);
#45=FACE_OUTER_BOUND('',#82,.T.);
#46=FACE_OUTER_BOUND('',#83,.T.);
#47=FACE_OUTER_BOUND('',#84,.T.);
#48=FACE_OUTER_BOUND('',#85,.T.);
#49=FACE_OUTER_BOUND('',#86,.T.);
#50=FACE_OUTER_BOUND('',#87,.T.);
#51=FACE_OUTER_BOUND('',#88,.T.);
#52=FACE_OUTER_BOUND('',#89,.T.);
#53=FACE_OUTER_BOUND('',#90,.T.);
#54=FACE_OUTER_BOUND('',#91,.T.);
#55=FACE_OUTER_BOUND('',#92,.T.);
#56=FACE_OUTER_BOUND('',#93,.T.);
#57=FACE_OUTER_BOUND('',#94,.T.);
#58=FACE_OUTER_BOUND('',#96,.T.);
#59=FACE_OUTER_BOUND('',#97,.T.);
#60=FACE_OUTER_BOUND('',#98,.T.);
#61=FACE_OUTER_BOUND('',#99,.T.);
#62=FACE_OUTER_BOUND('',#101,.T.);
#63=FACE_OUTER_BOUND('',#102,.T.);
#64=FACE_OUTER_BOUND('',#105,.T.);
#65=FACE_OUTER_BOUND('',#106,.T.);
#66=FACE_OUTER_BOUND('',#107,.T.);
#67=FACE_OUTER_BOUND('',#108,.T.);
#68=FACE_OUTER_BOUND('',#109,.T.);
#69=FACE_OUTER_BOUND('',#110,.T.);
#70=FACE_OUTER_BOUND('',#111,.T.);
#71=FACE_OUTER_BOUND('',#112,.T.);
#72=FACE_OUTER_BOUND('',#113,.T.);
#73=FACE_OUTER_BOUND('',#114,.T.);
#74=FACE_OUTER_BOUND('',#115,.T.);
#75=EDGE_LOOP('',(#425,#426,#427,#428));
#76=EDGE_LOOP('',(#429,#430,#431,#432));
#77=EDGE_LOOP('',(#433,#434,#435,#436,#437,#438,#439,#440,#441,#442,#443,
#444,#445,#446));
#78=EDGE_LOOP('',(#447,#448,#449,#450,#451,#452,#453,#454));
#79=EDGE_LOOP('',(#455,#456,#457,#458));
#80=EDGE_LOOP('',(#459,#460,#461,#462,#463,#464,#465,#466,#467,#468,#469,
#470,#471,#472));
#81=EDGE_LOOP('',(#473));
#82=EDGE_LOOP('',(#474,#475,#476,#477,#478,#479,#480,#481,#482,#483,#484,
#485));
#83=EDGE_LOOP('',(#486,#487,#488,#489));
#84=EDGE_LOOP('',(#490,#491,#492,#493));
#85=EDGE_LOOP('',(#494,#495,#496,#497));
#86=EDGE_LOOP('',(#498,#499,#500,#501));
#87=EDGE_LOOP('',(#502,#503,#504,#505));
#88=EDGE_LOOP('',(#506,#507,#508,#509));
#89=EDGE_LOOP('',(#510,#511,#512,#513));
#90=EDGE_LOOP('',(#514,#515,#516,#517));
#91=EDGE_LOOP('',(#518,#519,#520,#521));
#92=EDGE_LOOP('',(#522,#523,#524,#525));
#93=EDGE_LOOP('',(#526,#527,#528,#529,#530,#531,#532,#533));
#94=EDGE_LOOP('',(#534,#535,#536,#537,#538,#539));
#95=EDGE_LOOP('',(#540));
#96=EDGE_LOOP('',(#541,#542,#543,#544));
#97=EDGE_LOOP('',(#545,#546,#547,#548));
#98=EDGE_LOOP('',(#549,#550,#551,#552));
#99=EDGE_LOOP('',(#553));
#100=EDGE_LOOP('',(#554));
#101=EDGE_LOOP('',(#555,#556,#557,#558));
#102=EDGE_LOOP('',(#559,#560,#561,#562,#563,#564));
#103=EDGE_LOOP('',(#565));
#104=EDGE_LOOP('',(#566));
#105=EDGE_LOOP('',(#567,#568,#569,#570));
#106=EDGE_LOOP('',(#571,#572,#573,#574));
#107=EDGE_LOOP('',(#575,#576,#577,#578));
#108=EDGE_LOOP('',(#579,#580,#581,#582));
#109=EDGE_LOOP('',(#583,#584,#585,#586));
#110=EDGE_LOOP('',(#587,#588,#589,#590));
#111=EDGE_LOOP('',(#591,#592,#593,#594));
#112=EDGE_LOOP('',(#595,#596,#597,#598));
#113=EDGE_LOOP('',(#599,#600,#601,#602));
#114=EDGE_LOOP('',(#603,#604,#605,#606));
#115=EDGE_LOOP('',(#607,#608,#609,#610));
#116=LINE('',#945,#177);
#117=LINE('',#951,#178);
#118=LINE('',#956,#179);
#119=LINE('',#960,#180);
#120=LINE('',#962,#181);
#121=LINE('',#964,#182);
#122=LINE('',#968,#183);
#123=LINE('',#972,#184);
#124=LINE('',#976,#185);
#125=LINE('',#980,#186);
#126=LINE('',#984,#187);
#127=LINE('',#988,#188);
#128=LINE('',#992,#189);
#129=LINE('',#996,#190);
#130=LINE('',#1001,#191);
#131=LINE('',#1002,#192);
#132=LINE('',#1003,#193);
#133=LINE('',#1007,#194);
#134=LINE('',#1011,#195);
#135=LINE('',#1015,#196);
#136=LINE('',#1019,#197);
#137=LINE('',#1023,#198);
#138=LINE('',#1028,#199);
#139=LINE('',#1035,#200);
#140=LINE('',#1036,#201);
#141=LINE('',#1037,#202);
#142=LINE('',#1039,#203);
#143=LINE('',#1041,#204);
#144=LINE('',#1042,#205);
#145=LINE('',#1043,#206);
#146=LINE('',#1044,#207);
#147=LINE('',#1046,#208);
#148=LINE('',#1047,#209);
#149=LINE('',#1049,#210);
#150=LINE('',#1050,#211);
#151=LINE('',#1053,#212);
#152=LINE('',#1056,#213);
#153=LINE('',#1059,#214);
#154=LINE('',#1060,#215);
#155=LINE('',#1063,#216);
#156=LINE('',#1067,#217);
#157=LINE('',#1068,#218);
#158=LINE('',#1071,#219);
#159=LINE('',#1075,#220);
#160=LINE('',#1076,#221);
#161=LINE('',#1079,#222);
#162=LINE('',#1082,#223);
#163=LINE('',#1089,#224);
#164=LINE('',#1093,#225);
#165=LINE('',#1095,#226);
#166=LINE('',#1096,#227);
#167=LINE('',#1098,#228);
#168=LINE('',#1100,#229);
#169=LINE('',#1105,#230);
#170=LINE('',#1110,#231);
#171=LINE('',#1112,#232);
#172=LINE('',#1114,#233);
#173=LINE('',#1117,#234);
#174=LINE('',#1118,#235);
#175=LINE('',#1120,#236);
#176=LINE('',#1121,#237);
#177=VECTOR('',#749,1.2);
#178=VECTOR('',#756,1.2);
#179=VECTOR('',#761,2.1);
#180=VECTOR('',#764,10.3);
#181=VECTOR('',#765,5.);
#182=VECTOR('',#766,10.3);
#183=VECTOR('',#769,2.1);
#184=VECTOR('',#772,22.6);
#185=VECTOR('',#775,9.6);
#186=VECTOR('',#778,22.6);
#187=VECTOR('',#781,7.3);
#188=VECTOR('',#784,5.3);
#189=VECTOR('',#787,7.3);
#190=VECTOR('',#790,5.3);
#191=VECTOR('',#795,9.6);
#192=VECTOR('',#796,7.);
#193=VECTOR('',#797,7.);
#194=VECTOR('',#800,2.47500000000001);
#195=VECTOR('',#803,2.3);
#196=VECTOR('',#806,2.3);
#197=VECTOR('',#809,2.47499999999999);
#198=VECTOR('',#812,22.6);
#199=VECTOR('',#817,22.6);
#200=VECTOR('',#824,4.65);
#201=VECTOR('',#825,2.3);
#202=VECTOR('',#826,7.);
#203=VECTOR('',#827,2.);
#204=VECTOR('',#828,5.4);
#205=VECTOR('',#829,2.);
#206=VECTOR('',#830,7.);
#207=VECTOR('',#831,2.3);
#208=VECTOR('',#834,7.);
#209=VECTOR('',#835,7.);
#210=VECTOR('',#838,7.);
#211=VECTOR('',#839,7.);
#212=VECTOR('',#842,1.65);
#213=VECTOR('',#845,1.65);
#214=VECTOR('',#848,1.65);
#215=VECTOR('',#849,7.3);
#216=VECTOR('',#852,1.65);
#217=VECTOR('',#857,1.65);
#218=VECTOR('',#858,5.3);
#219=VECTOR('',#861,1.65);
#220=VECTOR('',#866,1.65);
#221=VECTOR('',#867,7.3);
#222=VECTOR('',#870,1.65);
#223=VECTOR('',#875,5.3);
#224=VECTOR('',#882,2.3);
#225=VECTOR('',#887,2.3);
#226=VECTOR('',#890,2.3);
#227=VECTOR('',#891,2.3);
#228=VECTOR('',#894,2.3);
#229=VECTOR('',#897,2.3);
#230=VECTOR('',#904,2.125);
#231=VECTOR('',#909,10.3);
#232=VECTOR('',#910,5.);
#233=VECTOR('',#911,10.3);
#234=VECTOR('',#916,2.);
#235=VECTOR('',#917,2.);
#236=VECTOR('',#920,2.);
#237=VECTOR('',#921,2.);
#238=CIRCLE('',#677,1.2);
#239=CIRCLE('',#678,1.2);
#240=CIRCLE('',#680,1.2);
#241=CIRCLE('',#681,1.2);
#242=CIRCLE('',#683,0.2);
#243=CIRCLE('',#684,0.2);
#244=CIRCLE('',#685,0.2);
#245=CIRCLE('',#686,0.2);
#246=CIRCLE('',#687,0.2);
#247=CIRCLE('',#688,0.2);
#248=CIRCLE('',#689,1.1);
#249=CIRCLE('',#690,1.1);
#250=CIRCLE('',#691,1.1);
#251=CIRCLE('',#692,1.1);
#252=CIRCLE('',#695,0.2);
#253=CIRCLE('',#696,2.125);
#254=CIRCLE('',#697,0.2);
#255=CIRCLE('',#698,0.2);
#256=CIRCLE('',#699,0.2);
#257=CIRCLE('',#700,0.2);
#258=CIRCLE('',#701,0.2);
#259=CIRCLE('',#702,2.125);
#260=CIRCLE('',#707,1.1);
#261=CIRCLE('',#710,1.1);
#262=CIRCLE('',#713,1.1);
#263=CIRCLE('',#716,1.1);
#264=CIRCLE('',#720,2.125);
#265=CIRCLE('',#721,0.2);
#266=CIRCLE('',#722,0.2);
#267=CIRCLE('',#727,2.125);
#268=CIRCLE('',#730,0.2);
#269=CIRCLE('',#731,0.2);
#270=VERTEX_POINT('',#942);
#271=VERTEX_POINT('',#944);
#272=VERTEX_POINT('',#948);
#273=VERTEX_POINT('',#950);
#274=VERTEX_POINT('',#954);
#275=VERTEX_POINT('',#955);
#276=VERTEX_POINT('',#957);
#277=VERTEX_POINT('',#959);
#278=VERTEX_POINT('',#961);
#279=VERTEX_POINT('',#963);
#280=VERTEX_POINT('',#965);
#281=VERTEX_POINT('',#967);
#282=VERTEX_POINT('',#969);
#283=VERTEX_POINT('',#971);
#284=VERTEX_POINT('',#973);
#285=VERTEX_POINT('',#975);
#286=VERTEX_POINT('',#977);
#287=VERTEX_POINT('',#979);
#288=VERTEX_POINT('',#982);
#289=VERTEX_POINT('',#983);
#290=VERTEX_POINT('',#985);
#291=VERTEX_POINT('',#987);
#292=VERTEX_POINT('',#989);
#293=VERTEX_POINT('',#991);
#294=VERTEX_POINT('',#993);
#295=VERTEX_POINT('',#995);
#296=VERTEX_POINT('',#999);
#297=VERTEX_POINT('',#1000);
#298=VERTEX_POINT('',#1005);
#299=VERTEX_POINT('',#1006);
#300=VERTEX_POINT('',#1008);
#301=VERTEX_POINT('',#1010);
#302=VERTEX_POINT('',#1012);
#303=VERTEX_POINT('',#1014);
#304=VERTEX_POINT('',#1016);
#305=VERTEX_POINT('',#1018);
#306=VERTEX_POINT('',#1020);
#307=VERTEX_POINT('',#1022);
#308=VERTEX_POINT('',#1025);
#309=VERTEX_POINT('',#1027);
#310=VERTEX_POINT('',#1030);
#311=VERTEX_POINT('',#1033);
#312=VERTEX_POINT('',#1034);
#313=VERTEX_POINT('',#1038);
#314=VERTEX_POINT('',#1040);
#315=VERTEX_POINT('',#1052);
#316=VERTEX_POINT('',#1054);
#317=VERTEX_POINT('',#1058);
#318=VERTEX_POINT('',#1062);
#319=VERTEX_POINT('',#1066);
#320=VERTEX_POINT('',#1070);
#321=VERTEX_POINT('',#1074);
#322=VERTEX_POINT('',#1078);
#323=VERTEX_POINT('',#1085);
#324=VERTEX_POINT('',#1086);
#325=VERTEX_POINT('',#1088);
#326=VERTEX_POINT('',#1091);
#327=VERTEX_POINT('',#1102);
#328=VERTEX_POINT('',#1107);
#329=VERTEX_POINT('',#1109);
#330=VERTEX_POINT('',#1111);
#331=VERTEX_POINT('',#1113);
#332=EDGE_CURVE('',#270,#270,#238,.F.);
#333=EDGE_CURVE('',#270,#271,#116,.T.);
#334=EDGE_CURVE('',#271,#271,#239,.F.);
#335=EDGE_CURVE('',#272,#272,#240,.F.);
#336=EDGE_CURVE('',#272,#273,#117,.T.);
#337=EDGE_CURVE('',#273,#273,#241,.F.);
#338=EDGE_CURVE('',#274,#275,#118,.T.);
#339=EDGE_CURVE('',#275,#276,#242,.T.);
#340=EDGE_CURVE('',#277,#276,#119,.T.);
#341=EDGE_CURVE('',#278,#277,#120,.T.);
#342=EDGE_CURVE('',#279,#278,#121,.T.);
#343=EDGE_CURVE('',#279,#280,#243,.T.);
#344=EDGE_CURVE('',#280,#281,#122,.T.);
#345=EDGE_CURVE('',#281,#282,#244,.T.);
#346=EDGE_CURVE('',#283,#282,#123,.T.);
#347=EDGE_CURVE('',#283,#284,#245,.T.);
#348=EDGE_CURVE('',#285,#284,#124,.T.);
#349=EDGE_CURVE('',#285,#286,#246,.T.);
#350=EDGE_CURVE('',#286,#287,#125,.T.);
#351=EDGE_CURVE('',#287,#274,#247,.T.);
#352=EDGE_CURVE('',#288,#289,#126,.T.);
#353=EDGE_CURVE('',#290,#288,#248,.T.);
#354=EDGE_CURVE('',#291,#290,#127,.T.);
#355=EDGE_CURVE('',#292,#291,#249,.T.);
#356=EDGE_CURVE('',#293,#292,#128,.T.);
#357=EDGE_CURVE('',#294,#293,#250,.T.);
#358=EDGE_CURVE('',#295,#294,#129,.T.);
#359=EDGE_CURVE('',#289,#295,#251,.T.);
#360=EDGE_CURVE('',#296,#297,#130,.T.);
#361=EDGE_CURVE('',#296,#285,#131,.F.);
#362=EDGE_CURVE('',#284,#297,#132,.T.);
#363=EDGE_CURVE('',#298,#299,#133,.T.);
#364=EDGE_CURVE('',#298,#300,#252,.F.);
#365=EDGE_CURVE('',#301,#300,#134,.T.);
#366=EDGE_CURVE('',#302,#301,#253,.T.);
#367=EDGE_CURVE('',#303,#302,#135,.T.);
#368=EDGE_CURVE('',#303,#304,#254,.F.);
#369=EDGE_CURVE('',#305,#304,#136,.T.);
#370=EDGE_CURVE('',#305,#306,#255,.F.);
#371=EDGE_CURVE('',#307,#306,#137,.T.);
#372=EDGE_CURVE('',#307,#296,#256,.F.);
#373=EDGE_CURVE('',#297,#308,#257,.F.);
#374=EDGE_CURVE('',#308,#309,#138,.T.);
#375=EDGE_CURVE('',#309,#299,#258,.F.);
#376=EDGE_CURVE('',#310,#310,#259,.T.);
#377=EDGE_CURVE('',#311,#312,#139,.T.);
#378=EDGE_CURVE('',#311,#298,#140,.T.);
#379=EDGE_CURVE('',#299,#281,#141,.F.);
#380=EDGE_CURVE('',#280,#313,#142,.F.);
#381=EDGE_CURVE('',#314,#313,#143,.T.);
#382=EDGE_CURVE('',#314,#275,#144,.T.);
#383=EDGE_CURVE('',#274,#305,#145,.T.);
#384=EDGE_CURVE('',#304,#312,#146,.F.);
#385=EDGE_CURVE('',#286,#307,#147,.T.);
#386=EDGE_CURVE('',#306,#287,#148,.F.);
#387=EDGE_CURVE('',#308,#283,#149,.F.);
#388=EDGE_CURVE('',#282,#309,#150,.T.);
#389=EDGE_CURVE('',#315,#288,#151,.T.);
#390=EDGE_CURVE('',#316,#315,#260,.T.);
#391=EDGE_CURVE('',#316,#290,#152,.T.);
#392=EDGE_CURVE('',#317,#289,#153,.T.);
#393=EDGE_CURVE('',#315,#317,#154,.T.);
#394=EDGE_CURVE('',#318,#295,#155,.T.);
#395=EDGE_CURVE('',#317,#318,#261,.T.);
#396=EDGE_CURVE('',#319,#294,#156,.T.);
#397=EDGE_CURVE('',#318,#319,#157,.T.);
#398=EDGE_CURVE('',#320,#293,#158,.T.);
#399=EDGE_CURVE('',#319,#320,#262,.T.);
#400=EDGE_CURVE('',#321,#292,#159,.T.);
#401=EDGE_CURVE('',#320,#321,#160,.T.);
#402=EDGE_CURVE('',#322,#291,#161,.T.);
#403=EDGE_CURVE('',#321,#322,#263,.T.);
#404=EDGE_CURVE('',#322,#316,#162,.T.);
#405=EDGE_CURVE('',#323,#324,#264,.T.);
#406=EDGE_CURVE('',#324,#325,#163,.T.);
#407=EDGE_CURVE('',#325,#311,#265,.F.);
#408=EDGE_CURVE('',#312,#326,#266,.F.);
#409=EDGE_CURVE('',#326,#323,#164,.T.);
#410=EDGE_CURVE('',#324,#301,#165,.T.);
#411=EDGE_CURVE('',#323,#302,#166,.T.);
#412=EDGE_CURVE('',#326,#303,#167,.T.);
#413=EDGE_CURVE('',#300,#325,#168,.F.);
#414=EDGE_CURVE('',#327,#327,#267,.T.);
#415=EDGE_CURVE('',#327,#310,#169,.T.);
#416=EDGE_CURVE('',#313,#328,#268,.F.);
#417=EDGE_CURVE('',#328,#329,#170,.T.);
#418=EDGE_CURVE('',#329,#330,#171,.T.);
#419=EDGE_CURVE('',#330,#331,#172,.T.);
#420=EDGE_CURVE('',#331,#314,#269,.F.);
#421=EDGE_CURVE('',#328,#279,#173,.T.);
#422=EDGE_CURVE('',#329,#278,#174,.T.);
#423=EDGE_CURVE('',#276,#331,#175,.F.);
#424=EDGE_CURVE('',#330,#277,#176,.T.);
#425=ORIENTED_EDGE('',*,*,#332,.F.);
#426=ORIENTED_EDGE('',*,*,#333,.T.);
#427=ORIENTED_EDGE('',*,*,#334,.F.);
#428=ORIENTED_EDGE('',*,*,#333,.F.);
#429=ORIENTED_EDGE('',*,*,#335,.F.);
#430=ORIENTED_EDGE('',*,*,#336,.T.);
#431=ORIENTED_EDGE('',*,*,#337,.F.);
#432=ORIENTED_EDGE('',*,*,#336,.F.);
#433=ORIENTED_EDGE('',*,*,#338,.T.);
#434=ORIENTED_EDGE('',*,*,#339,.T.);
#435=ORIENTED_EDGE('',*,*,#340,.F.);
#436=ORIENTED_EDGE('',*,*,#341,.F.);
#437=ORIENTED_EDGE('',*,*,#342,.F.);
#438=ORIENTED_EDGE('',*,*,#343,.T.);
#439=ORIENTED_EDGE('',*,*,#344,.T.);
#440=ORIENTED_EDGE('',*,*,#345,.T.);
#441=ORIENTED_EDGE('',*,*,#346,.F.);
#442=ORIENTED_EDGE('',*,*,#347,.T.);
#443=ORIENTED_EDGE('',*,*,#348,.F.);
#444=ORIENTED_EDGE('',*,*,#349,.T.);
#445=ORIENTED_EDGE('',*,*,#350,.T.);
#446=ORIENTED_EDGE('',*,*,#351,.T.);
#447=ORIENTED_EDGE('',*,*,#352,.F.);
#448=ORIENTED_EDGE('',*,*,#353,.F.);
#449=ORIENTED_EDGE('',*,*,#354,.F.);
#450=ORIENTED_EDGE('',*,*,#355,.F.);
#451=ORIENTED_EDGE('',*,*,#356,.F.);
#452=ORIENTED_EDGE('',*,*,#357,.F.);
#453=ORIENTED_EDGE('',*,*,#358,.F.);
#454=ORIENTED_EDGE('',*,*,#359,.F.);
#455=ORIENTED_EDGE('',*,*,#360,.F.);
#456=ORIENTED_EDGE('',*,*,#361,.T.);
#457=ORIENTED_EDGE('',*,*,#348,.T.);
#458=ORIENTED_EDGE('',*,*,#362,.T.);
#459=ORIENTED_EDGE('',*,*,#363,.F.);
#460=ORIENTED_EDGE('',*,*,#364,.T.);
#461=ORIENTED_EDGE('',*,*,#365,.F.);
#462=ORIENTED_EDGE('',*,*,#366,.F.);
#463=ORIENTED_EDGE('',*,*,#367,.F.);
#464=ORIENTED_EDGE('',*,*,#368,.T.);
#465=ORIENTED_EDGE('',*,*,#369,.F.);
#466=ORIENTED_EDGE('',*,*,#370,.T.);
#467=ORIENTED_EDGE('',*,*,#371,.F.);
#468=ORIENTED_EDGE('',*,*,#372,.T.);
#469=ORIENTED_EDGE('',*,*,#360,.T.);
#470=ORIENTED_EDGE('',*,*,#373,.T.);
#471=ORIENTED_EDGE('',*,*,#374,.T.);
#472=ORIENTED_EDGE('',*,*,#375,.T.);
#473=ORIENTED_EDGE('',*,*,#376,.F.);
#474=ORIENTED_EDGE('',*,*,#377,.F.);
#475=ORIENTED_EDGE('',*,*,#378,.T.);
#476=ORIENTED_EDGE('',*,*,#363,.T.);
#477=ORIENTED_EDGE('',*,*,#379,.T.);
#478=ORIENTED_EDGE('',*,*,#344,.F.);
#479=ORIENTED_EDGE('',*,*,#380,.T.);
#480=ORIENTED_EDGE('',*,*,#381,.F.);
#481=ORIENTED_EDGE('',*,*,#382,.T.);
#482=ORIENTED_EDGE('',*,*,#338,.F.);
#483=ORIENTED_EDGE('',*,*,#383,.T.);
#484=ORIENTED_EDGE('',*,*,#369,.T.);
#485=ORIENTED_EDGE('',*,*,#384,.T.);
#486=ORIENTED_EDGE('',*,*,#350,.F.);
#487=ORIENTED_EDGE('',*,*,#385,.T.);
#488=ORIENTED_EDGE('',*,*,#371,.T.);
#489=ORIENTED_EDGE('',*,*,#386,.T.);
#490=ORIENTED_EDGE('',*,*,#374,.F.);
#491=ORIENTED_EDGE('',*,*,#387,.T.);
#492=ORIENTED_EDGE('',*,*,#346,.T.);
#493=ORIENTED_EDGE('',*,*,#388,.T.);
#494=ORIENTED_EDGE('',*,*,#353,.T.);
#495=ORIENTED_EDGE('',*,*,#389,.F.);
#496=ORIENTED_EDGE('',*,*,#390,.F.);
#497=ORIENTED_EDGE('',*,*,#391,.T.);
#498=ORIENTED_EDGE('',*,*,#352,.T.);
#499=ORIENTED_EDGE('',*,*,#392,.F.);
#500=ORIENTED_EDGE('',*,*,#393,.F.);
#501=ORIENTED_EDGE('',*,*,#389,.T.);
#502=ORIENTED_EDGE('',*,*,#359,.T.);
#503=ORIENTED_EDGE('',*,*,#394,.F.);
#504=ORIENTED_EDGE('',*,*,#395,.F.);
#505=ORIENTED_EDGE('',*,*,#392,.T.);
#506=ORIENTED_EDGE('',*,*,#358,.T.);
#507=ORIENTED_EDGE('',*,*,#396,.F.);
#508=ORIENTED_EDGE('',*,*,#397,.F.);
#509=ORIENTED_EDGE('',*,*,#394,.T.);
#510=ORIENTED_EDGE('',*,*,#357,.T.);
#511=ORIENTED_EDGE('',*,*,#398,.F.);
#512=ORIENTED_EDGE('',*,*,#399,.F.);
#513=ORIENTED_EDGE('',*,*,#396,.T.);
#514=ORIENTED_EDGE('',*,*,#356,.T.);
#515=ORIENTED_EDGE('',*,*,#400,.F.);
#516=ORIENTED_EDGE('',*,*,#401,.F.);
#517=ORIENTED_EDGE('',*,*,#398,.T.);
#518=ORIENTED_EDGE('',*,*,#355,.T.);
#519=ORIENTED_EDGE('',*,*,#402,.F.);
#520=ORIENTED_EDGE('',*,*,#403,.F.);
#521=ORIENTED_EDGE('',*,*,#400,.T.);
#522=ORIENTED_EDGE('',*,*,#354,.T.);
#523=ORIENTED_EDGE('',*,*,#391,.F.);
#524=ORIENTED_EDGE('',*,*,#404,.F.);
#525=ORIENTED_EDGE('',*,*,#402,.T.);
#526=ORIENTED_EDGE('',*,*,#390,.T.);
#527=ORIENTED_EDGE('',*,*,#393,.T.);
#528=ORIENTED_EDGE('',*,*,#395,.T.);
#529=ORIENTED_EDGE('',*,*,#397,.T.);
#530=ORIENTED_EDGE('',*,*,#399,.T.);
#531=ORIENTED_EDGE('',*,*,#401,.T.);
#532=ORIENTED_EDGE('',*,*,#403,.T.);
#533=ORIENTED_EDGE('',*,*,#404,.T.);
#534=ORIENTED_EDGE('',*,*,#405,.T.);
#535=ORIENTED_EDGE('',*,*,#406,.T.);
#536=ORIENTED_EDGE('',*,*,#407,.T.);
#537=ORIENTED_EDGE('',*,*,#377,.T.);
#538=ORIENTED_EDGE('',*,*,#408,.T.);
#539=ORIENTED_EDGE('',*,*,#409,.T.);
#540=ORIENTED_EDGE('',*,*,#337,.T.);
#541=ORIENTED_EDGE('',*,*,#366,.T.);
#542=ORIENTED_EDGE('',*,*,#410,.F.);
#543=ORIENTED_EDGE('',*,*,#405,.F.);
#544=ORIENTED_EDGE('',*,*,#411,.T.);
#545=ORIENTED_EDGE('',*,*,#409,.F.);
#546=ORIENTED_EDGE('',*,*,#412,.T.);
#547=ORIENTED_EDGE('',*,*,#367,.T.);
#548=ORIENTED_EDGE('',*,*,#411,.F.);
#549=ORIENTED_EDGE('',*,*,#365,.T.);
#550=ORIENTED_EDGE('',*,*,#413,.T.);
#551=ORIENTED_EDGE('',*,*,#406,.F.);
#552=ORIENTED_EDGE('',*,*,#410,.T.);
#553=ORIENTED_EDGE('',*,*,#414,.T.);
#554=ORIENTED_EDGE('',*,*,#334,.T.);
#555=ORIENTED_EDGE('',*,*,#414,.F.);
#556=ORIENTED_EDGE('',*,*,#415,.T.);
#557=ORIENTED_EDGE('',*,*,#376,.T.);
#558=ORIENTED_EDGE('',*,*,#415,.F.);
#559=ORIENTED_EDGE('',*,*,#381,.T.);
#560=ORIENTED_EDGE('',*,*,#416,.T.);
#561=ORIENTED_EDGE('',*,*,#417,.T.);
#562=ORIENTED_EDGE('',*,*,#418,.T.);
#563=ORIENTED_EDGE('',*,*,#419,.T.);
#564=ORIENTED_EDGE('',*,*,#420,.T.);
#565=ORIENTED_EDGE('',*,*,#335,.T.);
#566=ORIENTED_EDGE('',*,*,#332,.T.);
#567=ORIENTED_EDGE('',*,*,#417,.F.);
#568=ORIENTED_EDGE('',*,*,#421,.T.);
#569=ORIENTED_EDGE('',*,*,#342,.T.);
#570=ORIENTED_EDGE('',*,*,#422,.F.);
#571=ORIENTED_EDGE('',*,*,#340,.T.);
#572=ORIENTED_EDGE('',*,*,#423,.T.);
#573=ORIENTED_EDGE('',*,*,#419,.F.);
#574=ORIENTED_EDGE('',*,*,#424,.T.);
#575=ORIENTED_EDGE('',*,*,#341,.T.);
#576=ORIENTED_EDGE('',*,*,#424,.F.);
#577=ORIENTED_EDGE('',*,*,#418,.F.);
#578=ORIENTED_EDGE('',*,*,#422,.T.);
#579=ORIENTED_EDGE('',*,*,#407,.F.);
#580=ORIENTED_EDGE('',*,*,#413,.F.);
#581=ORIENTED_EDGE('',*,*,#364,.F.);
#582=ORIENTED_EDGE('',*,*,#378,.F.);
#583=ORIENTED_EDGE('',*,*,#408,.F.);
#584=ORIENTED_EDGE('',*,*,#384,.F.);
#585=ORIENTED_EDGE('',*,*,#368,.F.);
#586=ORIENTED_EDGE('',*,*,#412,.F.);
#587=ORIENTED_EDGE('',*,*,#420,.F.);
#588=ORIENTED_EDGE('',*,*,#423,.F.);
#589=ORIENTED_EDGE('',*,*,#339,.F.);
#590=ORIENTED_EDGE('',*,*,#382,.F.);
#591=ORIENTED_EDGE('',*,*,#416,.F.);
#592=ORIENTED_EDGE('',*,*,#380,.F.);
#593=ORIENTED_EDGE('',*,*,#343,.F.);
#594=ORIENTED_EDGE('',*,*,#421,.F.);
#595=ORIENTED_EDGE('',*,*,#349,.F.);
#596=ORIENTED_EDGE('',*,*,#361,.F.);
#597=ORIENTED_EDGE('',*,*,#372,.F.);
#598=ORIENTED_EDGE('',*,*,#385,.F.);
#599=ORIENTED_EDGE('',*,*,#347,.F.);
#600=ORIENTED_EDGE('',*,*,#387,.F.);
#601=ORIENTED_EDGE('',*,*,#373,.F.);
#602=ORIENTED_EDGE('',*,*,#362,.F.);
#603=ORIENTED_EDGE('',*,*,#345,.F.);
#604=ORIENTED_EDGE('',*,*,#379,.F.);
#605=ORIENTED_EDGE('',*,*,#375,.F.);
#606=ORIENTED_EDGE('',*,*,#388,.F.);
#607=ORIENTED_EDGE('',*,*,#351,.F.);
#608=ORIENTED_EDGE('',*,*,#386,.F.);
#609=ORIENTED_EDGE('',*,*,#370,.F.);
#610=ORIENTED_EDGE('',*,*,#383,.F.);
#611=CYLINDRICAL_SURFACE('',#676,1.2);
#612=CYLINDRICAL_SURFACE('',#679,1.2);
#613=CYLINDRICAL_SURFACE('',#706,1.1);
#614=CYLINDRICAL_SURFACE('',#709,1.1);
#615=CYLINDRICAL_SURFACE('',#712,1.1);
#616=CYLINDRICAL_SURFACE('',#715,1.1);
#617=CYLINDRICAL_SURFACE('',#723,2.125);
#618=CYLINDRICAL_SURFACE('',#728,2.125);
#619=CYLINDRICAL_SURFACE('',#735,0.2);
#620=CYLINDRICAL_SURFACE('',#736,0.2);
#621=CYLINDRICAL_SURFACE('',#737,0.2);
#622=CYLINDRICAL_SURFACE('',#738,0.2);
#623=CYLINDRICAL_SURFACE('',#739,0.2);
#624=CYLINDRICAL_SURFACE('',#740,0.2);
#625=CYLINDRICAL_SURFACE('',#741,0.2);
#626=CYLINDRICAL_SURFACE('',#742,0.2);
#627=ADVANCED_FACE('',(#40),#611,.F.);
#628=ADVANCED_FACE('',(#41),#612,.F.);
#629=ADVANCED_FACE('',(#42,#15),#21,.T.);
#630=ADVANCED_FACE('',(#43),#22,.F.);
#631=ADVANCED_FACE('',(#44,#16),#23,.F.);
#632=ADVANCED_FACE('',(#45),#24,.T.);
#633=ADVANCED_FACE('',(#46),#25,.T.);
#634=ADVANCED_FACE('',(#47),#26,.F.);
#635=ADVANCED_FACE('',(#48),#613,.T.);
#636=ADVANCED_FACE('',(#49),#27,.F.);
#637=ADVANCED_FACE('',(#50),#614,.T.);
#638=ADVANCED_FACE('',(#51),#28,.F.);
#639=ADVANCED_FACE('',(#52),#615,.T.);
#640=ADVANCED_FACE('',(#53),#29,.F.);
#641=ADVANCED_FACE('',(#54),#616,.T.);
#642=ADVANCED_FACE('',(#55),#30,.F.);
#643=ADVANCED_FACE('',(#56),#31,.T.);
#644=ADVANCED_FACE('',(#57,#17),#32,.T.);
#645=ADVANCED_FACE('',(#58),#617,.F.);
#646=ADVANCED_FACE('',(#59),#33,.F.);
#647=ADVANCED_FACE('',(#60),#34,.F.);
#648=ADVANCED_FACE('',(#61,#18),#35,.T.);
#649=ADVANCED_FACE('',(#62),#618,.F.);
#650=ADVANCED_FACE('',(#63,#19,#20),#36,.T.);
#651=ADVANCED_FACE('',(#64),#37,.F.);
#652=ADVANCED_FACE('',(#65),#38,.F.);
#653=ADVANCED_FACE('',(#66),#39,.F.);
#654=ADVANCED_FACE('',(#67),#619,.T.);
#655=ADVANCED_FACE('',(#68),#620,.T.);
#656=ADVANCED_FACE('',(#69),#621,.T.);
#657=ADVANCED_FACE('',(#70),#622,.T.);
#658=ADVANCED_FACE('',(#71),#623,.T.);
#659=ADVANCED_FACE('',(#72),#624,.T.);
#660=ADVANCED_FACE('',(#73),#625,.T.);
#661=ADVANCED_FACE('',(#74),#626,.T.);
#662=CLOSED_SHELL('',(#627,#628,#629,#630,#631,#632,#633,#634,#635,#636,
#637,#638,#639,#640,#641,#642,#643,#644,#645,#646,#647,#648,#649,#650,#651,
#652,#653,#654,#655,#656,#657,#658,#659,#660,#661));
#663=DERIVED_UNIT_ELEMENT(#665,1.);
#664=DERIVED_UNIT_ELEMENT(#1136,-3.);
#665=(
MASS_UNIT()
NAMED_UNIT(*)
SI_UNIT(.KILO.,.GRAM.)
);
#666=DERIVED_UNIT((#663,#664));
#667=MEASURE_REPRESENTATION_ITEM('density measure',
POSITIVE_RATIO_MEASURE(7850.),#666);
#668=PROPERTY_DEFINITION_REPRESENTATION(#673,#670);
#669=PROPERTY_DEFINITION_REPRESENTATION(#674,#671);
#670=REPRESENTATION('material name',(#672),#1133);
#671=REPRESENTATION('density',(#667),#1133);
#672=DESCRIPTIVE_REPRESENTATION_ITEM('Steel','Steel');
#673=PROPERTY_DEFINITION('material property','material name',#1143);
#674=PROPERTY_DEFINITION('material property','density of part',#1143);
#675=AXIS2_PLACEMENT_3D('',#940,#743,#744);
#676=AXIS2_PLACEMENT_3D('',#941,#745,#746);
#677=AXIS2_PLACEMENT_3D('',#943,#747,#748);
#678=AXIS2_PLACEMENT_3D('',#946,#750,#751);
#679=AXIS2_PLACEMENT_3D('',#947,#752,#753);
#680=AXIS2_PLACEMENT_3D('',#949,#754,#755);
#681=AXIS2_PLACEMENT_3D('',#952,#757,#758);
#682=AXIS2_PLACEMENT_3D('',#953,#759,#760);
#683=AXIS2_PLACEMENT_3D('',#958,#762,#763);
#684=AXIS2_PLACEMENT_3D('',#966,#767,#768);
#685=AXIS2_PLACEMENT_3D('',#970,#770,#771);
#686=AXIS2_PLACEMENT_3D('',#974,#773,#774);
#687=AXIS2_PLACEMENT_3D('',#978,#776,#777);
#688=AXIS2_PLACEMENT_3D('',#981,#779,#780);
#689=AXIS2_PLACEMENT_3D('',#986,#782,#783);
#690=AXIS2_PLACEMENT_3D('',#990,#785,#786);
#691=AXIS2_PLACEMENT_3D('',#994,#788,#789);
#692=AXIS2_PLACEMENT_3D('',#997,#791,#792);
#693=AXIS2_PLACEMENT_3D('',#998,#793,#794);
#694=AXIS2_PLACEMENT_3D('',#1004,#798,#799);
#695=AXIS2_PLACEMENT_3D('',#1009,#801,#802);
#696=AXIS2_PLACEMENT_3D('',#1013,#804,#805);
#697=AXIS2_PLACEMENT_3D('',#1017,#807,#808);
#698=AXIS2_PLACEMENT_3D('',#1021,#810,#811);
#699=AXIS2_PLACEMENT_3D('',#1024,#813,#814);
#700=AXIS2_PLACEMENT_3D('',#1026,#815,#816);
#701=AXIS2_PLACEMENT_3D('',#1029,#818,#819);
#702=AXIS2_PLACEMENT_3D('',#1031,#820,#821);
#703=AXIS2_PLACEMENT_3D('',#1032,#822,#823);
#704=AXIS2_PLACEMENT_3D('',#1045,#832,#833);
#705=AXIS2_PLACEMENT_3D('',#1048,#836,#837);
#706=AXIS2_PLACEMENT_3D('',#1051,#840,#841);
#707=AXIS2_PLACEMENT_3D('',#1055,#843,#844);
#708=AXIS2_PLACEMENT_3D('',#1057,#846,#847);
#709=AXIS2_PLACEMENT_3D('',#1061,#850,#851);
#710=AXIS2_PLACEMENT_3D('',#1064,#853,#854);
#711=AXIS2_PLACEMENT_3D('',#1065,#855,#856);
#712=AXIS2_PLACEMENT_3D('',#1069,#859,#860);
#713=AXIS2_PLACEMENT_3D('',#1072,#862,#863);
#714=AXIS2_PLACEMENT_3D('',#1073,#864,#865);
#715=AXIS2_PLACEMENT_3D('',#1077,#868,#869);
#716=AXIS2_PLACEMENT_3D('',#1080,#871,#872);
#717=AXIS2_PLACEMENT_3D('',#1081,#873,#874);
#718=AXIS2_PLACEMENT_3D('',#1083,#876,#877);
#719=AXIS2_PLACEMENT_3D('',#1084,#878,#879);
#720=AXIS2_PLACEMENT_3D('',#1087,#880,#881);
#721=AXIS2_PLACEMENT_3D('',#1090,#883,#884);
#722=AXIS2_PLACEMENT_3D('',#1092,#885,#886);
#723=AXIS2_PLACEMENT_3D('',#1094,#888,#889);
#724=AXIS2_PLACEMENT_3D('',#1097,#892,#893);
#725=AXIS2_PLACEMENT_3D('',#1099,#895,#896);
#726=AXIS2_PLACEMENT_3D('',#1101,#898,#899);
#727=AXIS2_PLACEMENT_3D('',#1103,#900,#901);
#728=AXIS2_PLACEMENT_3D('',#1104,#902,#903);
#729=AXIS2_PLACEMENT_3D('',#1106,#905,#906);
#730=AXIS2_PLACEMENT_3D('',#1108,#907,#908);
#731=AXIS2_PLACEMENT_3D('',#1115,#912,#913);
#732=AXIS2_PLACEMENT_3D('',#1116,#914,#915);
#733=AXIS2_PLACEMENT_3D('',#1119,#918,#919);
#734=AXIS2_PLACEMENT_3D('',#1122,#922,#923);
#735=AXIS2_PLACEMENT_3D('',#1123,#924,#925);
#736=AXIS2_PLACEMENT_3D('',#1124,#926,#927);
#737=AXIS2_PLACEMENT_3D('',#1125,#928,#929);
#738=AXIS2_PLACEMENT_3D('',#1126,#930,#931);
#739=AXIS2_PLACEMENT_3D('',#1127,#932,#933);
#740=AXIS2_PLACEMENT_3D('',#1128,#934,#935);
#741=AXIS2_PLACEMENT_3D('',#1129,#936,#937);
#742=AXIS2_PLACEMENT_3D('',#1130,#938,#939);
#743=DIRECTION('axis',(0.,0.,1.));
#744=DIRECTION('refdir',(1.,0.,0.));
#745=DIRECTION('center_axis',(1.,0.,0.));
#746=DIRECTION('ref_axis',(0.,0.,-1.));
#747=DIRECTION('center_axis',(-1.,0.,0.));
#748=DIRECTION('ref_axis',(0.,0.,1.));
#749=DIRECTION('',(1.,0.,0.));
#750=DIRECTION('center_axis',(1.,0.,0.));
#751=DIRECTION('ref_axis',(0.,0.,-1.));
#752=DIRECTION('center_axis',(1.,0.,0.));
#753=DIRECTION('ref_axis',(0.,0.,-1.));
#754=DIRECTION('center_axis',(-1.,0.,0.));
#755=DIRECTION('ref_axis',(0.,0.,1.));
#756=DIRECTION('',(1.,0.,0.));
#757=DIRECTION('center_axis',(1.,0.,0.));
#758=DIRECTION('ref_axis',(0.,0.,-1.));
#759=DIRECTION('center_axis',(-1.,0.,0.));
#760=DIRECTION('ref_axis',(0.,0.,1.));
#761=DIRECTION('',(0.,0.,-1.));
#762=DIRECTION('center_axis',(-1.,0.,0.));
#763=DIRECTION('ref_axis',(0.,0.,1.));
#764=DIRECTION('',(0.,1.,-1.07788643167491E-16));
#765=DIRECTION('',(0.,0.,1.));
#766=DIRECTION('',(0.,-1.,1.07788643167491E-16));
#767=DIRECTION('center_axis',(-1.,0.,0.));
#768=DIRECTION('ref_axis',(0.,0.,1.));
#769=DIRECTION('',(0.,0.,-1.));
#770=DIRECTION('center_axis',(-1.,0.,0.));
#771=DIRECTION('ref_axis',(0.,0.,1.));
#772=DIRECTION('',(0.,1.,0.));
#773=DIRECTION('center_axis',(-1.,0.,0.));
#774=DIRECTION('ref_axis',(0.,0.,1.));
#775=DIRECTION('',(0.,0.,-1.));
#776=DIRECTION('center_axis',(-1.,0.,0.));
#777=DIRECTION('ref_axis',(0.,0.,1.));
#778=DIRECTION('',(0.,1.,0.));
#779=DIRECTION('center_axis',(-1.,0.,0.));
#780=DIRECTION('ref_axis',(0.,0.,1.));
#781=DIRECTION('',(0.,0.,1.));
#782=DIRECTION('center_axis',(-1.,0.,0.));
#783=DIRECTION('ref_axis',(0.,0.,1.));
#784=DIRECTION('',(0.,-1.,1.04738021191052E-16));
#785=DIRECTION('center_axis',(-1.,0.,0.));
#786=DIRECTION('ref_axis',(0.,0.,1.));
#787=DIRECTION('',(0.,0.,-1.));
#788=DIRECTION('center_axis',(-1.,0.,0.));
#789=DIRECTION('ref_axis',(0.,0.,-1.));
#790=DIRECTION('',(0.,1.,-2.09476042382105E-16));
#791=DIRECTION('center_axis',(-1.,0.,0.));
#792=DIRECTION('ref_axis',(0.,0.,1.));
#793=DIRECTION('center_axis',(0.,1.,0.));
#794=DIRECTION('ref_axis',(0.,0.,1.));
#795=DIRECTION('',(0.,0.,-1.));
#796=DIRECTION('',(1.,0.,0.));
#797=DIRECTION('',(1.,0.,0.));
#798=DIRECTION('center_axis',(-1.,0.,0.));
#799=DIRECTION('ref_axis',(0.,0.,1.));
#800=DIRECTION('',(0.,0.,-1.));
#801=DIRECTION('center_axis',(-1.,0.,0.));
#802=DIRECTION('ref_axis',(0.,0.,1.));
#803=DIRECTION('',(0.,1.,3.13758680872327E-15));
#804=DIRECTION('center_axis',(1.,0.,0.));
#805=DIRECTION('ref_axis',(0.,0.,-1.));
#806=DIRECTION('',(0.,-1.,-3.25826322444339E-15));
#807=DIRECTION('center_axis',(-1.,0.,0.));
#808=DIRECTION('ref_axis',(0.,0.,1.));
#809=DIRECTION('',(0.,0.,-1.));
#810=DIRECTION('center_axis',(-1.,0.,0.));
#811=DIRECTION('ref_axis',(0.,0.,1.));
#812=DIRECTION('',(0.,1.,0.));
#813=DIRECTION('center_axis',(-1.,0.,0.));
#814=DIRECTION('ref_axis',(0.,0.,1.));
#815=DIRECTION('center_axis',(-1.,0.,0.));
#816=DIRECTION('ref_axis',(0.,0.,1.));
#817=DIRECTION('',(0.,1.,0.));
#818=DIRECTION('center_axis',(-1.,0.,0.));
#819=DIRECTION('ref_axis',(0.,0.,1.));
#820=DIRECTION('center_axis',(1.,0.,0.));
#821=DIRECTION('ref_axis',(0.,0.,-1.));
#822=DIRECTION('center_axis',(0.,1.,0.));
#823=DIRECTION('ref_axis',(0.,0.,1.));
#824=DIRECTION('',(0.,0.,1.));
#825=DIRECTION('',(1.,0.,0.));
#826=DIRECTION('',(1.,0.,0.));
#827=DIRECTION('',(-1.,0.,0.));
#828=DIRECTION('',(0.,0.,-1.));
#829=DIRECTION('',(-1.,0.,0.));
#830=DIRECTION('',(1.,0.,0.));
#831=DIRECTION('',(1.,0.,0.));
#832=DIRECTION('center_axis',(0.,0.,1.));
#833=DIRECTION('ref_axis',(1.,0.,0.));
#834=DIRECTION('',(1.,0.,0.));
#835=DIRECTION('',(1.,0.,0.));
#836=DIRECTION('center_axis',(0.,0.,1.));
#837=DIRECTION('ref_axis',(1.,0.,0.));
#838=DIRECTION('',(1.,0.,0.));
#839=DIRECTION('',(1.,0.,0.));
#840=DIRECTION('center_axis',(1.,0.,0.));
#841=DIRECTION('ref_axis',(0.,0.,-1.));
#842=DIRECTION('',(1.,0.,0.));
#843=DIRECTION('center_axis',(-1.,0.,0.));
#844=DIRECTION('ref_axis',(0.,0.,1.));
#845=DIRECTION('',(1.,0.,0.));
#846=DIRECTION('center_axis',(0.,1.,0.));
#847=DIRECTION('ref_axis',(0.,0.,1.));
#848=DIRECTION('',(1.,0.,0.));
#849=DIRECTION('',(0.,0.,1.));
#850=DIRECTION('center_axis',(1.,0.,0.));
#851=DIRECTION('ref_axis',(0.,0.,-1.));
#852=DIRECTION('',(1.,0.,0.));
#853=DIRECTION('center_axis',(-1.,0.,0.));
#854=DIRECTION('ref_axis',(0.,0.,1.));
#855=DIRECTION('center_axis',(0.,-1.6365315811102E-16,-1.));
#856=DIRECTION('ref_axis',(-1.,0.,0.));
#857=DIRECTION('',(1.,0.,0.));
#858=DIRECTION('',(0.,1.,-2.09476042382105E-16));
#859=DIRECTION('center_axis',(1.,0.,0.));
#860=DIRECTION('ref_axis',(0.,0.,-1.));
#861=DIRECTION('',(1.,0.,0.));
#862=DIRECTION('center_axis',(-1.,0.,0.));
#863=DIRECTION('ref_axis',(0.,0.,-1.));
#864=DIRECTION('center_axis',(0.,-1.,0.));
#865=DIRECTION('ref_axis',(0.,0.,-1.));
#866=DIRECTION('',(1.,0.,0.));
#867=DIRECTION('',(0.,0.,-1.));
#868=DIRECTION('center_axis',(1.,0.,0.));
#869=DIRECTION('ref_axis',(0.,0.,-1.));
#870=DIRECTION('',(1.,0.,0.));
#871=DIRECTION('center_axis',(-1.,0.,0.));
#872=DIRECTION('ref_axis',(0.,0.,1.));
#873=DIRECTION('center_axis',(0.,1.6365315811102E-16,1.));
#874=DIRECTION('ref_axis',(1.,0.,0.));
#875=DIRECTION('',(0.,-1.,1.04738021191052E-16));
#876=DIRECTION('center_axis',(-1.,0.,0.));
#877=DIRECTION('ref_axis',(0.,0.,1.));
#878=DIRECTION('center_axis',(1.,0.,0.));
#879=DIRECTION('ref_axis',(0.,0.,-1.));
#880=DIRECTION('center_axis',(1.,0.,0.));
#881=DIRECTION('ref_axis',(0.,0.,-1.));
#882=DIRECTION('',(0.,1.,3.13758680872327E-15));
#883=DIRECTION('center_axis',(1.,0.,0.));
#884=DIRECTION('ref_axis',(0.,0.,-1.));
#885=DIRECTION('center_axis',(1.,0.,0.));
#886=DIRECTION('ref_axis',(0.,0.,-1.));
#887=DIRECTION('',(0.,-1.,-3.25826322444339E-15));
#888=DIRECTION('center_axis',(1.,0.,0.));
#889=DIRECTION('ref_axis',(0.,0.,-1.));
#890=DIRECTION('',(1.,0.,0.));
#891=DIRECTION('',(1.,0.,0.));
#892=DIRECTION('center_axis',(0.,-3.29597460435594E-15,1.));
#893=DIRECTION('ref_axis',(1.,0.,0.));
#894=DIRECTION('',(1.,0.,0.));
#895=DIRECTION('center_axis',(0.,3.29597460435594E-15,-1.));
#896=DIRECTION('ref_axis',(-1.,0.,0.));
#897=DIRECTION('',(1.,0.,0.));
#898=DIRECTION('center_axis',(1.,0.,0.));
#899=DIRECTION('ref_axis',(0.,0.,-1.));
#900=DIRECTION('center_axis',(1.,0.,0.));
#901=DIRECTION('ref_axis',(0.,0.,-1.));
#902=DIRECTION('center_axis',(1.,0.,0.));
#903=DIRECTION('ref_axis',(0.,0.,-1.));
#904=DIRECTION('',(1.,0.,0.));
#905=DIRECTION('center_axis',(-1.,0.,0.));
#906=DIRECTION('ref_axis',(0.,0.,1.));
#907=DIRECTION('center_axis',(-1.,0.,0.));
#908=DIRECTION('ref_axis',(0.,0.,1.));
#909=DIRECTION('',(0.,-1.,1.07788643167491E-16));
#910=DIRECTION('',(0.,0.,1.));
#911=DIRECTION('',(0.,1.,-1.07788643167491E-16));
#912=DIRECTION('center_axis',(-1.,0.,0.));
#913=DIRECTION('ref_axis',(0.,0.,1.));
#914=DIRECTION('center_axis',(0.,-8.26058798084194E-17,-1.));
#915=DIRECTION('ref_axis',(-1.,0.,0.));
#916=DIRECTION('',(-1.,0.,0.));
#917=DIRECTION('',(-1.,0.,0.));
#918=DIRECTION('center_axis',(0.,8.26058798084194E-17,1.));
#919=DIRECTION('ref_axis',(1.,0.,0.));
#920=DIRECTION('',(-1.,0.,0.));
#921=DIRECTION('',(-1.,0.,0.));
#922=DIRECTION('center_axis',(0.,-1.,0.));
#923=DIRECTION('ref_axis',(0.,0.,-1.));
#924=DIRECTION('center_axis',(-1.,0.,0.));
#925=DIRECTION('ref_axis',(0.,0.,1.));
#926=DIRECTION('center_axis',(-1.,0.,0.));
#927=DIRECTION('ref_axis',(0.,0.,1.));
#928=DIRECTION('center_axis',(1.,0.,0.));
#929=DIRECTION('ref_axis',(0.,0.,-1.));
#930=DIRECTION('center_axis',(1.,0.,0.));
#931=DIRECTION('ref_axis',(0.,0.,-1.));
#932=DIRECTION('center_axis',(-1.,0.,0.));
#933=DIRECTION('ref_axis',(0.,0.,1.));
#934=DIRECTION('center_axis',(1.,0.,0.));
#935=DIRECTION('ref_axis',(0.,0.,-1.));
#936=DIRECTION('center_axis',(-1.,0.,0.));
#937=DIRECTION('ref_axis',(0.,0.,1.));
#938=DIRECTION('center_axis',(1.,0.,0.));
#939=DIRECTION('ref_axis',(0.,0.,-1.));
#940=CARTESIAN_POINT('',(0.,0.,0.));
#941=CARTESIAN_POINT('Origin',(-1.65,15.5,0.));
#942=CARTESIAN_POINT('',(2.,15.5,1.2));
#943=CARTESIAN_POINT('Origin',(2.,15.5,0.));
#944=CARTESIAN_POINT('',(4.7,15.5,1.2));
#945=CARTESIAN_POINT('',(-1.65,15.5,1.2));
#946=CARTESIAN_POINT('Origin',(4.7,15.5,0.));
#947=CARTESIAN_POINT('Origin',(-1.65,20.5,0.));
#948=CARTESIAN_POINT('',(2.,20.5,1.2));
#949=CARTESIAN_POINT('Origin',(2.,20.5,0.));
#950=CARTESIAN_POINT('',(4.7,20.5,1.2));
#951=CARTESIAN_POINT('',(-1.65,20.5,1.2));
#952=CARTESIAN_POINT('Origin',(4.7,20.5,0.));
#953=CARTESIAN_POINT('Origin',(0.,0.,5.));
#954=CARTESIAN_POINT('',(0.,23.,4.8));
#955=CARTESIAN_POINT('',(0.,23.,2.7));
#956=CARTESIAN_POINT('',(0.,23.,4.8));
#957=CARTESIAN_POINT('',(0.,22.8,2.5));
#958=CARTESIAN_POINT('Origin',(0.,22.8,2.7));
#959=CARTESIAN_POINT('',(0.,12.5,2.5));
#960=CARTESIAN_POINT('',(0.,12.5,2.5));
#961=CARTESIAN_POINT('',(0.,12.5,-2.5));
#962=CARTESIAN_POINT('',(0.,12.5,-2.5));
#963=CARTESIAN_POINT('',(0.,22.8,-2.5));
#964=CARTESIAN_POINT('',(0.,22.8,-2.5));
#965=CARTESIAN_POINT('',(0.,23.,-2.7));
#966=CARTESIAN_POINT('Origin',(0.,22.8,-2.7));
#967=CARTESIAN_POINT('',(0.,23.,-4.8));
#968=CARTESIAN_POINT('',(0.,23.,-2.7));
#969=CARTESIAN_POINT('',(0.,22.8,-5.));
#970=CARTESIAN_POINT('Origin',(0.,22.8,-4.8));
#971=CARTESIAN_POINT('',(0.,0.2,-5.));
#972=CARTESIAN_POINT('',(0.,0.2,-5.));
#973=CARTESIAN_POINT('',(0.,0.,-4.8));
#974=CARTESIAN_POINT('Origin',(0.,0.2,-4.8));
#975=CARTESIAN_POINT('',(0.,0.,4.8));
#976=CARTESIAN_POINT('',(0.,0.,4.8));
#977=CARTESIAN_POINT('',(0.,0.2,5.));
#978=CARTESIAN_POINT('Origin',(0.,0.2,4.8));
#979=CARTESIAN_POINT('',(0.,22.8,5.));
#980=CARTESIAN_POINT('',(0.,0.2,5.));
#981=CARTESIAN_POINT('Origin',(0.,22.8,4.8));
#982=CARTESIAN_POINT('',(0.,0.25,-3.65));
#983=CARTESIAN_POINT('',(0.,0.25,3.65));
#984=CARTESIAN_POINT('',(0.,0.25,-3.65));
#985=CARTESIAN_POINT('',(0.,1.35,-4.75));
#986=CARTESIAN_POINT('Origin',(0.,1.35,-3.65));
#987=CARTESIAN_POINT('',(0.,6.65,-4.75));
#988=CARTESIAN_POINT('',(0.,6.65,-4.75));
#989=CARTESIAN_POINT('',(0.,7.75,-3.65));
#990=CARTESIAN_POINT('Origin',(0.,6.65,-3.65));
#991=CARTESIAN_POINT('',(0.,7.75,3.65));
#992=CARTESIAN_POINT('',(0.,7.75,3.65));
#993=CARTESIAN_POINT('',(0.,6.65,4.75));
#994=CARTESIAN_POINT('Origin',(0.,6.65,3.65));
#995=CARTESIAN_POINT('',(0.,1.35,4.75));
#996=CARTESIAN_POINT('',(0.,1.35,4.75));
#997=CARTESIAN_POINT('Origin',(0.,1.35,3.65));
#998=CARTESIAN_POINT('Origin',(0.,0.,5.));
#999=CARTESIAN_POINT('',(7.,0.,4.8));
#1000=CARTESIAN_POINT('',(7.,0.,-4.8));
#1001=CARTESIAN_POINT('',(7.,0.,4.8));
#1002=CARTESIAN_POINT('',(0.,0.,4.8));
#1003=CARTESIAN_POINT('',(0.,0.,-4.8));
#1004=CARTESIAN_POINT('Origin',(7.,0.,5.));
#1005=CARTESIAN_POINT('',(7.,23.,-2.32499999999999));
#1006=CARTESIAN_POINT('',(7.,23.,-4.8));
#1007=CARTESIAN_POINT('',(7.,23.,-2.32499999999999));
#1008=CARTESIAN_POINT('',(7.,22.8,-2.12499999999999));
#1009=CARTESIAN_POINT('Origin',(7.,22.8,-2.32499999999999));
#1010=CARTESIAN_POINT('',(7.,20.5,-2.125));
#1011=CARTESIAN_POINT('',(7.,20.5,-2.125));
#1012=CARTESIAN_POINT('',(7.,20.5,2.125));
#1013=CARTESIAN_POINT('Origin',(7.,20.5,0.));
#1014=CARTESIAN_POINT('',(7.,22.8,2.12500000000001));
#1015=CARTESIAN_POINT('',(7.,22.8,2.12500000000001));
#1016=CARTESIAN_POINT('',(7.,23.,2.32500000000001));
#1017=CARTESIAN_POINT('Origin',(7.,22.8,2.32500000000001));
#1018=CARTESIAN_POINT('',(7.,23.,4.8));
#1019=CARTESIAN_POINT('',(7.,23.,4.8));
#1020=CARTESIAN_POINT('',(7.,22.8,5.));
#1021=CARTESIAN_POINT('Origin',(7.,22.8,4.8));
#1022=CARTESIAN_POINT('',(7.,0.2,5.));
#1023=CARTESIAN_POINT('',(7.,0.2,5.));
#1024=CARTESIAN_POINT('Origin',(7.,0.2,4.8));
#1025=CARTESIAN_POINT('',(7.,0.2,-5.));
#1026=CARTESIAN_POINT('Origin',(7.,0.2,-4.8));
#1027=CARTESIAN_POINT('',(7.,22.8,-5.));
#1028=CARTESIAN_POINT('',(7.,0.2,-5.));
#1029=CARTESIAN_POINT('Origin',(7.,22.8,-4.8));
#1030=CARTESIAN_POINT('',(7.,15.5,2.125));
#1031=CARTESIAN_POINT('Origin',(7.,15.5,0.));
#1032=CARTESIAN_POINT('Origin',(0.,23.,5.));
#1033=CARTESIAN_POINT('',(4.7,23.,-2.32499999999999));
#1034=CARTESIAN_POINT('',(4.7,23.,2.32500000000001));
#1035=CARTESIAN_POINT('',(4.7,23.,-2.32499999999999));
#1036=CARTESIAN_POINT('',(4.7,23.,-2.32499999999999));
#1037=CARTESIAN_POINT('',(0.,23.,-4.8));
#1038=CARTESIAN_POINT('',(2.,23.,-2.7));
#1039=CARTESIAN_POINT('',(2.,23.,-2.7));
#1040=CARTESIAN_POINT('',(2.,23.,2.7));
#1041=CARTESIAN_POINT('',(2.,23.,2.7));
#1042=CARTESIAN_POINT('',(2.,23.,2.7));
#1043=CARTESIAN_POINT('',(0.,23.,4.8));
#1044=CARTESIAN_POINT('',(4.7,23.,2.32500000000001));
#1045=CARTESIAN_POINT('Origin',(0.,0.,5.));
#1046=CARTESIAN_POINT('',(0.,0.2,5.));
#1047=CARTESIAN_POINT('',(0.,22.8,5.));
#1048=CARTESIAN_POINT('Origin',(0.,0.,-5.));
#1049=CARTESIAN_POINT('',(0.,0.2,-5.));
#1050=CARTESIAN_POINT('',(0.,22.8,-5.));
#1051=CARTESIAN_POINT('Origin',(-1.65,1.35,-3.65));
#1052=CARTESIAN_POINT('',(-1.65,0.25,-3.65));
#1053=CARTESIAN_POINT('',(-1.65,0.25,-3.65));
#1054=CARTESIAN_POINT('',(-1.65,1.35,-4.75));
#1055=CARTESIAN_POINT('Origin',(-1.65,1.35,-3.65));
#1056=CARTESIAN_POINT('',(-1.65,1.35,-4.75));
#1057=CARTESIAN_POINT('Origin',(-1.65,0.25,-3.65));
#1058=CARTESIAN_POINT('',(-1.65,0.25,3.65));
#1059=CARTESIAN_POINT('',(-1.65,0.25,3.65));
#1060=CARTESIAN_POINT('',(-1.65,0.25,-3.65));
#1061=CARTESIAN_POINT('Origin',(-1.65,1.35,3.65));
#1062=CARTESIAN_POINT('',(-1.65,1.35,4.75));
#1063=CARTESIAN_POINT('',(-1.65,1.35,4.75));
#1064=CARTESIAN_POINT('Origin',(-1.65,1.35,3.65));
#1065=CARTESIAN_POINT('Origin',(-1.65,6.65,4.75));
#1066=CARTESIAN_POINT('',(-1.65,6.65,4.75));
#1067=CARTESIAN_POINT('',(-1.65,6.65,4.75));
#1068=CARTESIAN_POINT('',(-1.65,1.35,4.75));
#1069=CARTESIAN_POINT('Origin',(-1.65,6.65,3.65));
#1070=CARTESIAN_POINT('',(-1.65,7.75,3.65));
#1071=CARTESIAN_POINT('',(-1.65,7.75,3.65));
#1072=CARTESIAN_POINT('Origin',(-1.65,6.65,3.65));
#1073=CARTESIAN_POINT('Origin',(-1.65,7.75,-3.65));
#1074=CARTESIAN_POINT('',(-1.65,7.75,-3.65));
#1075=CARTESIAN_POINT('',(-1.65,7.75,-3.65));
#1076=CARTESIAN_POINT('',(-1.65,7.75,3.65));
#1077=CARTESIAN_POINT('Origin',(-1.65,6.65,-3.65));
#1078=CARTESIAN_POINT('',(-1.65,6.65,-4.75));
#1079=CARTESIAN_POINT('',(-1.65,6.65,-4.75));
#1080=CARTESIAN_POINT('Origin',(-1.65,6.65,-3.65));
#1081=CARTESIAN_POINT('Origin',(-1.65,6.65,-4.75));
#1082=CARTESIAN_POINT('',(-1.65,6.65,-4.75));
#1083=CARTESIAN_POINT('Origin',(-1.65,1.35,-3.65));
#1084=CARTESIAN_POINT('Origin',(4.7,20.5,0.));
#1085=CARTESIAN_POINT('',(4.7,20.5,2.125));
#1086=CARTESIAN_POINT('',(4.7,20.5,-2.125));
#1087=CARTESIAN_POINT('Origin',(4.7,20.5,0.));
#1088=CARTESIAN_POINT('',(4.7,22.8,-2.12499999999999));
#1089=CARTESIAN_POINT('',(4.7,20.5,-2.125));
#1090=CARTESIAN_POINT('Origin',(4.7,22.8,-2.32499999999999));
#1091=CARTESIAN_POINT('',(4.7,22.8,2.12500000000001));
#1092=CARTESIAN_POINT('Origin',(4.7,22.8,2.32500000000001));
#1093=CARTESIAN_POINT('',(4.7,22.8,2.12500000000001));
#1094=CARTESIAN_POINT('Origin',(4.7,20.5,0.));
#1095=CARTESIAN_POINT('',(4.7,20.5,-2.125));
#1096=CARTESIAN_POINT('',(4.7,20.5,2.125));
#1097=CARTESIAN_POINT('Origin',(4.7,20.5,2.125));
#1098=CARTESIAN_POINT('',(4.7,22.8,2.12500000000001));
#1099=CARTESIAN_POINT('Origin',(4.7,20.5,-2.125));
#1100=CARTESIAN_POINT('',(4.7,22.8,-2.12499999999999));
#1101=CARTESIAN_POINT('Origin',(4.7,15.5,0.));
#1102=CARTESIAN_POINT('',(4.7,15.5,2.125));
#1103=CARTESIAN_POINT('Origin',(4.7,15.5,0.));
#1104=CARTESIAN_POINT('Origin',(4.7,15.5,0.));
#1105=CARTESIAN_POINT('',(4.7,15.5,2.125));
#1106=CARTESIAN_POINT('Origin',(2.,0.,0.));
#1107=CARTESIAN_POINT('',(2.,22.8,-2.5));
#1108=CARTESIAN_POINT('Origin',(2.,22.8,-2.7));
#1109=CARTESIAN_POINT('',(2.,12.5,-2.5));
#1110=CARTESIAN_POINT('',(2.,22.8,-2.5));
#1111=CARTESIAN_POINT('',(2.,12.5,2.5));
#1112=CARTESIAN_POINT('',(2.,12.5,-2.5));
#1113=CARTESIAN_POINT('',(2.,22.8,2.5));
#1114=CARTESIAN_POINT('',(2.,12.5,2.5));
#1115=CARTESIAN_POINT('Origin',(2.,22.8,2.7));
#1116=CARTESIAN_POINT('Origin',(2.,23.,-2.5));
#1117=CARTESIAN_POINT('',(2.,22.8,-2.5));
#1118=CARTESIAN_POINT('',(2.,12.5,-2.5));
#1119=CARTESIAN_POINT('Origin',(2.,23.,2.5));
#1120=CARTESIAN_POINT('',(2.,22.8,2.5));
#1121=CARTESIAN_POINT('',(2.,12.5,2.5));
#1122=CARTESIAN_POINT('Origin',(2.,12.5,-2.5));
#1123=CARTESIAN_POINT('Origin',(0.,22.8,-2.32499999999999));
#1124=CARTESIAN_POINT('Origin',(4.7,22.8,2.32500000000001));
#1125=CARTESIAN_POINT('Origin',(0.,22.8,2.7));
#1126=CARTESIAN_POINT('Origin',(2.,22.8,-2.7));
#1127=CARTESIAN_POINT('Origin',(0.,0.2,4.8));
#1128=CARTESIAN_POINT('Origin',(0.,0.2,-4.8));
#1129=CARTESIAN_POINT('Origin',(0.,22.8,-4.8));
#1130=CARTESIAN_POINT('Origin',(0.,22.8,4.8));
#1131=UNCERTAINTY_MEASURE_WITH_UNIT(LENGTH_MEASURE(0.01),#1135,
'DISTANCE_ACCURACY_VALUE',
'Maximum model space distance between geometric entities at asserted c
onnectivities');
#1132=UNCERTAINTY_MEASURE_WITH_UNIT(LENGTH_MEASURE(0.01),#1135,
'DISTANCE_ACCURACY_VALUE',
'Maximum model space distance between geometric entities at asserted c
onnectivities');
#1133=(
GEOMETRIC_REPRESENTATION_CONTEXT(3)
GLOBAL_UNCERTAINTY_ASSIGNED_CONTEXT((#1131))
GLOBAL_UNIT_ASSIGNED_CONTEXT((#1135,#1137,#1138))
REPRESENTATION_CONTEXT('','3D')
);
#1134=(
GEOMETRIC_REPRESENTATION_CONTEXT(3)
GLOBAL_UNCERTAINTY_ASSIGNED_CONTEXT((#1132))
GLOBAL_UNIT_ASSIGNED_CONTEXT((#1135,#1137,#1138))
REPRESENTATION_CONTEXT('','3D')
);
#1135=(
LENGTH_UNIT()
NAMED_UNIT(*)
SI_UNIT(.MILLI.,.METRE.)
);
#1136=(
LENGTH_UNIT()
NAMED_UNIT(*)
SI_UNIT($,.METRE.)
);
#1137=(
NAMED_UNIT(*)
PLANE_ANGLE_UNIT()
SI_UNIT($,.RADIAN.)
);
#1138=(
NAMED_UNIT(*)
SI_UNIT($,.STERADIAN.)
SOLID_ANGLE_UNIT()
);
#1139=SHAPE_DEFINITION_REPRESENTATION(#1140,#1141);
#1140=PRODUCT_DEFINITION_SHAPE('',$,#1143);
#1141=SHAPE_REPRESENTATION('',(#675),#1133);
#1142=PRODUCT_DEFINITION_CONTEXT('part definition',#1147,'design');
#1143=PRODUCT_DEFINITION('Gripper X2','Gripper X2',#1144,#1142);
#1144=PRODUCT_DEFINITION_FORMATION('',$,#1149);
#1145=PRODUCT_RELATED_PRODUCT_CATEGORY('Gripper X2','Gripper X2',(#1149));
#1146=APPLICATION_PROTOCOL_DEFINITION('international standard',
'automotive_design',2009,#1147);
#1147=APPLICATION_CONTEXT(
'Core Data for Automotive Mechanical Design Process');
#1148=PRODUCT_CONTEXT('part definition',#1147,'mechanical');
#1149=PRODUCT('Gripper X2','Gripper X2',$,(#1148));
#1150=PRESENTATION_STYLE_ASSIGNMENT((#1152));
#1151=PRESENTATION_STYLE_ASSIGNMENT((#1153));
#1152=SURFACE_STYLE_USAGE(.BOTH.,#1154);
#1153=SURFACE_STYLE_USAGE(.BOTH.,#1155);
#1154=SURFACE_SIDE_STYLE('',(#1156));
#1155=SURFACE_SIDE_STYLE('',(#1157));
#1156=SURFACE_STYLE_FILL_AREA(#1158);
#1157=SURFACE_STYLE_FILL_AREA(#1159);
#1158=FILL_AREA_STYLE('Steel - Satin',(#1160));
#1159=FILL_AREA_STYLE('Aluminum - Satin',(#1161));
#1160=FILL_AREA_STYLE_COLOUR('Steel - Satin',#1162);
#1161=FILL_AREA_STYLE_COLOUR('Aluminum - Satin',#1163);
#1162=COLOUR_RGB('Steel - Satin',0.627450980392157,0.627450980392157,0.627450980392157);
#1163=COLOUR_RGB('Aluminum - Satin',0.96078431372549,0.96078431372549,0.964705882352941);
ENDSEC;
END-ISO-10303-21;
