ISO-10303-21;
HEADER;
/* Generated by software containing ST-Developer
 * from STEP Tools, Inc. (www.steptools.com) 
 */

FILE_DESCRIPTION(
/* description */ (''),
/* implementation_level */ '2;1');

FILE_NAME(
/* name */ 'Input_Plate_5x3.step',
/* time_stamp */ '2026-08-06T10:02:09+01:00',
/* author */ (''),
/* organization */ (''),
/* preprocessor_version */ 'ST-DEVELOPER v20.1',
/* originating_system */ 'Autodesk Translation Framework v15.8.0.0',
/* authorisation */ '');

FILE_SCHEMA (('AUTOMOTIVE_DESIGN { 1 0 10303 214 3 1 1 }'));
ENDSEC;

DATA;
#10=MECHANICAL_DESIGN_GEOMETRIC_PRESENTATION_REPRESENTATION('',(#13),#1322);
#11=SHAPE_REPRESENTATION_RELATIONSHIP('SRR','None',#1328,#12);
#12=ADVANCED_BREP_SHAPE_REPRESENTATION('',(#14),#1321);
#13=STYLED_ITEM('',(#1338),#14);
#14=MANIFOLD_SOLID_BREP('Body2',#750);
#15=FACE_BOUND('',#132,.T.);
#16=FACE_BOUND('',#133,.T.);
#17=FACE_BOUND('',#134,.T.);
#18=FACE_BOUND('',#135,.T.);
#19=FACE_BOUND('',#136,.T.);
#20=FACE_BOUND('',#137,.T.);
#21=FACE_BOUND('',#138,.T.);
#22=FACE_BOUND('',#139,.T.);
#23=FACE_BOUND('',#140,.T.);
#24=FACE_BOUND('',#141,.T.);
#25=FACE_BOUND('',#142,.T.);
#26=FACE_BOUND('',#143,.T.);
#27=FACE_BOUND('',#144,.T.);
#28=FACE_BOUND('',#145,.T.);
#29=FACE_BOUND('',#146,.T.);
#30=FACE_BOUND('',#147,.T.);
#31=FACE_BOUND('',#148,.T.);
#32=FACE_BOUND('',#149,.T.);
#33=FACE_BOUND('',#150,.T.);
#34=FACE_BOUND('',#152,.T.);
#35=FACE_BOUND('',#153,.T.);
#36=FACE_BOUND('',#154,.T.);
#37=FACE_BOUND('',#155,.T.);
#38=FACE_BOUND('',#187,.T.);
#39=FACE_BOUND('',#190,.T.);
#40=FACE_BOUND('',#193,.T.);
#41=FACE_BOUND('',#196,.T.);
#42=PLANE('',#767);
#43=PLANE('',#771);
#44=PLANE('',#775);
#45=PLANE('',#779);
#46=PLANE('',#780);
#47=PLANE('',#800);
#48=PLANE('',#803);
#49=PLANE('',#806);
#50=PLANE('',#809);
#51=PLANE('',#812);
#52=PLANE('',#815);
#53=PLANE('',#818);
#54=PLANE('',#821);
#55=PLANE('',#824);
#56=PLANE('',#827);
#57=PLANE('',#830);
#58=PLANE('',#833);
#59=PLANE('',#836);
#60=PLANE('',#839);
#61=PLANE('',#842);
#62=PLANE('',#845);
#63=PLANE('',#846);
#64=PLANE('',#849);
#65=PLANE('',#852);
#66=PLANE('',#855);
#67=FACE_OUTER_BOUND('',#119,.T.);
#68=FACE_OUTER_BOUND('',#120,.T.);
#69=FACE_OUTER_BOUND('',#121,.T.);
#70=FACE_OUTER_BOUND('',#122,.T.);
#71=FACE_OUTER_BOUND('',#123,.T.);
#72=FACE_OUTER_BOUND('',#124,.T.);
#73=FACE_OUTER_BOUND('',#125,.T.);
#74=FACE_OUTER_BOUND('',#126,.T.);
#75=FACE_OUTER_BOUND('',#127,.T.);
#76=FACE_OUTER_BOUND('',#128,.T.);
#77=FACE_OUTER_BOUND('',#129,.T.);
#78=FACE_OUTER_BOUND('',#130,.T.);
#79=FACE_OUTER_BOUND('',#131,.T.);
#80=FACE_OUTER_BOUND('',#151,.T.);
#81=FACE_OUTER_BOUND('',#156,.T.);
#82=FACE_OUTER_BOUND('',#157,.T.);
#83=FACE_OUTER_BOUND('',#158,.T.);
#84=FACE_OUTER_BOUND('',#159,.T.);
#85=FACE_OUTER_BOUND('',#160,.T.);
#86=FACE_OUTER_BOUND('',#161,.T.);
#87=FACE_OUTER_BOUND('',#162,.T.);
#88=FACE_OUTER_BOUND('',#163,.T.);
#89=FACE_OUTER_BOUND('',#164,.T.);
#90=FACE_OUTER_BOUND('',#165,.T.);
#91=FACE_OUTER_BOUND('',#166,.T.);
#92=FACE_OUTER_BOUND('',#167,.T.);
#93=FACE_OUTER_BOUND('',#168,.T.);
#94=FACE_OUTER_BOUND('',#169,.T.);
#95=FACE_OUTER_BOUND('',#170,.T.);
#96=FACE_OUTER_BOUND('',#171,.T.);
#97=FACE_OUTER_BOUND('',#172,.T.);
#98=FACE_OUTER_BOUND('',#173,.T.);
#99=FACE_OUTER_BOUND('',#174,.T.);
#100=FACE_OUTER_BOUND('',#175,.T.);
#101=FACE_OUTER_BOUND('',#176,.T.);
#102=FACE_OUTER_BOUND('',#177,.T.);
#103=FACE_OUTER_BOUND('',#178,.T.);
#104=FACE_OUTER_BOUND('',#179,.T.);
#105=FACE_OUTER_BOUND('',#180,.T.);
#106=FACE_OUTER_BOUND('',#181,.T.);
#107=FACE_OUTER_BOUND('',#182,.T.);
#108=FACE_OUTER_BOUND('',#183,.T.);
#109=FACE_OUTER_BOUND('',#184,.T.);
#110=FACE_OUTER_BOUND('',#185,.T.);
#111=FACE_OUTER_BOUND('',#186,.T.);
#112=FACE_OUTER_BOUND('',#188,.T.);
#113=FACE_OUTER_BOUND('',#189,.T.);
#114=FACE_OUTER_BOUND('',#191,.T.);
#115=FACE_OUTER_BOUND('',#192,.T.);
#116=FACE_OUTER_BOUND('',#194,.T.);
#117=FACE_OUTER_BOUND('',#195,.T.);
#118=FACE_OUTER_BOUND('',#197,.T.);
#119=EDGE_LOOP('',(#485,#486,#487,#488));
#120=EDGE_LOOP('',(#489,#490,#491,#492));
#121=EDGE_LOOP('',(#493,#494,#495,#496));
#122=EDGE_LOOP('',(#497,#498,#499,#500));
#123=EDGE_LOOP('',(#501,#502,#503,#504));
#124=EDGE_LOOP('',(#505,#506,#507,#508));
#125=EDGE_LOOP('',(#509,#510,#511,#512));
#126=EDGE_LOOP('',(#513,#514,#515,#516));
#127=EDGE_LOOP('',(#517,#518,#519,#520));
#128=EDGE_LOOP('',(#521,#522,#523,#524));
#129=EDGE_LOOP('',(#525,#526,#527,#528));
#130=EDGE_LOOP('',(#529,#530,#531,#532));
#131=EDGE_LOOP('',(#533,#534,#535,#536,#537,#538,#539,#540));
#132=EDGE_LOOP('',(#541));
#133=EDGE_LOOP('',(#542));
#134=EDGE_LOOP('',(#543));
#135=EDGE_LOOP('',(#544));
#136=EDGE_LOOP('',(#545));
#137=EDGE_LOOP('',(#546));
#138=EDGE_LOOP('',(#547));
#139=EDGE_LOOP('',(#548));
#140=EDGE_LOOP('',(#549));
#141=EDGE_LOOP('',(#550));
#142=EDGE_LOOP('',(#551));
#143=EDGE_LOOP('',(#552));
#144=EDGE_LOOP('',(#553));
#145=EDGE_LOOP('',(#554));
#146=EDGE_LOOP('',(#555));
#147=EDGE_LOOP('',(#556));
#148=EDGE_LOOP('',(#557));
#149=EDGE_LOOP('',(#558));
#150=EDGE_LOOP('',(#559));
#151=EDGE_LOOP('',(#560,#561,#562,#563,#564,#565,#566,#567));
#152=EDGE_LOOP('',(#568));
#153=EDGE_LOOP('',(#569));
#154=EDGE_LOOP('',(#570));
#155=EDGE_LOOP('',(#571));
#156=EDGE_LOOP('',(#572,#573,#574,#575));
#157=EDGE_LOOP('',(#576));
#158=EDGE_LOOP('',(#577,#578,#579,#580));
#159=EDGE_LOOP('',(#581));
#160=EDGE_LOOP('',(#582,#583,#584,#585));
#161=EDGE_LOOP('',(#586));
#162=EDGE_LOOP('',(#587,#588,#589,#590));
#163=EDGE_LOOP('',(#591));
#164=EDGE_LOOP('',(#592,#593,#594,#595));
#165=EDGE_LOOP('',(#596));
#166=EDGE_LOOP('',(#597,#598,#599,#600));
#167=EDGE_LOOP('',(#601));
#168=EDGE_LOOP('',(#602,#603,#604,#605));
#169=EDGE_LOOP('',(#606));
#170=EDGE_LOOP('',(#607,#608,#609,#610));
#171=EDGE_LOOP('',(#611));
#172=EDGE_LOOP('',(#612,#613,#614,#615));
#173=EDGE_LOOP('',(#616));
#174=EDGE_LOOP('',(#617,#618,#619,#620));
#175=EDGE_LOOP('',(#621));
#176=EDGE_LOOP('',(#622,#623,#624,#625));
#177=EDGE_LOOP('',(#626));
#178=EDGE_LOOP('',(#627,#628,#629,#630));
#179=EDGE_LOOP('',(#631));
#180=EDGE_LOOP('',(#632,#633,#634,#635));
#181=EDGE_LOOP('',(#636));
#182=EDGE_LOOP('',(#637,#638,#639,#640));
#183=EDGE_LOOP('',(#641));
#184=EDGE_LOOP('',(#642,#643,#644,#645));
#185=EDGE_LOOP('',(#646));
#186=EDGE_LOOP('',(#647));
#187=EDGE_LOOP('',(#648));
#188=EDGE_LOOP('',(#649,#650,#651,#652));
#189=EDGE_LOOP('',(#653));
#190=EDGE_LOOP('',(#654));
#191=EDGE_LOOP('',(#655,#656,#657,#658));
#192=EDGE_LOOP('',(#659));
#193=EDGE_LOOP('',(#660));
#194=EDGE_LOOP('',(#661,#662,#663,#664));
#195=EDGE_LOOP('',(#665));
#196=EDGE_LOOP('',(#666));
#197=EDGE_LOOP('',(#667,#668,#669,#670));
#198=LINE('',#1116,#237);
#199=LINE('',#1122,#238);
#200=LINE('',#1128,#239);
#201=LINE('',#1134,#240);
#202=LINE('',#1141,#241);
#203=LINE('',#1144,#242);
#204=LINE('',#1147,#243);
#205=LINE('',#1149,#244);
#206=LINE('',#1150,#245);
#207=LINE('',#1155,#246);
#208=LINE('',#1159,#247);
#209=LINE('',#1161,#248);
#210=LINE('',#1162,#249);
#211=LINE('',#1167,#250);
#212=LINE('',#1171,#251);
#213=LINE('',#1173,#252);
#214=LINE('',#1174,#253);
#215=LINE('',#1179,#254);
#216=LINE('',#1182,#255);
#217=LINE('',#1183,#256);
#218=LINE('',#1227,#257);
#219=LINE('',#1232,#258);
#220=LINE('',#1237,#259);
#221=LINE('',#1242,#260);
#222=LINE('',#1247,#261);
#223=LINE('',#1252,#262);
#224=LINE('',#1257,#263);
#225=LINE('',#1262,#264);
#226=LINE('',#1267,#265);
#227=LINE('',#1272,#266);
#228=LINE('',#1277,#267);
#229=LINE('',#1282,#268);
#230=LINE('',#1287,#269);
#231=LINE('',#1292,#270);
#232=LINE('',#1297,#271);
#233=LINE('',#1303,#272);
#234=LINE('',#1308,#273);
#235=LINE('',#1313,#274);
#236=LINE('',#1318,#275);
#237=VECTOR('',#864,2.54999999999999);
#238=VECTOR('',#871,2.54999999999999);
#239=VECTOR('',#878,2.54999999999999);
#240=VECTOR('',#885,2.54999999999999);
#241=VECTOR('',#892,20.);
#242=VECTOR('',#895,20.);
#243=VECTOR('',#898,118.);
#244=VECTOR('',#899,20.);
#245=VECTOR('',#900,118.);
#246=VECTOR('',#905,20.);
#247=VECTOR('',#910,72.);
#248=VECTOR('',#911,20.);
#249=VECTOR('',#912,72.);
#250=VECTOR('',#917,20.);
#251=VECTOR('',#922,118.);
#252=VECTOR('',#923,20.);
#253=VECTOR('',#924,118.);
#254=VECTOR('',#929,20.);
#255=VECTOR('',#934,72.);
#256=VECTOR('',#935,72.);
#257=VECTOR('',#982,4.85);
#258=VECTOR('',#989,4.85);
#259=VECTOR('',#996,4.85);
#260=VECTOR('',#1003,4.85);
#261=VECTOR('',#1010,4.85);
#262=VECTOR('',#1017,4.85);
#263=VECTOR('',#1024,4.85);
#264=VECTOR('',#1031,4.85);
#265=VECTOR('',#1038,4.85);
#266=VECTOR('',#1045,4.85);
#267=VECTOR('',#1052,4.85);
#268=VECTOR('',#1059,4.85);
#269=VECTOR('',#1066,4.85);
#270=VECTOR('',#1073,4.85);
#271=VECTOR('',#1080,4.85);
#272=VECTOR('',#1089,5.);
#273=VECTOR('',#1096,5.);
#274=VECTOR('',#1103,5.);
#275=VECTOR('',#1110,5.);
#276=CIRCLE('',#753,2.54999999999999);
#277=CIRCLE('',#754,2.54999999999999);
#278=CIRCLE('',#756,2.54999999999999);
#279=CIRCLE('',#757,2.54999999999999);
#280=CIRCLE('',#759,2.54999999999999);
#281=CIRCLE('',#760,2.54999999999999);
#282=CIRCLE('',#762,2.54999999999999);
#283=CIRCLE('',#763,2.54999999999999);
#284=CIRCLE('',#765,0.999999999999997);
#285=CIRCLE('',#766,0.999999999999997);
#286=CIRCLE('',#769,1.);
#287=CIRCLE('',#770,1.);
#288=CIRCLE('',#773,1.);
#289=CIRCLE('',#774,1.);
#290=CIRCLE('',#777,1.);
#291=CIRCLE('',#778,1.);
#292=CIRCLE('',#781,5.);
#293=CIRCLE('',#782,5.);
#294=CIRCLE('',#783,5.);
#295=CIRCLE('',#784,5.);
#296=CIRCLE('',#785,4.85);
#297=CIRCLE('',#786,4.85);
#298=CIRCLE('',#787,4.85);
#299=CIRCLE('',#788,4.85);
#300=CIRCLE('',#789,4.85);
#301=CIRCLE('',#790,4.85);
#302=CIRCLE('',#791,4.85);
#303=CIRCLE('',#792,4.85);
#304=CIRCLE('',#793,4.85);
#305=CIRCLE('',#794,4.85);
#306=CIRCLE('',#795,4.85);
#307=CIRCLE('',#796,4.85);
#308=CIRCLE('',#797,4.85);
#309=CIRCLE('',#798,4.85);
#310=CIRCLE('',#799,4.85);
#311=CIRCLE('',#802,4.85);
#312=CIRCLE('',#805,4.85);
#313=CIRCLE('',#808,4.85);
#314=CIRCLE('',#811,4.85);
#315=CIRCLE('',#814,4.85);
#316=CIRCLE('',#817,4.85);
#317=CIRCLE('',#820,4.85);
#318=CIRCLE('',#823,4.85);
#319=CIRCLE('',#826,4.85);
#320=CIRCLE('',#829,4.85);
#321=CIRCLE('',#832,4.85);
#322=CIRCLE('',#835,4.85);
#323=CIRCLE('',#838,4.85);
#324=CIRCLE('',#841,4.85);
#325=CIRCLE('',#844,4.85);
#326=CIRCLE('',#847,5.);
#327=CIRCLE('',#850,5.);
#328=CIRCLE('',#853,5.);
#329=CIRCLE('',#856,5.);
#330=VERTEX_POINT('',#1113);
#331=VERTEX_POINT('',#1115);
#332=VERTEX_POINT('',#1119);
#333=VERTEX_POINT('',#1121);
#334=VERTEX_POINT('',#1125);
#335=VERTEX_POINT('',#1127);
#336=VERTEX_POINT('',#1131);
#337=VERTEX_POINT('',#1133);
#338=VERTEX_POINT('',#1137);
#339=VERTEX_POINT('',#1138);
#340=VERTEX_POINT('',#1140);
#341=VERTEX_POINT('',#1142);
#342=VERTEX_POINT('',#1146);
#343=VERTEX_POINT('',#1148);
#344=VERTEX_POINT('',#1152);
#345=VERTEX_POINT('',#1154);
#346=VERTEX_POINT('',#1158);
#347=VERTEX_POINT('',#1160);
#348=VERTEX_POINT('',#1164);
#349=VERTEX_POINT('',#1166);
#350=VERTEX_POINT('',#1170);
#351=VERTEX_POINT('',#1172);
#352=VERTEX_POINT('',#1176);
#353=VERTEX_POINT('',#1178);
#354=VERTEX_POINT('',#1185);
#355=VERTEX_POINT('',#1187);
#356=VERTEX_POINT('',#1189);
#357=VERTEX_POINT('',#1191);
#358=VERTEX_POINT('',#1193);
#359=VERTEX_POINT('',#1195);
#360=VERTEX_POINT('',#1197);
#361=VERTEX_POINT('',#1199);
#362=VERTEX_POINT('',#1201);
#363=VERTEX_POINT('',#1203);
#364=VERTEX_POINT('',#1205);
#365=VERTEX_POINT('',#1207);
#366=VERTEX_POINT('',#1209);
#367=VERTEX_POINT('',#1211);
#368=VERTEX_POINT('',#1213);
#369=VERTEX_POINT('',#1215);
#370=VERTEX_POINT('',#1217);
#371=VERTEX_POINT('',#1219);
#372=VERTEX_POINT('',#1221);
#373=VERTEX_POINT('',#1225);
#374=VERTEX_POINT('',#1230);
#375=VERTEX_POINT('',#1235);
#376=VERTEX_POINT('',#1240);
#377=VERTEX_POINT('',#1245);
#378=VERTEX_POINT('',#1250);
#379=VERTEX_POINT('',#1255);
#380=VERTEX_POINT('',#1260);
#381=VERTEX_POINT('',#1265);
#382=VERTEX_POINT('',#1270);
#383=VERTEX_POINT('',#1275);
#384=VERTEX_POINT('',#1280);
#385=VERTEX_POINT('',#1285);
#386=VERTEX_POINT('',#1290);
#387=VERTEX_POINT('',#1295);
#388=VERTEX_POINT('',#1300);
#389=VERTEX_POINT('',#1305);
#390=VERTEX_POINT('',#1310);
#391=VERTEX_POINT('',#1315);
#392=EDGE_CURVE('',#330,#330,#276,.T.);
#393=EDGE_CURVE('',#330,#331,#198,.T.);
#394=EDGE_CURVE('',#331,#331,#277,.F.);
#395=EDGE_CURVE('',#332,#332,#278,.T.);
#396=EDGE_CURVE('',#332,#333,#199,.T.);
#397=EDGE_CURVE('',#333,#333,#279,.F.);
#398=EDGE_CURVE('',#334,#334,#280,.T.);
#399=EDGE_CURVE('',#334,#335,#200,.T.);
#400=EDGE_CURVE('',#335,#335,#281,.F.);
#401=EDGE_CURVE('',#336,#336,#282,.T.);
#402=EDGE_CURVE('',#336,#337,#201,.T.);
#403=EDGE_CURVE('',#337,#337,#283,.F.);
#404=EDGE_CURVE('',#338,#339,#284,.T.);
#405=EDGE_CURVE('',#340,#339,#202,.T.);
#406=EDGE_CURVE('',#341,#340,#285,.T.);
#407=EDGE_CURVE('',#341,#338,#203,.T.);
#408=EDGE_CURVE('',#339,#342,#204,.T.);
#409=EDGE_CURVE('',#343,#342,#205,.T.);
#410=EDGE_CURVE('',#340,#343,#206,.T.);
#411=EDGE_CURVE('',#342,#344,#286,.T.);
#412=EDGE_CURVE('',#345,#344,#207,.T.);
#413=EDGE_CURVE('',#343,#345,#287,.T.);
#414=EDGE_CURVE('',#344,#346,#208,.T.);
#415=EDGE_CURVE('',#347,#346,#209,.T.);
#416=EDGE_CURVE('',#345,#347,#210,.T.);
#417=EDGE_CURVE('',#346,#348,#288,.T.);
#418=EDGE_CURVE('',#349,#348,#211,.T.);
#419=EDGE_CURVE('',#347,#349,#289,.T.);
#420=EDGE_CURVE('',#348,#350,#212,.T.);
#421=EDGE_CURVE('',#351,#350,#213,.T.);
#422=EDGE_CURVE('',#349,#351,#214,.T.);
#423=EDGE_CURVE('',#350,#352,#290,.T.);
#424=EDGE_CURVE('',#353,#352,#215,.T.);
#425=EDGE_CURVE('',#351,#353,#291,.T.);
#426=EDGE_CURVE('',#352,#338,#216,.T.);
#427=EDGE_CURVE('',#353,#341,#217,.T.);
#428=EDGE_CURVE('',#354,#354,#292,.T.);
#429=EDGE_CURVE('',#355,#355,#293,.T.);
#430=EDGE_CURVE('',#356,#356,#294,.T.);
#431=EDGE_CURVE('',#357,#357,#295,.T.);
#432=EDGE_CURVE('',#358,#358,#296,.T.);
#433=EDGE_CURVE('',#359,#359,#297,.T.);
#434=EDGE_CURVE('',#360,#360,#298,.T.);
#435=EDGE_CURVE('',#361,#361,#299,.T.);
#436=EDGE_CURVE('',#362,#362,#300,.T.);
#437=EDGE_CURVE('',#363,#363,#301,.T.);
#438=EDGE_CURVE('',#364,#364,#302,.T.);
#439=EDGE_CURVE('',#365,#365,#303,.T.);
#440=EDGE_CURVE('',#366,#366,#304,.T.);
#441=EDGE_CURVE('',#367,#367,#305,.T.);
#442=EDGE_CURVE('',#368,#368,#306,.T.);
#443=EDGE_CURVE('',#369,#369,#307,.T.);
#444=EDGE_CURVE('',#370,#370,#308,.T.);
#445=EDGE_CURVE('',#371,#371,#309,.T.);
#446=EDGE_CURVE('',#372,#372,#310,.T.);
#447=EDGE_CURVE('',#373,#373,#311,.T.);
#448=EDGE_CURVE('',#373,#372,#218,.T.);
#449=EDGE_CURVE('',#374,#374,#312,.T.);
#450=EDGE_CURVE('',#374,#371,#219,.T.);
#451=EDGE_CURVE('',#375,#375,#313,.T.);
#452=EDGE_CURVE('',#375,#370,#220,.T.);
#453=EDGE_CURVE('',#376,#376,#314,.T.);
#454=EDGE_CURVE('',#376,#369,#221,.T.);
#455=EDGE_CURVE('',#377,#377,#315,.T.);
#456=EDGE_CURVE('',#377,#368,#222,.T.);
#457=EDGE_CURVE('',#378,#378,#316,.T.);
#458=EDGE_CURVE('',#378,#367,#223,.T.);
#459=EDGE_CURVE('',#379,#379,#317,.T.);
#460=EDGE_CURVE('',#379,#366,#224,.T.);
#461=EDGE_CURVE('',#380,#380,#318,.T.);
#462=EDGE_CURVE('',#380,#365,#225,.T.);
#463=EDGE_CURVE('',#381,#381,#319,.T.);
#464=EDGE_CURVE('',#381,#364,#226,.T.);
#465=EDGE_CURVE('',#382,#382,#320,.T.);
#466=EDGE_CURVE('',#382,#363,#227,.T.);
#467=EDGE_CURVE('',#383,#383,#321,.T.);
#468=EDGE_CURVE('',#383,#362,#228,.T.);
#469=EDGE_CURVE('',#384,#384,#322,.T.);
#470=EDGE_CURVE('',#384,#361,#229,.T.);
#471=EDGE_CURVE('',#385,#385,#323,.T.);
#472=EDGE_CURVE('',#385,#360,#230,.T.);
#473=EDGE_CURVE('',#386,#386,#324,.T.);
#474=EDGE_CURVE('',#386,#359,#231,.T.);
#475=EDGE_CURVE('',#387,#387,#325,.T.);
#476=EDGE_CURVE('',#387,#358,#232,.T.);
#477=EDGE_CURVE('',#388,#388,#326,.T.);
#478=EDGE_CURVE('',#388,#354,#233,.T.);
#479=EDGE_CURVE('',#389,#389,#327,.T.);
#480=EDGE_CURVE('',#389,#356,#234,.T.);
#481=EDGE_CURVE('',#390,#390,#328,.T.);
#482=EDGE_CURVE('',#390,#355,#235,.T.);
#483=EDGE_CURVE('',#391,#391,#329,.T.);
#484=EDGE_CURVE('',#391,#357,#236,.T.);
#485=ORIENTED_EDGE('',*,*,#392,.F.);
#486=ORIENTED_EDGE('',*,*,#393,.T.);
#487=ORIENTED_EDGE('',*,*,#394,.F.);
#488=ORIENTED_EDGE('',*,*,#393,.F.);
#489=ORIENTED_EDGE('',*,*,#395,.F.);
#490=ORIENTED_EDGE('',*,*,#396,.T.);
#491=ORIENTED_EDGE('',*,*,#397,.F.);
#492=ORIENTED_EDGE('',*,*,#396,.F.);
#493=ORIENTED_EDGE('',*,*,#398,.F.);
#494=ORIENTED_EDGE('',*,*,#399,.T.);
#495=ORIENTED_EDGE('',*,*,#400,.F.);
#496=ORIENTED_EDGE('',*,*,#399,.F.);
#497=ORIENTED_EDGE('',*,*,#401,.F.);
#498=ORIENTED_EDGE('',*,*,#402,.T.);
#499=ORIENTED_EDGE('',*,*,#403,.F.);
#500=ORIENTED_EDGE('',*,*,#402,.F.);
#501=ORIENTED_EDGE('',*,*,#404,.T.);
#502=ORIENTED_EDGE('',*,*,#405,.F.);
#503=ORIENTED_EDGE('',*,*,#406,.F.);
#504=ORIENTED_EDGE('',*,*,#407,.T.);
#505=ORIENTED_EDGE('',*,*,#408,.T.);
#506=ORIENTED_EDGE('',*,*,#409,.F.);
#507=ORIENTED_EDGE('',*,*,#410,.F.);
#508=ORIENTED_EDGE('',*,*,#405,.T.);
#509=ORIENTED_EDGE('',*,*,#411,.T.);
#510=ORIENTED_EDGE('',*,*,#412,.F.);
#511=ORIENTED_EDGE('',*,*,#413,.F.);
#512=ORIENTED_EDGE('',*,*,#409,.T.);
#513=ORIENTED_EDGE('',*,*,#414,.T.);
#514=ORIENTED_EDGE('',*,*,#415,.F.);
#515=ORIENTED_EDGE('',*,*,#416,.F.);
#516=ORIENTED_EDGE('',*,*,#412,.T.);
#517=ORIENTED_EDGE('',*,*,#417,.T.);
#518=ORIENTED_EDGE('',*,*,#418,.F.);
#519=ORIENTED_EDGE('',*,*,#419,.F.);
#520=ORIENTED_EDGE('',*,*,#415,.T.);
#521=ORIENTED_EDGE('',*,*,#420,.T.);
#522=ORIENTED_EDGE('',*,*,#421,.F.);
#523=ORIENTED_EDGE('',*,*,#422,.F.);
#524=ORIENTED_EDGE('',*,*,#418,.T.);
#525=ORIENTED_EDGE('',*,*,#423,.T.);
#526=ORIENTED_EDGE('',*,*,#424,.F.);
#527=ORIENTED_EDGE('',*,*,#425,.F.);
#528=ORIENTED_EDGE('',*,*,#421,.T.);
#529=ORIENTED_EDGE('',*,*,#426,.T.);
#530=ORIENTED_EDGE('',*,*,#407,.F.);
#531=ORIENTED_EDGE('',*,*,#427,.F.);
#532=ORIENTED_EDGE('',*,*,#424,.T.);
#533=ORIENTED_EDGE('',*,*,#406,.T.);
#534=ORIENTED_EDGE('',*,*,#410,.T.);
#535=ORIENTED_EDGE('',*,*,#413,.T.);
#536=ORIENTED_EDGE('',*,*,#416,.T.);
#537=ORIENTED_EDGE('',*,*,#419,.T.);
#538=ORIENTED_EDGE('',*,*,#422,.T.);
#539=ORIENTED_EDGE('',*,*,#425,.T.);
#540=ORIENTED_EDGE('',*,*,#427,.T.);
#541=ORIENTED_EDGE('',*,*,#428,.F.);
#542=ORIENTED_EDGE('',*,*,#429,.F.);
#543=ORIENTED_EDGE('',*,*,#430,.F.);
#544=ORIENTED_EDGE('',*,*,#431,.F.);
#545=ORIENTED_EDGE('',*,*,#432,.F.);
#546=ORIENTED_EDGE('',*,*,#433,.F.);
#547=ORIENTED_EDGE('',*,*,#434,.F.);
#548=ORIENTED_EDGE('',*,*,#435,.F.);
#549=ORIENTED_EDGE('',*,*,#436,.F.);
#550=ORIENTED_EDGE('',*,*,#437,.F.);
#551=ORIENTED_EDGE('',*,*,#438,.F.);
#552=ORIENTED_EDGE('',*,*,#439,.F.);
#553=ORIENTED_EDGE('',*,*,#440,.F.);
#554=ORIENTED_EDGE('',*,*,#441,.F.);
#555=ORIENTED_EDGE('',*,*,#442,.F.);
#556=ORIENTED_EDGE('',*,*,#443,.F.);
#557=ORIENTED_EDGE('',*,*,#444,.F.);
#558=ORIENTED_EDGE('',*,*,#445,.F.);
#559=ORIENTED_EDGE('',*,*,#446,.F.);
#560=ORIENTED_EDGE('',*,*,#404,.F.);
#561=ORIENTED_EDGE('',*,*,#426,.F.);
#562=ORIENTED_EDGE('',*,*,#423,.F.);
#563=ORIENTED_EDGE('',*,*,#420,.F.);
#564=ORIENTED_EDGE('',*,*,#417,.F.);
#565=ORIENTED_EDGE('',*,*,#414,.F.);
#566=ORIENTED_EDGE('',*,*,#411,.F.);
#567=ORIENTED_EDGE('',*,*,#408,.F.);
#568=ORIENTED_EDGE('',*,*,#401,.T.);
#569=ORIENTED_EDGE('',*,*,#398,.T.);
#570=ORIENTED_EDGE('',*,*,#395,.T.);
#571=ORIENTED_EDGE('',*,*,#392,.T.);
#572=ORIENTED_EDGE('',*,*,#447,.F.);
#573=ORIENTED_EDGE('',*,*,#448,.T.);
#574=ORIENTED_EDGE('',*,*,#446,.T.);
#575=ORIENTED_EDGE('',*,*,#448,.F.);
#576=ORIENTED_EDGE('',*,*,#447,.T.);
#577=ORIENTED_EDGE('',*,*,#449,.F.);
#578=ORIENTED_EDGE('',*,*,#450,.T.);
#579=ORIENTED_EDGE('',*,*,#445,.T.);
#580=ORIENTED_EDGE('',*,*,#450,.F.);
#581=ORIENTED_EDGE('',*,*,#449,.T.);
#582=ORIENTED_EDGE('',*,*,#451,.F.);
#583=ORIENTED_EDGE('',*,*,#452,.T.);
#584=ORIENTED_EDGE('',*,*,#444,.T.);
#585=ORIENTED_EDGE('',*,*,#452,.F.);
#586=ORIENTED_EDGE('',*,*,#451,.T.);
#587=ORIENTED_EDGE('',*,*,#453,.F.);
#588=ORIENTED_EDGE('',*,*,#454,.T.);
#589=ORIENTED_EDGE('',*,*,#443,.T.);
#590=ORIENTED_EDGE('',*,*,#454,.F.);
#591=ORIENTED_EDGE('',*,*,#453,.T.);
#592=ORIENTED_EDGE('',*,*,#455,.F.);
#593=ORIENTED_EDGE('',*,*,#456,.T.);
#594=ORIENTED_EDGE('',*,*,#442,.T.);
#595=ORIENTED_EDGE('',*,*,#456,.F.);
#596=ORIENTED_EDGE('',*,*,#455,.T.);
#597=ORIENTED_EDGE('',*,*,#457,.F.);
#598=ORIENTED_EDGE('',*,*,#458,.T.);
#599=ORIENTED_EDGE('',*,*,#441,.T.);
#600=ORIENTED_EDGE('',*,*,#458,.F.);
#601=ORIENTED_EDGE('',*,*,#457,.T.);
#602=ORIENTED_EDGE('',*,*,#459,.F.);
#603=ORIENTED_EDGE('',*,*,#460,.T.);
#604=ORIENTED_EDGE('',*,*,#440,.T.);
#605=ORIENTED_EDGE('',*,*,#460,.F.);
#606=ORIENTED_EDGE('',*,*,#459,.T.);
#607=ORIENTED_EDGE('',*,*,#461,.F.);
#608=ORIENTED_EDGE('',*,*,#462,.T.);
#609=ORIENTED_EDGE('',*,*,#439,.T.);
#610=ORIENTED_EDGE('',*,*,#462,.F.);
#611=ORIENTED_EDGE('',*,*,#461,.T.);
#612=ORIENTED_EDGE('',*,*,#463,.F.);
#613=ORIENTED_EDGE('',*,*,#464,.T.);
#614=ORIENTED_EDGE('',*,*,#438,.T.);
#615=ORIENTED_EDGE('',*,*,#464,.F.);
#616=ORIENTED_EDGE('',*,*,#463,.T.);
#617=ORIENTED_EDGE('',*,*,#465,.F.);
#618=ORIENTED_EDGE('',*,*,#466,.T.);
#619=ORIENTED_EDGE('',*,*,#437,.T.);
#620=ORIENTED_EDGE('',*,*,#466,.F.);
#621=ORIENTED_EDGE('',*,*,#465,.T.);
#622=ORIENTED_EDGE('',*,*,#467,.F.);
#623=ORIENTED_EDGE('',*,*,#468,.T.);
#624=ORIENTED_EDGE('',*,*,#436,.T.);
#625=ORIENTED_EDGE('',*,*,#468,.F.);
#626=ORIENTED_EDGE('',*,*,#467,.T.);
#627=ORIENTED_EDGE('',*,*,#469,.F.);
#628=ORIENTED_EDGE('',*,*,#470,.T.);
#629=ORIENTED_EDGE('',*,*,#435,.T.);
#630=ORIENTED_EDGE('',*,*,#470,.F.);
#631=ORIENTED_EDGE('',*,*,#469,.T.);
#632=ORIENTED_EDGE('',*,*,#471,.F.);
#633=ORIENTED_EDGE('',*,*,#472,.T.);
#634=ORIENTED_EDGE('',*,*,#434,.T.);
#635=ORIENTED_EDGE('',*,*,#472,.F.);
#636=ORIENTED_EDGE('',*,*,#471,.T.);
#637=ORIENTED_EDGE('',*,*,#473,.F.);
#638=ORIENTED_EDGE('',*,*,#474,.T.);
#639=ORIENTED_EDGE('',*,*,#433,.T.);
#640=ORIENTED_EDGE('',*,*,#474,.F.);
#641=ORIENTED_EDGE('',*,*,#473,.T.);
#642=ORIENTED_EDGE('',*,*,#475,.F.);
#643=ORIENTED_EDGE('',*,*,#476,.T.);
#644=ORIENTED_EDGE('',*,*,#432,.T.);
#645=ORIENTED_EDGE('',*,*,#476,.F.);
#646=ORIENTED_EDGE('',*,*,#475,.T.);
#647=ORIENTED_EDGE('',*,*,#477,.T.);
#648=ORIENTED_EDGE('',*,*,#403,.T.);
#649=ORIENTED_EDGE('',*,*,#477,.F.);
#650=ORIENTED_EDGE('',*,*,#478,.T.);
#651=ORIENTED_EDGE('',*,*,#428,.T.);
#652=ORIENTED_EDGE('',*,*,#478,.F.);
#653=ORIENTED_EDGE('',*,*,#479,.T.);
#654=ORIENTED_EDGE('',*,*,#400,.T.);
#655=ORIENTED_EDGE('',*,*,#479,.F.);
#656=ORIENTED_EDGE('',*,*,#480,.T.);
#657=ORIENTED_EDGE('',*,*,#430,.T.);
#658=ORIENTED_EDGE('',*,*,#480,.F.);
#659=ORIENTED_EDGE('',*,*,#481,.T.);
#660=ORIENTED_EDGE('',*,*,#397,.T.);
#661=ORIENTED_EDGE('',*,*,#481,.F.);
#662=ORIENTED_EDGE('',*,*,#482,.T.);
#663=ORIENTED_EDGE('',*,*,#429,.T.);
#664=ORIENTED_EDGE('',*,*,#482,.F.);
#665=ORIENTED_EDGE('',*,*,#483,.T.);
#666=ORIENTED_EDGE('',*,*,#394,.T.);
#667=ORIENTED_EDGE('',*,*,#483,.F.);
#668=ORIENTED_EDGE('',*,*,#484,.T.);
#669=ORIENTED_EDGE('',*,*,#431,.T.);
#670=ORIENTED_EDGE('',*,*,#484,.F.);
#671=CYLINDRICAL_SURFACE('',#752,2.54999999999999);
#672=CYLINDRICAL_SURFACE('',#755,2.54999999999999);
#673=CYLINDRICAL_SURFACE('',#758,2.54999999999999);
#674=CYLINDRICAL_SURFACE('',#761,2.54999999999999);
#675=CYLINDRICAL_SURFACE('',#764,0.999999999999997);
#676=CYLINDRICAL_SURFACE('',#768,1.);
#677=CYLINDRICAL_SURFACE('',#772,1.);
#678=CYLINDRICAL_SURFACE('',#776,1.);
#679=CYLINDRICAL_SURFACE('',#801,4.85);
#680=CYLINDRICAL_SURFACE('',#804,4.85);
#681=CYLINDRICAL_SURFACE('',#807,4.85);
#682=CYLINDRICAL_SURFACE('',#810,4.85);
#683=CYLINDRICAL_SURFACE('',#813,4.85);
#684=CYLINDRICAL_SURFACE('',#816,4.85);
#685=CYLINDRICAL_SURFACE('',#819,4.85);
#686=CYLINDRICAL_SURFACE('',#822,4.85);
#687=CYLINDRICAL_SURFACE('',#825,4.85);
#688=CYLINDRICAL_SURFACE('',#828,4.85);
#689=CYLINDRICAL_SURFACE('',#831,4.85);
#690=CYLINDRICAL_SURFACE('',#834,4.85);
#691=CYLINDRICAL_SURFACE('',#837,4.85);
#692=CYLINDRICAL_SURFACE('',#840,4.85);
#693=CYLINDRICAL_SURFACE('',#843,4.85);
#694=CYLINDRICAL_SURFACE('',#848,5.);
#695=CYLINDRICAL_SURFACE('',#851,5.);
#696=CYLINDRICAL_SURFACE('',#854,5.);
#697=CYLINDRICAL_SURFACE('',#857,5.);
#698=ADVANCED_FACE('',(#67),#671,.F.);
#699=ADVANCED_FACE('',(#68),#672,.F.);
#700=ADVANCED_FACE('',(#69),#673,.F.);
#701=ADVANCED_FACE('',(#70),#674,.F.);
#702=ADVANCED_FACE('',(#71),#675,.T.);
#703=ADVANCED_FACE('',(#72),#42,.F.);
#704=ADVANCED_FACE('',(#73),#676,.T.);
#705=ADVANCED_FACE('',(#74),#43,.F.);
#706=ADVANCED_FACE('',(#75),#677,.T.);
#707=ADVANCED_FACE('',(#76),#44,.F.);
#708=ADVANCED_FACE('',(#77),#678,.T.);
#709=ADVANCED_FACE('',(#78),#45,.F.);
#710=ADVANCED_FACE('',(#79,#15,#16,#17,#18,#19,#20,#21,#22,#23,#24,#25,
#26,#27,#28,#29,#30,#31,#32,#33),#46,.F.);
#711=ADVANCED_FACE('',(#80,#34,#35,#36,#37),#47,.T.);
#712=ADVANCED_FACE('',(#81),#679,.F.);
#713=ADVANCED_FACE('',(#82),#48,.T.);
#714=ADVANCED_FACE('',(#83),#680,.F.);
#715=ADVANCED_FACE('',(#84),#49,.T.);
#716=ADVANCED_FACE('',(#85),#681,.F.);
#717=ADVANCED_FACE('',(#86),#50,.T.);
#718=ADVANCED_FACE('',(#87),#682,.F.);
#719=ADVANCED_FACE('',(#88),#51,.T.);
#720=ADVANCED_FACE('',(#89),#683,.F.);
#721=ADVANCED_FACE('',(#90),#52,.T.);
#722=ADVANCED_FACE('',(#91),#684,.F.);
#723=ADVANCED_FACE('',(#92),#53,.T.);
#724=ADVANCED_FACE('',(#93),#685,.F.);
#725=ADVANCED_FACE('',(#94),#54,.T.);
#726=ADVANCED_FACE('',(#95),#686,.F.);
#727=ADVANCED_FACE('',(#96),#55,.T.);
#728=ADVANCED_FACE('',(#97),#687,.F.);
#729=ADVANCED_FACE('',(#98),#56,.T.);
#730=ADVANCED_FACE('',(#99),#688,.F.);
#731=ADVANCED_FACE('',(#100),#57,.T.);
#732=ADVANCED_FACE('',(#101),#689,.F.);
#733=ADVANCED_FACE('',(#102),#58,.T.);
#734=ADVANCED_FACE('',(#103),#690,.F.);
#735=ADVANCED_FACE('',(#104),#59,.T.);
#736=ADVANCED_FACE('',(#105),#691,.F.);
#737=ADVANCED_FACE('',(#106),#60,.T.);
#738=ADVANCED_FACE('',(#107),#692,.F.);
#739=ADVANCED_FACE('',(#108),#61,.T.);
#740=ADVANCED_FACE('',(#109),#693,.F.);
#741=ADVANCED_FACE('',(#110),#62,.T.);
#742=ADVANCED_FACE('',(#111,#38),#63,.T.);
#743=ADVANCED_FACE('',(#112),#694,.F.);
#744=ADVANCED_FACE('',(#113,#39),#64,.T.);
#745=ADVANCED_FACE('',(#114),#695,.F.);
#746=ADVANCED_FACE('',(#115,#40),#65,.T.);
#747=ADVANCED_FACE('',(#116),#696,.F.);
#748=ADVANCED_FACE('',(#117,#41),#66,.T.);
#749=ADVANCED_FACE('',(#118),#697,.F.);
#750=CLOSED_SHELL('',(#698,#699,#700,#701,#702,#703,#704,#705,#706,#707,
#708,#709,#710,#711,#712,#713,#714,#715,#716,#717,#718,#719,#720,#721,#722,
#723,#724,#725,#726,#727,#728,#729,#730,#731,#732,#733,#734,#735,#736,#737,
#738,#739,#740,#741,#742,#743,#744,#745,#746,#747,#748,#749));
#751=AXIS2_PLACEMENT_3D('',#1111,#858,#859);
#752=AXIS2_PLACEMENT_3D('',#1112,#860,#861);
#753=AXIS2_PLACEMENT_3D('',#1114,#862,#863);
#754=AXIS2_PLACEMENT_3D('',#1117,#865,#866);
#755=AXIS2_PLACEMENT_3D('',#1118,#867,#868);
#756=AXIS2_PLACEMENT_3D('',#1120,#869,#870);
#757=AXIS2_PLACEMENT_3D('',#1123,#872,#873);
#758=AXIS2_PLACEMENT_3D('',#1124,#874,#875);
#759=AXIS2_PLACEMENT_3D('',#1126,#876,#877);
#760=AXIS2_PLACEMENT_3D('',#1129,#879,#880);
#761=AXIS2_PLACEMENT_3D('',#1130,#881,#882);
#762=AXIS2_PLACEMENT_3D('',#1132,#883,#884);
#763=AXIS2_PLACEMENT_3D('',#1135,#886,#887);
#764=AXIS2_PLACEMENT_3D('',#1136,#888,#889);
#765=AXIS2_PLACEMENT_3D('',#1139,#890,#891);
#766=AXIS2_PLACEMENT_3D('',#1143,#893,#894);
#767=AXIS2_PLACEMENT_3D('',#1145,#896,#897);
#768=AXIS2_PLACEMENT_3D('',#1151,#901,#902);
#769=AXIS2_PLACEMENT_3D('',#1153,#903,#904);
#770=AXIS2_PLACEMENT_3D('',#1156,#906,#907);
#771=AXIS2_PLACEMENT_3D('',#1157,#908,#909);
#772=AXIS2_PLACEMENT_3D('',#1163,#913,#914);
#773=AXIS2_PLACEMENT_3D('',#1165,#915,#916);
#774=AXIS2_PLACEMENT_3D('',#1168,#918,#919);
#775=AXIS2_PLACEMENT_3D('',#1169,#920,#921);
#776=AXIS2_PLACEMENT_3D('',#1175,#925,#926);
#777=AXIS2_PLACEMENT_3D('',#1177,#927,#928);
#778=AXIS2_PLACEMENT_3D('',#1180,#930,#931);
#779=AXIS2_PLACEMENT_3D('',#1181,#932,#933);
#780=AXIS2_PLACEMENT_3D('',#1184,#936,#937);
#781=AXIS2_PLACEMENT_3D('',#1186,#938,#939);
#782=AXIS2_PLACEMENT_3D('',#1188,#940,#941);
#783=AXIS2_PLACEMENT_3D('',#1190,#942,#943);
#784=AXIS2_PLACEMENT_3D('',#1192,#944,#945);
#785=AXIS2_PLACEMENT_3D('',#1194,#946,#947);
#786=AXIS2_PLACEMENT_3D('',#1196,#948,#949);
#787=AXIS2_PLACEMENT_3D('',#1198,#950,#951);
#788=AXIS2_PLACEMENT_3D('',#1200,#952,#953);
#789=AXIS2_PLACEMENT_3D('',#1202,#954,#955);
#790=AXIS2_PLACEMENT_3D('',#1204,#956,#957);
#791=AXIS2_PLACEMENT_3D('',#1206,#958,#959);
#792=AXIS2_PLACEMENT_3D('',#1208,#960,#961);
#793=AXIS2_PLACEMENT_3D('',#1210,#962,#963);
#794=AXIS2_PLACEMENT_3D('',#1212,#964,#965);
#795=AXIS2_PLACEMENT_3D('',#1214,#966,#967);
#796=AXIS2_PLACEMENT_3D('',#1216,#968,#969);
#797=AXIS2_PLACEMENT_3D('',#1218,#970,#971);
#798=AXIS2_PLACEMENT_3D('',#1220,#972,#973);
#799=AXIS2_PLACEMENT_3D('',#1222,#974,#975);
#800=AXIS2_PLACEMENT_3D('',#1223,#976,#977);
#801=AXIS2_PLACEMENT_3D('',#1224,#978,#979);
#802=AXIS2_PLACEMENT_3D('',#1226,#980,#981);
#803=AXIS2_PLACEMENT_3D('',#1228,#983,#984);
#804=AXIS2_PLACEMENT_3D('',#1229,#985,#986);
#805=AXIS2_PLACEMENT_3D('',#1231,#987,#988);
#806=AXIS2_PLACEMENT_3D('',#1233,#990,#991);
#807=AXIS2_PLACEMENT_3D('',#1234,#992,#993);
#808=AXIS2_PLACEMENT_3D('',#1236,#994,#995);
#809=AXIS2_PLACEMENT_3D('',#1238,#997,#998);
#810=AXIS2_PLACEMENT_3D('',#1239,#999,#1000);
#811=AXIS2_PLACEMENT_3D('',#1241,#1001,#1002);
#812=AXIS2_PLACEMENT_3D('',#1243,#1004,#1005);
#813=AXIS2_PLACEMENT_3D('',#1244,#1006,#1007);
#814=AXIS2_PLACEMENT_3D('',#1246,#1008,#1009);
#815=AXIS2_PLACEMENT_3D('',#1248,#1011,#1012);
#816=AXIS2_PLACEMENT_3D('',#1249,#1013,#1014);
#817=AXIS2_PLACEMENT_3D('',#1251,#1015,#1016);
#818=AXIS2_PLACEMENT_3D('',#1253,#1018,#1019);
#819=AXIS2_PLACEMENT_3D('',#1254,#1020,#1021);
#820=AXIS2_PLACEMENT_3D('',#1256,#1022,#1023);
#821=AXIS2_PLACEMENT_3D('',#1258,#1025,#1026);
#822=AXIS2_PLACEMENT_3D('',#1259,#1027,#1028);
#823=AXIS2_PLACEMENT_3D('',#1261,#1029,#1030);
#824=AXIS2_PLACEMENT_3D('',#1263,#1032,#1033);
#825=AXIS2_PLACEMENT_3D('',#1264,#1034,#1035);
#826=AXIS2_PLACEMENT_3D('',#1266,#1036,#1037);
#827=AXIS2_PLACEMENT_3D('',#1268,#1039,#1040);
#828=AXIS2_PLACEMENT_3D('',#1269,#1041,#1042);
#829=AXIS2_PLACEMENT_3D('',#1271,#1043,#1044);
#830=AXIS2_PLACEMENT_3D('',#1273,#1046,#1047);
#831=AXIS2_PLACEMENT_3D('',#1274,#1048,#1049);
#832=AXIS2_PLACEMENT_3D('',#1276,#1050,#1051);
#833=AXIS2_PLACEMENT_3D('',#1278,#1053,#1054);
#834=AXIS2_PLACEMENT_3D('',#1279,#1055,#1056);
#835=AXIS2_PLACEMENT_3D('',#1281,#1057,#1058);
#836=AXIS2_PLACEMENT_3D('',#1283,#1060,#1061);
#837=AXIS2_PLACEMENT_3D('',#1284,#1062,#1063);
#838=AXIS2_PLACEMENT_3D('',#1286,#1064,#1065);
#839=AXIS2_PLACEMENT_3D('',#1288,#1067,#1068);
#840=AXIS2_PLACEMENT_3D('',#1289,#1069,#1070);
#841=AXIS2_PLACEMENT_3D('',#1291,#1071,#1072);
#842=AXIS2_PLACEMENT_3D('',#1293,#1074,#1075);
#843=AXIS2_PLACEMENT_3D('',#1294,#1076,#1077);
#844=AXIS2_PLACEMENT_3D('',#1296,#1078,#1079);
#845=AXIS2_PLACEMENT_3D('',#1298,#1081,#1082);
#846=AXIS2_PLACEMENT_3D('',#1299,#1083,#1084);
#847=AXIS2_PLACEMENT_3D('',#1301,#1085,#1086);
#848=AXIS2_PLACEMENT_3D('',#1302,#1087,#1088);
#849=AXIS2_PLACEMENT_3D('',#1304,#1090,#1091);
#850=AXIS2_PLACEMENT_3D('',#1306,#1092,#1093);
#851=AXIS2_PLACEMENT_3D('',#1307,#1094,#1095);
#852=AXIS2_PLACEMENT_3D('',#1309,#1097,#1098);
#853=AXIS2_PLACEMENT_3D('',#1311,#1099,#1100);
#854=AXIS2_PLACEMENT_3D('',#1312,#1101,#1102);
#855=AXIS2_PLACEMENT_3D('',#1314,#1104,#1105);
#856=AXIS2_PLACEMENT_3D('',#1316,#1106,#1107);
#857=AXIS2_PLACEMENT_3D('',#1317,#1108,#1109);
#858=DIRECTION('axis',(0.,0.,1.));
#859=DIRECTION('refdir',(1.,0.,0.));
#860=DIRECTION('center_axis',(-1.50538715203411E-16,-2.22044604925031E-16,
1.));
#861=DIRECTION('ref_axis',(1.50538715203411E-16,-1.,-2.22044604925031E-16));
#862=DIRECTION('center_axis',(-1.50538715203411E-16,-2.22044604925031E-16,
1.));
#863=DIRECTION('ref_axis',(1.50538715203411E-16,-1.,-2.22044604925031E-16));
#864=DIRECTION('',(-1.50538715203411E-16,-2.22044604925031E-16,1.));
#865=DIRECTION('center_axis',(-1.50538715203411E-16,-2.22044604925031E-16,
1.));
#866=DIRECTION('ref_axis',(1.50538715203411E-16,-1.,-2.22044604925031E-16));
#867=DIRECTION('center_axis',(-1.50538715203411E-16,-2.22044604925031E-16,
1.));
#868=DIRECTION('ref_axis',(1.50538715203411E-16,-1.,-2.22044604925031E-16));
#869=DIRECTION('center_axis',(-1.50538715203411E-16,-2.22044604925031E-16,
1.));
#870=DIRECTION('ref_axis',(1.50538715203411E-16,-1.,-2.22044604925031E-16));
#871=DIRECTION('',(-1.50538715203411E-16,-2.22044604925031E-16,1.));
#872=DIRECTION('center_axis',(-1.50538715203411E-16,-2.22044604925031E-16,
1.));
#873=DIRECTION('ref_axis',(1.50538715203411E-16,-1.,-2.22044604925031E-16));
#874=DIRECTION('center_axis',(-1.50538715203411E-16,-2.22044604925031E-16,
1.));
#875=DIRECTION('ref_axis',(1.50538715203411E-16,-1.,-2.22044604925031E-16));
#876=DIRECTION('center_axis',(-1.50538715203411E-16,-2.22044604925031E-16,
1.));
#877=DIRECTION('ref_axis',(1.50538715203411E-16,-1.,-2.22044604925031E-16));
#878=DIRECTION('',(-1.50538715203411E-16,-2.22044604925031E-16,1.));
#879=DIRECTION('center_axis',(-1.50538715203411E-16,-2.22044604925031E-16,
1.));
#880=DIRECTION('ref_axis',(1.50538715203411E-16,-1.,-2.22044604925031E-16));
#881=DIRECTION('center_axis',(-1.50538715203411E-16,-2.22044604925031E-16,
1.));
#882=DIRECTION('ref_axis',(1.50538715203411E-16,-1.,-2.22044604925031E-16));
#883=DIRECTION('center_axis',(-1.50538715203411E-16,-2.22044604925031E-16,
1.));
#884=DIRECTION('ref_axis',(1.50538715203411E-16,-1.,-2.22044604925031E-16));
#885=DIRECTION('',(-1.50538715203411E-16,-2.22044604925031E-16,1.));
#886=DIRECTION('center_axis',(-1.50538715203411E-16,-2.22044604925031E-16,
1.));
#887=DIRECTION('ref_axis',(1.50538715203411E-16,-1.,-2.22044604925031E-16));
#888=DIRECTION('center_axis',(1.50538715203411E-16,2.22044604925031E-16,
-1.));
#889=DIRECTION('ref_axis',(-1.50538715203411E-16,1.,2.22044604925031E-16));
#890=DIRECTION('center_axis',(-1.50538715203411E-16,-2.22044604925031E-16,
1.));
#891=DIRECTION('ref_axis',(-1.50538715203411E-16,1.,2.22044604925031E-16));
#892=DIRECTION('',(1.50538715203411E-16,2.22044604925031E-16,-1.));
#893=DIRECTION('center_axis',(-1.50538715203411E-16,-2.22044604925031E-16,
1.));
#894=DIRECTION('ref_axis',(-1.50538715203411E-16,1.,2.22044604925031E-16));
#895=DIRECTION('',(1.50538715203411E-16,2.22044604925031E-16,-1.));
#896=DIRECTION('center_axis',(-9.17345295770787E-17,1.,2.22044604925031E-16));
#897=DIRECTION('ref_axis',(-1.,-9.17345295770786E-17,-1.50538715203411E-16));
#898=DIRECTION('',(1.,7.52693576017055E-17,1.50538715203411E-16));
#899=DIRECTION('',(1.50538715203411E-16,2.22044604925031E-16,-1.));
#900=DIRECTION('',(1.,7.52693576017055E-17,1.50538715203411E-16));
#901=DIRECTION('center_axis',(1.50538715203411E-16,2.22044604925031E-16,
-1.));
#902=DIRECTION('ref_axis',(-1.50538715203411E-16,1.,2.22044604925031E-16));
#903=DIRECTION('center_axis',(-1.50538715203411E-16,-2.22044604925031E-16,
1.));
#904=DIRECTION('ref_axis',(1.50538715203411E-16,-1.,-2.22044604925031E-16));
#905=DIRECTION('',(1.50538715203411E-16,2.22044604925031E-16,-1.));
#906=DIRECTION('center_axis',(-1.50538715203411E-16,-2.22044604925031E-16,
1.));
#907=DIRECTION('ref_axis',(1.50538715203411E-16,-1.,-2.22044604925031E-16));
#908=DIRECTION('center_axis',(-1.,-1.50538715203411E-16,-1.50538715203411E-16));
#909=DIRECTION('ref_axis',(1.50538715203411E-16,-1.,-2.22044604925031E-16));
#910=DIRECTION('',(-1.50538715203411E-16,1.,2.22044604925031E-16));
#911=DIRECTION('',(1.50538715203411E-16,2.22044604925031E-16,-1.));
#912=DIRECTION('',(-1.50538715203411E-16,1.,2.22044604925031E-16));
#913=DIRECTION('center_axis',(1.50538715203411E-16,2.22044604925031E-16,
-1.));
#914=DIRECTION('ref_axis',(-1.50538715203411E-16,1.,2.22044604925031E-16));
#915=DIRECTION('center_axis',(-1.50538715203411E-16,-2.22044604925031E-16,
1.));
#916=DIRECTION('ref_axis',(-1.50538715203411E-16,1.,2.22044604925031E-16));
#917=DIRECTION('',(1.50538715203411E-16,2.22044604925031E-16,-1.));
#918=DIRECTION('center_axis',(-1.50538715203411E-16,-2.22044604925031E-16,
1.));
#919=DIRECTION('ref_axis',(-1.50538715203411E-16,1.,2.22044604925031E-16));
#920=DIRECTION('center_axis',(9.17345295770787E-17,-1.,-2.22044604925031E-16));
#921=DIRECTION('ref_axis',(1.,9.17345295770786E-17,1.50538715203411E-16));
#922=DIRECTION('',(-1.,-7.52693576017055E-17,-1.50538715203411E-16));
#923=DIRECTION('',(1.50538715203411E-16,2.22044604925031E-16,-1.));
#924=DIRECTION('',(-1.,-7.52693576017055E-17,-1.50538715203411E-16));
#925=DIRECTION('center_axis',(1.50538715203411E-16,2.22044604925031E-16,
-1.));
#926=DIRECTION('ref_axis',(-1.50538715203411E-16,1.,2.22044604925031E-16));
#927=DIRECTION('center_axis',(-1.50538715203411E-16,-2.22044604925031E-16,
1.));
#928=DIRECTION('ref_axis',(-1.50538715203411E-16,1.,2.22044604925031E-16));
#929=DIRECTION('',(1.50538715203411E-16,2.22044604925031E-16,-1.));
#930=DIRECTION('center_axis',(-1.50538715203411E-16,-2.22044604925031E-16,
1.));
#931=DIRECTION('ref_axis',(-1.50538715203411E-16,1.,2.22044604925031E-16));
#932=DIRECTION('center_axis',(1.,1.50538715203411E-16,1.50538715203411E-16));
#933=DIRECTION('ref_axis',(-1.50538715203411E-16,1.,2.22044604925031E-16));
#934=DIRECTION('',(1.50538715203411E-16,-1.,-2.22044604925031E-16));
#935=DIRECTION('',(1.50538715203411E-16,-1.,-2.22044604925031E-16));
#936=DIRECTION('center_axis',(1.50538715203411E-16,2.22044604925031E-16,
-1.));
#937=DIRECTION('ref_axis',(-1.50538715203411E-16,1.,2.22044604925031E-16));
#938=DIRECTION('center_axis',(-1.50538715203411E-16,-2.22044604925031E-16,
1.));
#939=DIRECTION('ref_axis',(1.50538715203411E-16,-1.,-2.22044604925031E-16));
#940=DIRECTION('center_axis',(-1.50538715203411E-16,-2.22044604925031E-16,
1.));
#941=DIRECTION('ref_axis',(1.50538715203411E-16,-1.,-2.22044604925031E-16));
#942=DIRECTION('center_axis',(-1.50538715203411E-16,-2.22044604925031E-16,
1.));
#943=DIRECTION('ref_axis',(1.50538715203411E-16,-1.,-2.22044604925031E-16));
#944=DIRECTION('center_axis',(-1.50538715203411E-16,-2.22044604925031E-16,
1.));
#945=DIRECTION('ref_axis',(1.50538715203411E-16,-1.,-2.22044604925031E-16));
#946=DIRECTION('center_axis',(-1.50538715203411E-16,-2.22044604925031E-16,
1.));
#947=DIRECTION('ref_axis',(1.50538715203411E-16,-1.,-2.22044604925031E-16));
#948=DIRECTION('center_axis',(-1.50538715203411E-16,-2.22044604925031E-16,
1.));
#949=DIRECTION('ref_axis',(1.50538715203411E-16,-1.,-2.22044604925031E-16));
#950=DIRECTION('center_axis',(-1.50538715203411E-16,-2.22044604925031E-16,
1.));
#951=DIRECTION('ref_axis',(1.50538715203411E-16,-1.,-2.22044604925031E-16));
#952=DIRECTION('center_axis',(-1.50538715203411E-16,-2.22044604925031E-16,
1.));
#953=DIRECTION('ref_axis',(1.50538715203411E-16,-1.,-2.22044604925031E-16));
#954=DIRECTION('center_axis',(-1.50538715203411E-16,-2.22044604925031E-16,
1.));
#955=DIRECTION('ref_axis',(1.50538715203411E-16,-1.,-2.22044604925031E-16));
#956=DIRECTION('center_axis',(-1.50538715203411E-16,-2.22044604925031E-16,
1.));
#957=DIRECTION('ref_axis',(1.50538715203411E-16,-1.,-2.22044604925031E-16));
#958=DIRECTION('center_axis',(-1.50538715203411E-16,-2.22044604925031E-16,
1.));
#959=DIRECTION('ref_axis',(1.50538715203411E-16,-1.,-2.22044604925031E-16));
#960=DIRECTION('center_axis',(-1.50538715203411E-16,-2.22044604925031E-16,
1.));
#961=DIRECTION('ref_axis',(1.50538715203411E-16,-1.,-2.22044604925031E-16));
#962=DIRECTION('center_axis',(-1.50538715203411E-16,-2.22044604925031E-16,
1.));
#963=DIRECTION('ref_axis',(1.50538715203411E-16,-1.,-2.22044604925031E-16));
#964=DIRECTION('center_axis',(-1.50538715203411E-16,-2.22044604925031E-16,
1.));
#965=DIRECTION('ref_axis',(1.50538715203411E-16,-1.,-2.22044604925031E-16));
#966=DIRECTION('center_axis',(-1.50538715203411E-16,-2.22044604925031E-16,
1.));
#967=DIRECTION('ref_axis',(1.50538715203411E-16,-1.,-2.22044604925031E-16));
#968=DIRECTION('center_axis',(-1.50538715203411E-16,-2.22044604925031E-16,
1.));
#969=DIRECTION('ref_axis',(1.50538715203411E-16,-1.,-2.22044604925031E-16));
#970=DIRECTION('center_axis',(-1.50538715203411E-16,-2.22044604925031E-16,
1.));
#971=DIRECTION('ref_axis',(1.50538715203411E-16,-1.,-2.22044604925031E-16));
#972=DIRECTION('center_axis',(-1.50538715203411E-16,-2.22044604925031E-16,
1.));
#973=DIRECTION('ref_axis',(1.50538715203411E-16,-1.,-2.22044604925031E-16));
#974=DIRECTION('center_axis',(-1.50538715203411E-16,-2.22044604925031E-16,
1.));
#975=DIRECTION('ref_axis',(1.50538715203411E-16,-1.,-2.22044604925031E-16));
#976=DIRECTION('center_axis',(1.50538715203411E-16,2.22044604925031E-16,
-1.));
#977=DIRECTION('ref_axis',(-1.50538715203411E-16,1.,2.22044604925031E-16));
#978=DIRECTION('center_axis',(-1.50538715203411E-16,-2.22044604925031E-16,
1.));
#979=DIRECTION('ref_axis',(1.50538715203411E-16,-1.,-2.22044604925031E-16));
#980=DIRECTION('center_axis',(-1.50538715203411E-16,-2.22044604925031E-16,
1.));
#981=DIRECTION('ref_axis',(1.50538715203411E-16,-1.,-2.22044604925031E-16));
#982=DIRECTION('',(-1.50538715203411E-16,-2.22044604925031E-16,1.));
#983=DIRECTION('center_axis',(-1.50538715203411E-16,-2.22044604925031E-16,
1.));
#984=DIRECTION('ref_axis',(1.50538715203411E-16,-1.,-2.22044604925031E-16));
#985=DIRECTION('center_axis',(-1.50538715203411E-16,-2.22044604925031E-16,
1.));
#986=DIRECTION('ref_axis',(1.50538715203411E-16,-1.,-2.22044604925031E-16));
#987=DIRECTION('center_axis',(-1.50538715203411E-16,-2.22044604925031E-16,
1.));
#988=DIRECTION('ref_axis',(1.50538715203411E-16,-1.,-2.22044604925031E-16));
#989=DIRECTION('',(-1.50538715203411E-16,-2.22044604925031E-16,1.));
#990=DIRECTION('center_axis',(-1.50538715203411E-16,-2.22044604925031E-16,
1.));
#991=DIRECTION('ref_axis',(1.50538715203411E-16,-1.,-2.22044604925031E-16));
#992=DIRECTION('center_axis',(-1.50538715203411E-16,-2.22044604925031E-16,
1.));
#993=DIRECTION('ref_axis',(1.50538715203411E-16,-1.,-2.22044604925031E-16));
#994=DIRECTION('center_axis',(-1.50538715203411E-16,-2.22044604925031E-16,
1.));
#995=DIRECTION('ref_axis',(1.50538715203411E-16,-1.,-2.22044604925031E-16));
#996=DIRECTION('',(-1.50538715203411E-16,-2.22044604925031E-16,1.));
#997=DIRECTION('center_axis',(-1.50538715203411E-16,-2.22044604925031E-16,
1.));
#998=DIRECTION('ref_axis',(1.50538715203411E-16,-1.,-2.22044604925031E-16));
#999=DIRECTION('center_axis',(-1.50538715203411E-16,-2.22044604925031E-16,
1.));
#1000=DIRECTION('ref_axis',(1.50538715203411E-16,-1.,-2.22044604925031E-16));
#1001=DIRECTION('center_axis',(-1.50538715203411E-16,-2.22044604925031E-16,
1.));
#1002=DIRECTION('ref_axis',(1.50538715203411E-16,-1.,-2.22044604925031E-16));
#1003=DIRECTION('',(-1.50538715203411E-16,-2.22044604925031E-16,1.));
#1004=DIRECTION('center_axis',(-1.50538715203411E-16,-2.22044604925031E-16,
1.));
#1005=DIRECTION('ref_axis',(1.50538715203411E-16,-1.,-2.22044604925031E-16));
#1006=DIRECTION('center_axis',(-1.50538715203411E-16,-2.22044604925031E-16,
1.));
#1007=DIRECTION('ref_axis',(1.50538715203411E-16,-1.,-2.22044604925031E-16));
#1008=DIRECTION('center_axis',(-1.50538715203411E-16,-2.22044604925031E-16,
1.));
#1009=DIRECTION('ref_axis',(1.50538715203411E-16,-1.,-2.22044604925031E-16));
#1010=DIRECTION('',(-1.50538715203411E-16,-2.22044604925031E-16,1.));
#1011=DIRECTION('center_axis',(-1.50538715203411E-16,-2.22044604925031E-16,
1.));
#1012=DIRECTION('ref_axis',(1.50538715203411E-16,-1.,-2.22044604925031E-16));
#1013=DIRECTION('center_axis',(-1.50538715203411E-16,-2.22044604925031E-16,
1.));
#1014=DIRECTION('ref_axis',(1.50538715203411E-16,-1.,-2.22044604925031E-16));
#1015=DIRECTION('center_axis',(-1.50538715203411E-16,-2.22044604925031E-16,
1.));
#1016=DIRECTION('ref_axis',(1.50538715203411E-16,-1.,-2.22044604925031E-16));
#1017=DIRECTION('',(-1.50538715203411E-16,-2.22044604925031E-16,1.));
#1018=DIRECTION('center_axis',(-1.50538715203411E-16,-2.22044604925031E-16,
1.));
#1019=DIRECTION('ref_axis',(1.50538715203411E-16,-1.,-2.22044604925031E-16));
#1020=DIRECTION('center_axis',(-1.50538715203411E-16,-2.22044604925031E-16,
1.));
#1021=DIRECTION('ref_axis',(1.50538715203411E-16,-1.,-2.22044604925031E-16));
#1022=DIRECTION('center_axis',(-1.50538715203411E-16,-2.22044604925031E-16,
1.));
#1023=DIRECTION('ref_axis',(1.50538715203411E-16,-1.,-2.22044604925031E-16));
#1024=DIRECTION('',(-1.50538715203411E-16,-2.22044604925031E-16,1.));
#1025=DIRECTION('center_axis',(-1.50538715203411E-16,-2.22044604925031E-16,
1.));
#1026=DIRECTION('ref_axis',(1.50538715203411E-16,-1.,-2.22044604925031E-16));
#1027=DIRECTION('center_axis',(-1.50538715203411E-16,-2.22044604925031E-16,
1.));
#1028=DIRECTION('ref_axis',(1.50538715203411E-16,-1.,-2.22044604925031E-16));
#1029=DIRECTION('center_axis',(-1.50538715203411E-16,-2.22044604925031E-16,
1.));
#1030=DIRECTION('ref_axis',(1.50538715203411E-16,-1.,-2.22044604925031E-16));
#1031=DIRECTION('',(-1.50538715203411E-16,-2.22044604925031E-16,1.));
#1032=DIRECTION('center_axis',(-1.50538715203411E-16,-2.22044604925031E-16,
1.));
#1033=DIRECTION('ref_axis',(1.50538715203411E-16,-1.,-2.22044604925031E-16));
#1034=DIRECTION('center_axis',(-1.50538715203411E-16,-2.22044604925031E-16,
1.));
#1035=DIRECTION('ref_axis',(1.50538715203411E-16,-1.,-2.22044604925031E-16));
#1036=DIRECTION('center_axis',(-1.50538715203411E-16,-2.22044604925031E-16,
1.));
#1037=DIRECTION('ref_axis',(1.50538715203411E-16,-1.,-2.22044604925031E-16));
#1038=DIRECTION('',(-1.50538715203411E-16,-2.22044604925031E-16,1.));
#1039=DIRECTION('center_axis',(-1.50538715203411E-16,-2.22044604925031E-16,
1.));
#1040=DIRECTION('ref_axis',(1.50538715203411E-16,-1.,-2.22044604925031E-16));
#1041=DIRECTION('center_axis',(-1.50538715203411E-16,-2.22044604925031E-16,
1.));
#1042=DIRECTION('ref_axis',(1.50538715203411E-16,-1.,-2.22044604925031E-16));
#1043=DIRECTION('center_axis',(-1.50538715203411E-16,-2.22044604925031E-16,
1.));
#1044=DIRECTION('ref_axis',(1.50538715203411E-16,-1.,-2.22044604925031E-16));
#1045=DIRECTION('',(-1.50538715203411E-16,-2.22044604925031E-16,1.));
#1046=DIRECTION('center_axis',(-1.50538715203411E-16,-2.22044604925031E-16,
1.));
#1047=DIRECTION('ref_axis',(1.50538715203411E-16,-1.,-2.22044604925031E-16));
#1048=DIRECTION('center_axis',(-1.50538715203411E-16,-2.22044604925031E-16,
1.));
#1049=DIRECTION('ref_axis',(1.50538715203411E-16,-1.,-2.22044604925031E-16));
#1050=DIRECTION('center_axis',(-1.50538715203411E-16,-2.22044604925031E-16,
1.));
#1051=DIRECTION('ref_axis',(1.50538715203411E-16,-1.,-2.22044604925031E-16));
#1052=DIRECTION('',(-1.50538715203411E-16,-2.22044604925031E-16,1.));
#1053=DIRECTION('center_axis',(-1.50538715203411E-16,-2.22044604925031E-16,
1.));
#1054=DIRECTION('ref_axis',(1.50538715203411E-16,-1.,-2.22044604925031E-16));
#1055=DIRECTION('center_axis',(-1.50538715203411E-16,-2.22044604925031E-16,
1.));
#1056=DIRECTION('ref_axis',(1.50538715203411E-16,-1.,-2.22044604925031E-16));
#1057=DIRECTION('center_axis',(-1.50538715203411E-16,-2.22044604925031E-16,
1.));
#1058=DIRECTION('ref_axis',(1.50538715203411E-16,-1.,-2.22044604925031E-16));
#1059=DIRECTION('',(-1.50538715203411E-16,-2.22044604925031E-16,1.));
#1060=DIRECTION('center_axis',(-1.50538715203411E-16,-2.22044604925031E-16,
1.));
#1061=DIRECTION('ref_axis',(1.50538715203411E-16,-1.,-2.22044604925031E-16));
#1062=DIRECTION('center_axis',(-1.50538715203411E-16,-2.22044604925031E-16,
1.));
#1063=DIRECTION('ref_axis',(1.50538715203411E-16,-1.,-2.22044604925031E-16));
#1064=DIRECTION('center_axis',(-1.50538715203411E-16,-2.22044604925031E-16,
1.));
#1065=DIRECTION('ref_axis',(1.50538715203411E-16,-1.,-2.22044604925031E-16));
#1066=DIRECTION('',(-1.50538715203411E-16,-2.22044604925031E-16,1.));
#1067=DIRECTION('center_axis',(-1.50538715203411E-16,-2.22044604925031E-16,
1.));
#1068=DIRECTION('ref_axis',(1.50538715203411E-16,-1.,-2.22044604925031E-16));
#1069=DIRECTION('center_axis',(-1.50538715203411E-16,-2.22044604925031E-16,
1.));
#1070=DIRECTION('ref_axis',(1.50538715203411E-16,-1.,-2.22044604925031E-16));
#1071=DIRECTION('center_axis',(-1.50538715203411E-16,-2.22044604925031E-16,
1.));
#1072=DIRECTION('ref_axis',(1.50538715203411E-16,-1.,-2.22044604925031E-16));
#1073=DIRECTION('',(-1.50538715203411E-16,-2.22044604925031E-16,1.));
#1074=DIRECTION('center_axis',(-1.50538715203411E-16,-2.22044604925031E-16,
1.));
#1075=DIRECTION('ref_axis',(1.50538715203411E-16,-1.,-2.22044604925031E-16));
#1076=DIRECTION('center_axis',(-1.50538715203411E-16,-2.22044604925031E-16,
1.));
#1077=DIRECTION('ref_axis',(1.50538715203411E-16,-1.,-2.22044604925031E-16));
#1078=DIRECTION('center_axis',(-1.50538715203411E-16,-2.22044604925031E-16,
1.));
#1079=DIRECTION('ref_axis',(1.50538715203411E-16,-1.,-2.22044604925031E-16));
#1080=DIRECTION('',(-1.50538715203411E-16,-2.22044604925031E-16,1.));
#1081=DIRECTION('center_axis',(-1.50538715203411E-16,-2.22044604925031E-16,
1.));
#1082=DIRECTION('ref_axis',(1.50538715203411E-16,-1.,-2.22044604925031E-16));
#1083=DIRECTION('center_axis',(-1.50538715203411E-16,-2.22044604925031E-16,
1.));
#1084=DIRECTION('ref_axis',(1.50538715203411E-16,-1.,-2.22044604925031E-16));
#1085=DIRECTION('center_axis',(-1.50538715203411E-16,-2.22044604925031E-16,
1.));
#1086=DIRECTION('ref_axis',(1.50538715203411E-16,-1.,-2.22044604925031E-16));
#1087=DIRECTION('center_axis',(-1.50538715203411E-16,-2.22044604925031E-16,
1.));
#1088=DIRECTION('ref_axis',(1.50538715203411E-16,-1.,-2.22044604925031E-16));
#1089=DIRECTION('',(-1.50538715203411E-16,-2.22044604925031E-16,1.));
#1090=DIRECTION('center_axis',(-1.50538715203411E-16,-2.22044604925031E-16,
1.));
#1091=DIRECTION('ref_axis',(1.50538715203411E-16,-1.,-2.22044604925031E-16));
#1092=DIRECTION('center_axis',(-1.50538715203411E-16,-2.22044604925031E-16,
1.));
#1093=DIRECTION('ref_axis',(1.50538715203411E-16,-1.,-2.22044604925031E-16));
#1094=DIRECTION('center_axis',(-1.50538715203411E-16,-2.22044604925031E-16,
1.));
#1095=DIRECTION('ref_axis',(1.50538715203411E-16,-1.,-2.22044604925031E-16));
#1096=DIRECTION('',(-1.50538715203411E-16,-2.22044604925031E-16,1.));
#1097=DIRECTION('center_axis',(-1.50538715203411E-16,-2.22044604925031E-16,
1.));
#1098=DIRECTION('ref_axis',(1.50538715203411E-16,-1.,-2.22044604925031E-16));
#1099=DIRECTION('center_axis',(-1.50538715203411E-16,-2.22044604925031E-16,
1.));
#1100=DIRECTION('ref_axis',(1.50538715203411E-16,-1.,-2.22044604925031E-16));
#1101=DIRECTION('center_axis',(-1.50538715203411E-16,-2.22044604925031E-16,
1.));
#1102=DIRECTION('ref_axis',(1.50538715203411E-16,-1.,-2.22044604925031E-16));
#1103=DIRECTION('',(-1.50538715203411E-16,-2.22044604925031E-16,1.));
#1104=DIRECTION('center_axis',(-1.50538715203411E-16,-2.22044604925031E-16,
1.));
#1105=DIRECTION('ref_axis',(1.50538715203411E-16,-1.,-2.22044604925031E-16));
#1106=DIRECTION('center_axis',(-1.50538715203411E-16,-2.22044604925031E-16,
1.));
#1107=DIRECTION('ref_axis',(1.50538715203411E-16,-1.,-2.22044604925031E-16));
#1108=DIRECTION('center_axis',(-1.50538715203411E-16,-2.22044604925031E-16,
1.));
#1109=DIRECTION('ref_axis',(1.50538715203411E-16,-1.,-2.22044604925031E-16));
#1110=DIRECTION('',(-1.50538715203411E-16,-2.22044604925031E-16,1.));
#1111=CARTESIAN_POINT('',(0.,0.,0.));
#1112=CARTESIAN_POINT('Origin',(-37.5,50.5,117.));
#1113=CARTESIAN_POINT('',(-37.5,53.05,117.));
#1114=CARTESIAN_POINT('Origin',(-37.5,50.5,117.));
#1115=CARTESIAN_POINT('',(-37.5,53.05,130.1));
#1116=CARTESIAN_POINT('',(-37.5,53.05,117.));
#1117=CARTESIAN_POINT('Origin',(-37.5,50.5,130.1));
#1118=CARTESIAN_POINT('Origin',(37.5,50.5,117.));
#1119=CARTESIAN_POINT('',(37.5,53.05,117.));
#1120=CARTESIAN_POINT('Origin',(37.5,50.5,117.));
#1121=CARTESIAN_POINT('',(37.5,53.05,130.1));
#1122=CARTESIAN_POINT('',(37.5,53.05,117.));
#1123=CARTESIAN_POINT('Origin',(37.5,50.5,130.1));
#1124=CARTESIAN_POINT('Origin',(37.5,23.5,117.));
#1125=CARTESIAN_POINT('',(37.5,26.05,117.));
#1126=CARTESIAN_POINT('Origin',(37.5,23.5,117.));
#1127=CARTESIAN_POINT('',(37.5,26.05,130.1));
#1128=CARTESIAN_POINT('',(37.5,26.05,117.));
#1129=CARTESIAN_POINT('Origin',(37.5,23.5,130.1));
#1130=CARTESIAN_POINT('Origin',(-37.5,23.5,117.));
#1131=CARTESIAN_POINT('',(-37.5,26.05,117.));
#1132=CARTESIAN_POINT('Origin',(-37.5,23.5,117.));
#1133=CARTESIAN_POINT('',(-37.5,26.05,130.1));
#1134=CARTESIAN_POINT('',(-37.5,26.05,117.));
#1135=CARTESIAN_POINT('Origin',(-37.5,23.5,130.1));
#1136=CARTESIAN_POINT('Origin',(-59.,1.00000000000001,137.));
#1137=CARTESIAN_POINT('',(-60.,1.00000000000001,117.));
#1138=CARTESIAN_POINT('',(-59.,1.77635683940025E-14,117.));
#1139=CARTESIAN_POINT('Origin',(-59.,1.00000000000001,117.));
#1140=CARTESIAN_POINT('',(-59.,1.77635683940025E-14,137.));
#1141=CARTESIAN_POINT('',(-59.,1.77635683940025E-14,137.));
#1142=CARTESIAN_POINT('',(-60.,1.00000000000001,137.));
#1143=CARTESIAN_POINT('Origin',(-59.,1.00000000000001,137.));
#1144=CARTESIAN_POINT('',(-60.,1.00000000000001,137.));
#1145=CARTESIAN_POINT('Origin',(-59.,1.77635683940025E-14,137.));
#1146=CARTESIAN_POINT('',(59.,1.77635683940025E-14,117.));
#1147=CARTESIAN_POINT('',(-59.,1.77635683940025E-14,117.));
#1148=CARTESIAN_POINT('',(59.,1.77635683940025E-14,137.));
#1149=CARTESIAN_POINT('',(59.,1.77635683940025E-14,137.));
#1150=CARTESIAN_POINT('',(-59.,1.77635683940025E-14,137.));
#1151=CARTESIAN_POINT('Origin',(59.,1.00000000000003,137.));
#1152=CARTESIAN_POINT('',(60.,1.00000000000005,117.));
#1153=CARTESIAN_POINT('Origin',(59.,1.00000000000003,117.));
#1154=CARTESIAN_POINT('',(60.,1.00000000000003,137.));
#1155=CARTESIAN_POINT('',(60.,1.00000000000003,137.));
#1156=CARTESIAN_POINT('Origin',(59.,1.00000000000003,137.));
#1157=CARTESIAN_POINT('Origin',(60.,1.00000000000003,137.));
#1158=CARTESIAN_POINT('',(60.,73.,117.));
#1159=CARTESIAN_POINT('',(60.,1.00000000000005,117.));
#1160=CARTESIAN_POINT('',(60.,73.,137.));
#1161=CARTESIAN_POINT('',(60.,73.,137.));
#1162=CARTESIAN_POINT('',(60.,1.00000000000003,137.));
#1163=CARTESIAN_POINT('Origin',(59.,73.,137.));
#1164=CARTESIAN_POINT('',(59.,74.,117.));
#1165=CARTESIAN_POINT('Origin',(59.,73.,117.));
#1166=CARTESIAN_POINT('',(59.,74.,137.));
#1167=CARTESIAN_POINT('',(59.,74.,137.));
#1168=CARTESIAN_POINT('Origin',(59.,73.,137.));
#1169=CARTESIAN_POINT('Origin',(-59.,74.,137.));
#1170=CARTESIAN_POINT('',(-59.,74.,117.));
#1171=CARTESIAN_POINT('',(59.,74.,117.));
#1172=CARTESIAN_POINT('',(-59.,74.,137.));
#1173=CARTESIAN_POINT('',(-59.,74.,137.));
#1174=CARTESIAN_POINT('',(59.,74.,137.));
#1175=CARTESIAN_POINT('Origin',(-59.,73.,137.));
#1176=CARTESIAN_POINT('',(-60.,73.,117.));
#1177=CARTESIAN_POINT('Origin',(-59.,73.,117.));
#1178=CARTESIAN_POINT('',(-60.,73.,137.));
#1179=CARTESIAN_POINT('',(-60.,73.,137.));
#1180=CARTESIAN_POINT('Origin',(-59.,73.,137.));
#1181=CARTESIAN_POINT('Origin',(-60.,1.00000000000001,137.));
#1182=CARTESIAN_POINT('',(-60.,73.,117.));
#1183=CARTESIAN_POINT('',(-60.,73.,137.));
#1184=CARTESIAN_POINT('Origin',(-59.,1.00000000000001,137.));
#1185=CARTESIAN_POINT('',(-37.5,28.5,137.));
#1186=CARTESIAN_POINT('Origin',(-37.5,23.5,137.));
#1187=CARTESIAN_POINT('',(37.5,55.5,137.));
#1188=CARTESIAN_POINT('Origin',(37.5,50.5,137.));
#1189=CARTESIAN_POINT('',(37.5,28.5,137.));
#1190=CARTESIAN_POINT('Origin',(37.5,23.5,137.));
#1191=CARTESIAN_POINT('',(-37.5,55.5,137.));
#1192=CARTESIAN_POINT('Origin',(-37.5,50.5,137.));
#1193=CARTESIAN_POINT('',(-25.,68.85,137.));
#1194=CARTESIAN_POINT('Origin',(-25.,64.,137.));
#1195=CARTESIAN_POINT('',(-4.88143267781491E-14,68.85,137.));
#1196=CARTESIAN_POINT('Origin',(-4.74902603118261E-14,64.,137.));
#1197=CARTESIAN_POINT('',(25.,68.85,137.));
#1198=CARTESIAN_POINT('Origin',(24.9999999999999,64.,137.));
#1199=CARTESIAN_POINT('',(49.9999999999999,68.85,137.));
#1200=CARTESIAN_POINT('Origin',(49.9999999999999,64.,137.));
#1201=CARTESIAN_POINT('',(-50.,14.85,137.));
#1202=CARTESIAN_POINT('Origin',(-50.,10.,137.));
#1203=CARTESIAN_POINT('',(-50.,41.85,137.));
#1204=CARTESIAN_POINT('Origin',(-50.,37.,137.));
#1205=CARTESIAN_POINT('',(-25.,41.85,137.));
#1206=CARTESIAN_POINT('Origin',(-25.,37.,137.));
#1207=CARTESIAN_POINT('',(-4.4749781467657E-14,41.85,137.));
#1208=CARTESIAN_POINT('Origin',(-4.3425715001334E-14,37.,137.));
#1209=CARTESIAN_POINT('',(50.,14.85,137.));
#1210=CARTESIAN_POINT('Origin',(50.,10.,137.));
#1211=CARTESIAN_POINT('',(25.,14.85,137.));
#1212=CARTESIAN_POINT('Origin',(25.,10.,137.));
#1213=CARTESIAN_POINT('',(-4.06852361571649E-14,14.85,137.));
#1214=CARTESIAN_POINT('Origin',(-3.93611696908419E-14,10.,137.));
#1215=CARTESIAN_POINT('',(-25.,14.85,137.));
#1216=CARTESIAN_POINT('Origin',(-25.,10.,137.));
#1217=CARTESIAN_POINT('',(49.9999999999999,41.85,137.));
#1218=CARTESIAN_POINT('Origin',(49.9999999999999,37.,137.));
#1219=CARTESIAN_POINT('',(25.,41.85,137.));
#1220=CARTESIAN_POINT('Origin',(25.,37.,137.));
#1221=CARTESIAN_POINT('',(-50.,68.85,137.));
#1222=CARTESIAN_POINT('Origin',(-50.,64.,137.));
#1223=CARTESIAN_POINT('Origin',(-59.,1.00000000000001,117.));
#1224=CARTESIAN_POINT('Origin',(-50.,64.,126.));
#1225=CARTESIAN_POINT('',(-50.,68.85,126.));
#1226=CARTESIAN_POINT('Origin',(-50.,64.,126.));
#1227=CARTESIAN_POINT('',(-50.,68.85,126.));
#1228=CARTESIAN_POINT('Origin',(-50.,64.,126.));
#1229=CARTESIAN_POINT('Origin',(25.,37.,126.));
#1230=CARTESIAN_POINT('',(25.,41.85,126.));
#1231=CARTESIAN_POINT('Origin',(25.,37.,126.));
#1232=CARTESIAN_POINT('',(25.,41.85,126.));
#1233=CARTESIAN_POINT('Origin',(25.,37.,126.));
#1234=CARTESIAN_POINT('Origin',(49.9999999999999,37.,126.));
#1235=CARTESIAN_POINT('',(49.9999999999999,41.85,126.));
#1236=CARTESIAN_POINT('Origin',(49.9999999999999,37.,126.));
#1237=CARTESIAN_POINT('',(49.9999999999999,41.85,126.));
#1238=CARTESIAN_POINT('Origin',(49.9999999999999,37.,126.));
#1239=CARTESIAN_POINT('Origin',(-25.,10.,126.));
#1240=CARTESIAN_POINT('',(-25.,14.85,126.));
#1241=CARTESIAN_POINT('Origin',(-25.,10.,126.));
#1242=CARTESIAN_POINT('',(-25.,14.85,126.));
#1243=CARTESIAN_POINT('Origin',(-25.,10.,126.));
#1244=CARTESIAN_POINT('Origin',(-3.77052438236044E-14,10.,126.));
#1245=CARTESIAN_POINT('',(-3.90293102899274E-14,14.85,126.));
#1246=CARTESIAN_POINT('Origin',(-3.77052438236044E-14,10.,126.));
#1247=CARTESIAN_POINT('',(-3.90293102899274E-14,14.85,126.));
#1248=CARTESIAN_POINT('Origin',(-3.77052438236044E-14,10.,126.));
#1249=CARTESIAN_POINT('Origin',(25.,10.,126.));
#1250=CARTESIAN_POINT('',(25.,14.85,126.));
#1251=CARTESIAN_POINT('Origin',(25.,10.,126.));
#1252=CARTESIAN_POINT('',(25.,14.85,126.));
#1253=CARTESIAN_POINT('Origin',(25.,10.,126.));
#1254=CARTESIAN_POINT('Origin',(50.,10.,126.));
#1255=CARTESIAN_POINT('',(50.,14.85,126.));
#1256=CARTESIAN_POINT('Origin',(50.,10.,126.));
#1257=CARTESIAN_POINT('',(50.,14.85,126.));
#1258=CARTESIAN_POINT('Origin',(50.,10.,126.));
#1259=CARTESIAN_POINT('Origin',(-4.17697891340964E-14,37.,126.));
#1260=CARTESIAN_POINT('',(-4.30938556004195E-14,41.85,126.));
#1261=CARTESIAN_POINT('Origin',(-4.17697891340964E-14,37.,126.));
#1262=CARTESIAN_POINT('',(-4.30938556004195E-14,41.85,126.));
#1263=CARTESIAN_POINT('Origin',(-4.17697891340964E-14,37.,126.));
#1264=CARTESIAN_POINT('Origin',(-25.,37.,126.));
#1265=CARTESIAN_POINT('',(-25.,41.85,126.));
#1266=CARTESIAN_POINT('Origin',(-25.,37.,126.));
#1267=CARTESIAN_POINT('',(-25.,41.85,126.));
#1268=CARTESIAN_POINT('Origin',(-25.,37.,126.));
#1269=CARTESIAN_POINT('Origin',(-50.,37.,126.));
#1270=CARTESIAN_POINT('',(-50.,41.85,126.));
#1271=CARTESIAN_POINT('Origin',(-50.,37.,126.));
#1272=CARTESIAN_POINT('',(-50.,41.85,126.));
#1273=CARTESIAN_POINT('Origin',(-50.,37.,126.));
#1274=CARTESIAN_POINT('Origin',(-50.,10.,126.));
#1275=CARTESIAN_POINT('',(-50.,14.85,126.));
#1276=CARTESIAN_POINT('Origin',(-50.,10.,126.));
#1277=CARTESIAN_POINT('',(-50.,14.85,126.));
#1278=CARTESIAN_POINT('Origin',(-50.,10.,126.));
#1279=CARTESIAN_POINT('Origin',(49.9999999999999,64.,126.));
#1280=CARTESIAN_POINT('',(49.9999999999999,68.85,126.));
#1281=CARTESIAN_POINT('Origin',(49.9999999999999,64.,126.));
#1282=CARTESIAN_POINT('',(49.9999999999999,68.85,126.));
#1283=CARTESIAN_POINT('Origin',(49.9999999999999,64.,126.));
#1284=CARTESIAN_POINT('Origin',(25.,64.,126.));
#1285=CARTESIAN_POINT('',(25.,68.85,126.));
#1286=CARTESIAN_POINT('Origin',(25.,64.,126.));
#1287=CARTESIAN_POINT('',(25.,68.85,126.));
#1288=CARTESIAN_POINT('Origin',(25.,64.,126.));
#1289=CARTESIAN_POINT('Origin',(-4.58343344445886E-14,64.,126.));
#1290=CARTESIAN_POINT('',(-4.71584009109116E-14,68.85,126.));
#1291=CARTESIAN_POINT('Origin',(-4.58343344445886E-14,64.,126.));
#1292=CARTESIAN_POINT('',(-4.71584009109116E-14,68.85,126.));
#1293=CARTESIAN_POINT('Origin',(-4.58343344445886E-14,64.,126.));
#1294=CARTESIAN_POINT('Origin',(-25.,64.,126.));
#1295=CARTESIAN_POINT('',(-25.,68.85,126.));
#1296=CARTESIAN_POINT('Origin',(-25.,64.,126.));
#1297=CARTESIAN_POINT('',(-25.,68.85,126.));
#1298=CARTESIAN_POINT('Origin',(-25.,64.,126.));
#1299=CARTESIAN_POINT('Origin',(-37.5,23.5,130.1));
#1300=CARTESIAN_POINT('',(-37.5,28.5,130.1));
#1301=CARTESIAN_POINT('Origin',(-37.5,23.5,130.1));
#1302=CARTESIAN_POINT('Origin',(-37.5,23.5,130.1));
#1303=CARTESIAN_POINT('',(-37.5,28.5,130.1));
#1304=CARTESIAN_POINT('Origin',(37.5,23.5,130.1));
#1305=CARTESIAN_POINT('',(37.5,28.5,130.1));
#1306=CARTESIAN_POINT('Origin',(37.5,23.5,130.1));
#1307=CARTESIAN_POINT('Origin',(37.5,23.5,130.1));
#1308=CARTESIAN_POINT('',(37.5,28.5,130.1));
#1309=CARTESIAN_POINT('Origin',(37.5,50.5,130.1));
#1310=CARTESIAN_POINT('',(37.5,55.5,130.1));
#1311=CARTESIAN_POINT('Origin',(37.5,50.5,130.1));
#1312=CARTESIAN_POINT('Origin',(37.5,50.5,130.1));
#1313=CARTESIAN_POINT('',(37.5,55.5,130.1));
#1314=CARTESIAN_POINT('Origin',(-37.5,50.5,130.1));
#1315=CARTESIAN_POINT('',(-37.5,55.5,130.1));
#1316=CARTESIAN_POINT('Origin',(-37.5,50.5,130.1));
#1317=CARTESIAN_POINT('Origin',(-37.5,50.5,130.1));
#1318=CARTESIAN_POINT('',(-37.5,55.5,130.1));
#1319=UNCERTAINTY_MEASURE_WITH_UNIT(LENGTH_MEASURE(0.01),#1323,
'DISTANCE_ACCURACY_VALUE',
'Maximum model space distance between geometric entities at asserted c
onnectivities');
#1320=UNCERTAINTY_MEASURE_WITH_UNIT(LENGTH_MEASURE(0.01),#1323,
'DISTANCE_ACCURACY_VALUE',
'Maximum model space distance between geometric entities at asserted c
onnectivities');
#1321=(
GEOMETRIC_REPRESENTATION_CONTEXT(3)
GLOBAL_UNCERTAINTY_ASSIGNED_CONTEXT((#1319))
GLOBAL_UNIT_ASSIGNED_CONTEXT((#1323,#1324,#1325))
REPRESENTATION_CONTEXT('','3D')
);
#1322=(
GEOMETRIC_REPRESENTATION_CONTEXT(3)
GLOBAL_UNCERTAINTY_ASSIGNED_CONTEXT((#1320))
GLOBAL_UNIT_ASSIGNED_CONTEXT((#1323,#1324,#1325))
REPRESENTATION_CONTEXT('','3D')
);
#1323=(
LENGTH_UNIT()
NAMED_UNIT(*)
SI_UNIT(.MILLI.,.METRE.)
);
#1324=(
NAMED_UNIT(*)
PLANE_ANGLE_UNIT()
SI_UNIT($,.RADIAN.)
);
#1325=(
NAMED_UNIT(*)
SI_UNIT($,.STERADIAN.)
SOLID_ANGLE_UNIT()
);
#1326=SHAPE_DEFINITION_REPRESENTATION(#1327,#1328);
#1327=PRODUCT_DEFINITION_SHAPE('',$,#1330);
#1328=SHAPE_REPRESENTATION('',(#751),#1321);
#1329=PRODUCT_DEFINITION_CONTEXT('part definition',#1334,'design');
#1330=PRODUCT_DEFINITION('5x3 Sample Plate X3 (1)',
'5x3 Sample Plate X3 (1)',#1331,#1329);
#1331=PRODUCT_DEFINITION_FORMATION('',$,#1336);
#1332=PRODUCT_RELATED_PRODUCT_CATEGORY('5x3 Sample Plate X3 (1)',
'5x3 Sample Plate X3 (1)',(#1336));
#1333=APPLICATION_PROTOCOL_DEFINITION('international standard',
'automotive_design',2009,#1334);
#1334=APPLICATION_CONTEXT(
'Core Data for Automotive Mechanical Design Process');
#1335=PRODUCT_CONTEXT('part definition',#1334,'mechanical');
#1336=PRODUCT('5x3 Sample Plate X3 (1)','5x3 Sample Plate X3 (1)',$,(#1335));
#1337=PRESENTATION_STYLE_ASSIGNMENT((#1339));
#1338=PRESENTATION_STYLE_ASSIGNMENT((#1340));
#1339=SURFACE_STYLE_USAGE(.BOTH.,#1341);
#1340=SURFACE_STYLE_USAGE(.BOTH.,#1342);
#1341=SURFACE_SIDE_STYLE('',(#1343));
#1342=SURFACE_SIDE_STYLE('',(#1344));
#1343=SURFACE_STYLE_FILL_AREA(#1345);
#1344=SURFACE_STYLE_FILL_AREA(#1346);
#1345=FILL_AREA_STYLE('Steel - Satin',(#1347));
#1346=FILL_AREA_STYLE('Stainless Steel - Satin',(#1348));
#1347=FILL_AREA_STYLE_COLOUR('Steel - Satin',#1349);
#1348=FILL_AREA_STYLE_COLOUR('Stainless Steel - Satin',#1350);
#1349=COLOUR_RGB('Steel - Satin',0.627450980392157,0.627450980392157,0.627450980392157);
#1350=COLOUR_RGB('Stainless Steel - Satin',0.796078431372549,0.796078431372549,
0.796078431372549);
ENDSEC;
END-ISO-10303-21;
