ISO-10303-21;
HEADER;
/* Generated by software containing ST-Developer
 * from STEP Tools, Inc. (www.steptools.com) 
 */

FILE_DESCRIPTION(
/* description */ (''),
/* implementation_level */ '2;1');

FILE_NAME(
/* name */ 'Reservoir_Stand.step',
/* time_stamp */ '2026-08-06T10:28:07+01:00',
/* author */ (''),
/* organization */ (''),
/* preprocessor_version */ 'ST-DEVELOPER v20.1',
/* originating_system */ 'Autodesk Translation Framework v15.8.0.0',
/* authorisation */ '');

FILE_SCHEMA (('AUTOMOTIVE_DESIGN { 1 0 10303 214 3 1 1 }'));
ENDSEC;

DATA;
#10=MECHANICAL_DESIGN_GEOMETRIC_PRESENTATION_REPRESENTATION('',(#13),#1074);
#11=SHAPE_REPRESENTATION_RELATIONSHIP('SRR','None',#1081,#12);
#12=ADVANCED_BREP_SHAPE_REPRESENTATION('',(#14),#1073);
#13=STYLED_ITEM('',(#1090),#14);
#14=MANIFOLD_SOLID_BREP('Body1',#577);
#15=FACE_BOUND('',#102,.T.);
#16=FACE_BOUND('',#103,.T.);
#17=FACE_BOUND('',#104,.T.);
#18=FACE_BOUND('',#105,.T.);
#19=FACE_BOUND('',#107,.T.);
#20=FACE_BOUND('',#108,.T.);
#21=FACE_BOUND('',#109,.T.);
#22=FACE_BOUND('',#110,.T.);
#23=PLANE('',#606);
#24=PLANE('',#609);
#25=PLANE('',#610);
#26=PLANE('',#613);
#27=PLANE('',#614);
#28=PLANE('',#617);
#29=PLANE('',#626);
#30=PLANE('',#631);
#31=PLANE('',#632);
#32=PLANE('',#636);
#33=PLANE('',#637);
#34=PLANE('',#638);
#35=PLANE('',#639);
#36=PLANE('',#640);
#37=PLANE('',#641);
#38=PLANE('',#642);
#39=PLANE('',#643);
#40=B_SPLINE_CURVE_WITH_KNOTS('',3,(#836,#837,#838,#839,#840,#841,#842,
#843,#844,#845,#846,#847,#848,#849,#850,#851,#852,#853,#854,#855,#856,#857,
#858,#859,#860,#861,#862,#863,#864,#865,#866,#867,#868,#869,#870,#871,#872,
#873,#874,#875,#876,#877,#878),.UNSPECIFIED.,.F.,.F.,(4,2,2,2,2,2,2,2,2,
2,2,2,3,2,2,2,2,2,2,2,4),(20.1234103525308,20.9444566428162,21.918549261673,
22.8926418805297,23.8667344993865,24.9486933539804,26.0306522085743,27.1126110631683,
28.1945699177622,29.1897482724893,30.1849266272164,31.1801049819434,32.1752833366705,
33.1704616913976,34.1656400461247,35.1608184008518,36.1559967555789,37.2379556101728,
38.3199144647667,39.4018733193606,40.4838321739546),.UNSPECIFIED.);
#41=B_SPLINE_CURVE_WITH_KNOTS('',3,(#880,#881,#882,#883,#884,#885,#886,
#887,#888,#889),.UNSPECIFIED.,.F.,.F.,(4,2,2,2,4),(40.4838321739546,41.4579247928113,
42.4320174116681,43.4061100305248,44.2271563208102),.UNSPECIFIED.);
#42=B_SPLINE_CURVE_WITH_KNOTS('',3,(#906,#907,#908,#909,#910,#911,#912,
#913,#914,#915,#916,#917,#918,#919,#920,#921,#922,#923),.UNSPECIFIED.,.F.,
 .F.,(4,2,2,2,2,2,2,2,4),(1.51985932245361,1.70988905242719,1.89991878240076,
2.08985388304059,2.27978898368041,2.46972408432024,2.65965918496006,2.84968891493364,
3.03971864490722),.UNSPECIFIED.);
#43=B_SPLINE_CURVE_WITH_KNOTS('',3,(#944,#945,#946,#947,#948,#949,#950,
#951,#952,#953,#954,#955,#956,#957,#958,#959,#960,#961),.UNSPECIFIED.,.F.,
 .F.,(4,2,2,2,2,2,2,2,4),(1.51985932245361,1.70988905242719,1.89991878240076,
2.08985388304059,2.27978898368041,2.46972408432024,2.65965918496006,2.84968891493364,
3.03971864490721),.UNSPECIFIED.);
#44=B_SPLINE_CURVE_WITH_KNOTS('',3,(#982,#983,#984,#985,#986,#987,#988,
#989,#990,#991,#992,#993,#994,#995,#996,#997,#998,#999),.UNSPECIFIED.,.F.,
 .F.,(4,2,2,2,2,2,2,2,4),(1.51985932245361,1.70988905242719,1.89991878240076,
2.08985388304059,2.27978898368041,2.46972408432024,2.65965918496006,2.84968891493364,
3.03971864490722),.UNSPECIFIED.);
#45=FACE_OUTER_BOUND('',#74,.T.);
#46=FACE_OUTER_BOUND('',#75,.T.);
#47=FACE_OUTER_BOUND('',#76,.T.);
#48=FACE_OUTER_BOUND('',#77,.T.);
#49=FACE_OUTER_BOUND('',#78,.T.);
#50=FACE_OUTER_BOUND('',#79,.T.);
#51=FACE_OUTER_BOUND('',#80,.T.);
#52=FACE_OUTER_BOUND('',#81,.T.);
#53=FACE_OUTER_BOUND('',#82,.T.);
#54=FACE_OUTER_BOUND('',#83,.T.);
#55=FACE_OUTER_BOUND('',#84,.T.);
#56=FACE_OUTER_BOUND('',#85,.T.);
#57=FACE_OUTER_BOUND('',#86,.T.);
#58=FACE_OUTER_BOUND('',#87,.T.);
#59=FACE_OUTER_BOUND('',#88,.T.);
#60=FACE_OUTER_BOUND('',#89,.T.);
#61=FACE_OUTER_BOUND('',#90,.T.);
#62=FACE_OUTER_BOUND('',#91,.T.);
#63=FACE_OUTER_BOUND('',#92,.T.);
#64=FACE_OUTER_BOUND('',#93,.T.);
#65=FACE_OUTER_BOUND('',#94,.T.);
#66=FACE_OUTER_BOUND('',#95,.T.);
#67=FACE_OUTER_BOUND('',#96,.T.);
#68=FACE_OUTER_BOUND('',#97,.T.);
#69=FACE_OUTER_BOUND('',#98,.T.);
#70=FACE_OUTER_BOUND('',#99,.T.);
#71=FACE_OUTER_BOUND('',#100,.T.);
#72=FACE_OUTER_BOUND('',#101,.T.);
#73=FACE_OUTER_BOUND('',#106,.T.);
#74=EDGE_LOOP('',(#374,#375,#376,#377));
#75=EDGE_LOOP('',(#378,#379,#380,#381));
#76=EDGE_LOOP('',(#382,#383,#384,#385));
#77=EDGE_LOOP('',(#386,#387,#388,#389));
#78=EDGE_LOOP('',(#390,#391,#392,#393,#394,#395,#396));
#79=EDGE_LOOP('',(#397,#398,#399,#400));
#80=EDGE_LOOP('',(#401,#402,#403,#404));
#81=EDGE_LOOP('',(#405,#406,#407,#408));
#82=EDGE_LOOP('',(#409,#410,#411,#412));
#83=EDGE_LOOP('',(#413,#414,#415,#416));
#84=EDGE_LOOP('',(#417,#418,#419,#420));
#85=EDGE_LOOP('',(#421,#422,#423,#424));
#86=EDGE_LOOP('',(#425,#426,#427,#428));
#87=EDGE_LOOP('',(#429,#430,#431,#432));
#88=EDGE_LOOP('',(#433,#434,#435,#436,#437,#438,#439,#440));
#89=EDGE_LOOP('',(#441,#442,#443,#444,#445,#446,#447,#448));
#90=EDGE_LOOP('',(#449,#450,#451,#452,#453,#454,#455,#456,#457,#458,#459,
#460,#461,#462,#463,#464,#465,#466,#467));
#91=EDGE_LOOP('',(#468,#469,#470,#471,#472,#473,#474,#475));
#92=EDGE_LOOP('',(#476));
#93=EDGE_LOOP('',(#477));
#94=EDGE_LOOP('',(#478,#479,#480,#481,#482,#483));
#95=EDGE_LOOP('',(#484,#485,#486,#487,#488,#489));
#96=EDGE_LOOP('',(#490));
#97=EDGE_LOOP('',(#491,#492,#493,#494,#495,#496));
#98=EDGE_LOOP('',(#497,#498,#499,#500));
#99=EDGE_LOOP('',(#501,#502,#503,#504,#505,#506));
#100=EDGE_LOOP('',(#507,#508,#509,#510,#511,#512,#513,#514,#515,#516,#517,
#518,#519,#520,#521,#522));
#101=EDGE_LOOP('',(#523));
#102=EDGE_LOOP('',(#524));
#103=EDGE_LOOP('',(#525));
#104=EDGE_LOOP('',(#526));
#105=EDGE_LOOP('',(#527));
#106=EDGE_LOOP('',(#528,#529,#530,#531));
#107=EDGE_LOOP('',(#532));
#108=EDGE_LOOP('',(#533));
#109=EDGE_LOOP('',(#534));
#110=EDGE_LOOP('',(#535));
#111=LINE('',#809,#163);
#112=LINE('',#815,#164);
#113=LINE('',#821,#165);
#114=LINE('',#827,#166);
#115=LINE('',#834,#167);
#116=LINE('',#891,#168);
#117=LINE('',#894,#169);
#118=LINE('',#898,#170);
#119=LINE('',#900,#171);
#120=LINE('',#902,#172);
#121=LINE('',#903,#173);
#122=LINE('',#926,#174);
#123=LINE('',#929,#175);
#124=LINE('',#931,#176);
#125=LINE('',#932,#177);
#126=LINE('',#936,#178);
#127=LINE('',#938,#179);
#128=LINE('',#940,#180);
#129=LINE('',#941,#181);
#130=LINE('',#964,#182);
#131=LINE('',#967,#183);
#132=LINE('',#969,#184);
#133=LINE('',#970,#185);
#134=LINE('',#974,#186);
#135=LINE('',#976,#187);
#136=LINE('',#978,#188);
#137=LINE('',#979,#189);
#138=LINE('',#1002,#190);
#139=LINE('',#1005,#191);
#140=LINE('',#1007,#192);
#141=LINE('',#1008,#193);
#142=LINE('',#1013,#194);
#143=LINE('',#1020,#195);
#144=LINE('',#1025,#196);
#145=LINE('',#1026,#197);
#146=LINE('',#1028,#198);
#147=LINE('',#1029,#199);
#148=LINE('',#1033,#200);
#149=LINE('',#1034,#201);
#150=LINE('',#1037,#202);
#151=LINE('',#1044,#203);
#152=LINE('',#1048,#204);
#153=LINE('',#1050,#205);
#154=LINE('',#1051,#206);
#155=LINE('',#1055,#207);
#156=LINE('',#1057,#208);
#157=LINE('',#1058,#209);
#158=LINE('',#1061,#210);
#159=LINE('',#1062,#211);
#160=LINE('',#1065,#212);
#161=LINE('',#1066,#213);
#162=LINE('',#1068,#214);
#163=VECTOR('',#650,1.5);
#164=VECTOR('',#657,1.5);
#165=VECTOR('',#664,1.5);
#166=VECTOR('',#671,1.5);
#167=VECTOR('',#678,125.);
#168=VECTOR('',#679,125.);
#169=VECTOR('',#682,10.);
#170=VECTOR('',#685,10.);
#171=VECTOR('',#686,10.);
#172=VECTOR('',#687,10.);
#173=VECTOR('',#688,10.);
#174=VECTOR('',#693,10.);
#175=VECTOR('',#696,10.);
#176=VECTOR('',#697,10.);
#177=VECTOR('',#698,10.);
#178=VECTOR('',#701,10.);
#179=VECTOR('',#702,10.);
#180=VECTOR('',#703,10.);
#181=VECTOR('',#704,10.);
#182=VECTOR('',#709,10.);
#183=VECTOR('',#712,10.);
#184=VECTOR('',#713,10.);
#185=VECTOR('',#714,10.);
#186=VECTOR('',#717,10.);
#187=VECTOR('',#718,10.);
#188=VECTOR('',#719,10.);
#189=VECTOR('',#720,10.);
#190=VECTOR('',#725,10.);
#191=VECTOR('',#728,10.);
#192=VECTOR('',#729,10.);
#193=VECTOR('',#730,10.);
#194=VECTOR('',#735,14.25);
#195=VECTOR('',#744,14.25);
#196=VECTOR('',#751,10.);
#197=VECTOR('',#752,10.);
#198=VECTOR('',#753,10.);
#199=VECTOR('',#754,10.);
#200=VECTOR('',#759,10.);
#201=VECTOR('',#760,10.);
#202=VECTOR('',#763,14.25);
#203=VECTOR('',#774,51.25);
#204=VECTOR('',#779,10.);
#205=VECTOR('',#780,10.);
#206=VECTOR('',#781,10.);
#207=VECTOR('',#786,10.);
#208=VECTOR('',#787,10.);
#209=VECTOR('',#788,10.);
#210=VECTOR('',#791,10.);
#211=VECTOR('',#792,10.);
#212=VECTOR('',#795,10.);
#213=VECTOR('',#796,10.);
#214=VECTOR('',#799,10.);
#215=CIRCLE('',#592,1.5);
#216=CIRCLE('',#593,1.5);
#217=CIRCLE('',#595,1.5);
#218=CIRCLE('',#596,1.5);
#219=CIRCLE('',#598,1.5);
#220=CIRCLE('',#599,1.5);
#221=CIRCLE('',#601,1.5);
#222=CIRCLE('',#602,1.5);
#223=CIRCLE('',#604,125.);
#224=CIRCLE('',#605,125.);
#225=CIRCLE('',#608,5.);
#226=CIRCLE('',#612,5.);
#227=CIRCLE('',#616,5.);
#228=CIRCLE('',#619,14.75);
#229=CIRCLE('',#620,14.75);
#230=CIRCLE('',#621,14.75);
#231=CIRCLE('',#623,14.75);
#232=CIRCLE('',#624,14.75);
#233=CIRCLE('',#625,14.75);
#234=CIRCLE('',#627,14.75);
#235=CIRCLE('',#628,14.75);
#236=CIRCLE('',#630,14.75);
#237=CIRCLE('',#634,51.25);
#238=CIRCLE('',#635,51.25);
#239=VERTEX_POINT('',#806);
#240=VERTEX_POINT('',#808);
#241=VERTEX_POINT('',#812);
#242=VERTEX_POINT('',#814);
#243=VERTEX_POINT('',#818);
#244=VERTEX_POINT('',#820);
#245=VERTEX_POINT('',#824);
#246=VERTEX_POINT('',#826);
#247=VERTEX_POINT('',#830);
#248=VERTEX_POINT('',#831);
#249=VERTEX_POINT('',#833);
#250=VERTEX_POINT('',#835);
#251=VERTEX_POINT('',#879);
#252=VERTEX_POINT('',#890);
#253=VERTEX_POINT('',#892);
#254=VERTEX_POINT('',#896);
#255=VERTEX_POINT('',#897);
#256=VERTEX_POINT('',#899);
#257=VERTEX_POINT('',#901);
#258=VERTEX_POINT('',#905);
#259=VERTEX_POINT('',#924);
#260=VERTEX_POINT('',#928);
#261=VERTEX_POINT('',#930);
#262=VERTEX_POINT('',#934);
#263=VERTEX_POINT('',#935);
#264=VERTEX_POINT('',#937);
#265=VERTEX_POINT('',#939);
#266=VERTEX_POINT('',#943);
#267=VERTEX_POINT('',#962);
#268=VERTEX_POINT('',#966);
#269=VERTEX_POINT('',#968);
#270=VERTEX_POINT('',#972);
#271=VERTEX_POINT('',#973);
#272=VERTEX_POINT('',#975);
#273=VERTEX_POINT('',#977);
#274=VERTEX_POINT('',#981);
#275=VERTEX_POINT('',#1000);
#276=VERTEX_POINT('',#1004);
#277=VERTEX_POINT('',#1006);
#278=VERTEX_POINT('',#1010);
#279=VERTEX_POINT('',#1012);
#280=VERTEX_POINT('',#1017);
#281=VERTEX_POINT('',#1019);
#282=VERTEX_POINT('',#1024);
#283=VERTEX_POINT('',#1027);
#284=VERTEX_POINT('',#1030);
#285=VERTEX_POINT('',#1036);
#286=VERTEX_POINT('',#1043);
#287=VERTEX_POINT('',#1047);
#288=VERTEX_POINT('',#1049);
#289=VERTEX_POINT('',#1054);
#290=VERTEX_POINT('',#1056);
#291=VERTEX_POINT('',#1060);
#292=VERTEX_POINT('',#1064);
#293=EDGE_CURVE('',#239,#239,#215,.T.);
#294=EDGE_CURVE('',#239,#240,#111,.T.);
#295=EDGE_CURVE('',#240,#240,#216,.T.);
#296=EDGE_CURVE('',#241,#241,#217,.T.);
#297=EDGE_CURVE('',#241,#242,#112,.T.);
#298=EDGE_CURVE('',#242,#242,#218,.T.);
#299=EDGE_CURVE('',#243,#243,#219,.T.);
#300=EDGE_CURVE('',#243,#244,#113,.T.);
#301=EDGE_CURVE('',#244,#244,#220,.T.);
#302=EDGE_CURVE('',#245,#245,#221,.T.);
#303=EDGE_CURVE('',#245,#246,#114,.T.);
#304=EDGE_CURVE('',#246,#246,#222,.T.);
#305=EDGE_CURVE('',#247,#248,#223,.T.);
#306=EDGE_CURVE('',#248,#249,#115,.T.);
#307=EDGE_CURVE('',#250,#249,#40,.F.);
#308=EDGE_CURVE('',#251,#250,#41,.F.);
#309=EDGE_CURVE('',#251,#252,#116,.T.);
#310=EDGE_CURVE('',#253,#252,#224,.F.);
#311=EDGE_CURVE('',#247,#253,#117,.T.);
#312=EDGE_CURVE('',#254,#255,#118,.F.);
#313=EDGE_CURVE('',#256,#254,#119,.T.);
#314=EDGE_CURVE('',#257,#256,#120,.T.);
#315=EDGE_CURVE('',#257,#255,#121,.T.);
#316=EDGE_CURVE('',#255,#258,#42,.F.);
#317=EDGE_CURVE('',#259,#257,#225,.T.);
#318=EDGE_CURVE('',#259,#258,#122,.T.);
#319=EDGE_CURVE('',#258,#260,#123,.F.);
#320=EDGE_CURVE('',#261,#259,#124,.T.);
#321=EDGE_CURVE('',#260,#261,#125,.T.);
#322=EDGE_CURVE('',#262,#263,#126,.F.);
#323=EDGE_CURVE('',#264,#262,#127,.T.);
#324=EDGE_CURVE('',#265,#264,#128,.T.);
#325=EDGE_CURVE('',#265,#263,#129,.T.);
#326=EDGE_CURVE('',#263,#266,#43,.F.);
#327=EDGE_CURVE('',#267,#265,#226,.T.);
#328=EDGE_CURVE('',#267,#266,#130,.T.);
#329=EDGE_CURVE('',#266,#268,#131,.F.);
#330=EDGE_CURVE('',#269,#267,#132,.T.);
#331=EDGE_CURVE('',#268,#269,#133,.T.);
#332=EDGE_CURVE('',#270,#271,#134,.F.);
#333=EDGE_CURVE('',#272,#270,#135,.T.);
#334=EDGE_CURVE('',#273,#272,#136,.T.);
#335=EDGE_CURVE('',#273,#271,#137,.T.);
#336=EDGE_CURVE('',#271,#274,#44,.F.);
#337=EDGE_CURVE('',#275,#273,#227,.T.);
#338=EDGE_CURVE('',#275,#274,#138,.T.);
#339=EDGE_CURVE('',#274,#276,#139,.F.);
#340=EDGE_CURVE('',#277,#275,#140,.T.);
#341=EDGE_CURVE('',#276,#277,#141,.T.);
#342=EDGE_CURVE('',#278,#260,#228,.F.);
#343=EDGE_CURVE('',#278,#279,#142,.T.);
#344=EDGE_CURVE('',#279,#279,#229,.T.);
#345=EDGE_CURVE('',#254,#278,#230,.F.);
#346=EDGE_CURVE('',#280,#268,#231,.F.);
#347=EDGE_CURVE('',#280,#281,#143,.T.);
#348=EDGE_CURVE('',#281,#281,#232,.T.);
#349=EDGE_CURVE('',#262,#280,#233,.F.);
#350=EDGE_CURVE('',#261,#282,#144,.T.);
#351=EDGE_CURVE('',#282,#247,#145,.T.);
#352=EDGE_CURVE('',#253,#283,#146,.T.);
#353=EDGE_CURVE('',#283,#272,#147,.T.);
#354=EDGE_CURVE('',#270,#284,#234,.F.);
#355=EDGE_CURVE('',#284,#276,#235,.F.);
#356=EDGE_CURVE('',#277,#264,#148,.T.);
#357=EDGE_CURVE('',#269,#256,#149,.T.);
#358=EDGE_CURVE('',#284,#285,#150,.T.);
#359=EDGE_CURVE('',#285,#285,#236,.T.);
#360=EDGE_CURVE('',#251,#249,#237,.T.);
#361=EDGE_CURVE('',#250,#286,#151,.T.);
#362=EDGE_CURVE('',#286,#286,#238,.T.);
#363=EDGE_CURVE('',#248,#287,#152,.T.);
#364=EDGE_CURVE('',#287,#288,#153,.T.);
#365=EDGE_CURVE('',#288,#252,#154,.T.);
#366=EDGE_CURVE('',#289,#282,#155,.T.);
#367=EDGE_CURVE('',#290,#289,#156,.T.);
#368=EDGE_CURVE('',#290,#287,#157,.T.);
#369=EDGE_CURVE('',#291,#290,#158,.T.);
#370=EDGE_CURVE('',#291,#288,#159,.T.);
#371=EDGE_CURVE('',#283,#292,#160,.T.);
#372=EDGE_CURVE('',#292,#291,#161,.T.);
#373=EDGE_CURVE('',#289,#292,#162,.T.);
#374=ORIENTED_EDGE('',*,*,#293,.F.);
#375=ORIENTED_EDGE('',*,*,#294,.T.);
#376=ORIENTED_EDGE('',*,*,#295,.F.);
#377=ORIENTED_EDGE('',*,*,#294,.F.);
#378=ORIENTED_EDGE('',*,*,#296,.F.);
#379=ORIENTED_EDGE('',*,*,#297,.T.);
#380=ORIENTED_EDGE('',*,*,#298,.F.);
#381=ORIENTED_EDGE('',*,*,#297,.F.);
#382=ORIENTED_EDGE('',*,*,#299,.F.);
#383=ORIENTED_EDGE('',*,*,#300,.T.);
#384=ORIENTED_EDGE('',*,*,#301,.F.);
#385=ORIENTED_EDGE('',*,*,#300,.F.);
#386=ORIENTED_EDGE('',*,*,#302,.F.);
#387=ORIENTED_EDGE('',*,*,#303,.T.);
#388=ORIENTED_EDGE('',*,*,#304,.F.);
#389=ORIENTED_EDGE('',*,*,#303,.F.);
#390=ORIENTED_EDGE('',*,*,#305,.T.);
#391=ORIENTED_EDGE('',*,*,#306,.T.);
#392=ORIENTED_EDGE('',*,*,#307,.F.);
#393=ORIENTED_EDGE('',*,*,#308,.F.);
#394=ORIENTED_EDGE('',*,*,#309,.T.);
#395=ORIENTED_EDGE('',*,*,#310,.F.);
#396=ORIENTED_EDGE('',*,*,#311,.F.);
#397=ORIENTED_EDGE('',*,*,#312,.F.);
#398=ORIENTED_EDGE('',*,*,#313,.F.);
#399=ORIENTED_EDGE('',*,*,#314,.F.);
#400=ORIENTED_EDGE('',*,*,#315,.T.);
#401=ORIENTED_EDGE('',*,*,#316,.F.);
#402=ORIENTED_EDGE('',*,*,#315,.F.);
#403=ORIENTED_EDGE('',*,*,#317,.F.);
#404=ORIENTED_EDGE('',*,*,#318,.T.);
#405=ORIENTED_EDGE('',*,*,#319,.F.);
#406=ORIENTED_EDGE('',*,*,#318,.F.);
#407=ORIENTED_EDGE('',*,*,#320,.F.);
#408=ORIENTED_EDGE('',*,*,#321,.F.);
#409=ORIENTED_EDGE('',*,*,#322,.F.);
#410=ORIENTED_EDGE('',*,*,#323,.F.);
#411=ORIENTED_EDGE('',*,*,#324,.F.);
#412=ORIENTED_EDGE('',*,*,#325,.T.);
#413=ORIENTED_EDGE('',*,*,#326,.F.);
#414=ORIENTED_EDGE('',*,*,#325,.F.);
#415=ORIENTED_EDGE('',*,*,#327,.F.);
#416=ORIENTED_EDGE('',*,*,#328,.T.);
#417=ORIENTED_EDGE('',*,*,#329,.F.);
#418=ORIENTED_EDGE('',*,*,#328,.F.);
#419=ORIENTED_EDGE('',*,*,#330,.F.);
#420=ORIENTED_EDGE('',*,*,#331,.F.);
#421=ORIENTED_EDGE('',*,*,#332,.F.);
#422=ORIENTED_EDGE('',*,*,#333,.F.);
#423=ORIENTED_EDGE('',*,*,#334,.F.);
#424=ORIENTED_EDGE('',*,*,#335,.T.);
#425=ORIENTED_EDGE('',*,*,#336,.F.);
#426=ORIENTED_EDGE('',*,*,#335,.F.);
#427=ORIENTED_EDGE('',*,*,#337,.F.);
#428=ORIENTED_EDGE('',*,*,#338,.T.);
#429=ORIENTED_EDGE('',*,*,#339,.F.);
#430=ORIENTED_EDGE('',*,*,#338,.F.);
#431=ORIENTED_EDGE('',*,*,#340,.F.);
#432=ORIENTED_EDGE('',*,*,#341,.F.);
#433=ORIENTED_EDGE('',*,*,#312,.T.);
#434=ORIENTED_EDGE('',*,*,#316,.T.);
#435=ORIENTED_EDGE('',*,*,#319,.T.);
#436=ORIENTED_EDGE('',*,*,#342,.F.);
#437=ORIENTED_EDGE('',*,*,#343,.T.);
#438=ORIENTED_EDGE('',*,*,#344,.F.);
#439=ORIENTED_EDGE('',*,*,#343,.F.);
#440=ORIENTED_EDGE('',*,*,#345,.F.);
#441=ORIENTED_EDGE('',*,*,#322,.T.);
#442=ORIENTED_EDGE('',*,*,#326,.T.);
#443=ORIENTED_EDGE('',*,*,#329,.T.);
#444=ORIENTED_EDGE('',*,*,#346,.F.);
#445=ORIENTED_EDGE('',*,*,#347,.T.);
#446=ORIENTED_EDGE('',*,*,#348,.F.);
#447=ORIENTED_EDGE('',*,*,#347,.F.);
#448=ORIENTED_EDGE('',*,*,#349,.F.);
#449=ORIENTED_EDGE('',*,*,#313,.T.);
#450=ORIENTED_EDGE('',*,*,#345,.T.);
#451=ORIENTED_EDGE('',*,*,#342,.T.);
#452=ORIENTED_EDGE('',*,*,#321,.T.);
#453=ORIENTED_EDGE('',*,*,#350,.T.);
#454=ORIENTED_EDGE('',*,*,#351,.T.);
#455=ORIENTED_EDGE('',*,*,#311,.T.);
#456=ORIENTED_EDGE('',*,*,#352,.T.);
#457=ORIENTED_EDGE('',*,*,#353,.T.);
#458=ORIENTED_EDGE('',*,*,#333,.T.);
#459=ORIENTED_EDGE('',*,*,#354,.T.);
#460=ORIENTED_EDGE('',*,*,#355,.T.);
#461=ORIENTED_EDGE('',*,*,#341,.T.);
#462=ORIENTED_EDGE('',*,*,#356,.T.);
#463=ORIENTED_EDGE('',*,*,#323,.T.);
#464=ORIENTED_EDGE('',*,*,#349,.T.);
#465=ORIENTED_EDGE('',*,*,#346,.T.);
#466=ORIENTED_EDGE('',*,*,#331,.T.);
#467=ORIENTED_EDGE('',*,*,#357,.T.);
#468=ORIENTED_EDGE('',*,*,#332,.T.);
#469=ORIENTED_EDGE('',*,*,#336,.T.);
#470=ORIENTED_EDGE('',*,*,#339,.T.);
#471=ORIENTED_EDGE('',*,*,#355,.F.);
#472=ORIENTED_EDGE('',*,*,#358,.T.);
#473=ORIENTED_EDGE('',*,*,#359,.F.);
#474=ORIENTED_EDGE('',*,*,#358,.F.);
#475=ORIENTED_EDGE('',*,*,#354,.F.);
#476=ORIENTED_EDGE('',*,*,#359,.T.);
#477=ORIENTED_EDGE('',*,*,#348,.T.);
#478=ORIENTED_EDGE('',*,*,#360,.F.);
#479=ORIENTED_EDGE('',*,*,#308,.T.);
#480=ORIENTED_EDGE('',*,*,#361,.T.);
#481=ORIENTED_EDGE('',*,*,#362,.F.);
#482=ORIENTED_EDGE('',*,*,#361,.F.);
#483=ORIENTED_EDGE('',*,*,#307,.T.);
#484=ORIENTED_EDGE('',*,*,#306,.F.);
#485=ORIENTED_EDGE('',*,*,#363,.T.);
#486=ORIENTED_EDGE('',*,*,#364,.T.);
#487=ORIENTED_EDGE('',*,*,#365,.T.);
#488=ORIENTED_EDGE('',*,*,#309,.F.);
#489=ORIENTED_EDGE('',*,*,#360,.T.);
#490=ORIENTED_EDGE('',*,*,#344,.T.);
#491=ORIENTED_EDGE('',*,*,#366,.F.);
#492=ORIENTED_EDGE('',*,*,#367,.F.);
#493=ORIENTED_EDGE('',*,*,#368,.T.);
#494=ORIENTED_EDGE('',*,*,#363,.F.);
#495=ORIENTED_EDGE('',*,*,#305,.F.);
#496=ORIENTED_EDGE('',*,*,#351,.F.);
#497=ORIENTED_EDGE('',*,*,#368,.F.);
#498=ORIENTED_EDGE('',*,*,#369,.F.);
#499=ORIENTED_EDGE('',*,*,#370,.T.);
#500=ORIENTED_EDGE('',*,*,#364,.F.);
#501=ORIENTED_EDGE('',*,*,#371,.F.);
#502=ORIENTED_EDGE('',*,*,#352,.F.);
#503=ORIENTED_EDGE('',*,*,#310,.T.);
#504=ORIENTED_EDGE('',*,*,#365,.F.);
#505=ORIENTED_EDGE('',*,*,#370,.F.);
#506=ORIENTED_EDGE('',*,*,#372,.F.);
#507=ORIENTED_EDGE('',*,*,#314,.T.);
#508=ORIENTED_EDGE('',*,*,#357,.F.);
#509=ORIENTED_EDGE('',*,*,#330,.T.);
#510=ORIENTED_EDGE('',*,*,#327,.T.);
#511=ORIENTED_EDGE('',*,*,#324,.T.);
#512=ORIENTED_EDGE('',*,*,#356,.F.);
#513=ORIENTED_EDGE('',*,*,#340,.T.);
#514=ORIENTED_EDGE('',*,*,#337,.T.);
#515=ORIENTED_EDGE('',*,*,#334,.T.);
#516=ORIENTED_EDGE('',*,*,#353,.F.);
#517=ORIENTED_EDGE('',*,*,#371,.T.);
#518=ORIENTED_EDGE('',*,*,#373,.F.);
#519=ORIENTED_EDGE('',*,*,#366,.T.);
#520=ORIENTED_EDGE('',*,*,#350,.F.);
#521=ORIENTED_EDGE('',*,*,#320,.T.);
#522=ORIENTED_EDGE('',*,*,#317,.T.);
#523=ORIENTED_EDGE('',*,*,#362,.T.);
#524=ORIENTED_EDGE('',*,*,#293,.T.);
#525=ORIENTED_EDGE('',*,*,#296,.T.);
#526=ORIENTED_EDGE('',*,*,#299,.T.);
#527=ORIENTED_EDGE('',*,*,#302,.T.);
#528=ORIENTED_EDGE('',*,*,#373,.T.);
#529=ORIENTED_EDGE('',*,*,#372,.T.);
#530=ORIENTED_EDGE('',*,*,#369,.T.);
#531=ORIENTED_EDGE('',*,*,#367,.T.);
#532=ORIENTED_EDGE('',*,*,#295,.T.);
#533=ORIENTED_EDGE('',*,*,#298,.T.);
#534=ORIENTED_EDGE('',*,*,#301,.T.);
#535=ORIENTED_EDGE('',*,*,#304,.T.);
#536=CYLINDRICAL_SURFACE('',#591,1.5);
#537=CYLINDRICAL_SURFACE('',#594,1.5);
#538=CYLINDRICAL_SURFACE('',#597,1.5);
#539=CYLINDRICAL_SURFACE('',#600,1.5);
#540=CYLINDRICAL_SURFACE('',#603,125.);
#541=CYLINDRICAL_SURFACE('',#607,5.);
#542=CYLINDRICAL_SURFACE('',#611,5.);
#543=CYLINDRICAL_SURFACE('',#615,5.);
#544=CYLINDRICAL_SURFACE('',#618,14.75);
#545=CYLINDRICAL_SURFACE('',#622,14.75);
#546=CYLINDRICAL_SURFACE('',#629,14.75);
#547=CYLINDRICAL_SURFACE('',#633,51.25);
#548=ADVANCED_FACE('',(#45),#536,.F.);
#549=ADVANCED_FACE('',(#46),#537,.F.);
#550=ADVANCED_FACE('',(#47),#538,.F.);
#551=ADVANCED_FACE('',(#48),#539,.F.);
#552=ADVANCED_FACE('',(#49),#540,.F.);
#553=ADVANCED_FACE('',(#50),#23,.F.);
#554=ADVANCED_FACE('',(#51),#541,.F.);
#555=ADVANCED_FACE('',(#52),#24,.F.);
#556=ADVANCED_FACE('',(#53),#25,.F.);
#557=ADVANCED_FACE('',(#54),#542,.F.);
#558=ADVANCED_FACE('',(#55),#26,.F.);
#559=ADVANCED_FACE('',(#56),#27,.F.);
#560=ADVANCED_FACE('',(#57),#543,.F.);
#561=ADVANCED_FACE('',(#58),#28,.F.);
#562=ADVANCED_FACE('',(#59),#544,.F.);
#563=ADVANCED_FACE('',(#60),#545,.F.);
#564=ADVANCED_FACE('',(#61),#29,.T.);
#565=ADVANCED_FACE('',(#62),#546,.F.);
#566=ADVANCED_FACE('',(#63),#30,.T.);
#567=ADVANCED_FACE('',(#64),#31,.T.);
#568=ADVANCED_FACE('',(#65),#547,.F.);
#569=ADVANCED_FACE('',(#66),#32,.T.);
#570=ADVANCED_FACE('',(#67),#33,.T.);
#571=ADVANCED_FACE('',(#68),#34,.T.);
#572=ADVANCED_FACE('',(#69),#35,.T.);
#573=ADVANCED_FACE('',(#70),#36,.T.);
#574=ADVANCED_FACE('',(#71),#37,.T.);
#575=ADVANCED_FACE('',(#72,#15,#16,#17,#18),#38,.T.);
#576=ADVANCED_FACE('',(#73,#19,#20,#21,#22),#39,.T.);
#577=CLOSED_SHELL('',(#548,#549,#550,#551,#552,#553,#554,#555,#556,#557,
#558,#559,#560,#561,#562,#563,#564,#565,#566,#567,#568,#569,#570,#571,#572,
#573,#574,#575,#576));
#578=DERIVED_UNIT_ELEMENT(#580,1.);
#579=DERIVED_UNIT_ELEMENT(#1076,-3.);
#580=(
MASS_UNIT()
NAMED_UNIT(*)
SI_UNIT(.KILO.,.GRAM.)
);
#581=DERIVED_UNIT((#578,#579));
#582=MEASURE_REPRESENTATION_ITEM('density measure',
POSITIVE_RATIO_MEASURE(7850.),#581);
#583=PROPERTY_DEFINITION_REPRESENTATION(#588,#585);
#584=PROPERTY_DEFINITION_REPRESENTATION(#589,#586);
#585=REPRESENTATION('material name',(#587),#1073);
#586=REPRESENTATION('density',(#582),#1073);
#587=DESCRIPTIVE_REPRESENTATION_ITEM('Steel','Steel');
#588=PROPERTY_DEFINITION('material property','material name',#1083);
#589=PROPERTY_DEFINITION('material property','density of part',#1083);
#590=AXIS2_PLACEMENT_3D('',#804,#644,#645);
#591=AXIS2_PLACEMENT_3D('',#805,#646,#647);
#592=AXIS2_PLACEMENT_3D('',#807,#648,#649);
#593=AXIS2_PLACEMENT_3D('',#810,#651,#652);
#594=AXIS2_PLACEMENT_3D('',#811,#653,#654);
#595=AXIS2_PLACEMENT_3D('',#813,#655,#656);
#596=AXIS2_PLACEMENT_3D('',#816,#658,#659);
#597=AXIS2_PLACEMENT_3D('',#817,#660,#661);
#598=AXIS2_PLACEMENT_3D('',#819,#662,#663);
#599=AXIS2_PLACEMENT_3D('',#822,#665,#666);
#600=AXIS2_PLACEMENT_3D('',#823,#667,#668);
#601=AXIS2_PLACEMENT_3D('',#825,#669,#670);
#602=AXIS2_PLACEMENT_3D('',#828,#672,#673);
#603=AXIS2_PLACEMENT_3D('',#829,#674,#675);
#604=AXIS2_PLACEMENT_3D('',#832,#676,#677);
#605=AXIS2_PLACEMENT_3D('',#893,#680,#681);
#606=AXIS2_PLACEMENT_3D('',#895,#683,#684);
#607=AXIS2_PLACEMENT_3D('',#904,#689,#690);
#608=AXIS2_PLACEMENT_3D('',#925,#691,#692);
#609=AXIS2_PLACEMENT_3D('',#927,#694,#695);
#610=AXIS2_PLACEMENT_3D('',#933,#699,#700);
#611=AXIS2_PLACEMENT_3D('',#942,#705,#706);
#612=AXIS2_PLACEMENT_3D('',#963,#707,#708);
#613=AXIS2_PLACEMENT_3D('',#965,#710,#711);
#614=AXIS2_PLACEMENT_3D('',#971,#715,#716);
#615=AXIS2_PLACEMENT_3D('',#980,#721,#722);
#616=AXIS2_PLACEMENT_3D('',#1001,#723,#724);
#617=AXIS2_PLACEMENT_3D('',#1003,#726,#727);
#618=AXIS2_PLACEMENT_3D('',#1009,#731,#732);
#619=AXIS2_PLACEMENT_3D('',#1011,#733,#734);
#620=AXIS2_PLACEMENT_3D('',#1014,#736,#737);
#621=AXIS2_PLACEMENT_3D('',#1015,#738,#739);
#622=AXIS2_PLACEMENT_3D('',#1016,#740,#741);
#623=AXIS2_PLACEMENT_3D('',#1018,#742,#743);
#624=AXIS2_PLACEMENT_3D('',#1021,#745,#746);
#625=AXIS2_PLACEMENT_3D('',#1022,#747,#748);
#626=AXIS2_PLACEMENT_3D('',#1023,#749,#750);
#627=AXIS2_PLACEMENT_3D('',#1031,#755,#756);
#628=AXIS2_PLACEMENT_3D('',#1032,#757,#758);
#629=AXIS2_PLACEMENT_3D('',#1035,#761,#762);
#630=AXIS2_PLACEMENT_3D('',#1038,#764,#765);
#631=AXIS2_PLACEMENT_3D('',#1039,#766,#767);
#632=AXIS2_PLACEMENT_3D('',#1040,#768,#769);
#633=AXIS2_PLACEMENT_3D('',#1041,#770,#771);
#634=AXIS2_PLACEMENT_3D('',#1042,#772,#773);
#635=AXIS2_PLACEMENT_3D('',#1045,#775,#776);
#636=AXIS2_PLACEMENT_3D('',#1046,#777,#778);
#637=AXIS2_PLACEMENT_3D('',#1052,#782,#783);
#638=AXIS2_PLACEMENT_3D('',#1053,#784,#785);
#639=AXIS2_PLACEMENT_3D('',#1059,#789,#790);
#640=AXIS2_PLACEMENT_3D('',#1063,#793,#794);
#641=AXIS2_PLACEMENT_3D('',#1067,#797,#798);
#642=AXIS2_PLACEMENT_3D('',#1069,#800,#801);
#643=AXIS2_PLACEMENT_3D('',#1070,#802,#803);
#644=DIRECTION('axis',(0.,0.,1.));
#645=DIRECTION('refdir',(1.,0.,0.));
#646=DIRECTION('center_axis',(0.,0.,-1.));
#647=DIRECTION('ref_axis',(1.,0.,0.));
#648=DIRECTION('center_axis',(0.,0.,-1.));
#649=DIRECTION('ref_axis',(1.,0.,0.));
#650=DIRECTION('',(0.,0.,-1.));
#651=DIRECTION('center_axis',(0.,0.,1.));
#652=DIRECTION('ref_axis',(1.,0.,0.));
#653=DIRECTION('center_axis',(0.,0.,-1.));
#654=DIRECTION('ref_axis',(1.,0.,0.));
#655=DIRECTION('center_axis',(0.,0.,-1.));
#656=DIRECTION('ref_axis',(1.,0.,0.));
#657=DIRECTION('',(0.,0.,-1.));
#658=DIRECTION('center_axis',(0.,0.,1.));
#659=DIRECTION('ref_axis',(1.,0.,0.));
#660=DIRECTION('center_axis',(0.,0.,-1.));
#661=DIRECTION('ref_axis',(1.,0.,0.));
#662=DIRECTION('center_axis',(0.,0.,-1.));
#663=DIRECTION('ref_axis',(1.,0.,0.));
#664=DIRECTION('',(0.,0.,-1.));
#665=DIRECTION('center_axis',(0.,0.,1.));
#666=DIRECTION('ref_axis',(1.,0.,0.));
#667=DIRECTION('center_axis',(0.,0.,-1.));
#668=DIRECTION('ref_axis',(1.,0.,0.));
#669=DIRECTION('center_axis',(0.,0.,-1.));
#670=DIRECTION('ref_axis',(1.,0.,0.));
#671=DIRECTION('',(0.,0.,-1.));
#672=DIRECTION('center_axis',(0.,0.,1.));
#673=DIRECTION('ref_axis',(1.,0.,0.));
#674=DIRECTION('center_axis',(1.,0.,0.));
#675=DIRECTION('ref_axis',(0.,-0.8,-0.6));
#676=DIRECTION('center_axis',(1.,0.,0.));
#677=DIRECTION('ref_axis',(0.,-0.8,-0.6));
#678=DIRECTION('',(-1.,0.,0.));
#679=DIRECTION('',(-1.,0.,0.));
#680=DIRECTION('center_axis',(-1.,0.,0.));
#681=DIRECTION('ref_axis',(0.,-0.8,-0.6));
#682=DIRECTION('',(-1.,0.,0.));
#683=DIRECTION('center_axis',(-1.,0.,0.));
#684=DIRECTION('ref_axis',(0.,0.,1.));
#685=DIRECTION('',(0.,0.,1.));
#686=DIRECTION('',(0.,1.,0.));
#687=DIRECTION('',(0.,0.,1.));
#688=DIRECTION('',(0.,1.,0.));
#689=DIRECTION('center_axis',(0.,1.,0.));
#690=DIRECTION('ref_axis',(-1.,0.,0.));
#691=DIRECTION('center_axis',(0.,1.,0.));
#692=DIRECTION('ref_axis',(-1.,0.,0.));
#693=DIRECTION('',(0.,1.,0.));
#694=DIRECTION('center_axis',(1.,0.,0.));
#695=DIRECTION('ref_axis',(0.,0.,-1.));
#696=DIRECTION('',(0.,0.,-1.));
#697=DIRECTION('',(0.,0.,-1.));
#698=DIRECTION('',(0.,-1.,0.));
#699=DIRECTION('center_axis',(-1.,0.,0.));
#700=DIRECTION('ref_axis',(0.,0.,1.));
#701=DIRECTION('',(0.,0.,1.));
#702=DIRECTION('',(0.,1.,0.));
#703=DIRECTION('',(0.,0.,1.));
#704=DIRECTION('',(0.,1.,0.));
#705=DIRECTION('center_axis',(0.,1.,0.));
#706=DIRECTION('ref_axis',(-1.,0.,0.));
#707=DIRECTION('center_axis',(0.,1.,0.));
#708=DIRECTION('ref_axis',(-1.,0.,0.));
#709=DIRECTION('',(0.,1.,0.));
#710=DIRECTION('center_axis',(1.,0.,0.));
#711=DIRECTION('ref_axis',(0.,0.,-1.));
#712=DIRECTION('',(0.,0.,-1.));
#713=DIRECTION('',(0.,0.,-1.));
#714=DIRECTION('',(0.,-1.,0.));
#715=DIRECTION('center_axis',(-1.,0.,0.));
#716=DIRECTION('ref_axis',(0.,0.,1.));
#717=DIRECTION('',(0.,0.,1.));
#718=DIRECTION('',(0.,1.,0.));
#719=DIRECTION('',(0.,0.,1.));
#720=DIRECTION('',(0.,1.,0.));
#721=DIRECTION('center_axis',(0.,1.,0.));
#722=DIRECTION('ref_axis',(-1.,0.,0.));
#723=DIRECTION('center_axis',(0.,1.,0.));
#724=DIRECTION('ref_axis',(-1.,0.,0.));
#725=DIRECTION('',(0.,1.,0.));
#726=DIRECTION('center_axis',(1.,0.,0.));
#727=DIRECTION('ref_axis',(0.,0.,-1.));
#728=DIRECTION('',(0.,0.,-1.));
#729=DIRECTION('',(0.,0.,-1.));
#730=DIRECTION('',(0.,-1.,0.));
#731=DIRECTION('center_axis',(0.,0.,1.));
#732=DIRECTION('ref_axis',(1.,0.,0.));
#733=DIRECTION('center_axis',(0.,0.,1.));
#734=DIRECTION('ref_axis',(1.,0.,0.));
#735=DIRECTION('',(0.,0.,-1.));
#736=DIRECTION('center_axis',(0.,0.,1.));
#737=DIRECTION('ref_axis',(1.,0.,0.));
#738=DIRECTION('center_axis',(0.,0.,1.));
#739=DIRECTION('ref_axis',(1.,0.,0.));
#740=DIRECTION('center_axis',(0.,0.,1.));
#741=DIRECTION('ref_axis',(1.,0.,0.));
#742=DIRECTION('center_axis',(0.,0.,1.));
#743=DIRECTION('ref_axis',(1.,0.,0.));
#744=DIRECTION('',(0.,0.,-1.));
#745=DIRECTION('center_axis',(0.,0.,1.));
#746=DIRECTION('ref_axis',(1.,0.,0.));
#747=DIRECTION('center_axis',(0.,0.,1.));
#748=DIRECTION('ref_axis',(1.,0.,0.));
#749=DIRECTION('center_axis',(0.,0.,1.));
#750=DIRECTION('ref_axis',(1.,0.,0.));
#751=DIRECTION('',(1.,0.,0.));
#752=DIRECTION('',(0.,1.,0.));
#753=DIRECTION('',(0.,-1.,0.));
#754=DIRECTION('',(1.,0.,0.));
#755=DIRECTION('center_axis',(0.,0.,1.));
#756=DIRECTION('ref_axis',(1.,0.,0.));
#757=DIRECTION('center_axis',(0.,0.,1.));
#758=DIRECTION('ref_axis',(1.,0.,0.));
#759=DIRECTION('',(1.,0.,0.));
#760=DIRECTION('',(1.,0.,0.));
#761=DIRECTION('center_axis',(0.,0.,1.));
#762=DIRECTION('ref_axis',(1.,0.,0.));
#763=DIRECTION('',(0.,0.,-1.));
#764=DIRECTION('center_axis',(0.,0.,1.));
#765=DIRECTION('ref_axis',(1.,0.,0.));
#766=DIRECTION('center_axis',(0.,0.,1.));
#767=DIRECTION('ref_axis',(1.,0.,0.));
#768=DIRECTION('center_axis',(0.,0.,1.));
#769=DIRECTION('ref_axis',(1.,0.,0.));
#770=DIRECTION('center_axis',(0.,0.,1.));
#771=DIRECTION('ref_axis',(1.,0.,0.));
#772=DIRECTION('center_axis',(0.,0.,-1.));
#773=DIRECTION('ref_axis',(1.,0.,0.));
#774=DIRECTION('',(0.,0.,-1.));
#775=DIRECTION('center_axis',(0.,0.,1.));
#776=DIRECTION('ref_axis',(1.,0.,0.));
#777=DIRECTION('center_axis',(0.,0.,1.));
#778=DIRECTION('ref_axis',(1.,0.,0.));
#779=DIRECTION('',(0.,1.,0.));
#780=DIRECTION('',(-1.,0.,0.));
#781=DIRECTION('',(0.,-1.,0.));
#782=DIRECTION('center_axis',(0.,0.,1.));
#783=DIRECTION('ref_axis',(1.,0.,0.));
#784=DIRECTION('center_axis',(1.,0.,0.));
#785=DIRECTION('ref_axis',(0.,-1.,0.));
#786=DIRECTION('',(0.,0.,1.));
#787=DIRECTION('',(0.,-1.,0.));
#788=DIRECTION('',(0.,0.,1.));
#789=DIRECTION('center_axis',(0.,1.,0.));
#790=DIRECTION('ref_axis',(1.,0.,0.));
#791=DIRECTION('',(1.,0.,0.));
#792=DIRECTION('',(0.,0.,1.));
#793=DIRECTION('center_axis',(-1.,0.,0.));
#794=DIRECTION('ref_axis',(0.,1.,0.));
#795=DIRECTION('',(0.,0.,-1.));
#796=DIRECTION('',(0.,1.,0.));
#797=DIRECTION('center_axis',(0.,-1.,0.));
#798=DIRECTION('ref_axis',(-1.,0.,0.));
#799=DIRECTION('',(-1.,0.,0.));
#800=DIRECTION('center_axis',(0.,0.,1.));
#801=DIRECTION('ref_axis',(1.,0.,0.));
#802=DIRECTION('center_axis',(0.,0.,-1.));
#803=DIRECTION('ref_axis',(-1.,0.,0.));
#804=CARTESIAN_POINT('',(0.,0.,0.));
#805=CARTESIAN_POINT('Origin',(-15.,60.,0.));
#806=CARTESIAN_POINT('',(-16.5,60.,0.));
#807=CARTESIAN_POINT('Origin',(-15.,60.,0.));
#808=CARTESIAN_POINT('',(-16.5,60.,-5.));
#809=CARTESIAN_POINT('',(-16.5,60.,0.));
#810=CARTESIAN_POINT('Origin',(-15.,60.,-5.));
#811=CARTESIAN_POINT('Origin',(-15.,90.,0.));
#812=CARTESIAN_POINT('',(-16.5,90.,0.));
#813=CARTESIAN_POINT('Origin',(-15.,90.,0.));
#814=CARTESIAN_POINT('',(-16.5,90.,-5.));
#815=CARTESIAN_POINT('',(-16.5,90.,0.));
#816=CARTESIAN_POINT('Origin',(-15.,90.,-5.));
#817=CARTESIAN_POINT('Origin',(15.,60.,0.));
#818=CARTESIAN_POINT('',(13.5,60.,0.));
#819=CARTESIAN_POINT('Origin',(15.,60.,0.));
#820=CARTESIAN_POINT('',(13.5,60.,-5.));
#821=CARTESIAN_POINT('',(13.5,60.,0.));
#822=CARTESIAN_POINT('Origin',(15.,60.,-5.));
#823=CARTESIAN_POINT('Origin',(15.,90.,0.));
#824=CARTESIAN_POINT('',(13.5,90.,0.));
#825=CARTESIAN_POINT('Origin',(15.,90.,0.));
#826=CARTESIAN_POINT('',(13.5,90.,-5.));
#827=CARTESIAN_POINT('',(13.5,90.,0.));
#828=CARTESIAN_POINT('Origin',(15.,90.,-5.));
#829=CARTESIAN_POINT('Origin',(70.,110.,155.));
#830=CARTESIAN_POINT('',(70.,10.,80.));
#831=CARTESIAN_POINT('',(70.,110.,30.));
#832=CARTESIAN_POINT('Origin',(70.,110.,155.));
#833=CARTESIAN_POINT('',(37.4374478296798,110.,30.));
#834=CARTESIAN_POINT('',(70.,110.,30.));
#835=CARTESIAN_POINT('',(-51.25,75.,35.));
#836=CARTESIAN_POINT('Ctrl Pts',(37.4374478296789,110.000000000001,30.));
#837=CARTESIAN_POINT('Ctrl Pts',(39.3250483721455,107.980944376233,30.));
#838=CARTESIAN_POINT('Ctrl Pts',(41.0942682452924,105.757090826372,30.0492795230129));
#839=CARTESIAN_POINT('Ctrl Pts',(44.5555300243971,100.551399734808,30.3255212344708));
#840=CARTESIAN_POINT('Ctrl Pts',(46.1707527687332,97.5046627003549,30.5853575908681));
#841=CARTESIAN_POINT('Ctrl Pts',(48.7460181131395,91.1871530409377,31.3827944572553));
#842=CARTESIAN_POINT('Ctrl Pts',(49.7087866959137,87.909982860394,31.9221133011875));
#843=CARTESIAN_POINT('Ctrl Pts',(50.9606882442663,81.3749028086597,33.2759725347295));
#844=CARTESIAN_POINT('Ctrl Pts',(51.25,78.1170963803416,34.090846889067));
#845=CARTESIAN_POINT('Ctrl Pts',(51.25,71.5377316652995,36.0098282642877));
#846=CARTESIAN_POINT('Ctrl Pts',(50.8943025068931,68.0194258960543,37.2021969453473));
#847=CARTESIAN_POINT('Ctrl Pts',(49.4615705585407,61.1251493594207,39.891616373208));
#848=CARTESIAN_POINT('Ctrl Pts',(48.3854537960007,57.7489058057224,41.3884566296663));
#849=CARTESIAN_POINT('Ctrl Pts',(45.5988163133708,51.3462415236134,44.5577247148633));
#850=CARTESIAN_POINT('Ctrl Pts',(43.8869778576306,48.3152929309288,46.2316431000582));
#851=CARTESIAN_POINT('Ctrl Pts',(39.9739701398537,42.7475252483966,49.5833827674357));
#852=CARTESIAN_POINT('Ctrl Pts',(37.7724294043069,40.2104032393182,51.2602670915494));
#853=CARTESIAN_POINT('Ctrl Pts',(33.2754167962433,35.907791407037,54.2939590089491));
#854=CARTESIAN_POINT('Ctrl Pts',(30.8417322164193,33.9448135812091,55.7748448200484));
#855=CARTESIAN_POINT('Ctrl Pts',(25.5119374653898,30.4367660094331,58.5649721347128));
#856=CARTESIAN_POINT('Ctrl Pts',(22.6156261588787,28.8910211386437,59.8729804027125));
#857=CARTESIAN_POINT('Ctrl Pts',(16.5006717459799,26.3663525613222,62.0848246521419));
#858=CARTESIAN_POINT('Ctrl Pts',(13.2752231415529,25.3852776987773,62.9883192528972));
#859=CARTESIAN_POINT('Ctrl Pts',(6.68382089092767,24.0767366375468,64.2090674020637));
#860=CARTESIAN_POINT('Ctrl Pts',(3.31726118242361,23.75,64.5238291040121));
#861=CARTESIAN_POINT('Ctrl Pts',(-8.88178419700125E-15,23.75,64.5238291040121));
#862=CARTESIAN_POINT('Ctrl Pts',(-3.31726118242364,23.75,64.5238291040121));
#863=CARTESIAN_POINT('Ctrl Pts',(-6.6838208909277,24.0767366375468,64.2090674020636));
#864=CARTESIAN_POINT('Ctrl Pts',(-13.2752231415529,25.3852776987773,62.9883192528972));
#865=CARTESIAN_POINT('Ctrl Pts',(-16.5006717459799,26.3663525613222,62.0848246521419));
#866=CARTESIAN_POINT('Ctrl Pts',(-22.6156261588787,28.8910211386438,59.8729804027125));
#867=CARTESIAN_POINT('Ctrl Pts',(-25.5119374653898,30.4367660094331,58.5649721347128));
#868=CARTESIAN_POINT('Ctrl Pts',(-30.8417322164193,33.9448135812091,55.7748448200484));
#869=CARTESIAN_POINT('Ctrl Pts',(-33.2754167962433,35.907791407037,54.2939590089491));
#870=CARTESIAN_POINT('Ctrl Pts',(-37.7724294043069,40.2104032393182,51.2602670915494));
#871=CARTESIAN_POINT('Ctrl Pts',(-39.9739701398536,42.7475252483966,49.5833827674357));
#872=CARTESIAN_POINT('Ctrl Pts',(-43.8869778576306,48.3152929309288,46.2316431000582));
#873=CARTESIAN_POINT('Ctrl Pts',(-45.5988163133708,51.3462415236134,44.5577247148633));
#874=CARTESIAN_POINT('Ctrl Pts',(-48.3854537960007,57.7489058057223,41.3884566296664));
#875=CARTESIAN_POINT('Ctrl Pts',(-49.4615705585407,61.1251493594206,39.8916163732081));
#876=CARTESIAN_POINT('Ctrl Pts',(-50.8943025068931,68.0194258960543,37.2021969453473));
#877=CARTESIAN_POINT('Ctrl Pts',(-51.25,71.5377316652995,36.0098282642877));
#878=CARTESIAN_POINT('Ctrl Pts',(-51.25,75.,35.));
#879=CARTESIAN_POINT('',(-37.4374478296798,110.,30.));
#880=CARTESIAN_POINT('Ctrl Pts',(-51.25,75.,35.));
#881=CARTESIAN_POINT('Ctrl Pts',(-51.25,78.1170963803416,34.090846889067));
#882=CARTESIAN_POINT('Ctrl Pts',(-50.9606882442663,81.3749028086597,33.2759725347295));
#883=CARTESIAN_POINT('Ctrl Pts',(-49.7087866959137,87.909982860394,31.9221133011875));
#884=CARTESIAN_POINT('Ctrl Pts',(-48.7460181131395,91.1871530409377,31.3827944572553));
#885=CARTESIAN_POINT('Ctrl Pts',(-46.1707527687332,97.5046627003548,30.5853575908681));
#886=CARTESIAN_POINT('Ctrl Pts',(-44.5555300243972,100.551399734808,30.3255212344708));
#887=CARTESIAN_POINT('Ctrl Pts',(-41.0942682452925,105.757090826372,30.0492795230129));
#888=CARTESIAN_POINT('Ctrl Pts',(-39.3250483721455,107.980944376233,30.));
#889=CARTESIAN_POINT('Ctrl Pts',(-37.4374478296789,110.000000000001,30.));
#890=CARTESIAN_POINT('',(-70.,110.,30.));
#891=CARTESIAN_POINT('',(70.,110.,30.));
#892=CARTESIAN_POINT('',(-70.,10.,80.));
#893=CARTESIAN_POINT('Origin',(-70.,110.,155.));
#894=CARTESIAN_POINT('',(70.,10.,80.));
#895=CARTESIAN_POINT('Origin',(40.,-30.,20.));
#896=CARTESIAN_POINT('',(40.,-23.8766890863779,80.));
#897=CARTESIAN_POINT('',(40.,-23.8766890863779,20.));
#898=CARTESIAN_POINT('',(40.,-23.8766890863779,0.));
#899=CARTESIAN_POINT('',(40.,-30.,80.));
#900=CARTESIAN_POINT('',(40.,-20.,80.));
#901=CARTESIAN_POINT('',(40.,-30.,20.));
#902=CARTESIAN_POINT('',(40.,-30.,10.));
#903=CARTESIAN_POINT('',(40.,-30.,20.));
#904=CARTESIAN_POINT('Origin',(45.,-30.,20.));
#905=CARTESIAN_POINT('',(50.,-23.8766890863779,20.));
#906=CARTESIAN_POINT('Ctrl Pts',(50.,-23.8766890863779,20.));
#907=CARTESIAN_POINT('Ctrl Pts',(50.,-23.8766890863779,19.3665675667547));
#908=CARTESIAN_POINT('Ctrl Pts',(49.8723756333054,-23.9246197465582,18.69471734726));
#909=CARTESIAN_POINT('Ctrl Pts',(49.3606414735761,-24.0932566023745,17.4645281560239));
#910=CARTESIAN_POINT('Ctrl Pts',(48.9767647139122,-24.2110659146934,16.9056969020467));
#911=CARTESIAN_POINT('Ctrl Pts',(48.0945228181907,-24.4288868207695,16.0234550063252));
#912=CARTESIAN_POINT('Ctrl Pts',(47.5356043761878,-24.5436679849362,15.6394092793528));
#913=CARTESIAN_POINT('Ctrl Pts',(46.3050906381046,-24.705247581409,15.1275488704665));
#914=CARTESIAN_POINT('Ctrl Pts',(45.6331170021327,-24.75,15.));
#915=CARTESIAN_POINT('Ctrl Pts',(44.3668829978673,-24.75,15.));
#916=CARTESIAN_POINT('Ctrl Pts',(43.6949093618953,-24.705247581409,15.1275488704665));
#917=CARTESIAN_POINT('Ctrl Pts',(42.4643956238122,-24.5436679849362,15.6394092793528));
#918=CARTESIAN_POINT('Ctrl Pts',(41.9054771818093,-24.4288868207695,16.0234550063252));
#919=CARTESIAN_POINT('Ctrl Pts',(41.0232352860878,-24.2110659146934,16.9056969020467));
#920=CARTESIAN_POINT('Ctrl Pts',(40.6393585264239,-24.0932566023745,17.4645281560239));
#921=CARTESIAN_POINT('Ctrl Pts',(40.1276243666946,-23.9246197465582,18.69471734726));
#922=CARTESIAN_POINT('Ctrl Pts',(40.,-23.8766890863779,19.3665675667547));
#923=CARTESIAN_POINT('Ctrl Pts',(40.,-23.8766890863779,20.));
#924=CARTESIAN_POINT('',(50.,-30.,20.));
#925=CARTESIAN_POINT('Origin',(45.,-30.,20.));
#926=CARTESIAN_POINT('',(50.,-30.,20.));
#927=CARTESIAN_POINT('Origin',(50.,-30.,80.));
#928=CARTESIAN_POINT('',(50.,-23.8766890863779,80.));
#929=CARTESIAN_POINT('',(50.,-23.8766890863779,0.));
#930=CARTESIAN_POINT('',(50.,-30.,80.));
#931=CARTESIAN_POINT('',(50.,-30.,40.));
#932=CARTESIAN_POINT('',(50.,-20.,80.));
#933=CARTESIAN_POINT('Origin',(-5.,-30.,20.));
#934=CARTESIAN_POINT('',(-5.,-23.8766890863779,80.));
#935=CARTESIAN_POINT('',(-5.,-23.8766890863779,20.));
#936=CARTESIAN_POINT('',(-5.,-23.8766890863779,0.));
#937=CARTESIAN_POINT('',(-5.,-30.,80.));
#938=CARTESIAN_POINT('',(-5.,-20.,80.));
#939=CARTESIAN_POINT('',(-5.,-30.,20.));
#940=CARTESIAN_POINT('',(-5.,-30.,10.));
#941=CARTESIAN_POINT('',(-5.,-30.,20.));
#942=CARTESIAN_POINT('Origin',(0.,-30.,20.));
#943=CARTESIAN_POINT('',(5.,-23.8766890863779,20.));
#944=CARTESIAN_POINT('Ctrl Pts',(5.,-23.8766890863779,20.));
#945=CARTESIAN_POINT('Ctrl Pts',(5.,-23.8766890863779,19.3665675667547));
#946=CARTESIAN_POINT('Ctrl Pts',(4.87237563330536,-23.9246197465582,18.69471734726));
#947=CARTESIAN_POINT('Ctrl Pts',(4.3606414735761,-24.0932566023745,17.4645281560239));
#948=CARTESIAN_POINT('Ctrl Pts',(3.97676471391221,-24.2110659146934,16.9056969020467));
#949=CARTESIAN_POINT('Ctrl Pts',(3.09452281819071,-24.4288868207695,16.0234550063252));
#950=CARTESIAN_POINT('Ctrl Pts',(2.53560437618779,-24.5436679849362,15.6394092793528));
#951=CARTESIAN_POINT('Ctrl Pts',(1.30509063810464,-24.705247581409,15.1275488704665));
#952=CARTESIAN_POINT('Ctrl Pts',(0.633117002132748,-24.75,15.));
#953=CARTESIAN_POINT('Ctrl Pts',(-0.633117002132746,-24.75,15.));
#954=CARTESIAN_POINT('Ctrl Pts',(-1.30509063810464,-24.705247581409,15.1275488704665));
#955=CARTESIAN_POINT('Ctrl Pts',(-2.53560437618779,-24.5436679849362,15.6394092793528));
#956=CARTESIAN_POINT('Ctrl Pts',(-3.09452281819071,-24.4288868207695,16.0234550063252));
#957=CARTESIAN_POINT('Ctrl Pts',(-3.97676471391221,-24.2110659146934,16.9056969020467));
#958=CARTESIAN_POINT('Ctrl Pts',(-4.3606414735761,-24.0932566023745,17.4645281560239));
#959=CARTESIAN_POINT('Ctrl Pts',(-4.87237563330536,-23.9246197465582,18.69471734726));
#960=CARTESIAN_POINT('Ctrl Pts',(-5.,-23.8766890863779,19.3665675667547));
#961=CARTESIAN_POINT('Ctrl Pts',(-5.,-23.8766890863779,20.));
#962=CARTESIAN_POINT('',(5.,-30.,20.));
#963=CARTESIAN_POINT('Origin',(0.,-30.,20.));
#964=CARTESIAN_POINT('',(5.,-30.,20.));
#965=CARTESIAN_POINT('Origin',(5.,-30.,80.));
#966=CARTESIAN_POINT('',(5.,-23.8766890863779,80.));
#967=CARTESIAN_POINT('',(5.,-23.8766890863779,0.));
#968=CARTESIAN_POINT('',(5.,-30.,80.));
#969=CARTESIAN_POINT('',(5.,-30.,40.));
#970=CARTESIAN_POINT('',(5.,-20.,80.));
#971=CARTESIAN_POINT('Origin',(-50.,-30.,20.));
#972=CARTESIAN_POINT('',(-50.,-23.8766890863779,80.));
#973=CARTESIAN_POINT('',(-50.,-23.8766890863779,20.));
#974=CARTESIAN_POINT('',(-50.,-23.8766890863779,0.));
#975=CARTESIAN_POINT('',(-50.,-30.,80.));
#976=CARTESIAN_POINT('',(-50.,-20.,80.));
#977=CARTESIAN_POINT('',(-50.,-30.,20.));
#978=CARTESIAN_POINT('',(-50.,-30.,10.));
#979=CARTESIAN_POINT('',(-50.,-30.,20.));
#980=CARTESIAN_POINT('Origin',(-45.,-30.,20.));
#981=CARTESIAN_POINT('',(-40.,-23.8766890863779,20.));
#982=CARTESIAN_POINT('Ctrl Pts',(-40.,-23.8766890863779,20.));
#983=CARTESIAN_POINT('Ctrl Pts',(-40.,-23.8766890863779,19.3665675667547));
#984=CARTESIAN_POINT('Ctrl Pts',(-40.1276243666946,-23.9246197465582,18.69471734726));
#985=CARTESIAN_POINT('Ctrl Pts',(-40.6393585264239,-24.0932566023745,17.4645281560239));
#986=CARTESIAN_POINT('Ctrl Pts',(-41.0232352860878,-24.2110659146934,16.9056969020467));
#987=CARTESIAN_POINT('Ctrl Pts',(-41.9054771818093,-24.4288868207695,16.0234550063252));
#988=CARTESIAN_POINT('Ctrl Pts',(-42.4643956238122,-24.5436679849362,15.6394092793528));
#989=CARTESIAN_POINT('Ctrl Pts',(-43.6949093618954,-24.705247581409,15.1275488704665));
#990=CARTESIAN_POINT('Ctrl Pts',(-44.3668829978673,-24.75,15.));
#991=CARTESIAN_POINT('Ctrl Pts',(-45.6331170021327,-24.75,15.));
#992=CARTESIAN_POINT('Ctrl Pts',(-46.3050906381046,-24.705247581409,15.1275488704665));
#993=CARTESIAN_POINT('Ctrl Pts',(-47.5356043761878,-24.5436679849362,15.6394092793528));
#994=CARTESIAN_POINT('Ctrl Pts',(-48.0945228181907,-24.4288868207695,16.0234550063252));
#995=CARTESIAN_POINT('Ctrl Pts',(-48.9767647139122,-24.2110659146934,16.9056969020467));
#996=CARTESIAN_POINT('Ctrl Pts',(-49.3606414735761,-24.0932566023745,17.4645281560239));
#997=CARTESIAN_POINT('Ctrl Pts',(-49.8723756333054,-23.9246197465582,18.69471734726));
#998=CARTESIAN_POINT('Ctrl Pts',(-50.,-23.8766890863779,19.3665675667547));
#999=CARTESIAN_POINT('Ctrl Pts',(-50.,-23.8766890863779,20.));
#1000=CARTESIAN_POINT('',(-40.,-30.,20.));
#1001=CARTESIAN_POINT('Origin',(-45.,-30.,20.));
#1002=CARTESIAN_POINT('',(-40.,-30.,20.));
#1003=CARTESIAN_POINT('Origin',(-40.,-30.,80.));
#1004=CARTESIAN_POINT('',(-40.,-23.8766890863779,80.));
#1005=CARTESIAN_POINT('',(-40.,-23.8766890863779,0.));
#1006=CARTESIAN_POINT('',(-40.,-30.,80.));
#1007=CARTESIAN_POINT('',(-40.,-30.,40.));
#1008=CARTESIAN_POINT('',(-40.,-20.,80.));
#1009=CARTESIAN_POINT('Origin',(45.,-10.,0.));
#1010=CARTESIAN_POINT('',(30.25,-10.,80.));
#1011=CARTESIAN_POINT('Origin',(45.,-10.,80.));
#1012=CARTESIAN_POINT('',(30.25,-10.,0.));
#1013=CARTESIAN_POINT('',(30.25,-10.,0.));
#1014=CARTESIAN_POINT('Origin',(45.,-10.,0.));
#1015=CARTESIAN_POINT('Origin',(45.,-10.,80.));
#1016=CARTESIAN_POINT('Origin',(0.,-10.,0.));
#1017=CARTESIAN_POINT('',(-14.75,-10.,80.));
#1018=CARTESIAN_POINT('Origin',(0.,-10.,80.));
#1019=CARTESIAN_POINT('',(-14.75,-10.,0.));
#1020=CARTESIAN_POINT('',(-14.75,-10.,0.));
#1021=CARTESIAN_POINT('Origin',(0.,-10.,0.));
#1022=CARTESIAN_POINT('Origin',(0.,-10.,80.));
#1023=CARTESIAN_POINT('Origin',(0.,-10.,80.));
#1024=CARTESIAN_POINT('',(70.,-30.,80.));
#1025=CARTESIAN_POINT('',(70.,-30.,80.));
#1026=CARTESIAN_POINT('',(70.,140.,80.));
#1027=CARTESIAN_POINT('',(-70.,-30.,80.));
#1028=CARTESIAN_POINT('',(-70.,-30.,80.));
#1029=CARTESIAN_POINT('',(70.,-30.,80.));
#1030=CARTESIAN_POINT('',(-59.75,-10.,80.));
#1031=CARTESIAN_POINT('Origin',(-45.,-10.,80.));
#1032=CARTESIAN_POINT('Origin',(-45.,-10.,80.));
#1033=CARTESIAN_POINT('',(70.,-30.,80.));
#1034=CARTESIAN_POINT('',(70.,-30.,80.));
#1035=CARTESIAN_POINT('Origin',(-45.,-10.,0.));
#1036=CARTESIAN_POINT('',(-59.75,-10.,0.));
#1037=CARTESIAN_POINT('',(-59.75,-10.,0.));
#1038=CARTESIAN_POINT('Origin',(-45.,-10.,0.));
#1039=CARTESIAN_POINT('Origin',(0.,55.,0.));
#1040=CARTESIAN_POINT('Origin',(0.,55.,0.));
#1041=CARTESIAN_POINT('Origin',(0.,75.,0.));
#1042=CARTESIAN_POINT('Origin',(0.,75.,30.));
#1043=CARTESIAN_POINT('',(-51.25,75.,0.));
#1044=CARTESIAN_POINT('',(-51.25,75.,0.));
#1045=CARTESIAN_POINT('Origin',(0.,75.,0.));
#1046=CARTESIAN_POINT('Origin',(0.,75.,30.));
#1047=CARTESIAN_POINT('',(70.,140.,30.));
#1048=CARTESIAN_POINT('',(70.,140.,30.));
#1049=CARTESIAN_POINT('',(-70.,140.,30.));
#1050=CARTESIAN_POINT('',(-70.,140.,30.));
#1051=CARTESIAN_POINT('',(-70.,10.,30.));
#1052=CARTESIAN_POINT('Origin',(0.,55.,0.));
#1053=CARTESIAN_POINT('Origin',(70.,140.,0.));
#1054=CARTESIAN_POINT('',(70.,-30.,-5.));
#1055=CARTESIAN_POINT('',(70.,-30.,0.));
#1056=CARTESIAN_POINT('',(70.,140.,-5.));
#1057=CARTESIAN_POINT('',(70.,140.,-5.));
#1058=CARTESIAN_POINT('',(70.,140.,0.));
#1059=CARTESIAN_POINT('Origin',(-70.,140.,0.));
#1060=CARTESIAN_POINT('',(-70.,140.,-5.));
#1061=CARTESIAN_POINT('',(-70.,140.,-5.));
#1062=CARTESIAN_POINT('',(-70.,140.,0.));
#1063=CARTESIAN_POINT('Origin',(-70.,-30.,0.));
#1064=CARTESIAN_POINT('',(-70.,-30.,-5.));
#1065=CARTESIAN_POINT('',(-70.,-30.,0.));
#1066=CARTESIAN_POINT('',(-70.,-30.,-5.));
#1067=CARTESIAN_POINT('Origin',(70.,-30.,0.));
#1068=CARTESIAN_POINT('',(70.,-30.,-5.));
#1069=CARTESIAN_POINT('Origin',(0.,55.,0.));
#1070=CARTESIAN_POINT('Origin',(0.,55.,-5.));
#1071=UNCERTAINTY_MEASURE_WITH_UNIT(LENGTH_MEASURE(0.01),#1075,
'DISTANCE_ACCURACY_VALUE',
'Maximum model space distance between geometric entities at asserted c
onnectivities');
#1072=UNCERTAINTY_MEASURE_WITH_UNIT(LENGTH_MEASURE(0.01),#1075,
'DISTANCE_ACCURACY_VALUE',
'Maximum model space distance between geometric entities at asserted c
onnectivities');
#1073=(
GEOMETRIC_REPRESENTATION_CONTEXT(3)
GLOBAL_UNCERTAINTY_ASSIGNED_CONTEXT((#1071))
GLOBAL_UNIT_ASSIGNED_CONTEXT((#1075,#1077,#1078))
REPRESENTATION_CONTEXT('','3D')
);
#1074=(
GEOMETRIC_REPRESENTATION_CONTEXT(3)
GLOBAL_UNCERTAINTY_ASSIGNED_CONTEXT((#1072))
GLOBAL_UNIT_ASSIGNED_CONTEXT((#1075,#1077,#1078))
REPRESENTATION_CONTEXT('','3D')
);
#1075=(
LENGTH_UNIT()
NAMED_UNIT(*)
SI_UNIT(.MILLI.,.METRE.)
);
#1076=(
LENGTH_UNIT()
NAMED_UNIT(*)
SI_UNIT($,.METRE.)
);
#1077=(
NAMED_UNIT(*)
PLANE_ANGLE_UNIT()
SI_UNIT($,.RADIAN.)
);
#1078=(
NAMED_UNIT(*)
SI_UNIT($,.STERADIAN.)
SOLID_ANGLE_UNIT()
);
#1079=SHAPE_DEFINITION_REPRESENTATION(#1080,#1081);
#1080=PRODUCT_DEFINITION_SHAPE('',$,#1083);
#1081=SHAPE_REPRESENTATION('',(#590),#1073);
#1082=PRODUCT_DEFINITION_CONTEXT('part definition',#1087,'design');
#1083=PRODUCT_DEFINITION('Bottle/TubeHolder','Bottle/TubeHolder',#1084,
#1082);
#1084=PRODUCT_DEFINITION_FORMATION('',$,#1089);
#1085=PRODUCT_RELATED_PRODUCT_CATEGORY('Bottle/TubeHolder',
'Bottle/TubeHolder',(#1089));
#1086=APPLICATION_PROTOCOL_DEFINITION('international standard',
'automotive_design',2009,#1087);
#1087=APPLICATION_CONTEXT(
'Core Data for Automotive Mechanical Design Process');
#1088=PRODUCT_CONTEXT('part definition',#1087,'mechanical');
#1089=PRODUCT('Bottle/TubeHolder','Bottle/TubeHolder',$,(#1088));
#1090=PRESENTATION_STYLE_ASSIGNMENT((#1091));
#1091=SURFACE_STYLE_USAGE(.BOTH.,#1092);
#1092=SURFACE_SIDE_STYLE('',(#1093));
#1093=SURFACE_STYLE_FILL_AREA(#1094);
#1094=FILL_AREA_STYLE('Steel - Satin',(#1095));
#1095=FILL_AREA_STYLE_COLOUR('Steel - Satin',#1096);
#1096=COLOUR_RGB('Steel - Satin',0.627450980392157,0.627450980392157,0.627450980392157);
ENDSEC;
END-ISO-10303-21;
