ISO-10303-21;
HEADER;
/* Generated by software containing ST-Developer
 * from STEP Tools, Inc. (www.steptools.com) 
 */

FILE_DESCRIPTION(
/* description */ (''),
/* implementation_level */ '2;1');

FILE_NAME(
/* name */ 'Sensor_Holder.step',
/* time_stamp */ '2026-08-06T10:25:15+01:00',
/* author */ (''),
/* organization */ (''),
/* preprocessor_version */ 'ST-DEVELOPER v20.1',
/* originating_system */ 'Autodesk Translation Framework v15.8.0.0',
/* authorisation */ '');

FILE_SCHEMA (('AUTOMOTIVE_DESIGN { 1 0 10303 214 3 1 1 }'));
ENDSEC;

DATA;
#10=MECHANICAL_DESIGN_GEOMETRIC_PRESENTATION_REPRESENTATION('',(#13),#868);
#11=SHAPE_REPRESENTATION_RELATIONSHIP('SRR','None',#874,#12);
#12=ADVANCED_BREP_SHAPE_REPRESENTATION('',(#14),#867);
#13=STYLED_ITEM('',(#883),#14);
#14=MANIFOLD_SOLID_BREP('Body133',#544);
#15=CYLINDRICAL_SURFACE('',#565,25.);
#16=CYLINDRICAL_SURFACE('',#568,25.);
#17=CIRCLE('',#549,25.);
#18=CIRCLE('',#552,25.);
#19=CIRCLE('',#564,25.);
#20=CIRCLE('',#569,25.);
#21=FACE_OUTER_BOUND('',#48,.T.);
#22=FACE_OUTER_BOUND('',#49,.T.);
#23=FACE_OUTER_BOUND('',#50,.T.);
#24=FACE_OUTER_BOUND('',#51,.T.);
#25=FACE_OUTER_BOUND('',#52,.T.);
#26=FACE_OUTER_BOUND('',#53,.T.);
#27=FACE_OUTER_BOUND('',#54,.T.);
#28=FACE_OUTER_BOUND('',#55,.T.);
#29=FACE_OUTER_BOUND('',#56,.T.);
#30=FACE_OUTER_BOUND('',#57,.T.);
#31=FACE_OUTER_BOUND('',#58,.T.);
#32=FACE_OUTER_BOUND('',#59,.T.);
#33=FACE_OUTER_BOUND('',#60,.T.);
#34=FACE_OUTER_BOUND('',#61,.T.);
#35=FACE_OUTER_BOUND('',#62,.T.);
#36=FACE_OUTER_BOUND('',#63,.T.);
#37=FACE_OUTER_BOUND('',#64,.T.);
#38=FACE_OUTER_BOUND('',#65,.T.);
#39=FACE_OUTER_BOUND('',#66,.T.);
#40=FACE_OUTER_BOUND('',#67,.T.);
#41=FACE_OUTER_BOUND('',#68,.T.);
#42=FACE_OUTER_BOUND('',#69,.T.);
#43=FACE_OUTER_BOUND('',#70,.T.);
#44=FACE_OUTER_BOUND('',#71,.T.);
#45=FACE_OUTER_BOUND('',#72,.T.);
#46=FACE_OUTER_BOUND('',#73,.T.);
#47=FACE_OUTER_BOUND('',#74,.T.);
#48=EDGE_LOOP('',(#342,#343,#344,#345));
#49=EDGE_LOOP('',(#346,#347,#348,#349,#350,#351));
#50=EDGE_LOOP('',(#352,#353,#354,#355,#356,#357,#358));
#51=EDGE_LOOP('',(#359,#360,#361,#362,#363,#364,#365,#366,#367,#368,#369,
#370,#371,#372,#373,#374,#375,#376,#377,#378));
#52=EDGE_LOOP('',(#379,#380,#381,#382,#383));
#53=EDGE_LOOP('',(#384,#385,#386,#387,#388,#389,#390,#391,#392,#393,#394,
#395,#396,#397,#398,#399,#400,#401,#402,#403,#404,#405));
#54=EDGE_LOOP('',(#406,#407,#408,#409));
#55=EDGE_LOOP('',(#410,#411,#412,#413));
#56=EDGE_LOOP('',(#414,#415,#416,#417));
#57=EDGE_LOOP('',(#418,#419,#420,#421));
#58=EDGE_LOOP('',(#422,#423,#424,#425));
#59=EDGE_LOOP('',(#426,#427,#428,#429));
#60=EDGE_LOOP('',(#430,#431,#432,#433));
#61=EDGE_LOOP('',(#434,#435,#436,#437));
#62=EDGE_LOOP('',(#438,#439,#440,#441));
#63=EDGE_LOOP('',(#442,#443,#444,#445,#446));
#64=EDGE_LOOP('',(#447,#448,#449,#450));
#65=EDGE_LOOP('',(#451,#452,#453,#454));
#66=EDGE_LOOP('',(#455,#456,#457,#458));
#67=EDGE_LOOP('',(#459,#460,#461,#462));
#68=EDGE_LOOP('',(#463,#464,#465,#466));
#69=EDGE_LOOP('',(#467,#468,#469,#470));
#70=EDGE_LOOP('',(#471,#472,#473,#474));
#71=EDGE_LOOP('',(#475,#476,#477,#478));
#72=EDGE_LOOP('',(#479,#480,#481,#482,#483));
#73=EDGE_LOOP('',(#484,#485,#486,#487));
#74=EDGE_LOOP('',(#488,#489,#490,#491));
#75=LINE('',#716,#146);
#76=LINE('',#718,#147);
#77=LINE('',#720,#148);
#78=LINE('',#721,#149);
#79=LINE('',#725,#150);
#80=LINE('',#727,#151);
#81=LINE('',#728,#152);
#82=LINE('',#730,#153);
#83=LINE('',#731,#154);
#84=LINE('',#734,#155);
#85=LINE('',#736,#156);
#86=LINE('',#740,#157);
#87=LINE('',#741,#158);
#88=LINE('',#744,#159);
#89=LINE('',#746,#160);
#90=LINE('',#748,#161);
#91=LINE('',#750,#162);
#92=LINE('',#752,#163);
#93=LINE('',#754,#164);
#94=LINE('',#756,#165);
#95=LINE('',#758,#166);
#96=LINE('',#760,#167);
#97=LINE('',#762,#168);
#98=LINE('',#764,#169);
#99=LINE('',#766,#170);
#100=LINE('',#768,#171);
#101=LINE('',#770,#172);
#102=LINE('',#772,#173);
#103=LINE('',#774,#174);
#104=LINE('',#776,#175);
#105=LINE('',#777,#176);
#106=LINE('',#780,#177);
#107=LINE('',#783,#178);
#108=LINE('',#786,#179);
#109=LINE('',#787,#180);
#110=LINE('',#789,#181);
#111=LINE('',#791,#182);
#112=LINE('',#793,#183);
#113=LINE('',#795,#184);
#114=LINE('',#797,#185);
#115=LINE('',#799,#186);
#116=LINE('',#801,#187);
#117=LINE('',#803,#188);
#118=LINE('',#805,#189);
#119=LINE('',#807,#190);
#120=LINE('',#809,#191);
#121=LINE('',#811,#192);
#122=LINE('',#813,#193);
#123=LINE('',#815,#194);
#124=LINE('',#817,#195);
#125=LINE('',#819,#196);
#126=LINE('',#820,#197);
#127=LINE('',#823,#198);
#128=LINE('',#824,#199);
#129=LINE('',#827,#200);
#130=LINE('',#828,#201);
#131=LINE('',#830,#202);
#132=LINE('',#831,#203);
#133=LINE('',#833,#204);
#134=LINE('',#834,#205);
#135=LINE('',#836,#206);
#136=LINE('',#837,#207);
#137=LINE('',#839,#208);
#138=LINE('',#840,#209);
#139=LINE('',#842,#210);
#140=LINE('',#843,#211);
#141=LINE('',#845,#212);
#142=LINE('',#847,#213);
#143=LINE('',#852,#214);
#144=LINE('',#860,#215);
#145=LINE('',#862,#216);
#146=VECTOR('',#581,10.);
#147=VECTOR('',#582,10.);
#148=VECTOR('',#583,10.);
#149=VECTOR('',#584,10.);
#150=VECTOR('',#587,10.);
#151=VECTOR('',#588,10.);
#152=VECTOR('',#589,10.);
#153=VECTOR('',#590,10.);
#154=VECTOR('',#591,10.);
#155=VECTOR('',#594,10.);
#156=VECTOR('',#595,10.);
#157=VECTOR('',#598,10.);
#158=VECTOR('',#599,10.);
#159=VECTOR('',#602,10.);
#160=VECTOR('',#603,10.);
#161=VECTOR('',#604,10.);
#162=VECTOR('',#605,10.);
#163=VECTOR('',#606,10.);
#164=VECTOR('',#607,10.);
#165=VECTOR('',#608,10.);
#166=VECTOR('',#609,10.);
#167=VECTOR('',#610,10.);
#168=VECTOR('',#611,10.);
#169=VECTOR('',#612,10.);
#170=VECTOR('',#613,10.);
#171=VECTOR('',#614,10.);
#172=VECTOR('',#615,10.);
#173=VECTOR('',#616,10.);
#174=VECTOR('',#617,10.);
#175=VECTOR('',#618,10.);
#176=VECTOR('',#619,10.);
#177=VECTOR('',#622,10.);
#178=VECTOR('',#625,10.);
#179=VECTOR('',#628,10.);
#180=VECTOR('',#629,10.);
#181=VECTOR('',#630,10.);
#182=VECTOR('',#631,10.);
#183=VECTOR('',#632,10.);
#184=VECTOR('',#633,10.);
#185=VECTOR('',#634,10.);
#186=VECTOR('',#635,10.);
#187=VECTOR('',#636,10.);
#188=VECTOR('',#637,10.);
#189=VECTOR('',#638,10.);
#190=VECTOR('',#639,10.);
#191=VECTOR('',#640,10.);
#192=VECTOR('',#641,10.);
#193=VECTOR('',#642,10.);
#194=VECTOR('',#643,10.);
#195=VECTOR('',#644,10.);
#196=VECTOR('',#645,10.);
#197=VECTOR('',#646,10.);
#198=VECTOR('',#649,10.);
#199=VECTOR('',#650,10.);
#200=VECTOR('',#653,10.);
#201=VECTOR('',#654,10.);
#202=VECTOR('',#657,10.);
#203=VECTOR('',#658,10.);
#204=VECTOR('',#661,10.);
#205=VECTOR('',#662,10.);
#206=VECTOR('',#665,10.);
#207=VECTOR('',#666,10.);
#208=VECTOR('',#669,10.);
#209=VECTOR('',#670,10.);
#210=VECTOR('',#673,10.);
#211=VECTOR('',#674,10.);
#212=VECTOR('',#677,10.);
#213=VECTOR('',#680,10.);
#214=VECTOR('',#689,10.);
#215=VECTOR('',#704,10.);
#216=VECTOR('',#707,10.);
#217=VERTEX_POINT('',#714);
#218=VERTEX_POINT('',#715);
#219=VERTEX_POINT('',#717);
#220=VERTEX_POINT('',#719);
#221=VERTEX_POINT('',#723);
#222=VERTEX_POINT('',#724);
#223=VERTEX_POINT('',#726);
#224=VERTEX_POINT('',#729);
#225=VERTEX_POINT('',#733);
#226=VERTEX_POINT('',#735);
#227=VERTEX_POINT('',#737);
#228=VERTEX_POINT('',#739);
#229=VERTEX_POINT('',#743);
#230=VERTEX_POINT('',#745);
#231=VERTEX_POINT('',#747);
#232=VERTEX_POINT('',#749);
#233=VERTEX_POINT('',#751);
#234=VERTEX_POINT('',#753);
#235=VERTEX_POINT('',#755);
#236=VERTEX_POINT('',#757);
#237=VERTEX_POINT('',#759);
#238=VERTEX_POINT('',#761);
#239=VERTEX_POINT('',#763);
#240=VERTEX_POINT('',#765);
#241=VERTEX_POINT('',#767);
#242=VERTEX_POINT('',#769);
#243=VERTEX_POINT('',#771);
#244=VERTEX_POINT('',#773);
#245=VERTEX_POINT('',#775);
#246=VERTEX_POINT('',#779);
#247=VERTEX_POINT('',#781);
#248=VERTEX_POINT('',#785);
#249=VERTEX_POINT('',#788);
#250=VERTEX_POINT('',#790);
#251=VERTEX_POINT('',#792);
#252=VERTEX_POINT('',#794);
#253=VERTEX_POINT('',#796);
#254=VERTEX_POINT('',#798);
#255=VERTEX_POINT('',#800);
#256=VERTEX_POINT('',#802);
#257=VERTEX_POINT('',#804);
#258=VERTEX_POINT('',#806);
#259=VERTEX_POINT('',#808);
#260=VERTEX_POINT('',#810);
#261=VERTEX_POINT('',#812);
#262=VERTEX_POINT('',#814);
#263=VERTEX_POINT('',#816);
#264=VERTEX_POINT('',#818);
#265=VERTEX_POINT('',#822);
#266=VERTEX_POINT('',#826);
#267=EDGE_CURVE('',#217,#218,#75,.T.);
#268=EDGE_CURVE('',#219,#218,#76,.T.);
#269=EDGE_CURVE('',#219,#220,#77,.T.);
#270=EDGE_CURVE('',#217,#220,#78,.T.);
#271=EDGE_CURVE('',#221,#222,#79,.T.);
#272=EDGE_CURVE('',#223,#221,#80,.T.);
#273=EDGE_CURVE('',#218,#223,#81,.T.);
#274=EDGE_CURVE('',#224,#217,#82,.T.);
#275=EDGE_CURVE('',#222,#224,#83,.T.);
#276=EDGE_CURVE('',#225,#223,#84,.T.);
#277=EDGE_CURVE('',#226,#225,#85,.T.);
#278=EDGE_CURVE('',#227,#226,#17,.T.);
#279=EDGE_CURVE('',#227,#228,#86,.T.);
#280=EDGE_CURVE('',#219,#228,#87,.T.);
#281=EDGE_CURVE('',#221,#229,#88,.T.);
#282=EDGE_CURVE('',#229,#230,#89,.T.);
#283=EDGE_CURVE('',#230,#231,#90,.T.);
#284=EDGE_CURVE('',#231,#232,#91,.T.);
#285=EDGE_CURVE('',#232,#233,#92,.T.);
#286=EDGE_CURVE('',#233,#234,#93,.T.);
#287=EDGE_CURVE('',#234,#235,#94,.T.);
#288=EDGE_CURVE('',#235,#236,#95,.T.);
#289=EDGE_CURVE('',#236,#237,#96,.T.);
#290=EDGE_CURVE('',#237,#238,#97,.T.);
#291=EDGE_CURVE('',#238,#239,#98,.T.);
#292=EDGE_CURVE('',#239,#240,#99,.T.);
#293=EDGE_CURVE('',#240,#241,#100,.T.);
#294=EDGE_CURVE('',#241,#242,#101,.T.);
#295=EDGE_CURVE('',#242,#243,#102,.T.);
#296=EDGE_CURVE('',#243,#244,#103,.T.);
#297=EDGE_CURVE('',#244,#245,#104,.T.);
#298=EDGE_CURVE('',#245,#225,#105,.T.);
#299=EDGE_CURVE('',#222,#246,#106,.T.);
#300=EDGE_CURVE('',#247,#246,#18,.T.);
#301=EDGE_CURVE('',#229,#247,#107,.T.);
#302=EDGE_CURVE('',#248,#224,#108,.T.);
#303=EDGE_CURVE('',#228,#248,#109,.T.);
#304=EDGE_CURVE('',#249,#227,#110,.T.);
#305=EDGE_CURVE('',#250,#249,#111,.T.);
#306=EDGE_CURVE('',#251,#250,#112,.T.);
#307=EDGE_CURVE('',#252,#251,#113,.T.);
#308=EDGE_CURVE('',#252,#253,#114,.T.);
#309=EDGE_CURVE('',#254,#253,#115,.T.);
#310=EDGE_CURVE('',#255,#254,#116,.T.);
#311=EDGE_CURVE('',#256,#255,#117,.T.);
#312=EDGE_CURVE('',#256,#257,#118,.T.);
#313=EDGE_CURVE('',#258,#257,#119,.T.);
#314=EDGE_CURVE('',#259,#258,#120,.T.);
#315=EDGE_CURVE('',#260,#259,#121,.T.);
#316=EDGE_CURVE('',#260,#261,#122,.T.);
#317=EDGE_CURVE('',#262,#261,#123,.T.);
#318=EDGE_CURVE('',#263,#262,#124,.T.);
#319=EDGE_CURVE('',#264,#263,#125,.T.);
#320=EDGE_CURVE('',#246,#264,#126,.T.);
#321=EDGE_CURVE('',#265,#230,#127,.T.);
#322=EDGE_CURVE('',#265,#247,#128,.T.);
#323=EDGE_CURVE('',#245,#266,#129,.T.);
#324=EDGE_CURVE('',#226,#266,#130,.T.);
#325=EDGE_CURVE('',#234,#260,#131,.T.);
#326=EDGE_CURVE('',#261,#233,#132,.T.);
#327=EDGE_CURVE('',#241,#253,#133,.T.);
#328=EDGE_CURVE('',#242,#252,#134,.T.);
#329=EDGE_CURVE('',#238,#256,#135,.T.);
#330=EDGE_CURVE('',#237,#257,#136,.T.);
#331=EDGE_CURVE('',#258,#236,#137,.T.);
#332=EDGE_CURVE('',#235,#259,#138,.T.);
#333=EDGE_CURVE('',#239,#255,#139,.T.);
#334=EDGE_CURVE('',#254,#240,#140,.T.);
#335=EDGE_CURVE('',#243,#251,#141,.T.);
#336=EDGE_CURVE('',#250,#244,#142,.T.);
#337=EDGE_CURVE('',#249,#266,#19,.T.);
#338=EDGE_CURVE('',#220,#248,#143,.T.);
#339=EDGE_CURVE('',#264,#265,#20,.T.);
#340=EDGE_CURVE('',#232,#262,#144,.T.);
#341=EDGE_CURVE('',#231,#263,#145,.T.);
#342=ORIENTED_EDGE('',*,*,#267,.T.);
#343=ORIENTED_EDGE('',*,*,#268,.F.);
#344=ORIENTED_EDGE('',*,*,#269,.T.);
#345=ORIENTED_EDGE('',*,*,#270,.F.);
#346=ORIENTED_EDGE('',*,*,#271,.F.);
#347=ORIENTED_EDGE('',*,*,#272,.F.);
#348=ORIENTED_EDGE('',*,*,#273,.F.);
#349=ORIENTED_EDGE('',*,*,#267,.F.);
#350=ORIENTED_EDGE('',*,*,#274,.F.);
#351=ORIENTED_EDGE('',*,*,#275,.F.);
#352=ORIENTED_EDGE('',*,*,#273,.T.);
#353=ORIENTED_EDGE('',*,*,#276,.F.);
#354=ORIENTED_EDGE('',*,*,#277,.F.);
#355=ORIENTED_EDGE('',*,*,#278,.F.);
#356=ORIENTED_EDGE('',*,*,#279,.T.);
#357=ORIENTED_EDGE('',*,*,#280,.F.);
#358=ORIENTED_EDGE('',*,*,#268,.T.);
#359=ORIENTED_EDGE('',*,*,#272,.T.);
#360=ORIENTED_EDGE('',*,*,#281,.T.);
#361=ORIENTED_EDGE('',*,*,#282,.T.);
#362=ORIENTED_EDGE('',*,*,#283,.T.);
#363=ORIENTED_EDGE('',*,*,#284,.T.);
#364=ORIENTED_EDGE('',*,*,#285,.T.);
#365=ORIENTED_EDGE('',*,*,#286,.T.);
#366=ORIENTED_EDGE('',*,*,#287,.T.);
#367=ORIENTED_EDGE('',*,*,#288,.T.);
#368=ORIENTED_EDGE('',*,*,#289,.T.);
#369=ORIENTED_EDGE('',*,*,#290,.T.);
#370=ORIENTED_EDGE('',*,*,#291,.T.);
#371=ORIENTED_EDGE('',*,*,#292,.T.);
#372=ORIENTED_EDGE('',*,*,#293,.T.);
#373=ORIENTED_EDGE('',*,*,#294,.T.);
#374=ORIENTED_EDGE('',*,*,#295,.T.);
#375=ORIENTED_EDGE('',*,*,#296,.T.);
#376=ORIENTED_EDGE('',*,*,#297,.T.);
#377=ORIENTED_EDGE('',*,*,#298,.T.);
#378=ORIENTED_EDGE('',*,*,#276,.T.);
#379=ORIENTED_EDGE('',*,*,#271,.T.);
#380=ORIENTED_EDGE('',*,*,#299,.T.);
#381=ORIENTED_EDGE('',*,*,#300,.F.);
#382=ORIENTED_EDGE('',*,*,#301,.F.);
#383=ORIENTED_EDGE('',*,*,#281,.F.);
#384=ORIENTED_EDGE('',*,*,#275,.T.);
#385=ORIENTED_EDGE('',*,*,#302,.F.);
#386=ORIENTED_EDGE('',*,*,#303,.F.);
#387=ORIENTED_EDGE('',*,*,#279,.F.);
#388=ORIENTED_EDGE('',*,*,#304,.F.);
#389=ORIENTED_EDGE('',*,*,#305,.F.);
#390=ORIENTED_EDGE('',*,*,#306,.F.);
#391=ORIENTED_EDGE('',*,*,#307,.F.);
#392=ORIENTED_EDGE('',*,*,#308,.T.);
#393=ORIENTED_EDGE('',*,*,#309,.F.);
#394=ORIENTED_EDGE('',*,*,#310,.F.);
#395=ORIENTED_EDGE('',*,*,#311,.F.);
#396=ORIENTED_EDGE('',*,*,#312,.T.);
#397=ORIENTED_EDGE('',*,*,#313,.F.);
#398=ORIENTED_EDGE('',*,*,#314,.F.);
#399=ORIENTED_EDGE('',*,*,#315,.F.);
#400=ORIENTED_EDGE('',*,*,#316,.T.);
#401=ORIENTED_EDGE('',*,*,#317,.F.);
#402=ORIENTED_EDGE('',*,*,#318,.F.);
#403=ORIENTED_EDGE('',*,*,#319,.F.);
#404=ORIENTED_EDGE('',*,*,#320,.F.);
#405=ORIENTED_EDGE('',*,*,#299,.F.);
#406=ORIENTED_EDGE('',*,*,#321,.T.);
#407=ORIENTED_EDGE('',*,*,#282,.F.);
#408=ORIENTED_EDGE('',*,*,#301,.T.);
#409=ORIENTED_EDGE('',*,*,#322,.F.);
#410=ORIENTED_EDGE('',*,*,#323,.T.);
#411=ORIENTED_EDGE('',*,*,#324,.F.);
#412=ORIENTED_EDGE('',*,*,#277,.T.);
#413=ORIENTED_EDGE('',*,*,#298,.F.);
#414=ORIENTED_EDGE('',*,*,#325,.F.);
#415=ORIENTED_EDGE('',*,*,#286,.F.);
#416=ORIENTED_EDGE('',*,*,#326,.F.);
#417=ORIENTED_EDGE('',*,*,#316,.F.);
#418=ORIENTED_EDGE('',*,*,#327,.T.);
#419=ORIENTED_EDGE('',*,*,#308,.F.);
#420=ORIENTED_EDGE('',*,*,#328,.F.);
#421=ORIENTED_EDGE('',*,*,#294,.F.);
#422=ORIENTED_EDGE('',*,*,#329,.F.);
#423=ORIENTED_EDGE('',*,*,#290,.F.);
#424=ORIENTED_EDGE('',*,*,#330,.T.);
#425=ORIENTED_EDGE('',*,*,#312,.F.);
#426=ORIENTED_EDGE('',*,*,#331,.T.);
#427=ORIENTED_EDGE('',*,*,#288,.F.);
#428=ORIENTED_EDGE('',*,*,#332,.T.);
#429=ORIENTED_EDGE('',*,*,#314,.T.);
#430=ORIENTED_EDGE('',*,*,#333,.T.);
#431=ORIENTED_EDGE('',*,*,#310,.T.);
#432=ORIENTED_EDGE('',*,*,#334,.T.);
#433=ORIENTED_EDGE('',*,*,#292,.F.);
#434=ORIENTED_EDGE('',*,*,#307,.T.);
#435=ORIENTED_EDGE('',*,*,#335,.F.);
#436=ORIENTED_EDGE('',*,*,#295,.F.);
#437=ORIENTED_EDGE('',*,*,#328,.T.);
#438=ORIENTED_EDGE('',*,*,#306,.T.);
#439=ORIENTED_EDGE('',*,*,#336,.T.);
#440=ORIENTED_EDGE('',*,*,#296,.F.);
#441=ORIENTED_EDGE('',*,*,#335,.T.);
#442=ORIENTED_EDGE('',*,*,#305,.T.);
#443=ORIENTED_EDGE('',*,*,#337,.T.);
#444=ORIENTED_EDGE('',*,*,#323,.F.);
#445=ORIENTED_EDGE('',*,*,#297,.F.);
#446=ORIENTED_EDGE('',*,*,#336,.F.);
#447=ORIENTED_EDGE('',*,*,#304,.T.);
#448=ORIENTED_EDGE('',*,*,#278,.T.);
#449=ORIENTED_EDGE('',*,*,#324,.T.);
#450=ORIENTED_EDGE('',*,*,#337,.F.);
#451=ORIENTED_EDGE('',*,*,#303,.T.);
#452=ORIENTED_EDGE('',*,*,#338,.F.);
#453=ORIENTED_EDGE('',*,*,#269,.F.);
#454=ORIENTED_EDGE('',*,*,#280,.T.);
#455=ORIENTED_EDGE('',*,*,#274,.T.);
#456=ORIENTED_EDGE('',*,*,#270,.T.);
#457=ORIENTED_EDGE('',*,*,#338,.T.);
#458=ORIENTED_EDGE('',*,*,#302,.T.);
#459=ORIENTED_EDGE('',*,*,#320,.T.);
#460=ORIENTED_EDGE('',*,*,#339,.T.);
#461=ORIENTED_EDGE('',*,*,#322,.T.);
#462=ORIENTED_EDGE('',*,*,#300,.T.);
#463=ORIENTED_EDGE('',*,*,#309,.T.);
#464=ORIENTED_EDGE('',*,*,#327,.F.);
#465=ORIENTED_EDGE('',*,*,#293,.F.);
#466=ORIENTED_EDGE('',*,*,#334,.F.);
#467=ORIENTED_EDGE('',*,*,#329,.T.);
#468=ORIENTED_EDGE('',*,*,#311,.T.);
#469=ORIENTED_EDGE('',*,*,#333,.F.);
#470=ORIENTED_EDGE('',*,*,#291,.F.);
#471=ORIENTED_EDGE('',*,*,#315,.T.);
#472=ORIENTED_EDGE('',*,*,#332,.F.);
#473=ORIENTED_EDGE('',*,*,#287,.F.);
#474=ORIENTED_EDGE('',*,*,#325,.T.);
#475=ORIENTED_EDGE('',*,*,#317,.T.);
#476=ORIENTED_EDGE('',*,*,#326,.T.);
#477=ORIENTED_EDGE('',*,*,#285,.F.);
#478=ORIENTED_EDGE('',*,*,#340,.T.);
#479=ORIENTED_EDGE('',*,*,#319,.T.);
#480=ORIENTED_EDGE('',*,*,#341,.F.);
#481=ORIENTED_EDGE('',*,*,#283,.F.);
#482=ORIENTED_EDGE('',*,*,#321,.F.);
#483=ORIENTED_EDGE('',*,*,#339,.F.);
#484=ORIENTED_EDGE('',*,*,#318,.T.);
#485=ORIENTED_EDGE('',*,*,#340,.F.);
#486=ORIENTED_EDGE('',*,*,#284,.F.);
#487=ORIENTED_EDGE('',*,*,#341,.T.);
#488=ORIENTED_EDGE('',*,*,#330,.F.);
#489=ORIENTED_EDGE('',*,*,#289,.F.);
#490=ORIENTED_EDGE('',*,*,#331,.F.);
#491=ORIENTED_EDGE('',*,*,#313,.T.);
#492=PLANE('',#546);
#493=PLANE('',#547);
#494=PLANE('',#548);
#495=PLANE('',#550);
#496=PLANE('',#551);
#497=PLANE('',#553);
#498=PLANE('',#554);
#499=PLANE('',#555);
#500=PLANE('',#556);
#501=PLANE('',#557);
#502=PLANE('',#558);
#503=PLANE('',#559);
#504=PLANE('',#560);
#505=PLANE('',#561);
#506=PLANE('',#562);
#507=PLANE('',#563);
#508=PLANE('',#566);
#509=PLANE('',#567);
#510=PLANE('',#570);
#511=PLANE('',#571);
#512=PLANE('',#572);
#513=PLANE('',#573);
#514=PLANE('',#574);
#515=PLANE('',#575);
#516=PLANE('',#576);
#517=ADVANCED_FACE('',(#21),#492,.T.);
#518=ADVANCED_FACE('',(#22),#493,.F.);
#519=ADVANCED_FACE('',(#23),#494,.F.);
#520=ADVANCED_FACE('',(#24),#495,.T.);
#521=ADVANCED_FACE('',(#25),#496,.T.);
#522=ADVANCED_FACE('',(#26),#497,.F.);
#523=ADVANCED_FACE('',(#27),#498,.T.);
#524=ADVANCED_FACE('',(#28),#499,.T.);
#525=ADVANCED_FACE('',(#29),#500,.T.);
#526=ADVANCED_FACE('',(#30),#501,.T.);
#527=ADVANCED_FACE('',(#31),#502,.T.);
#528=ADVANCED_FACE('',(#32),#503,.T.);
#529=ADVANCED_FACE('',(#33),#504,.T.);
#530=ADVANCED_FACE('',(#34),#505,.T.);
#531=ADVANCED_FACE('',(#35),#506,.T.);
#532=ADVANCED_FACE('',(#36),#507,.T.);
#533=ADVANCED_FACE('',(#37),#15,.T.);
#534=ADVANCED_FACE('',(#38),#508,.F.);
#535=ADVANCED_FACE('',(#39),#509,.T.);
#536=ADVANCED_FACE('',(#40),#16,.T.);
#537=ADVANCED_FACE('',(#41),#510,.T.);
#538=ADVANCED_FACE('',(#42),#511,.T.);
#539=ADVANCED_FACE('',(#43),#512,.T.);
#540=ADVANCED_FACE('',(#44),#513,.T.);
#541=ADVANCED_FACE('',(#45),#514,.T.);
#542=ADVANCED_FACE('',(#46),#515,.T.);
#543=ADVANCED_FACE('',(#47),#516,.T.);
#544=CLOSED_SHELL('',(#517,#518,#519,#520,#521,#522,#523,#524,#525,#526,
#527,#528,#529,#530,#531,#532,#533,#534,#535,#536,#537,#538,#539,#540,#541,
#542,#543));
#545=AXIS2_PLACEMENT_3D('',#712,#577,#578);
#546=AXIS2_PLACEMENT_3D('',#713,#579,#580);
#547=AXIS2_PLACEMENT_3D('',#722,#585,#586);
#548=AXIS2_PLACEMENT_3D('',#732,#592,#593);
#549=AXIS2_PLACEMENT_3D('',#738,#596,#597);
#550=AXIS2_PLACEMENT_3D('',#742,#600,#601);
#551=AXIS2_PLACEMENT_3D('',#778,#620,#621);
#552=AXIS2_PLACEMENT_3D('',#782,#623,#624);
#553=AXIS2_PLACEMENT_3D('',#784,#626,#627);
#554=AXIS2_PLACEMENT_3D('',#821,#647,#648);
#555=AXIS2_PLACEMENT_3D('',#825,#651,#652);
#556=AXIS2_PLACEMENT_3D('',#829,#655,#656);
#557=AXIS2_PLACEMENT_3D('',#832,#659,#660);
#558=AXIS2_PLACEMENT_3D('',#835,#663,#664);
#559=AXIS2_PLACEMENT_3D('',#838,#667,#668);
#560=AXIS2_PLACEMENT_3D('',#841,#671,#672);
#561=AXIS2_PLACEMENT_3D('',#844,#675,#676);
#562=AXIS2_PLACEMENT_3D('',#846,#678,#679);
#563=AXIS2_PLACEMENT_3D('',#848,#681,#682);
#564=AXIS2_PLACEMENT_3D('',#849,#683,#684);
#565=AXIS2_PLACEMENT_3D('',#850,#685,#686);
#566=AXIS2_PLACEMENT_3D('',#851,#687,#688);
#567=AXIS2_PLACEMENT_3D('',#853,#690,#691);
#568=AXIS2_PLACEMENT_3D('',#854,#692,#693);
#569=AXIS2_PLACEMENT_3D('',#855,#694,#695);
#570=AXIS2_PLACEMENT_3D('',#856,#696,#697);
#571=AXIS2_PLACEMENT_3D('',#857,#698,#699);
#572=AXIS2_PLACEMENT_3D('',#858,#700,#701);
#573=AXIS2_PLACEMENT_3D('',#859,#702,#703);
#574=AXIS2_PLACEMENT_3D('',#861,#705,#706);
#575=AXIS2_PLACEMENT_3D('',#863,#708,#709);
#576=AXIS2_PLACEMENT_3D('',#864,#710,#711);
#577=DIRECTION('axis',(0.,0.,1.));
#578=DIRECTION('refdir',(1.,0.,0.));
#579=DIRECTION('center_axis',(0.,1.,5.37204689334753E-15));
#580=DIRECTION('ref_axis',(-1.19283403007209E-30,-5.37204689334753E-15,
1.));
#581=DIRECTION('',(-1.,0.,0.));
#582=DIRECTION('',(0.,5.37204689334753E-15,-1.));
#583=DIRECTION('',(1.,0.,0.));
#584=DIRECTION('',(-1.19283403007209E-30,-5.37204689334753E-15,1.));
#585=DIRECTION('center_axis',(0.,0.,1.));
#586=DIRECTION('ref_axis',(1.,0.,0.));
#587=DIRECTION('',(0.,-1.,0.));
#588=DIRECTION('',(-1.,0.,0.));
#589=DIRECTION('',(0.,1.,0.));
#590=DIRECTION('',(0.,1.,0.));
#591=DIRECTION('',(1.,0.,0.));
#592=DIRECTION('center_axis',(-1.,0.,0.));
#593=DIRECTION('ref_axis',(0.,0.,1.));
#594=DIRECTION('',(0.,0.,-1.));
#595=DIRECTION('',(0.,1.,0.));
#596=DIRECTION('center_axis',(-1.,0.,0.));
#597=DIRECTION('ref_axis',(0.,-0.707106781186547,0.707106781186547));
#598=DIRECTION('',(0.,0.,-1.));
#599=DIRECTION('',(0.,-1.,-5.02110915659618E-15));
#600=DIRECTION('center_axis',(0.,1.,0.));
#601=DIRECTION('ref_axis',(0.,0.,1.));
#602=DIRECTION('',(0.,0.,1.));
#603=DIRECTION('',(1.,0.,0.));
#604=DIRECTION('',(0.,0.,-1.));
#605=DIRECTION('',(1.,0.,0.));
#606=DIRECTION('',(0.,0.,1.));
#607=DIRECTION('',(1.,0.,0.));
#608=DIRECTION('',(0.,0.,-1.));
#609=DIRECTION('',(1.,0.,0.));
#610=DIRECTION('',(0.,0.,1.));
#611=DIRECTION('',(1.,0.,0.));
#612=DIRECTION('',(0.,0.,-1.));
#613=DIRECTION('',(1.,0.,0.));
#614=DIRECTION('',(0.,0.,1.));
#615=DIRECTION('',(1.,0.,0.));
#616=DIRECTION('',(0.,0.,-1.));
#617=DIRECTION('',(1.,0.,0.));
#618=DIRECTION('',(0.,0.,1.));
#619=DIRECTION('',(1.,0.,0.));
#620=DIRECTION('center_axis',(-1.,0.,0.));
#621=DIRECTION('ref_axis',(0.,0.,1.));
#622=DIRECTION('',(0.,0.,1.));
#623=DIRECTION('center_axis',(1.,0.,0.));
#624=DIRECTION('ref_axis',(0.,-0.707106781186547,0.707106781186547));
#625=DIRECTION('',(0.,-1.,0.));
#626=DIRECTION('center_axis',(0.,1.,0.));
#627=DIRECTION('ref_axis',(1.,0.,0.));
#628=DIRECTION('',(0.,0.,-1.));
#629=DIRECTION('',(1.,0.,1.07046451240673E-30));
#630=DIRECTION('',(1.,0.,0.));
#631=DIRECTION('',(0.,0.,1.));
#632=DIRECTION('',(1.,0.,0.));
#633=DIRECTION('',(0.,0.,-1.));
#634=DIRECTION('',(-1.,0.,0.));
#635=DIRECTION('',(0.,0.,1.));
#636=DIRECTION('',(1.,0.,0.));
#637=DIRECTION('',(0.,0.,-1.));
#638=DIRECTION('',(-1.,0.,0.));
#639=DIRECTION('',(0.,0.,1.));
#640=DIRECTION('',(1.,0.,0.));
#641=DIRECTION('',(0.,0.,-1.));
#642=DIRECTION('',(-1.,0.,0.));
#643=DIRECTION('',(0.,0.,1.));
#644=DIRECTION('',(1.,0.,0.));
#645=DIRECTION('',(0.,0.,-1.));
#646=DIRECTION('',(1.,0.,0.));
#647=DIRECTION('center_axis',(0.,0.,1.));
#648=DIRECTION('ref_axis',(1.,0.,0.));
#649=DIRECTION('',(0.,1.,0.));
#650=DIRECTION('',(-1.,0.,0.));
#651=DIRECTION('center_axis',(0.,0.,1.));
#652=DIRECTION('ref_axis',(1.,0.,0.));
#653=DIRECTION('',(0.,-1.,0.));
#654=DIRECTION('',(-1.,0.,0.));
#655=DIRECTION('center_axis',(0.,0.,1.));
#656=DIRECTION('ref_axis',(1.,0.,0.));
#657=DIRECTION('',(0.,-1.,0.));
#658=DIRECTION('',(0.,1.,0.));
#659=DIRECTION('center_axis',(0.,0.,1.));
#660=DIRECTION('ref_axis',(1.,0.,0.));
#661=DIRECTION('',(0.,-1.,0.));
#662=DIRECTION('',(0.,-1.,0.));
#663=DIRECTION('center_axis',(0.,0.,1.));
#664=DIRECTION('ref_axis',(1.,0.,0.));
#665=DIRECTION('',(0.,-1.,0.));
#666=DIRECTION('',(0.,-1.,0.));
#667=DIRECTION('center_axis',(0.,0.,1.));
#668=DIRECTION('ref_axis',(-1.,0.,0.));
#669=DIRECTION('',(0.,1.,0.));
#670=DIRECTION('',(0.,-1.,0.));
#671=DIRECTION('center_axis',(0.,0.,1.));
#672=DIRECTION('ref_axis',(-1.,0.,0.));
#673=DIRECTION('',(0.,-1.,0.));
#674=DIRECTION('',(0.,1.,0.));
#675=DIRECTION('center_axis',(1.,0.,0.));
#676=DIRECTION('ref_axis',(0.,1.,0.));
#677=DIRECTION('',(0.,-1.,0.));
#678=DIRECTION('center_axis',(0.,0.,1.));
#679=DIRECTION('ref_axis',(-1.,0.,0.));
#680=DIRECTION('',(0.,1.,0.));
#681=DIRECTION('center_axis',(-1.,0.,0.));
#682=DIRECTION('ref_axis',(0.,-1.,0.));
#683=DIRECTION('center_axis',(-1.,0.,0.));
#684=DIRECTION('ref_axis',(0.,-0.707106781186547,0.707106781186547));
#685=DIRECTION('center_axis',(1.,0.,0.));
#686=DIRECTION('ref_axis',(0.,-0.707106781186547,0.707106781186547));
#687=DIRECTION('center_axis',(1.07046451240673E-30,5.02110915659618E-15,
-1.));
#688=DIRECTION('ref_axis',(-2.22044604925031E-16,-1.,-5.02110915659618E-15));
#689=DIRECTION('',(-2.22044604925031E-16,-1.,-5.02110915659618E-15));
#690=DIRECTION('center_axis',(1.,0.,0.));
#691=DIRECTION('ref_axis',(0.,0.,-1.));
#692=DIRECTION('center_axis',(1.,0.,0.));
#693=DIRECTION('ref_axis',(0.,-0.707106781186547,0.707106781186547));
#694=DIRECTION('center_axis',(-1.,0.,0.));
#695=DIRECTION('ref_axis',(0.,-0.707106781186547,0.707106781186547));
#696=DIRECTION('center_axis',(-1.,0.,0.));
#697=DIRECTION('ref_axis',(0.,-1.,0.));
#698=DIRECTION('center_axis',(1.,0.,0.));
#699=DIRECTION('ref_axis',(0.,0.,-1.));
#700=DIRECTION('center_axis',(1.,0.,0.));
#701=DIRECTION('ref_axis',(0.,1.,0.));
#702=DIRECTION('center_axis',(-1.,0.,0.));
#703=DIRECTION('ref_axis',(0.,-1.,0.));
#704=DIRECTION('',(0.,-1.,0.));
#705=DIRECTION('center_axis',(1.,0.,0.));
#706=DIRECTION('ref_axis',(0.,1.,0.));
#707=DIRECTION('',(0.,-1.,0.));
#708=DIRECTION('center_axis',(0.,0.,1.));
#709=DIRECTION('ref_axis',(-1.,0.,0.));
#710=DIRECTION('center_axis',(-1.,0.,0.));
#711=DIRECTION('ref_axis',(0.,0.,1.));
#712=CARTESIAN_POINT('',(0.,0.,0.));
#713=CARTESIAN_POINT('Origin',(233.46238596846,38.9784125518797,0.02));
#714=CARTESIAN_POINT('',(234.00938596846,38.9784125518796,3.));
#715=CARTESIAN_POINT('',(234.,38.9784125518796,3.));
#716=CARTESIAN_POINT('',(233.73119298423,38.9784125518796,3.));
#717=CARTESIAN_POINT('',(234.,38.9784125518796,4.98));
#718=CARTESIAN_POINT('',(234.,38.9784125518797,2.51000003725293));
#719=CARTESIAN_POINT('',(234.00938596846,38.9784125518796,4.98));
#720=CARTESIAN_POINT('',(233.46238596846,38.9784125518796,4.98));
#721=CARTESIAN_POINT('',(234.00938596846,38.9784125518797,-4.08088685123989));
#722=CARTESIAN_POINT('Origin',(130.46238596846,37.978412550871,3.));
#723=CARTESIAN_POINT('',(130.,133.000000447035,2.99999999999996));
#724=CARTESIAN_POINT('',(130.,35.,3.));
#725=CARTESIAN_POINT('',(130.,18.9892062754355,3.));
#726=CARTESIAN_POINT('',(234.,133.,3.));
#727=CARTESIAN_POINT('',(156.23119298423,133.,3.));
#728=CARTESIAN_POINT('',(234.,33.9892062754355,3.));
#729=CARTESIAN_POINT('',(234.00938596846,35.,3.));
#730=CARTESIAN_POINT('',(234.00938596846,60.4884125518797,3.));
#731=CARTESIAN_POINT('',(127.73119298423,35.,3.));
#732=CARTESIAN_POINT('Origin',(234.,30.,5.00000007450581));
#733=CARTESIAN_POINT('',(234.,133.,38.));
#734=CARTESIAN_POINT('',(234.,133.,-16.0908868512398));
#735=CARTESIAN_POINT('',(234.,55.,38.));
#736=CARTESIAN_POINT('',(234.,30.,38.));
#737=CARTESIAN_POINT('',(234.,35.,28.));
#738=CARTESIAN_POINT('Origin',(234.,55.,13.));
#739=CARTESIAN_POINT('',(234.,35.,4.97999999999998));
#740=CARTESIAN_POINT('',(234.,35.,21.5000000372529));
#741=CARTESIAN_POINT('',(234.,36.4892064291424,4.97999999999999));
#742=CARTESIAN_POINT('Origin',(182.,133.,-8.18177370247955));
#743=CARTESIAN_POINT('',(130.,133.,38.));
#744=CARTESIAN_POINT('',(130.,133.,4.90911314876021));
#745=CARTESIAN_POINT('',(133.,133.,38.));
#746=CARTESIAN_POINT('',(151.,133.,38.));
#747=CARTESIAN_POINT('',(133.,133.,8.));
#748=CARTESIAN_POINT('',(133.,133.,14.9091131487602));
#749=CARTESIAN_POINT('',(155.75,133.,8.));
#750=CARTESIAN_POINT('',(181.375,133.,8.));
#751=CARTESIAN_POINT('',(155.75,133.,38.));
#752=CARTESIAN_POINT('',(155.75,133.,14.9091131487602));
#753=CARTESIAN_POINT('',(160.75,133.,38.));
#754=CARTESIAN_POINT('',(151.,133.,38.));
#755=CARTESIAN_POINT('',(160.75,133.,8.));
#756=CARTESIAN_POINT('',(160.75,133.,14.9091131487602));
#757=CARTESIAN_POINT('',(177.5,133.,8.));
#758=CARTESIAN_POINT('',(181.375,133.,8.));
#759=CARTESIAN_POINT('',(177.5,133.,38.));
#760=CARTESIAN_POINT('',(177.5,133.,14.9091131487602));
#761=CARTESIAN_POINT('',(187.000000536442,133.,38.));
#762=CARTESIAN_POINT('',(151.,133.,38.));
#763=CARTESIAN_POINT('',(187.000000536442,133.,8.));
#764=CARTESIAN_POINT('',(187.000000536442,133.,14.9091131487602));
#765=CARTESIAN_POINT('',(203.25,133.,8.));
#766=CARTESIAN_POINT('',(181.375,133.,8.));
#767=CARTESIAN_POINT('',(203.25,133.,38.));
#768=CARTESIAN_POINT('',(203.25,133.,14.9091131487602));
#769=CARTESIAN_POINT('',(211.25,133.,38.));
#770=CARTESIAN_POINT('',(151.,133.,38.));
#771=CARTESIAN_POINT('',(211.25,133.,8.));
#772=CARTESIAN_POINT('',(211.25,133.,14.9091131487602));
#773=CARTESIAN_POINT('',(228.5,133.,8.));
#774=CARTESIAN_POINT('',(181.375,133.,8.));
#775=CARTESIAN_POINT('',(228.5,133.,38.));
#776=CARTESIAN_POINT('',(228.5,133.,14.9091131487602));
#777=CARTESIAN_POINT('',(151.,133.,38.));
#778=CARTESIAN_POINT('Origin',(130.,-8.88178419700125E-15,-1.));
#779=CARTESIAN_POINT('',(130.,35.,28.));
#780=CARTESIAN_POINT('',(130.,35.,18.5));
#781=CARTESIAN_POINT('',(130.,55.,38.));
#782=CARTESIAN_POINT('Origin',(130.,55.,13.));
#783=CARTESIAN_POINT('',(130.,130.,38.));
#784=CARTESIAN_POINT('Origin',(125.,35.,38.));
#785=CARTESIAN_POINT('',(234.00938596846,35.,4.97999999999998));
#786=CARTESIAN_POINT('',(234.00938596846,35.,14.9091131487602));
#787=CARTESIAN_POINT('',(179.23119298423,35.,4.97999999999998));
#788=CARTESIAN_POINT('',(228.5,35.,28.));
#789=CARTESIAN_POINT('',(206.5,35.,28.));
#790=CARTESIAN_POINT('',(228.5,35.,8.));
#791=CARTESIAN_POINT('',(228.5,35.,23.));
#792=CARTESIAN_POINT('',(211.25,35.,8.));
#793=CARTESIAN_POINT('',(155.,35.,8.));
#794=CARTESIAN_POINT('',(211.25,35.,38.));
#795=CARTESIAN_POINT('',(211.25,35.,23.));
#796=CARTESIAN_POINT('',(203.25,35.,38.));
#797=CARTESIAN_POINT('',(193.875,35.,38.));
#798=CARTESIAN_POINT('',(203.25,35.,8.));
#799=CARTESIAN_POINT('',(203.25,35.,23.));
#800=CARTESIAN_POINT('',(187.,35.,8.));
#801=CARTESIAN_POINT('',(155.,35.,8.));
#802=CARTESIAN_POINT('',(187.,35.,38.));
#803=CARTESIAN_POINT('',(187.,35.,23.));
#804=CARTESIAN_POINT('',(177.5,35.,38.));
#805=CARTESIAN_POINT('',(181.25,35.,38.));
#806=CARTESIAN_POINT('',(177.5,35.,8.));
#807=CARTESIAN_POINT('',(177.5,35.,23.));
#808=CARTESIAN_POINT('',(160.75,35.,8.));
#809=CARTESIAN_POINT('',(155.,35.,8.));
#810=CARTESIAN_POINT('',(160.75,35.,38.));
#811=CARTESIAN_POINT('',(160.75,35.,23.));
#812=CARTESIAN_POINT('',(155.75,35.,38.));
#813=CARTESIAN_POINT('',(168.625,35.,38.));
#814=CARTESIAN_POINT('',(155.75,35.,8.));
#815=CARTESIAN_POINT('',(155.75,35.,23.));
#816=CARTESIAN_POINT('',(133.,35.,8.));
#817=CARTESIAN_POINT('',(155.,35.,8.));
#818=CARTESIAN_POINT('',(133.,35.,28.));
#819=CARTESIAN_POINT('',(133.,35.,23.));
#820=CARTESIAN_POINT('',(156.,35.,28.));
#821=CARTESIAN_POINT('Origin',(232.5,80.,38.));
#822=CARTESIAN_POINT('',(133.,55.,38.));
#823=CARTESIAN_POINT('',(133.,105.,38.));
#824=CARTESIAN_POINT('',(156.,55.,38.));
#825=CARTESIAN_POINT('Origin',(232.5,80.,38.));
#826=CARTESIAN_POINT('',(228.5,55.,38.));
#827=CARTESIAN_POINT('',(228.5,106.5,38.));
#828=CARTESIAN_POINT('',(231.5,55.,38.));
#829=CARTESIAN_POINT('Origin',(232.5,80.,38.));
#830=CARTESIAN_POINT('',(160.75,68.5,38.));
#831=CARTESIAN_POINT('',(155.75,118.5,38.));
#832=CARTESIAN_POINT('Origin',(232.5,80.,38.));
#833=CARTESIAN_POINT('',(203.25,106.5,38.));
#834=CARTESIAN_POINT('',(211.25,68.5,38.));
#835=CARTESIAN_POINT('Origin',(232.5,80.,38.));
#836=CARTESIAN_POINT('',(187.,68.5,38.));
#837=CARTESIAN_POINT('',(177.5,106.5,38.));
#838=CARTESIAN_POINT('Origin',(185.,-8.88178419700125E-15,8.));
#839=CARTESIAN_POINT('',(177.5,65.,8.));
#840=CARTESIAN_POINT('',(160.75,15.,8.));
#841=CARTESIAN_POINT('Origin',(185.,-8.88178419700125E-15,8.));
#842=CARTESIAN_POINT('',(187.,44.0000006556511,8.));
#843=CARTESIAN_POINT('',(203.25,65.,8.));
#844=CARTESIAN_POINT('Origin',(211.25,30.,8.));
#845=CARTESIAN_POINT('',(211.25,15.,8.));
#846=CARTESIAN_POINT('Origin',(185.,-8.88178419700125E-15,8.));
#847=CARTESIAN_POINT('',(228.5,65.,8.));
#848=CARTESIAN_POINT('Origin',(228.5,130.,8.));
#849=CARTESIAN_POINT('Origin',(228.5,55.,13.));
#850=CARTESIAN_POINT('Origin',(206.5,55.,13.));
#851=CARTESIAN_POINT('Origin',(233.46238596846,38.9784125518796,4.98));
#852=CARTESIAN_POINT('',(234.00938596846,60.4884125518796,4.98000000000011));
#853=CARTESIAN_POINT('Origin',(234.00938596846,81.9984125518797,-8.18177370247955));
#854=CARTESIAN_POINT('Origin',(156.,55.,13.));
#855=CARTESIAN_POINT('Origin',(133.,55.,13.));
#856=CARTESIAN_POINT('Origin',(203.25,130.,8.));
#857=CARTESIAN_POINT('Origin',(187.000000536442,30.,8.));
#858=CARTESIAN_POINT('Origin',(160.75,30.,8.));
#859=CARTESIAN_POINT('Origin',(155.75,130.,8.));
#860=CARTESIAN_POINT('',(155.75,132.25,8.));
#861=CARTESIAN_POINT('Origin',(133.,30.,8.));
#862=CARTESIAN_POINT('',(133.,15.,8.));
#863=CARTESIAN_POINT('Origin',(185.,-8.88178419700125E-15,8.));
#864=CARTESIAN_POINT('Origin',(177.5,130.,8.));
#865=UNCERTAINTY_MEASURE_WITH_UNIT(LENGTH_MEASURE(0.01),#869,
'DISTANCE_ACCURACY_VALUE',
'Maximum model space distance between geometric entities at asserted c
onnectivities');
#866=UNCERTAINTY_MEASURE_WITH_UNIT(LENGTH_MEASURE(0.01),#869,
'DISTANCE_ACCURACY_VALUE',
'Maximum model space distance between geometric entities at asserted c
onnectivities');
#867=(
GEOMETRIC_REPRESENTATION_CONTEXT(3)
GLOBAL_UNCERTAINTY_ASSIGNED_CONTEXT((#865))
GLOBAL_UNIT_ASSIGNED_CONTEXT((#869,#870,#871))
REPRESENTATION_CONTEXT('','3D')
);
#868=(
GEOMETRIC_REPRESENTATION_CONTEXT(3)
GLOBAL_UNCERTAINTY_ASSIGNED_CONTEXT((#866))
GLOBAL_UNIT_ASSIGNED_CONTEXT((#869,#870,#871))
REPRESENTATION_CONTEXT('','3D')
);
#869=(
LENGTH_UNIT()
NAMED_UNIT(*)
SI_UNIT(.MILLI.,.METRE.)
);
#870=(
NAMED_UNIT(*)
PLANE_ANGLE_UNIT()
SI_UNIT($,.RADIAN.)
);
#871=(
NAMED_UNIT(*)
SI_UNIT($,.STERADIAN.)
SOLID_ANGLE_UNIT()
);
#872=SHAPE_DEFINITION_REPRESENTATION(#873,#874);
#873=PRODUCT_DEFINITION_SHAPE('',$,#876);
#874=SHAPE_REPRESENTATION('',(#545),#867);
#875=PRODUCT_DEFINITION_CONTEXT('part definition',#880,'design');
#876=PRODUCT_DEFINITION('RobotMHF','RobotMHF',#877,#875);
#877=PRODUCT_DEFINITION_FORMATION('',$,#882);
#878=PRODUCT_RELATED_PRODUCT_CATEGORY('RobotMHF','RobotMHF',(#882));
#879=APPLICATION_PROTOCOL_DEFINITION('international standard',
'automotive_design',2009,#880);
#880=APPLICATION_CONTEXT(
'Core Data for Automotive Mechanical Design Process');
#881=PRODUCT_CONTEXT('part definition',#880,'mechanical');
#882=PRODUCT('RobotMHF','RobotMHF',$,(#881));
#883=PRESENTATION_STYLE_ASSIGNMENT((#884));
#884=SURFACE_STYLE_USAGE(.BOTH.,#885);
#885=SURFACE_SIDE_STYLE('',(#886));
#886=SURFACE_STYLE_FILL_AREA(#887);
#887=FILL_AREA_STYLE('Steel - Satin',(#888));
#888=FILL_AREA_STYLE_COLOUR('Steel - Satin',#889);
#889=COLOUR_RGB('Steel - Satin',0.627450980392157,0.627450980392157,0.627450980392157);
ENDSEC;
END-ISO-10303-21;
