ISO-10303-21;
HEADER;
/* Generated by software containing ST-Developer
 * from STEP Tools, Inc. (www.steptools.com) 
 */

FILE_DESCRIPTION(
/* description */ (''),
/* implementation_level */ '2;1');

FILE_NAME(
/* name */ 'SolenoidValve_Holder.step',
/* time_stamp */ '2026-08-06T10:27:24+01:00',
/* author */ (''),
/* organization */ (''),
/* preprocessor_version */ 'ST-DEVELOPER v20.1',
/* originating_system */ 'Autodesk Translation Framework v15.8.0.0',
/* authorisation */ '');

FILE_SCHEMA (('AUTOMOTIVE_DESIGN { 1 0 10303 214 3 1 1 }'));
ENDSEC;

DATA;
#10=MECHANICAL_DESIGN_GEOMETRIC_PRESENTATION_REPRESENTATION('',(#13),#1167);
#11=SHAPE_REPRESENTATION_RELATIONSHIP('SRR','None',#1174,#12);
#12=ADVANCED_BREP_SHAPE_REPRESENTATION('',(#14),#1166);
#13=STYLED_ITEM('',(#1183),#14);
#14=MANIFOLD_SOLID_BREP('Body1',#723);
#15=FACE_BOUND('',#102,.T.);
#16=FACE_BOUND('',#105,.T.);
#17=FACE_BOUND('',#109,.T.);
#18=FACE_BOUND('',#112,.T.);
#19=FACE_BOUND('',#113,.T.);
#20=FACE_BOUND('',#114,.T.);
#21=FACE_BOUND('',#115,.T.);
#22=FACE_BOUND('',#116,.T.);
#23=FACE_BOUND('',#117,.T.);
#24=FACE_BOUND('',#118,.T.);
#25=FACE_BOUND('',#119,.T.);
#26=FACE_BOUND('',#120,.T.);
#27=FACE_BOUND('',#123,.T.);
#28=FACE_BOUND('',#144,.T.);
#29=FACE_BOUND('',#145,.T.);
#30=FACE_BOUND('',#146,.T.);
#31=FACE_BOUND('',#147,.T.);
#32=FACE_BOUND('',#148,.T.);
#33=FACE_BOUND('',#149,.T.);
#34=FACE_BOUND('',#150,.T.);
#35=FACE_BOUND('',#151,.T.);
#36=FACE_BOUND('',#152,.T.);
#37=PLANE('',#743);
#38=PLANE('',#744);
#39=PLANE('',#745);
#40=PLANE('',#746);
#41=PLANE('',#747);
#42=PLANE('',#748);
#43=PLANE('',#749);
#44=PLANE('',#750);
#45=PLANE('',#751);
#46=PLANE('',#752);
#47=PLANE('',#759);
#48=PLANE('',#760);
#49=PLANE('',#761);
#50=PLANE('',#764);
#51=PLANE('',#765);
#52=PLANE('',#766);
#53=PLANE('',#767);
#54=PLANE('',#770);
#55=PLANE('',#771);
#56=PLANE('',#772);
#57=PLANE('',#773);
#58=PLANE('',#778);
#59=PLANE('',#779);
#60=PLANE('',#780);
#61=PLANE('',#781);
#62=PLANE('',#786);
#63=FACE_OUTER_BOUND('',#97,.T.);
#64=FACE_OUTER_BOUND('',#98,.T.);
#65=FACE_OUTER_BOUND('',#99,.T.);
#66=FACE_OUTER_BOUND('',#100,.T.);
#67=FACE_OUTER_BOUND('',#101,.T.);
#68=FACE_OUTER_BOUND('',#103,.T.);
#69=FACE_OUTER_BOUND('',#104,.T.);
#70=FACE_OUTER_BOUND('',#106,.T.);
#71=FACE_OUTER_BOUND('',#107,.T.);
#72=FACE_OUTER_BOUND('',#108,.T.);
#73=FACE_OUTER_BOUND('',#110,.T.);
#74=FACE_OUTER_BOUND('',#111,.T.);
#75=FACE_OUTER_BOUND('',#121,.T.);
#76=FACE_OUTER_BOUND('',#122,.T.);
#77=FACE_OUTER_BOUND('',#124,.T.);
#78=FACE_OUTER_BOUND('',#125,.T.);
#79=FACE_OUTER_BOUND('',#126,.T.);
#80=FACE_OUTER_BOUND('',#127,.T.);
#81=FACE_OUTER_BOUND('',#128,.T.);
#82=FACE_OUTER_BOUND('',#129,.T.);
#83=FACE_OUTER_BOUND('',#130,.T.);
#84=FACE_OUTER_BOUND('',#131,.T.);
#85=FACE_OUTER_BOUND('',#132,.T.);
#86=FACE_OUTER_BOUND('',#133,.T.);
#87=FACE_OUTER_BOUND('',#134,.T.);
#88=FACE_OUTER_BOUND('',#135,.T.);
#89=FACE_OUTER_BOUND('',#136,.T.);
#90=FACE_OUTER_BOUND('',#137,.T.);
#91=FACE_OUTER_BOUND('',#138,.T.);
#92=FACE_OUTER_BOUND('',#139,.T.);
#93=FACE_OUTER_BOUND('',#140,.T.);
#94=FACE_OUTER_BOUND('',#141,.T.);
#95=FACE_OUTER_BOUND('',#142,.T.);
#96=FACE_OUTER_BOUND('',#143,.T.);
#97=EDGE_LOOP('',(#489,#490,#491,#492));
#98=EDGE_LOOP('',(#493,#494,#495,#496));
#99=EDGE_LOOP('',(#497,#498,#499,#500));
#100=EDGE_LOOP('',(#501,#502,#503,#504));
#101=EDGE_LOOP('',(#505,#506,#507,#508));
#102=EDGE_LOOP('',(#509));
#103=EDGE_LOOP('',(#510,#511,#512,#513));
#104=EDGE_LOOP('',(#514,#515,#516,#517));
#105=EDGE_LOOP('',(#518));
#106=EDGE_LOOP('',(#519,#520,#521,#522));
#107=EDGE_LOOP('',(#523,#524,#525,#526));
#108=EDGE_LOOP('',(#527,#528,#529,#530));
#109=EDGE_LOOP('',(#531));
#110=EDGE_LOOP('',(#532,#533,#534,#535,#536,#537,#538,#539,#540,#541,#542,
#543));
#111=EDGE_LOOP('',(#544,#545,#546,#547));
#112=EDGE_LOOP('',(#548));
#113=EDGE_LOOP('',(#549));
#114=EDGE_LOOP('',(#550,#551,#552,#553));
#115=EDGE_LOOP('',(#554));
#116=EDGE_LOOP('',(#555));
#117=EDGE_LOOP('',(#556,#557,#558,#559));
#118=EDGE_LOOP('',(#560));
#119=EDGE_LOOP('',(#561,#562,#563,#564));
#120=EDGE_LOOP('',(#565));
#121=EDGE_LOOP('',(#566,#567,#568,#569));
#122=EDGE_LOOP('',(#570,#571,#572,#573));
#123=EDGE_LOOP('',(#574));
#124=EDGE_LOOP('',(#575,#576,#577,#578,#579,#580,#581,#582,#583,#584,#585,
#586));
#125=EDGE_LOOP('',(#587,#588,#589,#590));
#126=EDGE_LOOP('',(#591,#592,#593,#594));
#127=EDGE_LOOP('',(#595,#596,#597,#598));
#128=EDGE_LOOP('',(#599,#600,#601,#602));
#129=EDGE_LOOP('',(#603,#604,#605,#606));
#130=EDGE_LOOP('',(#607,#608,#609,#610));
#131=EDGE_LOOP('',(#611,#612,#613,#614));
#132=EDGE_LOOP('',(#615,#616,#617,#618));
#133=EDGE_LOOP('',(#619,#620,#621,#622));
#134=EDGE_LOOP('',(#623,#624,#625,#626));
#135=EDGE_LOOP('',(#627,#628,#629,#630));
#136=EDGE_LOOP('',(#631,#632,#633,#634));
#137=EDGE_LOOP('',(#635,#636,#637,#638));
#138=EDGE_LOOP('',(#639,#640,#641,#642));
#139=EDGE_LOOP('',(#643,#644,#645,#646));
#140=EDGE_LOOP('',(#647,#648,#649,#650));
#141=EDGE_LOOP('',(#651,#652,#653,#654));
#142=EDGE_LOOP('',(#655,#656,#657,#658));
#143=EDGE_LOOP('',(#659,#660,#661,#662));
#144=EDGE_LOOP('',(#663));
#145=EDGE_LOOP('',(#664));
#146=EDGE_LOOP('',(#665,#666,#667,#668));
#147=EDGE_LOOP('',(#669));
#148=EDGE_LOOP('',(#670));
#149=EDGE_LOOP('',(#671,#672,#673,#674));
#150=EDGE_LOOP('',(#675));
#151=EDGE_LOOP('',(#676,#677,#678,#679));
#152=EDGE_LOOP('',(#680));
#153=LINE('',#974,#233);
#154=LINE('',#980,#234);
#155=LINE('',#985,#235);
#156=LINE('',#987,#236);
#157=LINE('',#989,#237);
#158=LINE('',#990,#238);
#159=LINE('',#994,#239);
#160=LINE('',#996,#240);
#161=LINE('',#998,#241);
#162=LINE('',#999,#242);
#163=LINE('',#1002,#243);
#164=LINE('',#1004,#244);
#165=LINE('',#1005,#245);
#166=LINE('',#1008,#246);
#167=LINE('',#1010,#247);
#168=LINE('',#1011,#248);
#169=LINE('',#1014,#249);
#170=LINE('',#1016,#250);
#171=LINE('',#1017,#251);
#172=LINE('',#1020,#252);
#173=LINE('',#1022,#253);
#174=LINE('',#1023,#254);
#175=LINE('',#1027,#255);
#176=LINE('',#1029,#256);
#177=LINE('',#1031,#257);
#178=LINE('',#1032,#258);
#179=LINE('',#1034,#259);
#180=LINE('',#1035,#260);
#181=LINE('',#1038,#261);
#182=LINE('',#1040,#262);
#183=LINE('',#1041,#263);
#184=LINE('',#1042,#264);
#185=LINE('',#1045,#265);
#186=LINE('',#1046,#266);
#187=LINE('',#1053,#267);
#188=LINE('',#1055,#268);
#189=LINE('',#1057,#269);
#190=LINE('',#1058,#270);
#191=LINE('',#1065,#271);
#192=LINE('',#1067,#272);
#193=LINE('',#1069,#273);
#194=LINE('',#1070,#274);
#195=LINE('',#1075,#275);
#196=LINE('',#1077,#276);
#197=LINE('',#1079,#277);
#198=LINE('',#1080,#278);
#199=LINE('',#1085,#279);
#200=LINE('',#1086,#280);
#201=LINE('',#1088,#281);
#202=LINE('',#1090,#282);
#203=LINE('',#1093,#283);
#204=LINE('',#1098,#284);
#205=LINE('',#1099,#285);
#206=LINE('',#1100,#286);
#207=LINE('',#1103,#287);
#208=LINE('',#1104,#288);
#209=LINE('',#1107,#289);
#210=LINE('',#1108,#290);
#211=LINE('',#1110,#291);
#212=LINE('',#1113,#292);
#213=LINE('',#1118,#293);
#214=LINE('',#1119,#294);
#215=LINE('',#1120,#295);
#216=LINE('',#1123,#296);
#217=LINE('',#1124,#297);
#218=LINE('',#1127,#298);
#219=LINE('',#1128,#299);
#220=LINE('',#1130,#300);
#221=LINE('',#1133,#301);
#222=LINE('',#1137,#302);
#223=LINE('',#1142,#303);
#224=LINE('',#1143,#304);
#225=LINE('',#1144,#305);
#226=LINE('',#1147,#306);
#227=LINE('',#1148,#307);
#228=LINE('',#1151,#308);
#229=LINE('',#1152,#309);
#230=LINE('',#1154,#310);
#231=LINE('',#1157,#311);
#232=LINE('',#1161,#312);
#233=VECTOR('',#793,1.5);
#234=VECTOR('',#800,1.5);
#235=VECTOR('',#805,10.);
#236=VECTOR('',#806,10.);
#237=VECTOR('',#807,10.);
#238=VECTOR('',#808,10.);
#239=VECTOR('',#811,10.);
#240=VECTOR('',#812,10.);
#241=VECTOR('',#813,10.);
#242=VECTOR('',#814,10.);
#243=VECTOR('',#817,10.);
#244=VECTOR('',#818,10.);
#245=VECTOR('',#819,10.);
#246=VECTOR('',#822,10.);
#247=VECTOR('',#823,10.);
#248=VECTOR('',#824,10.);
#249=VECTOR('',#827,10.);
#250=VECTOR('',#828,10.);
#251=VECTOR('',#829,10.);
#252=VECTOR('',#832,10.);
#253=VECTOR('',#833,10.);
#254=VECTOR('',#834,10.);
#255=VECTOR('',#837,10.);
#256=VECTOR('',#838,10.);
#257=VECTOR('',#839,10.);
#258=VECTOR('',#840,10.);
#259=VECTOR('',#843,10.);
#260=VECTOR('',#844,10.);
#261=VECTOR('',#847,10.);
#262=VECTOR('',#848,10.);
#263=VECTOR('',#849,10.);
#264=VECTOR('',#850,10.);
#265=VECTOR('',#853,10.);
#266=VECTOR('',#854,10.);
#267=VECTOR('',#859,10.);
#268=VECTOR('',#860,10.);
#269=VECTOR('',#861,10.);
#270=VECTOR('',#862,10.);
#271=VECTOR('',#867,10.);
#272=VECTOR('',#868,10.);
#273=VECTOR('',#869,10.);
#274=VECTOR('',#870,10.);
#275=VECTOR('',#873,10.);
#276=VECTOR('',#874,10.);
#277=VECTOR('',#875,10.);
#278=VECTOR('',#876,10.);
#279=VECTOR('',#881,10.);
#280=VECTOR('',#882,10.);
#281=VECTOR('',#885,10.);
#282=VECTOR('',#888,10.);
#283=VECTOR('',#891,1.25);
#284=VECTOR('',#896,10.);
#285=VECTOR('',#897,10.);
#286=VECTOR('',#898,10.);
#287=VECTOR('',#901,10.);
#288=VECTOR('',#902,10.);
#289=VECTOR('',#905,10.);
#290=VECTOR('',#906,10.);
#291=VECTOR('',#909,10.);
#292=VECTOR('',#912,1.25);
#293=VECTOR('',#917,10.);
#294=VECTOR('',#918,10.);
#295=VECTOR('',#919,10.);
#296=VECTOR('',#922,10.);
#297=VECTOR('',#923,10.);
#298=VECTOR('',#926,10.);
#299=VECTOR('',#927,10.);
#300=VECTOR('',#930,10.);
#301=VECTOR('',#933,1.25);
#302=VECTOR('',#938,1.25);
#303=VECTOR('',#943,10.);
#304=VECTOR('',#944,10.);
#305=VECTOR('',#945,10.);
#306=VECTOR('',#948,10.);
#307=VECTOR('',#949,10.);
#308=VECTOR('',#952,10.);
#309=VECTOR('',#953,10.);
#310=VECTOR('',#956,10.);
#311=VECTOR('',#959,1.25);
#312=VECTOR('',#964,1.25);
#313=CIRCLE('',#738,1.5);
#314=CIRCLE('',#739,1.5);
#315=CIRCLE('',#741,1.5);
#316=CIRCLE('',#742,1.5);
#317=CIRCLE('',#753,1.25);
#318=CIRCLE('',#754,1.25);
#319=CIRCLE('',#755,1.25);
#320=CIRCLE('',#756,1.25);
#321=CIRCLE('',#757,1.25);
#322=CIRCLE('',#758,1.25);
#323=CIRCLE('',#763,1.25);
#324=CIRCLE('',#769,1.25);
#325=CIRCLE('',#775,1.25);
#326=CIRCLE('',#777,1.25);
#327=CIRCLE('',#783,1.25);
#328=CIRCLE('',#785,1.25);
#329=VERTEX_POINT('',#971);
#330=VERTEX_POINT('',#973);
#331=VERTEX_POINT('',#977);
#332=VERTEX_POINT('',#979);
#333=VERTEX_POINT('',#983);
#334=VERTEX_POINT('',#984);
#335=VERTEX_POINT('',#986);
#336=VERTEX_POINT('',#988);
#337=VERTEX_POINT('',#992);
#338=VERTEX_POINT('',#993);
#339=VERTEX_POINT('',#995);
#340=VERTEX_POINT('',#997);
#341=VERTEX_POINT('',#1001);
#342=VERTEX_POINT('',#1003);
#343=VERTEX_POINT('',#1007);
#344=VERTEX_POINT('',#1009);
#345=VERTEX_POINT('',#1013);
#346=VERTEX_POINT('',#1015);
#347=VERTEX_POINT('',#1019);
#348=VERTEX_POINT('',#1021);
#349=VERTEX_POINT('',#1025);
#350=VERTEX_POINT('',#1026);
#351=VERTEX_POINT('',#1028);
#352=VERTEX_POINT('',#1030);
#353=VERTEX_POINT('',#1037);
#354=VERTEX_POINT('',#1039);
#355=VERTEX_POINT('',#1044);
#356=VERTEX_POINT('',#1047);
#357=VERTEX_POINT('',#1049);
#358=VERTEX_POINT('',#1051);
#359=VERTEX_POINT('',#1052);
#360=VERTEX_POINT('',#1054);
#361=VERTEX_POINT('',#1056);
#362=VERTEX_POINT('',#1059);
#363=VERTEX_POINT('',#1061);
#364=VERTEX_POINT('',#1063);
#365=VERTEX_POINT('',#1064);
#366=VERTEX_POINT('',#1066);
#367=VERTEX_POINT('',#1068);
#368=VERTEX_POINT('',#1071);
#369=VERTEX_POINT('',#1073);
#370=VERTEX_POINT('',#1074);
#371=VERTEX_POINT('',#1076);
#372=VERTEX_POINT('',#1078);
#373=VERTEX_POINT('',#1081);
#374=VERTEX_POINT('',#1084);
#375=VERTEX_POINT('',#1092);
#376=VERTEX_POINT('',#1096);
#377=VERTEX_POINT('',#1097);
#378=VERTEX_POINT('',#1102);
#379=VERTEX_POINT('',#1106);
#380=VERTEX_POINT('',#1112);
#381=VERTEX_POINT('',#1116);
#382=VERTEX_POINT('',#1117);
#383=VERTEX_POINT('',#1122);
#384=VERTEX_POINT('',#1126);
#385=VERTEX_POINT('',#1132);
#386=VERTEX_POINT('',#1136);
#387=VERTEX_POINT('',#1140);
#388=VERTEX_POINT('',#1141);
#389=VERTEX_POINT('',#1146);
#390=VERTEX_POINT('',#1150);
#391=VERTEX_POINT('',#1156);
#392=VERTEX_POINT('',#1160);
#393=EDGE_CURVE('',#329,#329,#313,.T.);
#394=EDGE_CURVE('',#329,#330,#153,.T.);
#395=EDGE_CURVE('',#330,#330,#314,.T.);
#396=EDGE_CURVE('',#331,#331,#315,.T.);
#397=EDGE_CURVE('',#331,#332,#154,.T.);
#398=EDGE_CURVE('',#332,#332,#316,.T.);
#399=EDGE_CURVE('',#333,#334,#155,.T.);
#400=EDGE_CURVE('',#333,#335,#156,.T.);
#401=EDGE_CURVE('',#335,#336,#157,.T.);
#402=EDGE_CURVE('',#336,#334,#158,.T.);
#403=EDGE_CURVE('',#337,#338,#159,.T.);
#404=EDGE_CURVE('',#337,#339,#160,.T.);
#405=EDGE_CURVE('',#339,#340,#161,.T.);
#406=EDGE_CURVE('',#340,#338,#162,.T.);
#407=EDGE_CURVE('',#334,#341,#163,.T.);
#408=EDGE_CURVE('',#342,#341,#164,.T.);
#409=EDGE_CURVE('',#333,#342,#165,.T.);
#410=EDGE_CURVE('',#341,#343,#166,.T.);
#411=EDGE_CURVE('',#343,#344,#167,.T.);
#412=EDGE_CURVE('',#344,#342,#168,.T.);
#413=EDGE_CURVE('',#338,#345,#169,.T.);
#414=EDGE_CURVE('',#346,#345,#170,.T.);
#415=EDGE_CURVE('',#337,#346,#171,.T.);
#416=EDGE_CURVE('',#345,#347,#172,.T.);
#417=EDGE_CURVE('',#347,#348,#173,.T.);
#418=EDGE_CURVE('',#348,#346,#174,.T.);
#419=EDGE_CURVE('',#349,#350,#175,.T.);
#420=EDGE_CURVE('',#349,#351,#176,.T.);
#421=EDGE_CURVE('',#352,#351,#177,.T.);
#422=EDGE_CURVE('',#350,#352,#178,.T.);
#423=EDGE_CURVE('',#352,#347,#179,.T.);
#424=EDGE_CURVE('',#351,#348,#180,.T.);
#425=EDGE_CURVE('',#353,#349,#181,.T.);
#426=EDGE_CURVE('',#353,#354,#182,.T.);
#427=EDGE_CURVE('',#354,#343,#183,.T.);
#428=EDGE_CURVE('',#339,#336,#184,.T.);
#429=EDGE_CURVE('',#350,#355,#185,.T.);
#430=EDGE_CURVE('',#355,#353,#186,.T.);
#431=EDGE_CURVE('',#356,#356,#317,.T.);
#432=EDGE_CURVE('',#357,#357,#318,.T.);
#433=EDGE_CURVE('',#358,#359,#187,.T.);
#434=EDGE_CURVE('',#359,#360,#188,.T.);
#435=EDGE_CURVE('',#360,#361,#189,.T.);
#436=EDGE_CURVE('',#361,#358,#190,.T.);
#437=EDGE_CURVE('',#362,#362,#319,.T.);
#438=EDGE_CURVE('',#363,#363,#320,.T.);
#439=EDGE_CURVE('',#364,#365,#191,.T.);
#440=EDGE_CURVE('',#365,#366,#192,.T.);
#441=EDGE_CURVE('',#366,#367,#193,.T.);
#442=EDGE_CURVE('',#367,#364,#194,.T.);
#443=EDGE_CURVE('',#368,#368,#321,.T.);
#444=EDGE_CURVE('',#369,#370,#195,.T.);
#445=EDGE_CURVE('',#370,#371,#196,.T.);
#446=EDGE_CURVE('',#371,#372,#197,.T.);
#447=EDGE_CURVE('',#372,#369,#198,.T.);
#448=EDGE_CURVE('',#373,#373,#322,.T.);
#449=EDGE_CURVE('',#355,#374,#199,.T.);
#450=EDGE_CURVE('',#354,#374,#200,.T.);
#451=EDGE_CURVE('',#374,#344,#201,.T.);
#452=EDGE_CURVE('',#335,#340,#202,.T.);
#453=EDGE_CURVE('',#373,#375,#203,.T.);
#454=EDGE_CURVE('',#375,#375,#323,.T.);
#455=EDGE_CURVE('',#376,#377,#204,.T.);
#456=EDGE_CURVE('',#377,#369,#205,.T.);
#457=EDGE_CURVE('',#376,#372,#206,.T.);
#458=EDGE_CURVE('',#378,#376,#207,.T.);
#459=EDGE_CURVE('',#378,#371,#208,.T.);
#460=EDGE_CURVE('',#379,#378,#209,.T.);
#461=EDGE_CURVE('',#379,#370,#210,.T.);
#462=EDGE_CURVE('',#377,#379,#211,.T.);
#463=EDGE_CURVE('',#368,#380,#212,.T.);
#464=EDGE_CURVE('',#380,#380,#324,.T.);
#465=EDGE_CURVE('',#381,#382,#213,.T.);
#466=EDGE_CURVE('',#382,#364,#214,.T.);
#467=EDGE_CURVE('',#381,#367,#215,.T.);
#468=EDGE_CURVE('',#383,#381,#216,.T.);
#469=EDGE_CURVE('',#383,#366,#217,.T.);
#470=EDGE_CURVE('',#384,#383,#218,.T.);
#471=EDGE_CURVE('',#384,#365,#219,.T.);
#472=EDGE_CURVE('',#382,#384,#220,.T.);
#473=EDGE_CURVE('',#363,#385,#221,.T.);
#474=EDGE_CURVE('',#385,#385,#325,.T.);
#475=EDGE_CURVE('',#362,#386,#222,.T.);
#476=EDGE_CURVE('',#386,#386,#326,.T.);
#477=EDGE_CURVE('',#387,#388,#223,.T.);
#478=EDGE_CURVE('',#388,#358,#224,.T.);
#479=EDGE_CURVE('',#387,#361,#225,.T.);
#480=EDGE_CURVE('',#389,#387,#226,.T.);
#481=EDGE_CURVE('',#389,#360,#227,.T.);
#482=EDGE_CURVE('',#390,#389,#228,.T.);
#483=EDGE_CURVE('',#390,#359,#229,.T.);
#484=EDGE_CURVE('',#388,#390,#230,.T.);
#485=EDGE_CURVE('',#357,#391,#231,.T.);
#486=EDGE_CURVE('',#391,#391,#327,.T.);
#487=EDGE_CURVE('',#356,#392,#232,.T.);
#488=EDGE_CURVE('',#392,#392,#328,.T.);
#489=ORIENTED_EDGE('',*,*,#393,.F.);
#490=ORIENTED_EDGE('',*,*,#394,.T.);
#491=ORIENTED_EDGE('',*,*,#395,.F.);
#492=ORIENTED_EDGE('',*,*,#394,.F.);
#493=ORIENTED_EDGE('',*,*,#396,.F.);
#494=ORIENTED_EDGE('',*,*,#397,.T.);
#495=ORIENTED_EDGE('',*,*,#398,.F.);
#496=ORIENTED_EDGE('',*,*,#397,.F.);
#497=ORIENTED_EDGE('',*,*,#399,.F.);
#498=ORIENTED_EDGE('',*,*,#400,.T.);
#499=ORIENTED_EDGE('',*,*,#401,.T.);
#500=ORIENTED_EDGE('',*,*,#402,.T.);
#501=ORIENTED_EDGE('',*,*,#403,.F.);
#502=ORIENTED_EDGE('',*,*,#404,.T.);
#503=ORIENTED_EDGE('',*,*,#405,.T.);
#504=ORIENTED_EDGE('',*,*,#406,.T.);
#505=ORIENTED_EDGE('',*,*,#399,.T.);
#506=ORIENTED_EDGE('',*,*,#407,.T.);
#507=ORIENTED_EDGE('',*,*,#408,.F.);
#508=ORIENTED_EDGE('',*,*,#409,.F.);
#509=ORIENTED_EDGE('',*,*,#396,.T.);
#510=ORIENTED_EDGE('',*,*,#410,.T.);
#511=ORIENTED_EDGE('',*,*,#411,.T.);
#512=ORIENTED_EDGE('',*,*,#412,.T.);
#513=ORIENTED_EDGE('',*,*,#408,.T.);
#514=ORIENTED_EDGE('',*,*,#403,.T.);
#515=ORIENTED_EDGE('',*,*,#413,.T.);
#516=ORIENTED_EDGE('',*,*,#414,.F.);
#517=ORIENTED_EDGE('',*,*,#415,.F.);
#518=ORIENTED_EDGE('',*,*,#393,.T.);
#519=ORIENTED_EDGE('',*,*,#416,.T.);
#520=ORIENTED_EDGE('',*,*,#417,.T.);
#521=ORIENTED_EDGE('',*,*,#418,.T.);
#522=ORIENTED_EDGE('',*,*,#414,.T.);
#523=ORIENTED_EDGE('',*,*,#419,.F.);
#524=ORIENTED_EDGE('',*,*,#420,.T.);
#525=ORIENTED_EDGE('',*,*,#421,.F.);
#526=ORIENTED_EDGE('',*,*,#422,.F.);
#527=ORIENTED_EDGE('',*,*,#423,.F.);
#528=ORIENTED_EDGE('',*,*,#421,.T.);
#529=ORIENTED_EDGE('',*,*,#424,.T.);
#530=ORIENTED_EDGE('',*,*,#417,.F.);
#531=ORIENTED_EDGE('',*,*,#395,.T.);
#532=ORIENTED_EDGE('',*,*,#425,.F.);
#533=ORIENTED_EDGE('',*,*,#426,.T.);
#534=ORIENTED_EDGE('',*,*,#427,.T.);
#535=ORIENTED_EDGE('',*,*,#410,.F.);
#536=ORIENTED_EDGE('',*,*,#407,.F.);
#537=ORIENTED_EDGE('',*,*,#402,.F.);
#538=ORIENTED_EDGE('',*,*,#428,.F.);
#539=ORIENTED_EDGE('',*,*,#404,.F.);
#540=ORIENTED_EDGE('',*,*,#415,.T.);
#541=ORIENTED_EDGE('',*,*,#418,.F.);
#542=ORIENTED_EDGE('',*,*,#424,.F.);
#543=ORIENTED_EDGE('',*,*,#420,.F.);
#544=ORIENTED_EDGE('',*,*,#419,.T.);
#545=ORIENTED_EDGE('',*,*,#429,.T.);
#546=ORIENTED_EDGE('',*,*,#430,.T.);
#547=ORIENTED_EDGE('',*,*,#425,.T.);
#548=ORIENTED_EDGE('',*,*,#431,.T.);
#549=ORIENTED_EDGE('',*,*,#432,.T.);
#550=ORIENTED_EDGE('',*,*,#433,.T.);
#551=ORIENTED_EDGE('',*,*,#434,.T.);
#552=ORIENTED_EDGE('',*,*,#435,.T.);
#553=ORIENTED_EDGE('',*,*,#436,.T.);
#554=ORIENTED_EDGE('',*,*,#437,.T.);
#555=ORIENTED_EDGE('',*,*,#438,.T.);
#556=ORIENTED_EDGE('',*,*,#439,.T.);
#557=ORIENTED_EDGE('',*,*,#440,.T.);
#558=ORIENTED_EDGE('',*,*,#441,.T.);
#559=ORIENTED_EDGE('',*,*,#442,.T.);
#560=ORIENTED_EDGE('',*,*,#443,.T.);
#561=ORIENTED_EDGE('',*,*,#444,.T.);
#562=ORIENTED_EDGE('',*,*,#445,.T.);
#563=ORIENTED_EDGE('',*,*,#446,.T.);
#564=ORIENTED_EDGE('',*,*,#447,.T.);
#565=ORIENTED_EDGE('',*,*,#448,.T.);
#566=ORIENTED_EDGE('',*,*,#430,.F.);
#567=ORIENTED_EDGE('',*,*,#449,.T.);
#568=ORIENTED_EDGE('',*,*,#450,.F.);
#569=ORIENTED_EDGE('',*,*,#426,.F.);
#570=ORIENTED_EDGE('',*,*,#427,.F.);
#571=ORIENTED_EDGE('',*,*,#450,.T.);
#572=ORIENTED_EDGE('',*,*,#451,.T.);
#573=ORIENTED_EDGE('',*,*,#411,.F.);
#574=ORIENTED_EDGE('',*,*,#398,.T.);
#575=ORIENTED_EDGE('',*,*,#452,.F.);
#576=ORIENTED_EDGE('',*,*,#400,.F.);
#577=ORIENTED_EDGE('',*,*,#409,.T.);
#578=ORIENTED_EDGE('',*,*,#412,.F.);
#579=ORIENTED_EDGE('',*,*,#451,.F.);
#580=ORIENTED_EDGE('',*,*,#449,.F.);
#581=ORIENTED_EDGE('',*,*,#429,.F.);
#582=ORIENTED_EDGE('',*,*,#422,.T.);
#583=ORIENTED_EDGE('',*,*,#423,.T.);
#584=ORIENTED_EDGE('',*,*,#416,.F.);
#585=ORIENTED_EDGE('',*,*,#413,.F.);
#586=ORIENTED_EDGE('',*,*,#406,.F.);
#587=ORIENTED_EDGE('',*,*,#448,.F.);
#588=ORIENTED_EDGE('',*,*,#453,.T.);
#589=ORIENTED_EDGE('',*,*,#454,.T.);
#590=ORIENTED_EDGE('',*,*,#453,.F.);
#591=ORIENTED_EDGE('',*,*,#455,.T.);
#592=ORIENTED_EDGE('',*,*,#456,.T.);
#593=ORIENTED_EDGE('',*,*,#447,.F.);
#594=ORIENTED_EDGE('',*,*,#457,.F.);
#595=ORIENTED_EDGE('',*,*,#458,.T.);
#596=ORIENTED_EDGE('',*,*,#457,.T.);
#597=ORIENTED_EDGE('',*,*,#446,.F.);
#598=ORIENTED_EDGE('',*,*,#459,.F.);
#599=ORIENTED_EDGE('',*,*,#460,.T.);
#600=ORIENTED_EDGE('',*,*,#459,.T.);
#601=ORIENTED_EDGE('',*,*,#445,.F.);
#602=ORIENTED_EDGE('',*,*,#461,.F.);
#603=ORIENTED_EDGE('',*,*,#462,.T.);
#604=ORIENTED_EDGE('',*,*,#461,.T.);
#605=ORIENTED_EDGE('',*,*,#444,.F.);
#606=ORIENTED_EDGE('',*,*,#456,.F.);
#607=ORIENTED_EDGE('',*,*,#443,.F.);
#608=ORIENTED_EDGE('',*,*,#463,.T.);
#609=ORIENTED_EDGE('',*,*,#464,.T.);
#610=ORIENTED_EDGE('',*,*,#463,.F.);
#611=ORIENTED_EDGE('',*,*,#465,.T.);
#612=ORIENTED_EDGE('',*,*,#466,.T.);
#613=ORIENTED_EDGE('',*,*,#442,.F.);
#614=ORIENTED_EDGE('',*,*,#467,.F.);
#615=ORIENTED_EDGE('',*,*,#468,.T.);
#616=ORIENTED_EDGE('',*,*,#467,.T.);
#617=ORIENTED_EDGE('',*,*,#441,.F.);
#618=ORIENTED_EDGE('',*,*,#469,.F.);
#619=ORIENTED_EDGE('',*,*,#470,.T.);
#620=ORIENTED_EDGE('',*,*,#469,.T.);
#621=ORIENTED_EDGE('',*,*,#440,.F.);
#622=ORIENTED_EDGE('',*,*,#471,.F.);
#623=ORIENTED_EDGE('',*,*,#472,.T.);
#624=ORIENTED_EDGE('',*,*,#471,.T.);
#625=ORIENTED_EDGE('',*,*,#439,.F.);
#626=ORIENTED_EDGE('',*,*,#466,.F.);
#627=ORIENTED_EDGE('',*,*,#438,.F.);
#628=ORIENTED_EDGE('',*,*,#473,.T.);
#629=ORIENTED_EDGE('',*,*,#474,.T.);
#630=ORIENTED_EDGE('',*,*,#473,.F.);
#631=ORIENTED_EDGE('',*,*,#437,.F.);
#632=ORIENTED_EDGE('',*,*,#475,.T.);
#633=ORIENTED_EDGE('',*,*,#476,.T.);
#634=ORIENTED_EDGE('',*,*,#475,.F.);
#635=ORIENTED_EDGE('',*,*,#477,.T.);
#636=ORIENTED_EDGE('',*,*,#478,.T.);
#637=ORIENTED_EDGE('',*,*,#436,.F.);
#638=ORIENTED_EDGE('',*,*,#479,.F.);
#639=ORIENTED_EDGE('',*,*,#480,.T.);
#640=ORIENTED_EDGE('',*,*,#479,.T.);
#641=ORIENTED_EDGE('',*,*,#435,.F.);
#642=ORIENTED_EDGE('',*,*,#481,.F.);
#643=ORIENTED_EDGE('',*,*,#482,.T.);
#644=ORIENTED_EDGE('',*,*,#481,.T.);
#645=ORIENTED_EDGE('',*,*,#434,.F.);
#646=ORIENTED_EDGE('',*,*,#483,.F.);
#647=ORIENTED_EDGE('',*,*,#484,.T.);
#648=ORIENTED_EDGE('',*,*,#483,.T.);
#649=ORIENTED_EDGE('',*,*,#433,.F.);
#650=ORIENTED_EDGE('',*,*,#478,.F.);
#651=ORIENTED_EDGE('',*,*,#432,.F.);
#652=ORIENTED_EDGE('',*,*,#485,.T.);
#653=ORIENTED_EDGE('',*,*,#486,.T.);
#654=ORIENTED_EDGE('',*,*,#485,.F.);
#655=ORIENTED_EDGE('',*,*,#431,.F.);
#656=ORIENTED_EDGE('',*,*,#487,.T.);
#657=ORIENTED_EDGE('',*,*,#488,.T.);
#658=ORIENTED_EDGE('',*,*,#487,.F.);
#659=ORIENTED_EDGE('',*,*,#428,.T.);
#660=ORIENTED_EDGE('',*,*,#401,.F.);
#661=ORIENTED_EDGE('',*,*,#452,.T.);
#662=ORIENTED_EDGE('',*,*,#405,.F.);
#663=ORIENTED_EDGE('',*,*,#488,.F.);
#664=ORIENTED_EDGE('',*,*,#486,.F.);
#665=ORIENTED_EDGE('',*,*,#484,.F.);
#666=ORIENTED_EDGE('',*,*,#477,.F.);
#667=ORIENTED_EDGE('',*,*,#480,.F.);
#668=ORIENTED_EDGE('',*,*,#482,.F.);
#669=ORIENTED_EDGE('',*,*,#476,.F.);
#670=ORIENTED_EDGE('',*,*,#474,.F.);
#671=ORIENTED_EDGE('',*,*,#472,.F.);
#672=ORIENTED_EDGE('',*,*,#465,.F.);
#673=ORIENTED_EDGE('',*,*,#468,.F.);
#674=ORIENTED_EDGE('',*,*,#470,.F.);
#675=ORIENTED_EDGE('',*,*,#464,.F.);
#676=ORIENTED_EDGE('',*,*,#462,.F.);
#677=ORIENTED_EDGE('',*,*,#455,.F.);
#678=ORIENTED_EDGE('',*,*,#458,.F.);
#679=ORIENTED_EDGE('',*,*,#460,.F.);
#680=ORIENTED_EDGE('',*,*,#454,.F.);
#681=CYLINDRICAL_SURFACE('',#737,1.5);
#682=CYLINDRICAL_SURFACE('',#740,1.5);
#683=CYLINDRICAL_SURFACE('',#762,1.25);
#684=CYLINDRICAL_SURFACE('',#768,1.25);
#685=CYLINDRICAL_SURFACE('',#774,1.25);
#686=CYLINDRICAL_SURFACE('',#776,1.25);
#687=CYLINDRICAL_SURFACE('',#782,1.25);
#688=CYLINDRICAL_SURFACE('',#784,1.25);
#689=ADVANCED_FACE('',(#63),#681,.F.);
#690=ADVANCED_FACE('',(#64),#682,.F.);
#691=ADVANCED_FACE('',(#65),#37,.T.);
#692=ADVANCED_FACE('',(#66),#38,.T.);
#693=ADVANCED_FACE('',(#67,#15),#39,.T.);
#694=ADVANCED_FACE('',(#68),#40,.T.);
#695=ADVANCED_FACE('',(#69,#16),#41,.T.);
#696=ADVANCED_FACE('',(#70),#42,.T.);
#697=ADVANCED_FACE('',(#71),#43,.T.);
#698=ADVANCED_FACE('',(#72,#17),#44,.T.);
#699=ADVANCED_FACE('',(#73),#45,.T.);
#700=ADVANCED_FACE('',(#74,#18,#19,#20,#21,#22,#23,#24,#25,#26),#46,.T.);
#701=ADVANCED_FACE('',(#75),#47,.T.);
#702=ADVANCED_FACE('',(#76,#27),#48,.T.);
#703=ADVANCED_FACE('',(#77),#49,.T.);
#704=ADVANCED_FACE('',(#78),#683,.F.);
#705=ADVANCED_FACE('',(#79),#50,.T.);
#706=ADVANCED_FACE('',(#80),#51,.T.);
#707=ADVANCED_FACE('',(#81),#52,.T.);
#708=ADVANCED_FACE('',(#82),#53,.T.);
#709=ADVANCED_FACE('',(#83),#684,.F.);
#710=ADVANCED_FACE('',(#84),#54,.T.);
#711=ADVANCED_FACE('',(#85),#55,.T.);
#712=ADVANCED_FACE('',(#86),#56,.T.);
#713=ADVANCED_FACE('',(#87),#57,.T.);
#714=ADVANCED_FACE('',(#88),#685,.F.);
#715=ADVANCED_FACE('',(#89),#686,.F.);
#716=ADVANCED_FACE('',(#90),#58,.T.);
#717=ADVANCED_FACE('',(#91),#59,.T.);
#718=ADVANCED_FACE('',(#92),#60,.T.);
#719=ADVANCED_FACE('',(#93),#61,.T.);
#720=ADVANCED_FACE('',(#94),#687,.F.);
#721=ADVANCED_FACE('',(#95),#688,.F.);
#722=ADVANCED_FACE('',(#96,#28,#29,#30,#31,#32,#33,#34,#35,#36),#62,.F.);
#723=CLOSED_SHELL('',(#689,#690,#691,#692,#693,#694,#695,#696,#697,#698,
#699,#700,#701,#702,#703,#704,#705,#706,#707,#708,#709,#710,#711,#712,#713,
#714,#715,#716,#717,#718,#719,#720,#721,#722));
#724=DERIVED_UNIT_ELEMENT(#726,1.);
#725=DERIVED_UNIT_ELEMENT(#1169,-3.);
#726=(
MASS_UNIT()
NAMED_UNIT(*)
SI_UNIT(.KILO.,.GRAM.)
);
#727=DERIVED_UNIT((#724,#725));
#728=MEASURE_REPRESENTATION_ITEM('density measure',
POSITIVE_RATIO_MEASURE(7850.),#727);
#729=PROPERTY_DEFINITION_REPRESENTATION(#734,#731);
#730=PROPERTY_DEFINITION_REPRESENTATION(#735,#732);
#731=REPRESENTATION('material name',(#733),#1166);
#732=REPRESENTATION('density',(#728),#1166);
#733=DESCRIPTIVE_REPRESENTATION_ITEM('Steel','Steel');
#734=PROPERTY_DEFINITION('material property','material name',#1176);
#735=PROPERTY_DEFINITION('material property','density of part',#1176);
#736=AXIS2_PLACEMENT_3D('',#969,#787,#788);
#737=AXIS2_PLACEMENT_3D('',#970,#789,#790);
#738=AXIS2_PLACEMENT_3D('',#972,#791,#792);
#739=AXIS2_PLACEMENT_3D('',#975,#794,#795);
#740=AXIS2_PLACEMENT_3D('',#976,#796,#797);
#741=AXIS2_PLACEMENT_3D('',#978,#798,#799);
#742=AXIS2_PLACEMENT_3D('',#981,#801,#802);
#743=AXIS2_PLACEMENT_3D('',#982,#803,#804);
#744=AXIS2_PLACEMENT_3D('',#991,#809,#810);
#745=AXIS2_PLACEMENT_3D('',#1000,#815,#816);
#746=AXIS2_PLACEMENT_3D('',#1006,#820,#821);
#747=AXIS2_PLACEMENT_3D('',#1012,#825,#826);
#748=AXIS2_PLACEMENT_3D('',#1018,#830,#831);
#749=AXIS2_PLACEMENT_3D('',#1024,#835,#836);
#750=AXIS2_PLACEMENT_3D('',#1033,#841,#842);
#751=AXIS2_PLACEMENT_3D('',#1036,#845,#846);
#752=AXIS2_PLACEMENT_3D('',#1043,#851,#852);
#753=AXIS2_PLACEMENT_3D('',#1048,#855,#856);
#754=AXIS2_PLACEMENT_3D('',#1050,#857,#858);
#755=AXIS2_PLACEMENT_3D('',#1060,#863,#864);
#756=AXIS2_PLACEMENT_3D('',#1062,#865,#866);
#757=AXIS2_PLACEMENT_3D('',#1072,#871,#872);
#758=AXIS2_PLACEMENT_3D('',#1082,#877,#878);
#759=AXIS2_PLACEMENT_3D('',#1083,#879,#880);
#760=AXIS2_PLACEMENT_3D('',#1087,#883,#884);
#761=AXIS2_PLACEMENT_3D('',#1089,#886,#887);
#762=AXIS2_PLACEMENT_3D('',#1091,#889,#890);
#763=AXIS2_PLACEMENT_3D('',#1094,#892,#893);
#764=AXIS2_PLACEMENT_3D('',#1095,#894,#895);
#765=AXIS2_PLACEMENT_3D('',#1101,#899,#900);
#766=AXIS2_PLACEMENT_3D('',#1105,#903,#904);
#767=AXIS2_PLACEMENT_3D('',#1109,#907,#908);
#768=AXIS2_PLACEMENT_3D('',#1111,#910,#911);
#769=AXIS2_PLACEMENT_3D('',#1114,#913,#914);
#770=AXIS2_PLACEMENT_3D('',#1115,#915,#916);
#771=AXIS2_PLACEMENT_3D('',#1121,#920,#921);
#772=AXIS2_PLACEMENT_3D('',#1125,#924,#925);
#773=AXIS2_PLACEMENT_3D('',#1129,#928,#929);
#774=AXIS2_PLACEMENT_3D('',#1131,#931,#932);
#775=AXIS2_PLACEMENT_3D('',#1134,#934,#935);
#776=AXIS2_PLACEMENT_3D('',#1135,#936,#937);
#777=AXIS2_PLACEMENT_3D('',#1138,#939,#940);
#778=AXIS2_PLACEMENT_3D('',#1139,#941,#942);
#779=AXIS2_PLACEMENT_3D('',#1145,#946,#947);
#780=AXIS2_PLACEMENT_3D('',#1149,#950,#951);
#781=AXIS2_PLACEMENT_3D('',#1153,#954,#955);
#782=AXIS2_PLACEMENT_3D('',#1155,#957,#958);
#783=AXIS2_PLACEMENT_3D('',#1158,#960,#961);
#784=AXIS2_PLACEMENT_3D('',#1159,#962,#963);
#785=AXIS2_PLACEMENT_3D('',#1162,#965,#966);
#786=AXIS2_PLACEMENT_3D('',#1163,#967,#968);
#787=DIRECTION('axis',(0.,0.,1.));
#788=DIRECTION('refdir',(1.,0.,0.));
#789=DIRECTION('center_axis',(0.,0.,1.));
#790=DIRECTION('ref_axis',(1.,0.,0.));
#791=DIRECTION('center_axis',(0.,0.,1.));
#792=DIRECTION('ref_axis',(1.,0.,0.));
#793=DIRECTION('',(0.,0.,1.));
#794=DIRECTION('center_axis',(0.,0.,-1.));
#795=DIRECTION('ref_axis',(1.,0.,0.));
#796=DIRECTION('center_axis',(0.,0.,1.));
#797=DIRECTION('ref_axis',(1.,0.,0.));
#798=DIRECTION('center_axis',(0.,0.,1.));
#799=DIRECTION('ref_axis',(1.,0.,0.));
#800=DIRECTION('',(0.,0.,1.));
#801=DIRECTION('center_axis',(0.,0.,-1.));
#802=DIRECTION('ref_axis',(1.,0.,0.));
#803=DIRECTION('center_axis',(-1.,0.,0.));
#804=DIRECTION('ref_axis',(0.,0.,1.));
#805=DIRECTION('',(0.,-1.,0.));
#806=DIRECTION('',(0.,0.,-1.));
#807=DIRECTION('',(0.,-1.,0.));
#808=DIRECTION('',(0.,0.,1.));
#809=DIRECTION('center_axis',(1.,0.,0.));
#810=DIRECTION('ref_axis',(0.,0.,-1.));
#811=DIRECTION('',(0.,1.,0.));
#812=DIRECTION('',(0.,0.,-1.));
#813=DIRECTION('',(0.,1.,0.));
#814=DIRECTION('',(0.,0.,1.));
#815=DIRECTION('center_axis',(0.,0.,-1.));
#816=DIRECTION('ref_axis',(0.,-1.,0.));
#817=DIRECTION('',(-1.,0.,0.));
#818=DIRECTION('',(0.,-1.,0.));
#819=DIRECTION('',(-1.,0.,0.));
#820=DIRECTION('center_axis',(-1.,0.,0.));
#821=DIRECTION('ref_axis',(0.,0.,1.));
#822=DIRECTION('',(0.,0.,1.));
#823=DIRECTION('',(0.,1.,1.93082265152201E-16));
#824=DIRECTION('',(0.,0.,-1.));
#825=DIRECTION('center_axis',(0.,0.,-1.));
#826=DIRECTION('ref_axis',(0.,1.,0.));
#827=DIRECTION('',(1.,0.,0.));
#828=DIRECTION('',(0.,1.,0.));
#829=DIRECTION('',(1.,0.,0.));
#830=DIRECTION('center_axis',(1.,0.,0.));
#831=DIRECTION('ref_axis',(0.,0.,-1.));
#832=DIRECTION('',(0.,0.,1.));
#833=DIRECTION('',(0.,-1.,-1.69522397433903E-16));
#834=DIRECTION('',(0.,0.,-1.));
#835=DIRECTION('center_axis',(-1.,0.,0.));
#836=DIRECTION('ref_axis',(0.,-1.,0.));
#837=DIRECTION('',(0.,1.,0.));
#838=DIRECTION('',(0.,0.,1.));
#839=DIRECTION('',(0.,-1.,0.));
#840=DIRECTION('',(0.,0.,1.));
#841=DIRECTION('center_axis',(0.,0.,1.));
#842=DIRECTION('ref_axis',(1.,0.,0.));
#843=DIRECTION('',(1.,0.,0.));
#844=DIRECTION('',(1.,0.,0.));
#845=DIRECTION('center_axis',(0.,-1.,0.));
#846=DIRECTION('ref_axis',(1.,0.,0.));
#847=DIRECTION('',(1.,0.,0.));
#848=DIRECTION('',(0.,0.,1.));
#849=DIRECTION('',(-1.,0.,0.));
#850=DIRECTION('',(-1.,0.,0.));
#851=DIRECTION('center_axis',(0.,0.,1.));
#852=DIRECTION('ref_axis',(1.,0.,0.));
#853=DIRECTION('',(-1.,0.,0.));
#854=DIRECTION('',(0.,-1.,0.));
#855=DIRECTION('center_axis',(0.,0.,-1.));
#856=DIRECTION('ref_axis',(1.,0.,0.));
#857=DIRECTION('center_axis',(0.,0.,-1.));
#858=DIRECTION('ref_axis',(1.,0.,0.));
#859=DIRECTION('',(0.,-1.,0.));
#860=DIRECTION('',(-1.,4.88010120714354E-16,0.));
#861=DIRECTION('',(1.67580833905684E-16,1.,0.));
#862=DIRECTION('',(1.,0.,0.));
#863=DIRECTION('center_axis',(0.,0.,-1.));
#864=DIRECTION('ref_axis',(1.,0.,0.));
#865=DIRECTION('center_axis',(0.,0.,-1.));
#866=DIRECTION('ref_axis',(1.,0.,0.));
#867=DIRECTION('',(1.,0.,0.));
#868=DIRECTION('',(0.,-1.,0.));
#869=DIRECTION('',(-1.,2.44005060357177E-16,0.));
#870=DIRECTION('',(3.35161667811368E-16,1.,0.));
#871=DIRECTION('center_axis',(0.,0.,-1.));
#872=DIRECTION('ref_axis',(1.,0.,0.));
#873=DIRECTION('',(1.,0.,0.));
#874=DIRECTION('',(-2.09476042382105E-17,-1.,0.));
#875=DIRECTION('',(-1.,4.88010120714355E-16,0.));
#876=DIRECTION('',(-8.3790416952842E-17,1.,0.));
#877=DIRECTION('center_axis',(0.,0.,-1.));
#878=DIRECTION('ref_axis',(1.,0.,0.));
#879=DIRECTION('center_axis',(1.,0.,0.));
#880=DIRECTION('ref_axis',(0.,1.,0.));
#881=DIRECTION('',(0.,0.,1.));
#882=DIRECTION('',(0.,1.,0.));
#883=DIRECTION('center_axis',(0.,0.,1.));
#884=DIRECTION('ref_axis',(1.,0.,0.));
#885=DIRECTION('',(-1.,0.,0.));
#886=DIRECTION('center_axis',(0.,1.,0.));
#887=DIRECTION('ref_axis',(-1.,0.,0.));
#888=DIRECTION('',(1.,0.,0.));
#889=DIRECTION('center_axis',(0.,0.,1.));
#890=DIRECTION('ref_axis',(1.,0.,0.));
#891=DIRECTION('',(0.,0.,-1.));
#892=DIRECTION('center_axis',(0.,0.,-1.));
#893=DIRECTION('ref_axis',(1.,0.,0.));
#894=DIRECTION('center_axis',(1.,8.3790416952842E-17,0.));
#895=DIRECTION('ref_axis',(-8.3790416952842E-17,1.,0.));
#896=DIRECTION('',(-8.3790416952842E-17,1.,0.));
#897=DIRECTION('',(0.,0.,1.));
#898=DIRECTION('',(0.,0.,1.));
#899=DIRECTION('center_axis',(4.88010120714355E-16,1.,0.));
#900=DIRECTION('ref_axis',(-1.,4.88010120714355E-16,0.));
#901=DIRECTION('',(-1.,4.88010120714355E-16,0.));
#902=DIRECTION('',(0.,0.,1.));
#903=DIRECTION('center_axis',(-1.,2.09476042382105E-17,0.));
#904=DIRECTION('ref_axis',(-2.09476042382105E-17,-1.,0.));
#905=DIRECTION('',(-2.09476042382105E-17,-1.,0.));
#906=DIRECTION('',(0.,0.,1.));
#907=DIRECTION('center_axis',(0.,-1.,0.));
#908=DIRECTION('ref_axis',(1.,0.,0.));
#909=DIRECTION('',(1.,0.,0.));
#910=DIRECTION('center_axis',(0.,0.,1.));
#911=DIRECTION('ref_axis',(1.,0.,0.));
#912=DIRECTION('',(0.,0.,-1.));
#913=DIRECTION('center_axis',(0.,0.,-1.));
#914=DIRECTION('ref_axis',(1.,0.,0.));
#915=DIRECTION('center_axis',(1.,-3.35161667811368E-16,0.));
#916=DIRECTION('ref_axis',(3.35161667811368E-16,1.,0.));
#917=DIRECTION('',(3.35161667811368E-16,1.,0.));
#918=DIRECTION('',(0.,0.,1.));
#919=DIRECTION('',(0.,0.,1.));
#920=DIRECTION('center_axis',(2.44005060357177E-16,1.,0.));
#921=DIRECTION('ref_axis',(-1.,2.44005060357177E-16,0.));
#922=DIRECTION('',(-1.,2.44005060357177E-16,0.));
#923=DIRECTION('',(0.,0.,1.));
#924=DIRECTION('center_axis',(-1.,0.,0.));
#925=DIRECTION('ref_axis',(0.,-1.,0.));
#926=DIRECTION('',(0.,-1.,0.));
#927=DIRECTION('',(0.,0.,1.));
#928=DIRECTION('center_axis',(0.,-1.,0.));
#929=DIRECTION('ref_axis',(1.,0.,0.));
#930=DIRECTION('',(1.,0.,0.));
#931=DIRECTION('center_axis',(0.,0.,1.));
#932=DIRECTION('ref_axis',(1.,0.,0.));
#933=DIRECTION('',(0.,0.,-1.));
#934=DIRECTION('center_axis',(0.,0.,-1.));
#935=DIRECTION('ref_axis',(1.,0.,0.));
#936=DIRECTION('center_axis',(0.,0.,1.));
#937=DIRECTION('ref_axis',(1.,0.,0.));
#938=DIRECTION('',(0.,0.,-1.));
#939=DIRECTION('center_axis',(0.,0.,-1.));
#940=DIRECTION('ref_axis',(1.,0.,0.));
#941=DIRECTION('center_axis',(0.,-1.,0.));
#942=DIRECTION('ref_axis',(1.,0.,0.));
#943=DIRECTION('',(1.,0.,0.));
#944=DIRECTION('',(0.,0.,1.));
#945=DIRECTION('',(0.,0.,1.));
#946=DIRECTION('center_axis',(1.,-1.67580833905684E-16,0.));
#947=DIRECTION('ref_axis',(1.67580833905684E-16,1.,0.));
#948=DIRECTION('',(1.67580833905684E-16,1.,0.));
#949=DIRECTION('',(0.,0.,1.));
#950=DIRECTION('center_axis',(4.88010120714354E-16,1.,0.));
#951=DIRECTION('ref_axis',(-1.,4.88010120714354E-16,0.));
#952=DIRECTION('',(-1.,4.88010120714354E-16,0.));
#953=DIRECTION('',(0.,0.,1.));
#954=DIRECTION('center_axis',(-1.,0.,0.));
#955=DIRECTION('ref_axis',(0.,-1.,0.));
#956=DIRECTION('',(0.,-1.,0.));
#957=DIRECTION('center_axis',(0.,0.,1.));
#958=DIRECTION('ref_axis',(1.,0.,0.));
#959=DIRECTION('',(0.,0.,-1.));
#960=DIRECTION('center_axis',(0.,0.,-1.));
#961=DIRECTION('ref_axis',(1.,0.,0.));
#962=DIRECTION('center_axis',(0.,0.,1.));
#963=DIRECTION('ref_axis',(1.,0.,0.));
#964=DIRECTION('',(0.,0.,-1.));
#965=DIRECTION('center_axis',(0.,0.,-1.));
#966=DIRECTION('ref_axis',(1.,0.,0.));
#967=DIRECTION('center_axis',(0.,0.,1.));
#968=DIRECTION('ref_axis',(1.,0.,0.));
#969=CARTESIAN_POINT('',(0.,0.,0.));
#970=CARTESIAN_POINT('Origin',(55.,0.,67.));
#971=CARTESIAN_POINT('',(53.5,1.83697019872103E-16,67.));
#972=CARTESIAN_POINT('Origin',(55.,0.,67.));
#973=CARTESIAN_POINT('',(53.5,1.83697019872103E-16,70.));
#974=CARTESIAN_POINT('',(53.5,-1.83697019872103E-16,67.));
#975=CARTESIAN_POINT('Origin',(55.,0.,70.));
#976=CARTESIAN_POINT('Origin',(-25.,0.,67.));
#977=CARTESIAN_POINT('',(-26.5,1.83697019872103E-16,67.));
#978=CARTESIAN_POINT('Origin',(-25.,0.,67.));
#979=CARTESIAN_POINT('',(-26.5,1.83697019872103E-16,70.));
#980=CARTESIAN_POINT('',(-26.5,-1.83697019872103E-16,67.));
#981=CARTESIAN_POINT('Origin',(-25.,0.,70.));
#982=CARTESIAN_POINT('Origin',(-17.,23.,0.));
#983=CARTESIAN_POINT('',(-17.,23.,67.));
#984=CARTESIAN_POINT('',(-17.,-23.,67.));
#985=CARTESIAN_POINT('',(-17.,23.,67.));
#986=CARTESIAN_POINT('',(-17.,23.,0.));
#987=CARTESIAN_POINT('',(-17.,23.,0.));
#988=CARTESIAN_POINT('',(-17.,-23.,0.));
#989=CARTESIAN_POINT('',(-17.,-23.,0.));
#990=CARTESIAN_POINT('',(-17.,-23.,0.));
#991=CARTESIAN_POINT('Origin',(47.,-23.,0.));
#992=CARTESIAN_POINT('',(47.,-23.,67.));
#993=CARTESIAN_POINT('',(47.,23.,67.));
#994=CARTESIAN_POINT('',(47.,-23.,67.));
#995=CARTESIAN_POINT('',(47.,-23.,0.));
#996=CARTESIAN_POINT('',(47.,-23.,0.));
#997=CARTESIAN_POINT('',(47.,23.,0.));
#998=CARTESIAN_POINT('',(47.,-23.,0.));
#999=CARTESIAN_POINT('',(47.,23.,0.));
#1000=CARTESIAN_POINT('Origin',(-15.,23.,67.));
#1001=CARTESIAN_POINT('',(-30.,-23.,67.));
#1002=CARTESIAN_POINT('',(-15.,-23.,67.));
#1003=CARTESIAN_POINT('',(-30.,23.,67.));
#1004=CARTESIAN_POINT('',(-30.,23.,67.));
#1005=CARTESIAN_POINT('',(-15.,23.,67.));
#1006=CARTESIAN_POINT('Origin',(-30.,8.88178419700125E-15,68.5));
#1007=CARTESIAN_POINT('',(-30.,-23.,70.));
#1008=CARTESIAN_POINT('',(-30.,-23.,67.));
#1009=CARTESIAN_POINT('',(-30.,23.,70.));
#1010=CARTESIAN_POINT('',(-30.,-23.,70.));
#1011=CARTESIAN_POINT('',(-30.,23.,70.));
#1012=CARTESIAN_POINT('Origin',(45.,-23.,67.));
#1013=CARTESIAN_POINT('',(60.,23.,67.));
#1014=CARTESIAN_POINT('',(45.,23.,67.));
#1015=CARTESIAN_POINT('',(60.,-23.,67.));
#1016=CARTESIAN_POINT('',(60.,29.3929836496341,67.));
#1017=CARTESIAN_POINT('',(45.,-23.,67.));
#1018=CARTESIAN_POINT('Origin',(60.,8.88178419700125E-15,68.5));
#1019=CARTESIAN_POINT('',(60.,23.,70.));
#1020=CARTESIAN_POINT('',(60.,23.,0.));
#1021=CARTESIAN_POINT('',(60.,-23.,70.));
#1022=CARTESIAN_POINT('',(60.,-23.,70.));
#1023=CARTESIAN_POINT('',(60.,-23.,67.));
#1024=CARTESIAN_POINT('Origin',(41.,23.,0.));
#1025=CARTESIAN_POINT('',(41.,-23.,5.));
#1026=CARTESIAN_POINT('',(41.,23.,5.));
#1027=CARTESIAN_POINT('',(41.,11.5,5.));
#1028=CARTESIAN_POINT('',(41.,-23.,70.));
#1029=CARTESIAN_POINT('',(41.,-23.,0.));
#1030=CARTESIAN_POINT('',(41.,23.,70.));
#1031=CARTESIAN_POINT('',(41.,23.,70.));
#1032=CARTESIAN_POINT('',(41.,23.,0.));
#1033=CARTESIAN_POINT('Origin',(43.,8.88178419700125E-15,70.));
#1034=CARTESIAN_POINT('',(45.,23.,70.));
#1035=CARTESIAN_POINT('',(41.,-23.,70.));
#1036=CARTESIAN_POINT('Origin',(-15.,-23.,0.));
#1037=CARTESIAN_POINT('',(-11.,-23.,5.));
#1038=CARTESIAN_POINT('',(-11.,-23.,5.));
#1039=CARTESIAN_POINT('',(-11.,-23.,70.));
#1040=CARTESIAN_POINT('',(-11.,-23.,0.));
#1041=CARTESIAN_POINT('',(-15.,-23.,70.));
#1042=CARTESIAN_POINT('',(-15.,-23.,0.));
#1043=CARTESIAN_POINT('Origin',(15.,8.88178419700125E-15,5.));
#1044=CARTESIAN_POINT('',(-11.,23.,5.));
#1045=CARTESIAN_POINT('',(45.,23.,5.));
#1046=CARTESIAN_POINT('',(-11.,-11.5,5.));
#1047=CARTESIAN_POINT('',(13.75,-20.5,5.));
#1048=CARTESIAN_POINT('Origin',(15.,-20.5,5.));
#1049=CARTESIAN_POINT('',(-1.25,20.5,5.));
#1050=CARTESIAN_POINT('Origin',(9.57142174731737E-16,20.5,5.));
#1051=CARTESIAN_POINT('',(19.6,13.25,5.));
#1052=CARTESIAN_POINT('',(19.6,-13.25,5.));
#1053=CARTESIAN_POINT('',(19.6,13.25,5.));
#1054=CARTESIAN_POINT('',(10.5,-13.25,5.));
#1055=CARTESIAN_POINT('',(19.6,-13.25,5.));
#1056=CARTESIAN_POINT('',(10.5,13.25,5.));
#1057=CARTESIAN_POINT('',(10.5,-13.25,5.));
#1058=CARTESIAN_POINT('',(10.5,13.25,5.));
#1059=CARTESIAN_POINT('',(-1.25,-20.5,5.));
#1060=CARTESIAN_POINT('Origin',(0.,-20.5,5.));
#1061=CARTESIAN_POINT('',(28.75,20.5,5.));
#1062=CARTESIAN_POINT('Origin',(30.,20.5,5.));
#1063=CARTESIAN_POINT('',(25.4,13.25,5.));
#1064=CARTESIAN_POINT('',(34.5,13.25,5.));
#1065=CARTESIAN_POINT('',(25.4,13.25,5.));
#1066=CARTESIAN_POINT('',(34.5,-13.25,5.));
#1067=CARTESIAN_POINT('',(34.5,13.25,5.));
#1068=CARTESIAN_POINT('',(25.4,-13.25,5.));
#1069=CARTESIAN_POINT('',(34.5,-13.25,5.));
#1070=CARTESIAN_POINT('',(25.4,-13.25,5.));
#1071=CARTESIAN_POINT('',(28.75,-20.5,5.));
#1072=CARTESIAN_POINT('Origin',(30.,-20.5,5.));
#1073=CARTESIAN_POINT('',(-4.55,13.25,5.));
#1074=CARTESIAN_POINT('',(4.55,13.25,5.));
#1075=CARTESIAN_POINT('',(-4.55,13.25,5.));
#1076=CARTESIAN_POINT('',(4.55,-13.25,5.));
#1077=CARTESIAN_POINT('',(4.55,13.25,5.));
#1078=CARTESIAN_POINT('',(-4.55,-13.25,5.));
#1079=CARTESIAN_POINT('',(4.55,-13.25,5.));
#1080=CARTESIAN_POINT('',(-4.55,-13.25,5.));
#1081=CARTESIAN_POINT('',(13.75,20.5,5.));
#1082=CARTESIAN_POINT('Origin',(15.,20.5,5.));
#1083=CARTESIAN_POINT('Origin',(-11.,-23.,0.));
#1084=CARTESIAN_POINT('',(-11.,23.,70.));
#1085=CARTESIAN_POINT('',(-11.,23.,0.));
#1086=CARTESIAN_POINT('',(-11.,23.,70.));
#1087=CARTESIAN_POINT('Origin',(-13.,8.88178419700125E-15,70.));
#1088=CARTESIAN_POINT('',(-15.,23.,70.));
#1089=CARTESIAN_POINT('Origin',(45.,23.,0.));
#1090=CARTESIAN_POINT('',(45.,23.,0.));
#1091=CARTESIAN_POINT('Origin',(15.,20.5,0.));
#1092=CARTESIAN_POINT('',(13.75,20.5,0.));
#1093=CARTESIAN_POINT('',(13.75,20.5,0.));
#1094=CARTESIAN_POINT('Origin',(15.,20.5,0.));
#1095=CARTESIAN_POINT('Origin',(-4.55,-13.25,0.));
#1096=CARTESIAN_POINT('',(-4.55,-13.25,0.));
#1097=CARTESIAN_POINT('',(-4.55,13.25,0.));
#1098=CARTESIAN_POINT('',(-4.55,-13.25,0.));
#1099=CARTESIAN_POINT('',(-4.55,13.25,0.));
#1100=CARTESIAN_POINT('',(-4.55,-13.25,0.));
#1101=CARTESIAN_POINT('Origin',(4.55,-13.25,0.));
#1102=CARTESIAN_POINT('',(4.55,-13.25,0.));
#1103=CARTESIAN_POINT('',(4.55,-13.25,0.));
#1104=CARTESIAN_POINT('',(4.55,-13.25,0.));
#1105=CARTESIAN_POINT('Origin',(4.55,13.25,0.));
#1106=CARTESIAN_POINT('',(4.55,13.25,0.));
#1107=CARTESIAN_POINT('',(4.55,13.25,0.));
#1108=CARTESIAN_POINT('',(4.55,13.25,0.));
#1109=CARTESIAN_POINT('Origin',(-4.55,13.25,0.));
#1110=CARTESIAN_POINT('',(-4.55,13.25,0.));
#1111=CARTESIAN_POINT('Origin',(30.,-20.5,0.));
#1112=CARTESIAN_POINT('',(28.75,-20.5,0.));
#1113=CARTESIAN_POINT('',(28.75,-20.5,0.));
#1114=CARTESIAN_POINT('Origin',(30.,-20.5,0.));
#1115=CARTESIAN_POINT('Origin',(25.4,-13.25,0.));
#1116=CARTESIAN_POINT('',(25.4,-13.25,0.));
#1117=CARTESIAN_POINT('',(25.4,13.25,0.));
#1118=CARTESIAN_POINT('',(25.4,-13.25,0.));
#1119=CARTESIAN_POINT('',(25.4,13.25,0.));
#1120=CARTESIAN_POINT('',(25.4,-13.25,0.));
#1121=CARTESIAN_POINT('Origin',(34.5,-13.25,0.));
#1122=CARTESIAN_POINT('',(34.5,-13.25,0.));
#1123=CARTESIAN_POINT('',(34.5,-13.25,0.));
#1124=CARTESIAN_POINT('',(34.5,-13.25,0.));
#1125=CARTESIAN_POINT('Origin',(34.5,13.25,0.));
#1126=CARTESIAN_POINT('',(34.5,13.25,0.));
#1127=CARTESIAN_POINT('',(34.5,13.25,0.));
#1128=CARTESIAN_POINT('',(34.5,13.25,0.));
#1129=CARTESIAN_POINT('Origin',(25.4,13.25,0.));
#1130=CARTESIAN_POINT('',(25.4,13.25,0.));
#1131=CARTESIAN_POINT('Origin',(30.,20.5,0.));
#1132=CARTESIAN_POINT('',(28.75,20.5,0.));
#1133=CARTESIAN_POINT('',(28.75,20.5,0.));
#1134=CARTESIAN_POINT('Origin',(30.,20.5,0.));
#1135=CARTESIAN_POINT('Origin',(0.,-20.5,0.));
#1136=CARTESIAN_POINT('',(-1.25,-20.5,0.));
#1137=CARTESIAN_POINT('',(-1.25,-20.5,0.));
#1138=CARTESIAN_POINT('Origin',(0.,-20.5,0.));
#1139=CARTESIAN_POINT('Origin',(10.5,13.25,0.));
#1140=CARTESIAN_POINT('',(10.5,13.25,0.));
#1141=CARTESIAN_POINT('',(19.6,13.25,0.));
#1142=CARTESIAN_POINT('',(10.5,13.25,0.));
#1143=CARTESIAN_POINT('',(19.6,13.25,0.));
#1144=CARTESIAN_POINT('',(10.5,13.25,0.));
#1145=CARTESIAN_POINT('Origin',(10.5,-13.25,0.));
#1146=CARTESIAN_POINT('',(10.5,-13.25,0.));
#1147=CARTESIAN_POINT('',(10.5,-13.25,0.));
#1148=CARTESIAN_POINT('',(10.5,-13.25,0.));
#1149=CARTESIAN_POINT('Origin',(19.6,-13.25,0.));
#1150=CARTESIAN_POINT('',(19.6,-13.25,0.));
#1151=CARTESIAN_POINT('',(19.6,-13.25,0.));
#1152=CARTESIAN_POINT('',(19.6,-13.25,0.));
#1153=CARTESIAN_POINT('Origin',(19.6,13.25,0.));
#1154=CARTESIAN_POINT('',(19.6,13.25,0.));
#1155=CARTESIAN_POINT('Origin',(9.57142174731737E-16,20.5,0.));
#1156=CARTESIAN_POINT('',(-1.25,20.5,0.));
#1157=CARTESIAN_POINT('',(-1.25,20.5,0.));
#1158=CARTESIAN_POINT('Origin',(9.57142174731737E-16,20.5,0.));
#1159=CARTESIAN_POINT('Origin',(15.,-20.5,0.));
#1160=CARTESIAN_POINT('',(13.75,-20.5,0.));
#1161=CARTESIAN_POINT('',(13.75,-20.5,0.));
#1162=CARTESIAN_POINT('Origin',(15.,-20.5,0.));
#1163=CARTESIAN_POINT('Origin',(15.,8.88178419700125E-15,0.));
#1164=UNCERTAINTY_MEASURE_WITH_UNIT(LENGTH_MEASURE(0.01),#1168,
'DISTANCE_ACCURACY_VALUE',
'Maximum model space distance between geometric entities at asserted c
onnectivities');
#1165=UNCERTAINTY_MEASURE_WITH_UNIT(LENGTH_MEASURE(0.01),#1168,
'DISTANCE_ACCURACY_VALUE',
'Maximum model space distance between geometric entities at asserted c
onnectivities');
#1166=(
GEOMETRIC_REPRESENTATION_CONTEXT(3)
GLOBAL_UNCERTAINTY_ASSIGNED_CONTEXT((#1164))
GLOBAL_UNIT_ASSIGNED_CONTEXT((#1168,#1170,#1171))
REPRESENTATION_CONTEXT('','3D')
);
#1167=(
GEOMETRIC_REPRESENTATION_CONTEXT(3)
GLOBAL_UNCERTAINTY_ASSIGNED_CONTEXT((#1165))
GLOBAL_UNIT_ASSIGNED_CONTEXT((#1168,#1170,#1171))
REPRESENTATION_CONTEXT('','3D')
);
#1168=(
LENGTH_UNIT()
NAMED_UNIT(*)
SI_UNIT(.MILLI.,.METRE.)
);
#1169=(
LENGTH_UNIT()
NAMED_UNIT(*)
SI_UNIT($,.METRE.)
);
#1170=(
NAMED_UNIT(*)
PLANE_ANGLE_UNIT()
SI_UNIT($,.RADIAN.)
);
#1171=(
NAMED_UNIT(*)
SI_UNIT($,.STERADIAN.)
SOLID_ANGLE_UNIT()
);
#1172=SHAPE_DEFINITION_REPRESENTATION(#1173,#1174);
#1173=PRODUCT_DEFINITION_SHAPE('',$,#1176);
#1174=SHAPE_REPRESENTATION('',(#736),#1166);
#1175=PRODUCT_DEFINITION_CONTEXT('part definition',#1180,'design');
#1176=PRODUCT_DEFINITION('WhisperValve_Holder','WhisperValve_Holder',#1177,
#1175);
#1177=PRODUCT_DEFINITION_FORMATION('',$,#1182);
#1178=PRODUCT_RELATED_PRODUCT_CATEGORY('WhisperValve_Holder',
'WhisperValve_Holder',(#1182));
#1179=APPLICATION_PROTOCOL_DEFINITION('international standard',
'automotive_design',2009,#1180);
#1180=APPLICATION_CONTEXT(
'Core Data for Automotive Mechanical Design Process');
#1181=PRODUCT_CONTEXT('part definition',#1180,'mechanical');
#1182=PRODUCT('WhisperValve_Holder','WhisperValve_Holder',$,(#1181));
#1183=PRESENTATION_STYLE_ASSIGNMENT((#1184));
#1184=SURFACE_STYLE_USAGE(.BOTH.,#1185);
#1185=SURFACE_SIDE_STYLE('',(#1186));
#1186=SURFACE_STYLE_FILL_AREA(#1187);
#1187=FILL_AREA_STYLE('Steel - Satin',(#1188));
#1188=FILL_AREA_STYLE_COLOUR('Steel - Satin',#1189);
#1189=COLOUR_RGB('Steel - Satin',0.627450980392157,0.627450980392157,0.627450980392157);
ENDSEC;
END-ISO-10303-21;
